%FSLAX45Y45*%
G04 Gerber Fmt 4.5, Leading zero omitted, Abs format (unit mm)*
G04 Created by KiCad (PCBNEW (6.0.4-0)) date 2024-04-11 20:32:29*
%MOMM*%
%LPD*%
G01*
G04 APERTURE LIST*
%TA.AperFunction,Profile*%
%ADD10C,0.100000*%
%TD*%
%ADD11C,0.200000*%
%ADD12C,0.040000*%
%ADD13C,0.050000*%
%ADD14C,0.060000*%
%ADD15C,0.065000*%
%ADD16C,0.070000*%
%ADD17C,0.080000*%
%ADD18C,0.100000*%
%ADD19C,0.160000*%
%ADD20C,0.175000*%
%ADD21C,0.210000*%
%ADD22C,0.260000*%
G04 APERTURE END LIST*
D10*
X7726500Y-7635000D02*
X7961000Y-7401200D01*
X20826750Y-11836000D02*
X21061500Y-11602100D01*
X7959900Y-11836000D02*
X20826750Y-11836000D01*
X7959900Y-11836000D02*
X7726500Y-11601750D01*
X7726500Y-7635000D02*
X7726500Y-11601750D01*
X21061500Y-7635125D02*
X20828300Y-7401200D01*
X21061500Y-7635125D02*
X21061500Y-11602100D01*
X7961000Y-7401200D02*
X20828300Y-7401200D01*
D11*
D12*
X9038000Y-8645000D02*
X9078000Y-8685000D01*
X9078000Y-8645000D02*
X9038000Y-8685000D01*
X9038000Y-8821000D02*
X9078000Y-8861000D01*
X9078000Y-8821000D02*
X9038000Y-8861000D01*
X9050000Y-8436000D02*
X9090000Y-8476000D01*
X9090000Y-8436000D02*
X9050000Y-8476000D01*
X9229000Y-10802000D02*
X9269000Y-10842000D01*
X9269000Y-10802000D02*
X9229000Y-10842000D01*
X9414000Y-10730000D02*
X9454000Y-10770000D01*
X9454000Y-10730000D02*
X9414000Y-10770000D01*
X9421770Y-10370770D02*
X9461770Y-10410770D01*
X9461770Y-10370770D02*
X9421770Y-10410770D01*
X9919999Y-9603000D02*
X9959999Y-9643000D01*
X9959999Y-9603000D02*
X9919999Y-9643000D01*
X9922000Y-10815000D02*
X9962000Y-10855000D01*
X9962000Y-10815000D02*
X9922000Y-10855000D01*
X9991000Y-10405000D02*
X10031000Y-10445000D01*
X10031000Y-10405000D02*
X9991000Y-10445000D01*
X10108000Y-10442000D02*
X10148000Y-10482000D01*
X10148000Y-10442000D02*
X10108000Y-10482000D01*
X10144000Y-9603000D02*
X10184000Y-9643000D01*
X10184000Y-9603000D02*
X10144000Y-9643000D01*
X10379000Y-9524000D02*
X10419000Y-9564000D01*
X10419000Y-9524000D02*
X10379000Y-9564000D01*
X10415000Y-11336000D02*
X10455000Y-11376000D01*
X10455000Y-11336000D02*
X10415000Y-11376000D01*
X10570000Y-11277000D02*
X10610000Y-11317000D01*
X10610000Y-11277000D02*
X10570000Y-11317000D01*
X10623000Y-10654000D02*
X10663000Y-10694000D01*
X10663000Y-10654000D02*
X10623000Y-10694000D01*
X10631000Y-9522000D02*
X10671000Y-9562000D01*
X10671000Y-9522000D02*
X10631000Y-9562000D01*
X10638000Y-11151000D02*
X10678000Y-11191000D01*
X10678000Y-11151000D02*
X10638000Y-11191000D01*
X10722000Y-10591450D02*
X10762000Y-10631450D01*
X10762000Y-10591450D02*
X10722000Y-10631450D01*
X10751000Y-11151000D02*
X10791000Y-11191000D01*
X10791000Y-11151000D02*
X10751000Y-11191000D01*
X10863000Y-9469000D02*
X10903000Y-9509000D01*
X10903000Y-9469000D02*
X10863000Y-9509000D01*
X10988000Y-10969000D02*
X11028000Y-11009000D01*
X11028000Y-10969000D02*
X10988000Y-11009000D01*
X11021000Y-10413000D02*
X11061000Y-10453000D01*
X11061000Y-10413000D02*
X11021000Y-10453000D01*
X11057422Y-11602165D02*
X11097422Y-11642165D01*
X11097422Y-11602165D02*
X11057422Y-11642165D01*
X11117000Y-9356000D02*
X11157000Y-9396000D01*
X11157000Y-9356000D02*
X11117000Y-9396000D01*
X11205000Y-10216000D02*
X11245000Y-10256000D01*
X11245000Y-10216000D02*
X11205000Y-10256000D01*
X11378000Y-10129000D02*
X11418000Y-10169000D01*
X11418000Y-10129000D02*
X11378000Y-10169000D01*
X11383000Y-7478598D02*
X11423000Y-7518598D01*
X11423000Y-7478598D02*
X11383000Y-7518598D01*
X11405000Y-11144000D02*
X11445000Y-11184000D01*
X11445000Y-11144000D02*
X11405000Y-11184000D01*
X11416420Y-10497461D02*
X11456420Y-10537461D01*
X11456420Y-10497461D02*
X11416420Y-10537461D01*
X11495000Y-11204000D02*
X11535000Y-11244000D01*
X11535000Y-11204000D02*
X11495000Y-11244000D01*
X11558000Y-7478598D02*
X11598000Y-7518598D01*
X11598000Y-7478598D02*
X11558000Y-7518598D01*
X11570000Y-10045000D02*
X11610000Y-10085000D01*
X11610000Y-10045000D02*
X11570000Y-10085000D01*
X11616000Y-10339000D02*
X11656000Y-10379000D01*
X11656000Y-10339000D02*
X11616000Y-10379000D01*
X11696000Y-10271000D02*
X11736000Y-10311000D01*
X11736000Y-10271000D02*
X11696000Y-10311000D01*
X11711000Y-10131000D02*
X11751000Y-10171000D01*
X11751000Y-10131000D02*
X11711000Y-10171000D01*
X11733000Y-7478598D02*
X11773000Y-7518598D01*
X11773000Y-7478598D02*
X11733000Y-7518598D01*
X12060000Y-11075000D02*
X12100000Y-11115000D01*
X12100000Y-11075000D02*
X12060000Y-11115000D01*
X12060000Y-11245000D02*
X12100000Y-11285000D01*
X12100000Y-11245000D02*
X12060000Y-11285000D01*
X12203000Y-9875000D02*
X12243000Y-9915000D01*
X12243000Y-9875000D02*
X12203000Y-9915000D01*
X12260366Y-10505199D02*
X12300366Y-10545199D01*
X12300366Y-10505199D02*
X12260366Y-10545199D01*
X12355000Y-11384000D02*
X12395000Y-11424000D01*
X12395000Y-11384000D02*
X12355000Y-11424000D01*
X12377000Y-9922000D02*
X12417000Y-9962000D01*
X12417000Y-9922000D02*
X12377000Y-9962000D01*
X12434000Y-7821000D02*
X12474000Y-7861000D01*
X12474000Y-7821000D02*
X12434000Y-7861000D01*
X12472735Y-9205734D02*
X12512735Y-9245734D01*
X12512735Y-9205734D02*
X12472735Y-9245734D01*
X12494026Y-8813901D02*
X12534026Y-8853901D01*
X12534026Y-8813901D02*
X12494026Y-8853901D01*
X12496000Y-8943000D02*
X12536000Y-8983000D01*
X12536000Y-8943000D02*
X12496000Y-8983000D01*
X12547000Y-8669000D02*
X12587000Y-8709000D01*
X12587000Y-8669000D02*
X12547000Y-8709000D01*
X12565000Y-10608000D02*
X12605000Y-10648000D01*
X12605000Y-10608000D02*
X12565000Y-10648000D01*
X12568000Y-10048000D02*
X12608000Y-10088000D01*
X12608000Y-10048000D02*
X12568000Y-10088000D01*
X12569000Y-11350000D02*
X12609000Y-11390000D01*
X12609000Y-11350000D02*
X12569000Y-11390000D01*
X12594000Y-8815000D02*
X12634000Y-8855000D01*
X12634000Y-8815000D02*
X12594000Y-8855000D01*
X12623000Y-9564000D02*
X12663000Y-9604000D01*
X12663000Y-9564000D02*
X12623000Y-9604000D01*
X12665000Y-7820000D02*
X12705000Y-7860000D01*
X12705000Y-7820000D02*
X12665000Y-7860000D01*
X12721000Y-10738000D02*
X12761000Y-10778000D01*
X12761000Y-10738000D02*
X12721000Y-10778000D01*
X12729000Y-9499000D02*
X12769000Y-9539000D01*
X12769000Y-9499000D02*
X12729000Y-9539000D01*
X12745000Y-8281000D02*
X12785000Y-8321000D01*
X12785000Y-8281000D02*
X12745000Y-8321000D01*
X12765000Y-11350000D02*
X12805000Y-11390000D01*
X12805000Y-11350000D02*
X12765000Y-11390000D01*
X12771892Y-9390356D02*
X12811892Y-9430356D01*
X12811892Y-9390356D02*
X12771892Y-9430356D01*
X12785000Y-8813901D02*
X12825000Y-8853901D01*
X12825000Y-8813901D02*
X12785000Y-8853901D01*
X12786000Y-8435000D02*
X12826000Y-8475000D01*
X12826000Y-8435000D02*
X12786000Y-8475000D01*
X12842000Y-10366000D02*
X12882000Y-10406000D01*
X12882000Y-10366000D02*
X12842000Y-10406000D01*
X12844000Y-9182000D02*
X12884000Y-9222000D01*
X12884000Y-9182000D02*
X12844000Y-9222000D01*
X12858795Y-9340980D02*
X12898795Y-9380980D01*
X12898795Y-9340980D02*
X12858795Y-9380980D01*
X12877000Y-10132000D02*
X12917000Y-10172000D01*
X12917000Y-10132000D02*
X12877000Y-10172000D01*
X12896734Y-11204265D02*
X12936734Y-11244265D01*
X12936734Y-11204265D02*
X12896734Y-11244265D01*
X12915000Y-7818200D02*
X12955000Y-7858200D01*
X12955000Y-7818200D02*
X12915000Y-7858200D01*
X12917000Y-9800499D02*
X12957000Y-9840499D01*
X12957000Y-9800499D02*
X12917000Y-9840499D01*
X12944000Y-10553450D02*
X12984000Y-10593450D01*
X12984000Y-10553450D02*
X12944000Y-10593450D01*
X12957000Y-7513501D02*
X12997000Y-7553501D01*
X12997000Y-7513501D02*
X12957000Y-7553501D01*
X12974000Y-11352000D02*
X13014000Y-11392000D01*
X13014000Y-11352000D02*
X12974000Y-11392000D01*
X13011550Y-8409000D02*
X13051550Y-8449000D01*
X13051550Y-8409000D02*
X13011550Y-8449000D01*
X13032000Y-11118000D02*
X13072000Y-11158000D01*
X13072000Y-11118000D02*
X13032000Y-11158000D01*
X13038750Y-9001750D02*
X13078750Y-9041750D01*
X13078750Y-9001750D02*
X13038750Y-9041750D01*
X13040550Y-11002000D02*
X13080550Y-11042000D01*
X13080550Y-11002000D02*
X13040550Y-11042000D01*
X13097000Y-9883000D02*
X13137000Y-9923000D01*
X13137000Y-9883000D02*
X13097000Y-9923000D01*
X13116000Y-10027000D02*
X13156000Y-10067000D01*
X13156000Y-10027000D02*
X13116000Y-10067000D01*
X13129730Y-10190270D02*
X13169730Y-10230270D01*
X13169730Y-10190270D02*
X13129730Y-10230270D01*
X13135000Y-7513501D02*
X13175000Y-7553501D01*
X13175000Y-7513501D02*
X13135000Y-7553501D01*
X13171000Y-10726000D02*
X13211000Y-10766000D01*
X13211000Y-10726000D02*
X13171000Y-10766000D01*
X13186000Y-8383000D02*
X13226000Y-8423000D01*
X13226000Y-8383000D02*
X13186000Y-8423000D01*
X13294000Y-8356000D02*
X13334000Y-8396000D01*
X13334000Y-8356000D02*
X13294000Y-8396000D01*
X13335000Y-7513501D02*
X13375000Y-7553501D01*
X13375000Y-7513501D02*
X13335000Y-7553501D01*
X13341230Y-9161770D02*
X13381230Y-9201770D01*
X13381230Y-9161770D02*
X13341230Y-9201770D01*
X13372000Y-7818200D02*
X13412000Y-7858200D01*
X13412000Y-7818200D02*
X13372000Y-7858200D01*
X13382000Y-10889000D02*
X13422000Y-10929000D01*
X13422000Y-10889000D02*
X13382000Y-10929000D01*
X13385000Y-10304000D02*
X13425000Y-10344000D01*
X13425000Y-10304000D02*
X13385000Y-10344000D01*
X13387000Y-10161000D02*
X13427000Y-10201000D01*
X13427000Y-10161000D02*
X13387000Y-10201000D01*
X13402000Y-8813901D02*
X13442000Y-8853901D01*
X13442000Y-8813901D02*
X13402000Y-8853901D01*
X13466998Y-8330614D02*
X13506998Y-8370614D01*
X13506998Y-8330614D02*
X13466998Y-8370614D01*
X13472000Y-11317000D02*
X13512000Y-11357000D01*
X13512000Y-11317000D02*
X13472000Y-11357000D01*
X13480000Y-9194000D02*
X13520000Y-9234000D01*
X13520000Y-9194000D02*
X13480000Y-9234000D01*
X13481000Y-8136000D02*
X13521000Y-8176000D01*
X13521000Y-8136000D02*
X13481000Y-8176000D01*
X13499000Y-8815450D02*
X13539000Y-8855450D01*
X13539000Y-8815450D02*
X13499000Y-8855450D01*
X13525000Y-7513501D02*
X13565000Y-7553501D01*
X13565000Y-7513501D02*
X13525000Y-7553501D01*
X13534000Y-10895000D02*
X13574000Y-10935000D01*
X13574000Y-10895000D02*
X13534000Y-10935000D01*
X13578000Y-11405849D02*
X13618000Y-11445849D01*
X13618000Y-11405849D02*
X13578000Y-11445849D01*
X13665000Y-9206000D02*
X13705000Y-9246000D01*
X13705000Y-9206000D02*
X13665000Y-9246000D01*
X13669000Y-7813000D02*
X13709000Y-7853000D01*
X13709000Y-7813000D02*
X13669000Y-7853000D01*
X13675000Y-8523000D02*
X13715000Y-8563000D01*
X13715000Y-8523000D02*
X13675000Y-8563000D01*
X13685000Y-11550749D02*
X13725000Y-11590749D01*
X13725000Y-11550749D02*
X13685000Y-11590749D01*
X13703000Y-9413430D02*
X13743000Y-9453430D01*
X13743000Y-9413430D02*
X13703000Y-9453430D01*
X13704000Y-9524550D02*
X13744000Y-9564550D01*
X13744000Y-9524550D02*
X13704000Y-9564550D01*
X13708000Y-9800499D02*
X13748000Y-9840499D01*
X13748000Y-9800499D02*
X13708000Y-9840499D01*
X13735000Y-7513501D02*
X13775000Y-7553501D01*
X13775000Y-7513501D02*
X13735000Y-7553501D01*
X13747450Y-9008000D02*
X13787450Y-9048000D01*
X13787450Y-9008000D02*
X13747450Y-9048000D01*
X13760000Y-10637000D02*
X13800000Y-10677000D01*
X13800000Y-10637000D02*
X13760000Y-10677000D01*
X13844000Y-9208550D02*
X13884000Y-9248550D01*
X13884000Y-9208550D02*
X13844000Y-9248550D01*
X13855000Y-9413430D02*
X13895000Y-9453430D01*
X13895000Y-9413430D02*
X13855000Y-9453430D01*
X13866000Y-9810000D02*
X13906000Y-9850000D01*
X13906000Y-9810000D02*
X13866000Y-9850000D01*
X13887000Y-11405849D02*
X13927000Y-11445849D01*
X13927000Y-11405849D02*
X13887000Y-11445849D01*
X13888770Y-8302770D02*
X13928770Y-8342770D01*
X13928770Y-8302770D02*
X13888770Y-8342770D01*
X13931000Y-10656000D02*
X13971000Y-10696000D01*
X13971000Y-10656000D02*
X13931000Y-10696000D01*
X13942000Y-8965000D02*
X13982000Y-9005000D01*
X13982000Y-8965000D02*
X13942000Y-9005000D01*
X13997000Y-8185000D02*
X14037000Y-8225000D01*
X14037000Y-8185000D02*
X13997000Y-8225000D01*
X14000000Y-7815000D02*
X14040000Y-7855000D01*
X14040000Y-7815000D02*
X14000000Y-7855000D01*
X14046000Y-9203000D02*
X14086000Y-9243000D01*
X14086000Y-9203000D02*
X14046000Y-9243000D01*
X14069000Y-11312000D02*
X14109000Y-11352000D01*
X14109000Y-11312000D02*
X14069000Y-11352000D01*
X14108000Y-10508000D02*
X14148000Y-10548000D01*
X14148000Y-10508000D02*
X14108000Y-10548000D01*
X14109081Y-10298072D02*
X14149081Y-10338072D01*
X14149081Y-10298072D02*
X14109081Y-10338072D01*
X14204000Y-11042000D02*
X14244000Y-11082000D01*
X14244000Y-11042000D02*
X14204000Y-11082000D01*
X14206000Y-10803000D02*
X14246000Y-10843000D01*
X14246000Y-10803000D02*
X14206000Y-10843000D01*
X14253000Y-9127000D02*
X14293000Y-9167000D01*
X14293000Y-9127000D02*
X14253000Y-9167000D01*
X14270000Y-10403000D02*
X14310000Y-10443000D01*
X14310000Y-10403000D02*
X14270000Y-10443000D01*
X14278000Y-10158000D02*
X14318000Y-10198000D01*
X14318000Y-10158000D02*
X14278000Y-10198000D01*
X14290000Y-8819000D02*
X14330000Y-8859000D01*
X14330000Y-8819000D02*
X14290000Y-8859000D01*
X14292765Y-9671550D02*
X14332765Y-9711550D01*
X14332765Y-9671550D02*
X14292765Y-9711550D01*
X14383000Y-9494000D02*
X14423000Y-9534000D01*
X14423000Y-9494000D02*
X14383000Y-9534000D01*
X14424000Y-8720354D02*
X14464000Y-8760354D01*
X14464000Y-8720354D02*
X14424000Y-8760354D01*
X14498084Y-9715549D02*
X14538084Y-9755549D01*
X14538084Y-9715549D02*
X14498084Y-9755549D01*
X14515000Y-9942050D02*
X14555000Y-9982050D01*
X14555000Y-9942050D02*
X14515000Y-9982050D01*
X14516000Y-10639000D02*
X14556000Y-10679000D01*
X14556000Y-10639000D02*
X14516000Y-10679000D01*
X14615002Y-9920860D02*
X14655002Y-9960860D01*
X14655002Y-9920860D02*
X14615002Y-9960860D01*
X14616000Y-8720354D02*
X14656000Y-8760354D01*
X14656000Y-8720354D02*
X14616000Y-8760354D01*
X14658000Y-10662000D02*
X14698000Y-10702000D01*
X14698000Y-10662000D02*
X14658000Y-10702000D01*
X14782000Y-10547000D02*
X14822000Y-10587000D01*
X14822000Y-10547000D02*
X14782000Y-10587000D01*
X14783000Y-8811000D02*
X14823000Y-8851000D01*
X14823000Y-8811000D02*
X14783000Y-8851000D01*
X14784039Y-10702039D02*
X14824039Y-10742039D01*
X14824039Y-10702039D02*
X14784039Y-10742039D01*
X14794000Y-9959000D02*
X14834000Y-9999000D01*
X14834000Y-9959000D02*
X14794000Y-9999000D01*
X14795000Y-8405000D02*
X14835000Y-8445000D01*
X14835000Y-8405000D02*
X14795000Y-8445000D01*
X14848033Y-8959646D02*
X14888033Y-8999646D01*
X14888033Y-8959646D02*
X14848033Y-8999646D01*
X14857000Y-8720354D02*
X14897000Y-8760354D01*
X14897000Y-8720354D02*
X14857000Y-8760354D01*
X14877000Y-9077598D02*
X14917000Y-9117598D01*
X14917000Y-9077598D02*
X14877000Y-9117598D01*
X14896550Y-9974266D02*
X14936550Y-10014266D01*
X14936550Y-9974266D02*
X14896550Y-10014266D01*
X14896550Y-10143960D02*
X14936550Y-10183960D01*
X14936550Y-10143960D02*
X14896550Y-10183960D01*
X14919000Y-9739000D02*
X14959000Y-9779000D01*
X14959000Y-9739000D02*
X14919000Y-9779000D01*
X14927000Y-7949000D02*
X14967000Y-7989000D01*
X14967000Y-7949000D02*
X14927000Y-7989000D01*
X14928500Y-10915000D02*
X14968500Y-10955000D01*
X14968500Y-10915000D02*
X14928500Y-10955000D01*
X14933253Y-9471609D02*
X14973253Y-9511609D01*
X14973253Y-9471609D02*
X14933253Y-9511609D01*
X14935000Y-10756000D02*
X14975000Y-10796000D01*
X14975000Y-10756000D02*
X14935000Y-10796000D01*
X14937000Y-8131000D02*
X14977000Y-8171000D01*
X14977000Y-8131000D02*
X14937000Y-8171000D01*
X14953000Y-8306000D02*
X14993000Y-8346000D01*
X14993000Y-8306000D02*
X14953000Y-8346000D01*
X14993000Y-11629000D02*
X15033000Y-11669000D01*
X15033000Y-11629000D02*
X14993000Y-11669000D01*
X15039267Y-9888302D02*
X15079267Y-9928302D01*
X15079267Y-9888302D02*
X15039267Y-9928302D01*
X15058000Y-10155000D02*
X15098000Y-10195000D01*
X15098000Y-10155000D02*
X15058000Y-10195000D01*
X15067000Y-9602000D02*
X15107000Y-9642000D01*
X15107000Y-9602000D02*
X15067000Y-9642000D01*
X15082000Y-10321000D02*
X15122000Y-10361000D01*
X15122000Y-10321000D02*
X15082000Y-10361000D01*
X15117000Y-9379000D02*
X15157000Y-9419000D01*
X15157000Y-9379000D02*
X15117000Y-9419000D01*
X15128000Y-8952450D02*
X15168000Y-8992450D01*
X15168000Y-8952450D02*
X15128000Y-8992450D01*
X15181000Y-9698000D02*
X15221000Y-9738000D01*
X15221000Y-9698000D02*
X15181000Y-9738000D01*
X15210000Y-11629000D02*
X15250000Y-11669000D01*
X15250000Y-11629000D02*
X15210000Y-11669000D01*
X15246000Y-9493000D02*
X15286000Y-9533000D01*
X15286000Y-9493000D02*
X15246000Y-9533000D01*
X15262000Y-8952450D02*
X15302000Y-8992450D01*
X15302000Y-8952450D02*
X15262000Y-8992450D01*
X15291770Y-9790230D02*
X15331770Y-9830230D01*
X15331770Y-9790230D02*
X15291770Y-9830230D01*
X15348000Y-8720354D02*
X15388000Y-8760354D01*
X15388000Y-8720354D02*
X15348000Y-8760354D01*
X15393000Y-11629000D02*
X15433000Y-11669000D01*
X15433000Y-11629000D02*
X15393000Y-11669000D01*
X15394000Y-9000000D02*
X15434000Y-9040000D01*
X15434000Y-9000000D02*
X15394000Y-9040000D01*
X15412480Y-11298520D02*
X15452480Y-11338520D01*
X15452480Y-11298520D02*
X15412480Y-11338520D01*
X15415270Y-9913730D02*
X15455270Y-9953730D01*
X15455270Y-9913730D02*
X15415270Y-9953730D01*
X15427000Y-9160000D02*
X15467000Y-9200000D01*
X15467000Y-9160000D02*
X15427000Y-9200000D01*
X15427000Y-9659000D02*
X15467000Y-9699000D01*
X15467000Y-9659000D02*
X15427000Y-9699000D01*
X15482000Y-11142000D02*
X15522000Y-11182000D01*
X15522000Y-11142000D02*
X15482000Y-11182000D01*
X15483000Y-7471000D02*
X15523000Y-7511000D01*
X15523000Y-7471000D02*
X15483000Y-7511000D01*
X15509000Y-7950000D02*
X15549000Y-7990000D01*
X15549000Y-7950000D02*
X15509000Y-7990000D01*
X15523000Y-9936000D02*
X15563000Y-9976000D01*
X15563000Y-9936000D02*
X15523000Y-9976000D01*
X15616069Y-9072069D02*
X15656069Y-9112069D01*
X15656069Y-9072069D02*
X15616069Y-9112069D01*
X15667000Y-8042000D02*
X15707000Y-8082000D01*
X15707000Y-8042000D02*
X15667000Y-8082000D01*
X15703059Y-7466050D02*
X15743059Y-7506050D01*
X15743059Y-7466050D02*
X15703059Y-7506050D01*
X15726069Y-8419069D02*
X15766069Y-8459069D01*
X15766069Y-8419069D02*
X15726069Y-8459069D01*
X15753000Y-9170000D02*
X15793000Y-9210000D01*
X15793000Y-9170000D02*
X15753000Y-9210000D01*
X15775000Y-8895000D02*
X15815000Y-8935000D01*
X15815000Y-8895000D02*
X15775000Y-8935000D01*
X15782059Y-8731295D02*
X15822059Y-8771295D01*
X15822059Y-8731295D02*
X15782059Y-8771295D01*
X15805000Y-10318000D02*
X15845000Y-10358000D01*
X15845000Y-10318000D02*
X15805000Y-10358000D01*
X15817000Y-7804000D02*
X15857000Y-7844000D01*
X15857000Y-7804000D02*
X15817000Y-7844000D01*
X15839000Y-8186000D02*
X15879000Y-8226000D01*
X15879000Y-8186000D02*
X15839000Y-8226000D01*
X15843000Y-9086000D02*
X15883000Y-9126000D01*
X15883000Y-9086000D02*
X15843000Y-9126000D01*
X15878000Y-8357000D02*
X15918000Y-8397000D01*
X15918000Y-8357000D02*
X15878000Y-8397000D01*
X15935000Y-7927000D02*
X15975000Y-7967000D01*
X15975000Y-7927000D02*
X15935000Y-7967000D01*
X15986000Y-7466050D02*
X16026000Y-7506050D01*
X16026000Y-7466050D02*
X15986000Y-7506050D01*
X15999000Y-9902000D02*
X16039000Y-9942000D01*
X16039000Y-9902000D02*
X15999000Y-9942000D01*
X16010423Y-7803306D02*
X16050423Y-7843306D01*
X16050423Y-7803306D02*
X16010423Y-7843306D01*
X16021000Y-8004000D02*
X16061000Y-8044000D01*
X16061000Y-8004000D02*
X16021000Y-8044000D01*
X16058189Y-8417099D02*
X16098189Y-8457099D01*
X16098189Y-8417099D02*
X16058189Y-8457099D01*
X16092252Y-7881715D02*
X16132252Y-7921715D01*
X16132252Y-7881715D02*
X16092252Y-7921715D01*
X16127000Y-7788000D02*
X16167000Y-7828000D01*
X16167000Y-7788000D02*
X16127000Y-7828000D01*
X16146000Y-8275000D02*
X16186000Y-8315000D01*
X16186000Y-8275000D02*
X16146000Y-8315000D01*
X16258000Y-7466050D02*
X16298000Y-7506050D01*
X16298000Y-7466050D02*
X16258000Y-7506050D01*
X16278000Y-9939502D02*
X16318000Y-9979502D01*
X16318000Y-9939502D02*
X16278000Y-9979502D01*
X16282000Y-8355000D02*
X16322000Y-8395000D01*
X16322000Y-8355000D02*
X16282000Y-8395000D01*
X16291000Y-8804000D02*
X16331000Y-8844000D01*
X16331000Y-8804000D02*
X16291000Y-8844000D01*
X16338436Y-8891976D02*
X16378436Y-8931976D01*
X16378436Y-8891976D02*
X16338436Y-8931976D01*
X16430000Y-9939502D02*
X16470000Y-9979502D01*
X16470000Y-9939502D02*
X16430000Y-9979502D01*
X16439000Y-8680000D02*
X16479000Y-8720000D01*
X16479000Y-8680000D02*
X16439000Y-8720000D01*
X16481000Y-8544000D02*
X16521000Y-8584000D01*
X16521000Y-8544000D02*
X16481000Y-8584000D01*
X16495431Y-9753569D02*
X16535431Y-9793569D01*
X16535431Y-9753569D02*
X16495431Y-9793569D01*
X16524000Y-7470000D02*
X16564000Y-7510000D01*
X16564000Y-7470000D02*
X16524000Y-7510000D01*
X16601000Y-9554000D02*
X16641000Y-9594000D01*
X16641000Y-9554000D02*
X16601000Y-9594000D01*
X16642000Y-8095000D02*
X16682000Y-8135000D01*
X16682000Y-8095000D02*
X16642000Y-8135000D01*
X16647040Y-9447960D02*
X16687040Y-9487960D01*
X16687040Y-9447960D02*
X16647040Y-9487960D01*
X16678000Y-8369000D02*
X16718000Y-8409000D01*
X16718000Y-8369000D02*
X16678000Y-8409000D01*
X16693000Y-8479000D02*
X16733000Y-8519000D01*
X16733000Y-8479000D02*
X16693000Y-8519000D01*
X16694000Y-8606000D02*
X16734000Y-8646000D01*
X16734000Y-8606000D02*
X16694000Y-8646000D01*
X16696169Y-9671139D02*
X16736169Y-9711139D01*
X16736169Y-9671139D02*
X16696169Y-9711139D01*
X16757000Y-7467000D02*
X16797000Y-7507000D01*
X16797000Y-7467000D02*
X16757000Y-7507000D01*
X16762000Y-9008450D02*
X16802000Y-9048450D01*
X16802000Y-9008450D02*
X16762000Y-9048450D01*
X16841000Y-8393000D02*
X16881000Y-8433000D01*
X16881000Y-8393000D02*
X16841000Y-8433000D01*
X16864000Y-9672050D02*
X16904000Y-9712050D01*
X16904000Y-9672050D02*
X16864000Y-9712050D01*
X16872000Y-10948000D02*
X16912000Y-10988000D01*
X16912000Y-10948000D02*
X16872000Y-10988000D01*
X16923000Y-10661000D02*
X16963000Y-10701000D01*
X16963000Y-10661000D02*
X16923000Y-10701000D01*
X16956000Y-10215901D02*
X16996000Y-10255901D01*
X16996000Y-10215901D02*
X16956000Y-10255901D01*
X16977000Y-7468050D02*
X17017000Y-7508050D01*
X17017000Y-7468050D02*
X16977000Y-7508050D01*
X16988000Y-8428000D02*
X17028000Y-8468000D01*
X17028000Y-8428000D02*
X16988000Y-8468000D01*
X17004000Y-10369000D02*
X17044000Y-10409000D01*
X17044000Y-10369000D02*
X17004000Y-10409000D01*
X17060450Y-9080550D02*
X17100450Y-9120550D01*
X17100450Y-9080550D02*
X17060450Y-9120550D01*
X17060450Y-9196000D02*
X17100450Y-9236000D01*
X17100450Y-9196000D02*
X17060450Y-9236000D01*
X17070000Y-10814598D02*
X17110000Y-10854598D01*
X17110000Y-10814598D02*
X17070000Y-10854598D01*
X17078999Y-8701540D02*
X17118999Y-8741540D01*
X17118999Y-8701540D02*
X17078999Y-8741540D01*
X17087770Y-9786230D02*
X17127770Y-9826230D01*
X17127770Y-9786230D02*
X17087770Y-9826230D01*
X17125000Y-9336550D02*
X17165000Y-9376550D01*
X17165000Y-9336550D02*
X17125000Y-9376550D01*
X17158000Y-8863550D02*
X17198000Y-8903550D01*
X17198000Y-8863550D02*
X17158000Y-8903550D01*
X17191000Y-7474000D02*
X17231000Y-7514000D01*
X17231000Y-7474000D02*
X17191000Y-7514000D01*
X17214000Y-7813000D02*
X17254000Y-7853000D01*
X17254000Y-7813000D02*
X17214000Y-7853000D01*
X17312000Y-10814598D02*
X17352000Y-10854598D01*
X17352000Y-10814598D02*
X17312000Y-10854598D01*
X17395000Y-7474000D02*
X17435000Y-7514000D01*
X17435000Y-7474000D02*
X17395000Y-7514000D01*
X17410402Y-8849000D02*
X17450402Y-8889000D01*
X17450402Y-8849000D02*
X17410402Y-8889000D01*
X17504270Y-9840270D02*
X17544270Y-9880270D01*
X17544270Y-9840270D02*
X17504270Y-9880270D01*
X17526310Y-8846440D02*
X17566310Y-8886440D01*
X17566310Y-8846440D02*
X17526310Y-8886440D01*
X17542000Y-10814598D02*
X17582000Y-10854598D01*
X17582000Y-10814598D02*
X17542000Y-10854598D01*
X17609770Y-8701540D02*
X17649770Y-8741540D01*
X17649770Y-8701540D02*
X17609770Y-8741540D01*
X17626000Y-7472000D02*
X17666000Y-7512000D01*
X17666000Y-7472000D02*
X17626000Y-7512000D01*
X17634000Y-9813000D02*
X17674000Y-9853000D01*
X17674000Y-9813000D02*
X17634000Y-9853000D01*
X17691540Y-9258460D02*
X17731540Y-9298460D01*
X17731540Y-9258460D02*
X17691540Y-9298460D01*
X17707000Y-8471000D02*
X17747000Y-8511000D01*
X17747000Y-8471000D02*
X17707000Y-8511000D01*
X17709000Y-9136450D02*
X17749000Y-9176450D01*
X17749000Y-9136450D02*
X17709000Y-9176450D01*
X17730540Y-9417460D02*
X17770540Y-9457460D01*
X17770540Y-9417460D02*
X17730540Y-9457460D01*
X17813000Y-10815000D02*
X17853000Y-10855000D01*
X17853000Y-10815000D02*
X17813000Y-10855000D01*
X17825000Y-8950461D02*
X17865000Y-8990461D01*
X17865000Y-8950461D02*
X17825000Y-8990461D01*
X17843000Y-10124000D02*
X17883000Y-10164000D01*
X17883000Y-10124000D02*
X17843000Y-10164000D01*
X17879000Y-7472000D02*
X17919000Y-7512000D01*
X17919000Y-7472000D02*
X17879000Y-7512000D01*
X17920000Y-8663000D02*
X17960000Y-8703000D01*
X17960000Y-8663000D02*
X17920000Y-8703000D01*
X17933000Y-8467000D02*
X17973000Y-8507000D01*
X17973000Y-8467000D02*
X17933000Y-8507000D01*
X17998000Y-11000000D02*
X18038000Y-11040000D01*
X18038000Y-11000000D02*
X17998000Y-11040000D01*
X18024540Y-8950460D02*
X18064540Y-8990460D01*
X18064540Y-8950460D02*
X18024540Y-8990460D01*
X18057550Y-10818000D02*
X18097550Y-10858000D01*
X18097550Y-10818000D02*
X18057550Y-10858000D01*
X18065000Y-9502000D02*
X18105000Y-9542000D01*
X18105000Y-9502000D02*
X18065000Y-9542000D01*
X18068000Y-8350000D02*
X18108000Y-8390000D01*
X18108000Y-8350000D02*
X18068000Y-8390000D01*
X18115000Y-7474000D02*
X18155000Y-7514000D01*
X18155000Y-7474000D02*
X18115000Y-7514000D01*
X18124460Y-8952927D02*
X18164460Y-8992927D01*
X18164460Y-8952927D02*
X18124460Y-8992927D01*
X18218000Y-9247000D02*
X18258000Y-9287000D01*
X18258000Y-9247000D02*
X18218000Y-9287000D01*
X18220540Y-9414460D02*
X18260540Y-9454460D01*
X18260540Y-9414460D02*
X18220540Y-9454460D01*
X18223757Y-9007861D02*
X18263757Y-9047861D01*
X18263757Y-9007861D02*
X18223757Y-9047861D01*
X18231730Y-9830730D02*
X18271730Y-9870730D01*
X18271730Y-9830730D02*
X18231730Y-9870730D01*
X18301000Y-10814000D02*
X18341000Y-10854000D01*
X18341000Y-10814000D02*
X18301000Y-10854000D01*
X18333540Y-8405910D02*
X18373540Y-8445910D01*
X18373540Y-8405910D02*
X18333540Y-8445910D01*
X18362000Y-9961000D02*
X18402000Y-10001000D01*
X18402000Y-9961000D02*
X18362000Y-10001000D01*
X18364000Y-7478000D02*
X18404000Y-7518000D01*
X18404000Y-7478000D02*
X18364000Y-7518000D01*
X18448590Y-8482000D02*
X18488590Y-8522000D01*
X18488590Y-8482000D02*
X18448590Y-8522000D01*
X18452000Y-9723000D02*
X18492000Y-9763000D01*
X18492000Y-9723000D02*
X18452000Y-9763000D01*
X18458540Y-8357460D02*
X18498540Y-8397460D01*
X18498540Y-8357460D02*
X18458540Y-8397460D01*
X18472136Y-8874659D02*
X18512136Y-8914659D01*
X18512136Y-8874659D02*
X18472136Y-8914659D01*
X18476000Y-10641000D02*
X18516000Y-10681000D01*
X18516000Y-10641000D02*
X18476000Y-10681000D01*
X18511000Y-9919000D02*
X18551000Y-9959000D01*
X18551000Y-9919000D02*
X18511000Y-9959000D01*
X18516155Y-8964393D02*
X18556155Y-9004393D01*
X18556155Y-8964393D02*
X18516155Y-9004393D01*
X18526000Y-9130910D02*
X18566000Y-9170910D01*
X18566000Y-9130910D02*
X18526000Y-9170910D01*
X18534931Y-8431649D02*
X18574931Y-8471649D01*
X18574931Y-8431649D02*
X18534931Y-8471649D01*
X18595999Y-9236550D02*
X18635999Y-9276550D01*
X18635999Y-9236550D02*
X18595999Y-9276550D01*
X18605000Y-7478000D02*
X18645000Y-7518000D01*
X18645000Y-7478000D02*
X18605000Y-7518000D01*
X18698479Y-9432450D02*
X18738479Y-9472450D01*
X18738479Y-9432450D02*
X18698479Y-9472450D01*
X18701001Y-10002050D02*
X18741001Y-10042050D01*
X18741001Y-10002050D02*
X18701001Y-10042050D01*
X18701001Y-10634000D02*
X18741001Y-10674000D01*
X18741001Y-10634000D02*
X18701001Y-10674000D01*
X18733598Y-9077000D02*
X18773598Y-9117000D01*
X18773598Y-9077000D02*
X18733598Y-9117000D01*
X18850000Y-7475000D02*
X18890000Y-7515000D01*
X18890000Y-7475000D02*
X18850000Y-7515000D01*
X18869000Y-10411000D02*
X18909000Y-10451000D01*
X18909000Y-10411000D02*
X18869000Y-10451000D01*
X18888000Y-8933000D02*
X18928000Y-8973000D01*
X18928000Y-8933000D02*
X18888000Y-8973000D01*
X18899000Y-9766920D02*
X18939000Y-9806920D01*
X18939000Y-9766920D02*
X18899000Y-9806920D01*
X18899000Y-9970000D02*
X18939000Y-10010000D01*
X18939000Y-9970000D02*
X18899000Y-10010000D01*
X18904000Y-10263000D02*
X18944000Y-10303000D01*
X18944000Y-10263000D02*
X18904000Y-10303000D01*
X18918000Y-10641000D02*
X18958000Y-10681000D01*
X18958000Y-10641000D02*
X18918000Y-10681000D01*
X18966099Y-8701540D02*
X19006099Y-8741540D01*
X19006099Y-8701540D02*
X18966099Y-8741540D01*
X18990000Y-9401000D02*
X19030000Y-9441000D01*
X19030000Y-9401000D02*
X18990000Y-9441000D01*
X18997000Y-9153000D02*
X19037000Y-9193000D01*
X19037000Y-9153000D02*
X18997000Y-9193000D01*
X19040000Y-10126000D02*
X19080000Y-10166000D01*
X19080000Y-10126000D02*
X19040000Y-10166000D01*
X19053000Y-7478000D02*
X19093000Y-7518000D01*
X19093000Y-7478000D02*
X19053000Y-7518000D01*
X19191000Y-10653000D02*
X19231000Y-10693000D01*
X19231000Y-10653000D02*
X19191000Y-10693000D01*
X19194000Y-9976000D02*
X19234000Y-10016000D01*
X19234000Y-9976000D02*
X19194000Y-10016000D01*
X19200000Y-10409000D02*
X19240000Y-10449000D01*
X19240000Y-10409000D02*
X19200000Y-10449000D01*
X19243000Y-8411000D02*
X19283000Y-8451000D01*
X19283000Y-8411000D02*
X19243000Y-8451000D01*
X19309000Y-7484000D02*
X19349000Y-7524000D01*
X19349000Y-7484000D02*
X19309000Y-7524000D01*
X19367000Y-8611000D02*
X19407000Y-8651000D01*
X19407000Y-8611000D02*
X19367000Y-8651000D01*
X19388000Y-8846440D02*
X19428000Y-8886440D01*
X19428000Y-8846440D02*
X19388000Y-8886440D01*
X19421000Y-9044000D02*
X19461000Y-9084000D01*
X19461000Y-9044000D02*
X19421000Y-9084000D01*
X19440000Y-9233000D02*
X19480000Y-9273000D01*
X19480000Y-9233000D02*
X19440000Y-9273000D01*
X19463000Y-10271000D02*
X19503000Y-10311000D01*
X19503000Y-10271000D02*
X19463000Y-10311000D01*
X19469000Y-10645000D02*
X19509000Y-10685000D01*
X19509000Y-10645000D02*
X19469000Y-10685000D01*
X19524000Y-7487000D02*
X19564000Y-7527000D01*
X19564000Y-7487000D02*
X19524000Y-7527000D01*
X19535000Y-8906000D02*
X19575000Y-8946000D01*
X19575000Y-8906000D02*
X19535000Y-8946000D01*
X19549000Y-7693000D02*
X19589000Y-7733000D01*
X19589000Y-7693000D02*
X19549000Y-7733000D01*
X19567000Y-8068000D02*
X19607000Y-8108000D01*
X19607000Y-8068000D02*
X19567000Y-8108000D01*
X19567000Y-8275000D02*
X19607000Y-8315000D01*
X19607000Y-8275000D02*
X19567000Y-8315000D01*
X19591000Y-10137000D02*
X19631000Y-10177000D01*
X19631000Y-10137000D02*
X19591000Y-10177000D01*
X19593000Y-9736000D02*
X19633000Y-9776000D01*
X19633000Y-9736000D02*
X19593000Y-9776000D01*
X19593000Y-9933000D02*
X19633000Y-9973000D01*
X19633000Y-9933000D02*
X19593000Y-9973000D01*
X19633050Y-9133000D02*
X19673050Y-9173000D01*
X19673050Y-9133000D02*
X19633050Y-9173000D01*
X19633050Y-9287000D02*
X19673050Y-9327000D01*
X19673050Y-9287000D02*
X19633050Y-9327000D01*
X19718000Y-10073000D02*
X19758000Y-10113000D01*
X19758000Y-10073000D02*
X19718000Y-10113000D01*
X19718000Y-10200000D02*
X19758000Y-10240000D01*
X19758000Y-10200000D02*
X19718000Y-10240000D01*
X19840000Y-7712000D02*
X19880000Y-7752000D01*
X19880000Y-7712000D02*
X19840000Y-7752000D01*
X19885000Y-9687000D02*
X19925000Y-9727000D01*
X19925000Y-9687000D02*
X19885000Y-9727000D01*
X19886000Y-9865000D02*
X19926000Y-9905000D01*
X19926000Y-9865000D02*
X19886000Y-9905000D01*
X19896000Y-9112000D02*
X19936000Y-9152000D01*
X19936000Y-9112000D02*
X19896000Y-9152000D01*
X19904000Y-10913000D02*
X19944000Y-10953000D01*
X19944000Y-10913000D02*
X19904000Y-10953000D01*
X19909000Y-10659000D02*
X19949000Y-10699000D01*
X19949000Y-10659000D02*
X19909000Y-10699000D01*
X19910000Y-10537000D02*
X19950000Y-10577000D01*
X19950000Y-10537000D02*
X19910000Y-10577000D01*
X19915000Y-11095000D02*
X19955000Y-11135000D01*
X19955000Y-11095000D02*
X19915000Y-11135000D01*
X20029000Y-8433000D02*
X20069000Y-8473000D01*
X20069000Y-8433000D02*
X20029000Y-8473000D01*
X20031000Y-8627000D02*
X20071000Y-8667000D01*
X20071000Y-8627000D02*
X20031000Y-8667000D01*
X20038000Y-10205000D02*
X20078000Y-10245000D01*
X20078000Y-10205000D02*
X20038000Y-10245000D01*
X20042000Y-8916000D02*
X20082000Y-8956000D01*
X20082000Y-8916000D02*
X20042000Y-8956000D01*
X20169000Y-9035000D02*
X20209000Y-9075000D01*
X20209000Y-9035000D02*
X20169000Y-9075000D01*
X20180000Y-8137000D02*
X20220000Y-8177000D01*
X20220000Y-8137000D02*
X20180000Y-8177000D01*
X20330000Y-9503000D02*
X20370000Y-9543000D01*
X20370000Y-9503000D02*
X20330000Y-9543000D01*
X20389000Y-8427000D02*
X20429000Y-8467000D01*
X20429000Y-8427000D02*
X20389000Y-8467000D01*
X20423000Y-8224000D02*
X20463000Y-8264000D01*
X20463000Y-8224000D02*
X20423000Y-8264000D01*
X20470000Y-8346000D02*
X20510000Y-8386000D01*
X20510000Y-8346000D02*
X20470000Y-8386000D01*
X20496000Y-11059000D02*
X20536000Y-11099000D01*
X20536000Y-11059000D02*
X20496000Y-11099000D01*
X20587000Y-8666000D02*
X20627000Y-8706000D01*
X20627000Y-8666000D02*
X20587000Y-8706000D01*
X20609000Y-9457000D02*
X20649000Y-9497000D01*
X20649000Y-9457000D02*
X20609000Y-9497000D01*
X20657000Y-8230000D02*
X20697000Y-8270000D01*
X20697000Y-8230000D02*
X20657000Y-8270000D01*
X20727450Y-9735000D02*
X20767450Y-9775000D01*
X20767450Y-9735000D02*
X20727450Y-9775000D01*
X20742000Y-10541000D02*
X20782000Y-10581000D01*
X20782000Y-10541000D02*
X20742000Y-10581000D01*
X20742000Y-10705000D02*
X20782000Y-10745000D01*
X20782000Y-10705000D02*
X20742000Y-10745000D01*
X20816000Y-9433000D02*
X20856000Y-9473000D01*
X20856000Y-9433000D02*
X20816000Y-9473000D01*
X20827339Y-8907652D02*
X20867339Y-8947652D01*
X20867339Y-8907652D02*
X20827339Y-8947652D01*
X20945000Y-9134000D02*
X20985000Y-9174000D01*
X20985000Y-9134000D02*
X20945000Y-9174000D01*
X20952000Y-9529000D02*
X20992000Y-9569000D01*
X20992000Y-9529000D02*
X20952000Y-9569000D01*
X20954000Y-9326000D02*
X20994000Y-9366000D01*
X20994000Y-9326000D02*
X20954000Y-9366000D01*
X20956000Y-9701000D02*
X20996000Y-9741000D01*
X20996000Y-9701000D02*
X20956000Y-9741000D01*
D13*
X7849000Y-8430000D02*
G75*
G03*
X7849000Y-8430000I-25000J0D01*
G01*
X7853000Y-7811000D02*
G75*
G03*
X7853000Y-7811000I-25000J0D01*
G01*
X7853000Y-8127000D02*
G75*
G03*
X7853000Y-8127000I-25000J0D01*
G01*
X7854000Y-10205000D02*
G75*
G03*
X7854000Y-10205000I-25000J0D01*
G01*
X7858000Y-10462000D02*
G75*
G03*
X7858000Y-10462000I-25000J0D01*
G01*
X7858000Y-10731000D02*
G75*
G03*
X7858000Y-10731000I-25000J0D01*
G01*
X7859550Y-8711000D02*
G75*
G03*
X7859550Y-8711000I-25000J0D01*
G01*
X7859550Y-9013000D02*
G75*
G03*
X7859550Y-9013000I-25000J0D01*
G01*
X7859550Y-9315000D02*
G75*
G03*
X7859550Y-9315000I-25000J0D01*
G01*
X7859550Y-9590000D02*
G75*
G03*
X7859550Y-9590000I-25000J0D01*
G01*
X7859550Y-9889000D02*
G75*
G03*
X7859550Y-9889000I-25000J0D01*
G01*
X7862000Y-11032000D02*
G75*
G03*
X7862000Y-11032000I-25000J0D01*
G01*
X7862000Y-11347000D02*
G75*
G03*
X7862000Y-11347000I-25000J0D01*
G01*
X7940000Y-11640000D02*
G75*
G03*
X7940000Y-11640000I-25000J0D01*
G01*
X7970000Y-7594000D02*
G75*
G03*
X7970000Y-7594000I-25000J0D01*
G01*
X8134000Y-9344000D02*
G75*
G03*
X8134000Y-9344000I-25000J0D01*
G01*
X8136000Y-9115000D02*
G75*
G03*
X8136000Y-9115000I-25000J0D01*
G01*
X8136000Y-9890000D02*
G75*
G03*
X8136000Y-9890000I-25000J0D01*
G01*
X8197000Y-11747000D02*
G75*
G03*
X8197000Y-11747000I-25000J0D01*
G01*
X8225000Y-7499000D02*
G75*
G03*
X8225000Y-7499000I-25000J0D01*
G01*
X8292000Y-9265000D02*
G75*
G03*
X8292000Y-9265000I-25000J0D01*
G01*
X8348000Y-9017000D02*
G75*
G03*
X8348000Y-9017000I-25000J0D01*
G01*
X8410000Y-10177000D02*
G75*
G03*
X8410000Y-10177000I-25000J0D01*
G01*
X8428001Y-9940000D02*
G75*
G03*
X8428001Y-9940000I-25000J0D01*
G01*
X8499000Y-11743000D02*
G75*
G03*
X8499000Y-11743000I-25000J0D01*
G01*
X8511000Y-7503000D02*
G75*
G03*
X8511000Y-7503000I-25000J0D01*
G01*
X8792000Y-11739000D02*
G75*
G03*
X8792000Y-11739000I-25000J0D01*
G01*
X8835000Y-7499000D02*
G75*
G03*
X8835000Y-7499000I-25000J0D01*
G01*
X9087000Y-10416000D02*
G75*
G03*
X9087000Y-10416000I-25000J0D01*
G01*
X9090000Y-11739000D02*
G75*
G03*
X9090000Y-11739000I-25000J0D01*
G01*
X9130000Y-7499000D02*
G75*
G03*
X9130000Y-7499000I-25000J0D01*
G01*
X9193050Y-10190185D02*
G75*
G03*
X9193050Y-10190185I-25000J0D01*
G01*
X9273000Y-10404950D02*
G75*
G03*
X9273000Y-10404950I-25000J0D01*
G01*
X9359000Y-11739000D02*
G75*
G03*
X9359000Y-11739000I-25000J0D01*
G01*
X9459000Y-7503000D02*
G75*
G03*
X9459000Y-7503000I-25000J0D01*
G01*
X9516794Y-8886794D02*
G75*
G03*
X9516794Y-8886794I-25000J0D01*
G01*
X9532000Y-8454000D02*
G75*
G03*
X9532000Y-8454000I-25000J0D01*
G01*
X9534000Y-8259000D02*
G75*
G03*
X9534000Y-8259000I-25000J0D01*
G01*
X9636000Y-11742000D02*
G75*
G03*
X9636000Y-11742000I-25000J0D01*
G01*
X9665000Y-8124000D02*
G75*
G03*
X9665000Y-8124000I-25000J0D01*
G01*
X9788000Y-7505000D02*
G75*
G03*
X9788000Y-7505000I-25000J0D01*
G01*
X9829000Y-8239000D02*
G75*
G03*
X9829000Y-8239000I-25000J0D01*
G01*
X9923000Y-11746000D02*
G75*
G03*
X9923000Y-11746000I-25000J0D01*
G01*
X10128000Y-7507000D02*
G75*
G03*
X10128000Y-7507000I-25000J0D01*
G01*
X10149000Y-8547000D02*
G75*
G03*
X10149000Y-8547000I-25000J0D01*
G01*
X10243000Y-11742000D02*
G75*
G03*
X10243000Y-11742000I-25000J0D01*
G01*
X10246253Y-8452253D02*
G75*
G03*
X10246253Y-8452253I-25000J0D01*
G01*
X10359550Y-8321000D02*
G75*
G03*
X10359550Y-8321000I-25000J0D01*
G01*
X10439000Y-7510000D02*
G75*
G03*
X10439000Y-7510000I-25000J0D01*
G01*
X10540000Y-11737000D02*
G75*
G03*
X10540000Y-11737000I-25000J0D01*
G01*
X10768000Y-7510000D02*
G75*
G03*
X10768000Y-7510000I-25000J0D01*
G01*
X10860000Y-11737000D02*
G75*
G03*
X10860000Y-11737000I-25000J0D01*
G01*
X11094000Y-7508000D02*
G75*
G03*
X11094000Y-7508000I-25000J0D01*
G01*
X11129000Y-11734000D02*
G75*
G03*
X11129000Y-11734000I-25000J0D01*
G01*
X11212000Y-8777000D02*
G75*
G03*
X11212000Y-8777000I-25000J0D01*
G01*
X11214000Y-8189000D02*
G75*
G03*
X11214000Y-8189000I-25000J0D01*
G01*
X11215000Y-7741000D02*
G75*
G03*
X11215000Y-7741000I-25000J0D01*
G01*
X11215000Y-7956000D02*
G75*
G03*
X11215000Y-7956000I-25000J0D01*
G01*
X11215000Y-8478000D02*
G75*
G03*
X11215000Y-8478000I-25000J0D01*
G01*
X11789000Y-8266000D02*
G75*
G03*
X11789000Y-8266000I-25000J0D01*
G01*
X11793000Y-8004000D02*
G75*
G03*
X11793000Y-8004000I-25000J0D01*
G01*
X11802000Y-8514000D02*
G75*
G03*
X11802000Y-8514000I-25000J0D01*
G01*
X11805000Y-8759000D02*
G75*
G03*
X11805000Y-8759000I-25000J0D01*
G01*
X12663000Y-7999000D02*
G75*
G03*
X12663000Y-7999000I-25000J0D01*
G01*
X12988000Y-7994000D02*
G75*
G03*
X12988000Y-7994000I-25000J0D01*
G01*
X13118032Y-8835450D02*
G75*
G03*
X13118032Y-8835450I-25000J0D01*
G01*
X13203000Y-8833901D02*
G75*
G03*
X13203000Y-8833901I-25000J0D01*
G01*
X13308975Y-9845527D02*
G75*
G03*
X13308975Y-9845527I-25000J0D01*
G01*
X13310000Y-8002000D02*
G75*
G03*
X13310000Y-8002000I-25000J0D01*
G01*
X13582000Y-7985550D02*
G75*
G03*
X13582000Y-7985550I-25000J0D01*
G01*
X13906000Y-7981000D02*
G75*
G03*
X13906000Y-7981000I-25000J0D01*
G01*
X14250163Y-7985163D02*
G75*
G03*
X14250163Y-7985163I-25000J0D01*
G01*
X14261362Y-8221311D02*
G75*
G03*
X14261362Y-8221311I-25000J0D01*
G01*
X14795000Y-7988000D02*
G75*
G03*
X14795000Y-7988000I-25000J0D01*
G01*
X16389000Y-11422000D02*
G75*
G03*
X16389000Y-11422000I-25000J0D01*
G01*
X16541000Y-11685000D02*
G75*
G03*
X16541000Y-11685000I-25000J0D01*
G01*
X16917000Y-11699000D02*
G75*
G03*
X16917000Y-11699000I-25000J0D01*
G01*
X17301000Y-11699000D02*
G75*
G03*
X17301000Y-11699000I-25000J0D01*
G01*
X17505000Y-9684000D02*
G75*
G03*
X17505000Y-9684000I-25000J0D01*
G01*
X17682000Y-11703000D02*
G75*
G03*
X17682000Y-11703000I-25000J0D01*
G01*
X18012000Y-11699000D02*
G75*
G03*
X18012000Y-11699000I-25000J0D01*
G01*
X18396000Y-11700000D02*
G75*
G03*
X18396000Y-11700000I-25000J0D01*
G01*
X18736000Y-11704000D02*
G75*
G03*
X18736000Y-11704000I-25000J0D01*
G01*
X19113000Y-11700000D02*
G75*
G03*
X19113000Y-11700000I-25000J0D01*
G01*
X19437000Y-11704000D02*
G75*
G03*
X19437000Y-11704000I-25000J0D01*
G01*
X19768000Y-11707000D02*
G75*
G03*
X19768000Y-11707000I-25000J0D01*
G01*
X19825000Y-7502000D02*
G75*
G03*
X19825000Y-7502000I-25000J0D01*
G01*
X20091000Y-11710000D02*
G75*
G03*
X20091000Y-11710000I-25000J0D01*
G01*
X20125000Y-7501000D02*
G75*
G03*
X20125000Y-7501000I-25000J0D01*
G01*
X20416000Y-7501000D02*
G75*
G03*
X20416000Y-7501000I-25000J0D01*
G01*
X20420000Y-11710000D02*
G75*
G03*
X20420000Y-11710000I-25000J0D01*
G01*
X20700000Y-7501000D02*
G75*
G03*
X20700000Y-7501000I-25000J0D01*
G01*
X20707000Y-11710000D02*
G75*
G03*
X20707000Y-11710000I-25000J0D01*
G01*
X20888000Y-11607000D02*
G75*
G03*
X20888000Y-11607000I-25000J0D01*
G01*
X20902000Y-7610000D02*
G75*
G03*
X20902000Y-7610000I-25000J0D01*
G01*
X20987000Y-7892000D02*
G75*
G03*
X20987000Y-7892000I-25000J0D01*
G01*
X20988000Y-10893000D02*
G75*
G03*
X20988000Y-10893000I-25000J0D01*
G01*
X20989000Y-8393000D02*
G75*
G03*
X20989000Y-8393000I-25000J0D01*
G01*
X20990000Y-8132000D02*
G75*
G03*
X20990000Y-8132000I-25000J0D01*
G01*
X20991000Y-11164000D02*
G75*
G03*
X20991000Y-11164000I-25000J0D01*
G01*
X20991000Y-11441000D02*
G75*
G03*
X20991000Y-11441000I-25000J0D01*
G01*
D14*
X12690500Y-7497500D02*
X12690500Y-7557500D01*
X12660500Y-7527500D02*
X12720500Y-7527500D01*
X12703500Y-11550750D02*
X12703500Y-11610750D01*
X12673500Y-11580750D02*
X12733500Y-11580750D01*
X12703500Y-11677750D02*
X12703500Y-11737750D01*
X12673500Y-11707750D02*
X12733500Y-11707750D01*
X12817500Y-7497500D02*
X12817500Y-7557500D01*
X12787500Y-7527500D02*
X12847500Y-7527500D01*
X14782750Y-7493500D02*
X14782750Y-7553500D01*
X14752750Y-7523500D02*
X14812750Y-7523500D01*
X14793000Y-11554000D02*
X14793000Y-11614000D01*
X14763000Y-11584000D02*
X14823000Y-11584000D01*
X14793000Y-11681000D02*
X14793000Y-11741000D01*
X14763000Y-11711000D02*
X14823000Y-11711000D01*
X14909750Y-7493500D02*
X14909750Y-7553500D01*
X14879750Y-7523500D02*
X14939750Y-7523500D01*
D15*
X8904981Y-8174981D02*
X8904981Y-8129019D01*
X8859019Y-8129019D01*
X8859019Y-8174981D01*
X8904981Y-8174981D01*
X8904981Y-8304981D02*
X8904981Y-8259019D01*
X8859019Y-8259019D01*
X8859019Y-8304981D01*
X8904981Y-8304981D01*
X8909981Y-10972981D02*
X8909981Y-10927019D01*
X8864019Y-10927019D01*
X8864019Y-10972981D01*
X8909981Y-10972981D01*
X8909981Y-11102981D02*
X8909981Y-11057019D01*
X8864019Y-11057019D01*
X8864019Y-11102981D01*
X8909981Y-11102981D01*
X8941981Y-9160981D02*
X8941981Y-9115019D01*
X8896019Y-9115019D01*
X8896019Y-9160981D01*
X8941981Y-9160981D01*
X8986981Y-10116981D02*
X8986981Y-10071019D01*
X8941019Y-10071019D01*
X8941019Y-10116981D01*
X8986981Y-10116981D01*
X9071981Y-9160981D02*
X9071981Y-9115019D01*
X9026019Y-9115019D01*
X9026019Y-9160981D01*
X9071981Y-9160981D01*
X9116981Y-10116981D02*
X9116981Y-10071019D01*
X9071019Y-10071019D01*
X9071019Y-10116981D01*
X9116981Y-10116981D01*
X9548981Y-8726981D02*
X9548981Y-8681019D01*
X9503019Y-8681019D01*
X9503019Y-8726981D01*
X9548981Y-8726981D01*
X9678981Y-8726981D02*
X9678981Y-8681019D01*
X9633019Y-8681019D01*
X9633019Y-8726981D01*
X9678981Y-8726981D01*
X11825981Y-9158481D02*
X11825981Y-9112519D01*
X11780019Y-9112519D01*
X11780019Y-9158481D01*
X11825981Y-9158481D01*
X11825981Y-9285481D02*
X11825981Y-9239519D01*
X11780019Y-9239519D01*
X11780019Y-9285481D01*
X11825981Y-9285481D01*
X11825981Y-9412481D02*
X11825981Y-9366519D01*
X11780019Y-9366519D01*
X11780019Y-9412481D01*
X11825981Y-9412481D01*
X13156981Y-7855981D02*
X13156981Y-7810019D01*
X13111019Y-7810019D01*
X13111019Y-7855981D01*
X13156981Y-7855981D01*
X13156981Y-8055981D02*
X13156981Y-8010019D01*
X13111019Y-8010019D01*
X13111019Y-8055981D01*
X13156981Y-8055981D01*
D16*
X10292000Y-7963000D02*
X10327000Y-7928000D01*
X10292000Y-7893000D01*
X10257000Y-7928000D01*
X10292000Y-7963000D01*
X10546000Y-8217000D02*
X10581000Y-8182000D01*
X10546000Y-8147000D01*
X10511000Y-8182000D01*
X10546000Y-8217000D01*
X10800000Y-7963000D02*
X10835000Y-7928000D01*
X10800000Y-7893000D01*
X10765000Y-7928000D01*
X10800000Y-7963000D01*
X11787000Y-10607000D02*
X11822000Y-10572000D01*
X11787000Y-10537000D01*
X11752000Y-10572000D01*
X11787000Y-10607000D01*
X11916000Y-10754000D02*
X11951000Y-10719000D01*
X11916000Y-10684000D01*
X11881000Y-10719000D01*
X11916000Y-10754000D01*
X12056000Y-10333000D02*
X12091000Y-10298000D01*
X12056000Y-10263000D01*
X12021000Y-10298000D01*
X12056000Y-10333000D01*
X12056000Y-10624000D02*
X12091000Y-10589000D01*
X12056000Y-10554000D01*
X12021000Y-10589000D01*
X12056000Y-10624000D01*
X12088000Y-10142000D02*
X12123000Y-10107000D01*
X12088000Y-10072000D01*
X12053000Y-10107000D01*
X12088000Y-10142000D01*
X12238000Y-10256000D02*
X12273000Y-10221000D01*
X12238000Y-10186000D01*
X12203000Y-10221000D01*
X12238000Y-10256000D01*
X15112000Y-8187000D02*
X15147000Y-8152000D01*
X15112000Y-8117000D01*
X15077000Y-8152000D01*
X15112000Y-8187000D01*
X15239000Y-8187000D02*
X15274000Y-8152000D01*
X15239000Y-8117000D01*
X15204000Y-8152000D01*
X15239000Y-8187000D01*
X15366000Y-8187000D02*
X15401000Y-8152000D01*
X15366000Y-8117000D01*
X15331000Y-8152000D01*
X15366000Y-8187000D01*
X15493000Y-8187000D02*
X15528000Y-8152000D01*
X15493000Y-8117000D01*
X15458000Y-8152000D01*
X15493000Y-8187000D01*
X18741500Y-7832500D02*
X18776500Y-7797500D01*
X18741500Y-7762500D01*
X18706500Y-7797500D01*
X18741500Y-7832500D01*
X18749500Y-11479500D02*
X18784500Y-11444500D01*
X18749500Y-11409500D01*
X18714500Y-11444500D01*
X18749500Y-11479500D01*
X18868500Y-7832500D02*
X18903500Y-7797500D01*
X18868500Y-7762500D01*
X18833500Y-7797500D01*
X18868500Y-7832500D01*
X18876500Y-11479500D02*
X18911500Y-11444500D01*
X18876500Y-11409500D01*
X18841500Y-11444500D01*
X18876500Y-11479500D01*
D17*
X12054000Y-9529500D02*
X12134000Y-9609500D01*
X12134000Y-9529500D02*
X12054000Y-9609500D01*
X12134000Y-9569500D02*
G75*
G03*
X12134000Y-9569500I-40000J0D01*
G01*
X12054000Y-9829500D02*
X12134000Y-9909500D01*
X12134000Y-9829500D02*
X12054000Y-9909500D01*
X12134000Y-9869500D02*
G75*
G03*
X12134000Y-9869500I-40000J0D01*
G01*
D18*
X8065000Y-8519500D02*
X8165000Y-8619500D01*
X8165000Y-8519500D02*
X8065000Y-8619500D01*
X8115000Y-8519500D02*
X8115000Y-8619500D01*
X8065000Y-8569500D02*
X8165000Y-8569500D01*
X8065000Y-8773500D02*
X8165000Y-8873500D01*
X8165000Y-8773500D02*
X8065000Y-8873500D01*
X8115000Y-8773500D02*
X8115000Y-8873500D01*
X8065000Y-8823500D02*
X8165000Y-8823500D01*
X8065000Y-10357500D02*
X8165000Y-10457500D01*
X8165000Y-10357500D02*
X8065000Y-10457500D01*
X8115000Y-10357500D02*
X8115000Y-10457500D01*
X8065000Y-10407500D02*
X8165000Y-10407500D01*
X8065000Y-10611500D02*
X8165000Y-10711500D01*
X8165000Y-10611500D02*
X8065000Y-10711500D01*
X8115000Y-10611500D02*
X8115000Y-10711500D01*
X8065000Y-10661500D02*
X8165000Y-10661500D01*
X8319000Y-8519500D02*
X8419000Y-8619500D01*
X8419000Y-8519500D02*
X8319000Y-8619500D01*
X8369000Y-8519500D02*
X8369000Y-8619500D01*
X8319000Y-8569500D02*
X8419000Y-8569500D01*
X8319000Y-8773500D02*
X8419000Y-8873500D01*
X8419000Y-8773500D02*
X8319000Y-8873500D01*
X8369000Y-8773500D02*
X8369000Y-8873500D01*
X8319000Y-8823500D02*
X8419000Y-8823500D01*
X8319000Y-10357500D02*
X8419000Y-10457500D01*
X8419000Y-10357500D02*
X8319000Y-10457500D01*
X8369000Y-10357500D02*
X8369000Y-10457500D01*
X8319000Y-10407500D02*
X8419000Y-10407500D01*
X8319000Y-10611500D02*
X8419000Y-10711500D01*
X8419000Y-10611500D02*
X8319000Y-10711500D01*
X8369000Y-10611500D02*
X8369000Y-10711500D01*
X8319000Y-10661500D02*
X8419000Y-10661500D01*
X8573000Y-8519500D02*
X8673000Y-8619500D01*
X8673000Y-8519500D02*
X8573000Y-8619500D01*
X8623000Y-8519500D02*
X8623000Y-8619500D01*
X8573000Y-8569500D02*
X8673000Y-8569500D01*
X8573000Y-8773500D02*
X8673000Y-8873500D01*
X8673000Y-8773500D02*
X8573000Y-8873500D01*
X8623000Y-8773500D02*
X8623000Y-8873500D01*
X8573000Y-8823500D02*
X8673000Y-8823500D01*
X8573000Y-10357500D02*
X8673000Y-10457500D01*
X8673000Y-10357500D02*
X8573000Y-10457500D01*
X8623000Y-10357500D02*
X8623000Y-10457500D01*
X8573000Y-10407500D02*
X8673000Y-10407500D01*
X8573000Y-10611500D02*
X8673000Y-10711500D01*
X8673000Y-10611500D02*
X8573000Y-10711500D01*
X8623000Y-10611500D02*
X8623000Y-10711500D01*
X8573000Y-10661500D02*
X8673000Y-10661500D01*
X8827000Y-8519500D02*
X8927000Y-8619500D01*
X8927000Y-8519500D02*
X8827000Y-8619500D01*
X8877000Y-8519500D02*
X8877000Y-8619500D01*
X8827000Y-8569500D02*
X8927000Y-8569500D01*
X8827000Y-8773500D02*
X8927000Y-8873500D01*
X8927000Y-8773500D02*
X8827000Y-8873500D01*
X8877000Y-8773500D02*
X8877000Y-8873500D01*
X8827000Y-8823500D02*
X8927000Y-8823500D01*
X8827000Y-10357500D02*
X8927000Y-10457500D01*
X8927000Y-10357500D02*
X8827000Y-10457500D01*
X8877000Y-10357500D02*
X8877000Y-10457500D01*
X8827000Y-10407500D02*
X8927000Y-10407500D01*
X8827000Y-10611500D02*
X8927000Y-10711500D01*
X8927000Y-10611500D02*
X8827000Y-10711500D01*
X8877000Y-10611500D02*
X8877000Y-10711500D01*
X8827000Y-10661500D02*
X8927000Y-10661500D01*
X9950000Y-9318600D02*
X10050000Y-9418600D01*
X10050000Y-9318600D02*
X9950000Y-9418600D01*
X10000000Y-9318600D02*
X10000000Y-9418600D01*
X9950000Y-9368600D02*
X10050000Y-9368600D01*
X9950000Y-9818600D02*
X10050000Y-9918600D01*
X10050000Y-9818600D02*
X9950000Y-9918600D01*
X10000000Y-9818600D02*
X10000000Y-9918600D01*
X9950000Y-9868600D02*
X10050000Y-9868600D01*
X11400000Y-9318600D02*
X11500000Y-9418600D01*
X11500000Y-9318600D02*
X11400000Y-9418600D01*
X11450000Y-9318600D02*
X11450000Y-9418600D01*
X11400000Y-9368600D02*
X11500000Y-9368600D01*
X11400000Y-9568600D02*
X11500000Y-9668600D01*
X11500000Y-9568600D02*
X11400000Y-9668600D01*
X11450000Y-9568600D02*
X11450000Y-9668600D01*
X11400000Y-9618600D02*
X11500000Y-9618600D01*
X11400000Y-9818600D02*
X11500000Y-9918600D01*
X11500000Y-9818600D02*
X11400000Y-9918600D01*
X11450000Y-9818600D02*
X11450000Y-9918600D01*
X11400000Y-9868600D02*
X11500000Y-9868600D01*
X16006000Y-11039500D02*
X16106000Y-11139500D01*
X16106000Y-11039500D02*
X16006000Y-11139500D01*
X16056000Y-11039500D02*
X16056000Y-11139500D01*
X16006000Y-11089500D02*
X16106000Y-11089500D01*
X16006000Y-11293500D02*
X16106000Y-11393500D01*
X16106000Y-11293500D02*
X16006000Y-11393500D01*
X16056000Y-11293500D02*
X16056000Y-11393500D01*
X16006000Y-11343500D02*
X16106000Y-11343500D01*
X16006000Y-11547500D02*
X16106000Y-11647500D01*
X16106000Y-11547500D02*
X16006000Y-11647500D01*
X16056000Y-11547500D02*
X16056000Y-11647500D01*
X16006000Y-11597500D02*
X16106000Y-11597500D01*
X16021000Y-9110000D02*
X16121000Y-9210000D01*
X16121000Y-9110000D02*
X16021000Y-9210000D01*
X16071000Y-9110000D02*
X16071000Y-9210000D01*
X16021000Y-9160000D02*
X16121000Y-9160000D01*
X16021000Y-9364000D02*
X16121000Y-9464000D01*
X16121000Y-9364000D02*
X16021000Y-9464000D01*
X16071000Y-9364000D02*
X16071000Y-9464000D01*
X16021000Y-9414000D02*
X16121000Y-9414000D01*
X16021000Y-9618000D02*
X16121000Y-9718000D01*
X16121000Y-9618000D02*
X16021000Y-9718000D01*
X16071000Y-9618000D02*
X16071000Y-9718000D01*
X16021000Y-9668000D02*
X16121000Y-9668000D01*
X16830000Y-8538000D02*
X16930000Y-8638000D01*
X16930000Y-8538000D02*
X16830000Y-8638000D01*
X16880000Y-8538000D02*
X16880000Y-8638000D01*
X16830000Y-8588000D02*
X16930000Y-8588000D01*
X16830000Y-11078000D02*
X16930000Y-11178000D01*
X16930000Y-11078000D02*
X16830000Y-11178000D01*
X16880000Y-11078000D02*
X16880000Y-11178000D01*
X16830000Y-11128000D02*
X16930000Y-11128000D01*
X17084000Y-8538000D02*
X17184000Y-8638000D01*
X17184000Y-8538000D02*
X17084000Y-8638000D01*
X17134000Y-8538000D02*
X17134000Y-8638000D01*
X17084000Y-8588000D02*
X17184000Y-8588000D01*
X17084000Y-11078000D02*
X17184000Y-11178000D01*
X17184000Y-11078000D02*
X17084000Y-11178000D01*
X17134000Y-11078000D02*
X17134000Y-11178000D01*
X17084000Y-11128000D02*
X17184000Y-11128000D01*
X17338000Y-11078000D02*
X17438000Y-11178000D01*
X17438000Y-11078000D02*
X17338000Y-11178000D01*
X17388000Y-11078000D02*
X17388000Y-11178000D01*
X17338000Y-11128000D02*
X17438000Y-11128000D01*
X17592000Y-11078000D02*
X17692000Y-11178000D01*
X17692000Y-11078000D02*
X17592000Y-11178000D01*
X17642000Y-11078000D02*
X17642000Y-11178000D01*
X17592000Y-11128000D02*
X17692000Y-11128000D01*
X17801500Y-7668500D02*
X17901500Y-7768500D01*
X17901500Y-7668500D02*
X17801500Y-7768500D01*
X17851500Y-7668500D02*
X17851500Y-7768500D01*
X17801500Y-7718500D02*
X17901500Y-7718500D01*
X17801500Y-7942500D02*
X17901500Y-8042500D01*
X17901500Y-7942500D02*
X17801500Y-8042500D01*
X17851500Y-7942500D02*
X17851500Y-8042500D01*
X17801500Y-7992500D02*
X17901500Y-7992500D01*
X17846000Y-11078000D02*
X17946000Y-11178000D01*
X17946000Y-11078000D02*
X17846000Y-11178000D01*
X17896000Y-11078000D02*
X17896000Y-11178000D01*
X17846000Y-11128000D02*
X17946000Y-11128000D01*
X18065500Y-7678500D02*
X18165500Y-7778500D01*
X18165500Y-7678500D02*
X18065500Y-7778500D01*
X18115500Y-7678500D02*
X18115500Y-7778500D01*
X18065500Y-7728500D02*
X18165500Y-7728500D01*
X18065500Y-7932500D02*
X18165500Y-8032500D01*
X18165500Y-7932500D02*
X18065500Y-8032500D01*
X18115500Y-7932500D02*
X18115500Y-8032500D01*
X18065500Y-7982500D02*
X18165500Y-7982500D01*
X18100000Y-11078000D02*
X18200000Y-11178000D01*
X18200000Y-11078000D02*
X18100000Y-11178000D01*
X18150000Y-11078000D02*
X18150000Y-11178000D01*
X18100000Y-11128000D02*
X18200000Y-11128000D01*
X18329500Y-7668500D02*
X18429500Y-7768500D01*
X18429500Y-7668500D02*
X18329500Y-7768500D01*
X18379500Y-7668500D02*
X18379500Y-7768500D01*
X18329500Y-7718500D02*
X18429500Y-7718500D01*
X18329500Y-7942500D02*
X18429500Y-8042500D01*
X18429500Y-7942500D02*
X18329500Y-8042500D01*
X18379500Y-7942500D02*
X18379500Y-8042500D01*
X18329500Y-7992500D02*
X18429500Y-7992500D01*
X18354000Y-11078000D02*
X18454000Y-11178000D01*
X18454000Y-11078000D02*
X18354000Y-11178000D01*
X18404000Y-11078000D02*
X18404000Y-11178000D01*
X18354000Y-11128000D02*
X18454000Y-11128000D01*
X18608000Y-11078000D02*
X18708000Y-11178000D01*
X18708000Y-11078000D02*
X18608000Y-11178000D01*
X18658000Y-11078000D02*
X18658000Y-11178000D01*
X18608000Y-11128000D02*
X18708000Y-11128000D01*
X18862000Y-8538000D02*
X18962000Y-8638000D01*
X18962000Y-8538000D02*
X18862000Y-8638000D01*
X18912000Y-8538000D02*
X18912000Y-8638000D01*
X18862000Y-8588000D02*
X18962000Y-8588000D01*
X18862000Y-11078000D02*
X18962000Y-11178000D01*
X18962000Y-11078000D02*
X18862000Y-11178000D01*
X18912000Y-11078000D02*
X18912000Y-11178000D01*
X18862000Y-11128000D02*
X18962000Y-11128000D01*
X19116000Y-8538000D02*
X19216000Y-8638000D01*
X19216000Y-8538000D02*
X19116000Y-8638000D01*
X19166000Y-8538000D02*
X19166000Y-8638000D01*
X19116000Y-8588000D02*
X19216000Y-8588000D01*
X19116000Y-11078000D02*
X19216000Y-11178000D01*
X19216000Y-11078000D02*
X19116000Y-11178000D01*
X19166000Y-11078000D02*
X19166000Y-11178000D01*
X19116000Y-11128000D02*
X19216000Y-11128000D01*
D19*
X8111500Y-9538600D02*
X8271500Y-9698600D01*
X8271500Y-9538600D02*
X8111500Y-9698600D01*
X8248069Y-9675169D02*
X8248069Y-9562031D01*
X8134931Y-9562031D01*
X8134931Y-9675169D01*
X8248069Y-9675169D01*
X9536000Y-9133000D02*
X9696000Y-9293000D01*
X9696000Y-9133000D02*
X9536000Y-9293000D01*
X9672569Y-9269569D02*
X9672569Y-9156431D01*
X9559431Y-9156431D01*
X9559431Y-9269569D01*
X9672569Y-9269569D01*
X9537000Y-9539000D02*
X9697000Y-9699000D01*
X9697000Y-9539000D02*
X9537000Y-9699000D01*
X9673569Y-9675569D02*
X9673569Y-9562431D01*
X9560431Y-9562431D01*
X9560431Y-9675569D01*
X9673569Y-9675569D01*
X9539000Y-9937000D02*
X9699000Y-10097000D01*
X9699000Y-9937000D02*
X9539000Y-10097000D01*
X9675569Y-10073569D02*
X9675569Y-9960431D01*
X9562431Y-9960431D01*
X9562431Y-10073569D01*
X9675569Y-10073569D01*
X14012000Y-9509000D02*
X14172000Y-9669000D01*
X14172000Y-9509000D02*
X14012000Y-9669000D01*
X14148569Y-9645569D02*
X14148569Y-9532431D01*
X14035431Y-9532431D01*
X14035431Y-9645569D01*
X14148569Y-9645569D01*
X15448000Y-10280000D02*
X15608000Y-10440000D01*
X15608000Y-10280000D02*
X15448000Y-10440000D01*
X15584569Y-10416569D02*
X15584569Y-10303431D01*
X15471431Y-10303431D01*
X15471431Y-10416569D01*
X15584569Y-10416569D01*
X16453000Y-10664000D02*
X16613000Y-10824000D01*
X16613000Y-10664000D02*
X16453000Y-10824000D01*
X16589569Y-10800569D02*
X16589569Y-10687431D01*
X16476431Y-10687431D01*
X16476431Y-10800569D01*
X16589569Y-10800569D01*
D20*
X12154000Y-8160000D02*
X12329000Y-8335000D01*
X12329000Y-8160000D02*
X12154000Y-8335000D01*
X12241500Y-8335000D02*
X12329000Y-8247500D01*
X12241500Y-8160000D01*
X12154000Y-8247500D01*
X12241500Y-8335000D01*
X12154000Y-8940000D02*
X12329000Y-9115000D01*
X12329000Y-8940000D02*
X12154000Y-9115000D01*
X12241500Y-9115000D02*
X12329000Y-9027500D01*
X12241500Y-8940000D01*
X12154000Y-9027500D01*
X12241500Y-9115000D01*
D21*
X9396000Y-11052000D02*
X9396000Y-11262000D01*
X9291000Y-11157000D02*
X9501000Y-11157000D01*
X9501000Y-11157000D02*
G75*
G03*
X9501000Y-11157000I-105000J0D01*
G01*
X9786000Y-10472000D02*
X9786000Y-10682000D01*
X9681000Y-10577000D02*
X9891000Y-10577000D01*
X9891000Y-10577000D02*
G75*
G03*
X9891000Y-10577000I-105000J0D01*
G01*
D11*
X9786000Y-10672000D02*
X9786000Y-10672000D01*
X9786000Y-10482000D02*
X9786000Y-10482000D01*
X9786000Y-10672000D02*
G75*
G03*
X9786000Y-10482000I0J95000D01*
G01*
X9786000Y-10482000D02*
G75*
G03*
X9786000Y-10672000I0J-95000D01*
G01*
D21*
X10176000Y-11052000D02*
X10176000Y-11262000D01*
X10071000Y-11157000D02*
X10281000Y-11157000D01*
X10281000Y-11157000D02*
G75*
G03*
X10281000Y-11157000I-105000J0D01*
G01*
D22*
X10791925Y-9150525D02*
X10791925Y-8966675D01*
X10608075Y-8966675D01*
X10608075Y-9150525D01*
X10791925Y-9150525D01*
X10830000Y-9058600D02*
G75*
G03*
X10830000Y-9058600I-130000J0D01*
G01*
X10791925Y-10270525D02*
X10791925Y-10086675D01*
X10608075Y-10086675D01*
X10608075Y-10270525D01*
X10791925Y-10270525D01*
X10830000Y-10178600D02*
G75*
G03*
X10830000Y-10178600I-130000J0D01*
G01*
D11*
X7979119Y-12151476D02*
X7979119Y-11951476D01*
X8026738Y-11951476D01*
X8055309Y-11961000D01*
X8074357Y-11980048D01*
X8083881Y-11999095D01*
X8093405Y-12037190D01*
X8093405Y-12065762D01*
X8083881Y-12103857D01*
X8074357Y-12122905D01*
X8055309Y-12141952D01*
X8026738Y-12151476D01*
X7979119Y-12151476D01*
X8179119Y-12151476D02*
X8179119Y-12018143D01*
X8179119Y-12056238D02*
X8188643Y-12037190D01*
X8198167Y-12027667D01*
X8217214Y-12018143D01*
X8236262Y-12018143D01*
X8302928Y-12151476D02*
X8302928Y-12018143D01*
X8302928Y-11951476D02*
X8293405Y-11961000D01*
X8302928Y-11970524D01*
X8312452Y-11961000D01*
X8302928Y-11951476D01*
X8302928Y-11970524D01*
X8426738Y-12151476D02*
X8407690Y-12141952D01*
X8398167Y-12122905D01*
X8398167Y-11951476D01*
X8531500Y-12151476D02*
X8512452Y-12141952D01*
X8502929Y-12122905D01*
X8502929Y-11951476D01*
X8760071Y-12151476D02*
X8760071Y-11951476D01*
X8826738Y-12094333D01*
X8893405Y-11951476D01*
X8893405Y-12151476D01*
X9074357Y-12151476D02*
X9074357Y-12046714D01*
X9064833Y-12027667D01*
X9045786Y-12018143D01*
X9007690Y-12018143D01*
X8988643Y-12027667D01*
X9074357Y-12141952D02*
X9055310Y-12151476D01*
X9007690Y-12151476D01*
X8988643Y-12141952D01*
X8979119Y-12122905D01*
X8979119Y-12103857D01*
X8988643Y-12084809D01*
X9007690Y-12075286D01*
X9055310Y-12075286D01*
X9074357Y-12065762D01*
X9169595Y-12018143D02*
X9169595Y-12218143D01*
X9169595Y-12027667D02*
X9188643Y-12018143D01*
X9226738Y-12018143D01*
X9245786Y-12027667D01*
X9255310Y-12037190D01*
X9264833Y-12056238D01*
X9264833Y-12113381D01*
X9255310Y-12132428D01*
X9245786Y-12141952D01*
X9226738Y-12151476D01*
X9188643Y-12151476D01*
X9169595Y-12141952D01*
X9350548Y-12132428D02*
X9360071Y-12141952D01*
X9350548Y-12151476D01*
X9341024Y-12141952D01*
X9350548Y-12132428D01*
X9350548Y-12151476D01*
X9350548Y-12027667D02*
X9360071Y-12037190D01*
X9350548Y-12046714D01*
X9341024Y-12037190D01*
X9350548Y-12027667D01*
X9350548Y-12046714D01*
D12*
X7681500Y-12461000D02*
X7721500Y-12501000D01*
X7721500Y-12461000D02*
X7681500Y-12501000D01*
D11*
X8017214Y-12371476D02*
X8036262Y-12371476D01*
X8055309Y-12381000D01*
X8064833Y-12390524D01*
X8074357Y-12409571D01*
X8083881Y-12447667D01*
X8083881Y-12495286D01*
X8074357Y-12533381D01*
X8064833Y-12552428D01*
X8055309Y-12561952D01*
X8036262Y-12571476D01*
X8017214Y-12571476D01*
X7998167Y-12561952D01*
X7988643Y-12552428D01*
X7979119Y-12533381D01*
X7969595Y-12495286D01*
X7969595Y-12447667D01*
X7979119Y-12409571D01*
X7988643Y-12390524D01*
X7998167Y-12381000D01*
X8017214Y-12371476D01*
X8169595Y-12552428D02*
X8179119Y-12561952D01*
X8169595Y-12571476D01*
X8160071Y-12561952D01*
X8169595Y-12552428D01*
X8169595Y-12571476D01*
X8350548Y-12438143D02*
X8350548Y-12571476D01*
X8302928Y-12361952D02*
X8255309Y-12504809D01*
X8379119Y-12504809D01*
X8493405Y-12371476D02*
X8512452Y-12371476D01*
X8531500Y-12381000D01*
X8541024Y-12390524D01*
X8550548Y-12409571D01*
X8560071Y-12447667D01*
X8560071Y-12495286D01*
X8550548Y-12533381D01*
X8541024Y-12552428D01*
X8531500Y-12561952D01*
X8512452Y-12571476D01*
X8493405Y-12571476D01*
X8474357Y-12561952D01*
X8464833Y-12552428D01*
X8455310Y-12533381D01*
X8445786Y-12495286D01*
X8445786Y-12447667D01*
X8455310Y-12409571D01*
X8464833Y-12390524D01*
X8474357Y-12381000D01*
X8493405Y-12371476D01*
X8683881Y-12371476D02*
X8702929Y-12371476D01*
X8721976Y-12381000D01*
X8731500Y-12390524D01*
X8741024Y-12409571D01*
X8750548Y-12447667D01*
X8750548Y-12495286D01*
X8741024Y-12533381D01*
X8731500Y-12552428D01*
X8721976Y-12561952D01*
X8702929Y-12571476D01*
X8683881Y-12571476D01*
X8664833Y-12561952D01*
X8655310Y-12552428D01*
X8645786Y-12533381D01*
X8636262Y-12495286D01*
X8636262Y-12447667D01*
X8645786Y-12409571D01*
X8655310Y-12390524D01*
X8664833Y-12381000D01*
X8683881Y-12371476D01*
X8836262Y-12571476D02*
X8836262Y-12438143D01*
X8836262Y-12457190D02*
X8845786Y-12447667D01*
X8864833Y-12438143D01*
X8893405Y-12438143D01*
X8912452Y-12447667D01*
X8921976Y-12466714D01*
X8921976Y-12571476D01*
X8921976Y-12466714D02*
X8931500Y-12447667D01*
X8950548Y-12438143D01*
X8979119Y-12438143D01*
X8998167Y-12447667D01*
X9007690Y-12466714D01*
X9007690Y-12571476D01*
X9102929Y-12571476D02*
X9102929Y-12438143D01*
X9102929Y-12457190D02*
X9112452Y-12447667D01*
X9131500Y-12438143D01*
X9160071Y-12438143D01*
X9179119Y-12447667D01*
X9188643Y-12466714D01*
X9188643Y-12571476D01*
X9188643Y-12466714D02*
X9198167Y-12447667D01*
X9217214Y-12438143D01*
X9245786Y-12438143D01*
X9264833Y-12447667D01*
X9274357Y-12466714D01*
X9274357Y-12571476D01*
X9664833Y-12361952D02*
X9493405Y-12619095D01*
X9921976Y-12371476D02*
X9941024Y-12371476D01*
X9960071Y-12381000D01*
X9969595Y-12390524D01*
X9979119Y-12409571D01*
X9988643Y-12447667D01*
X9988643Y-12495286D01*
X9979119Y-12533381D01*
X9969595Y-12552428D01*
X9960071Y-12561952D01*
X9941024Y-12571476D01*
X9921976Y-12571476D01*
X9902929Y-12561952D01*
X9893405Y-12552428D01*
X9883881Y-12533381D01*
X9874357Y-12495286D01*
X9874357Y-12447667D01*
X9883881Y-12409571D01*
X9893405Y-12390524D01*
X9902929Y-12381000D01*
X9921976Y-12371476D01*
X10074357Y-12552428D02*
X10083881Y-12561952D01*
X10074357Y-12571476D01*
X10064833Y-12561952D01*
X10074357Y-12552428D01*
X10074357Y-12571476D01*
X10207690Y-12371476D02*
X10226738Y-12371476D01*
X10245786Y-12381000D01*
X10255310Y-12390524D01*
X10264833Y-12409571D01*
X10274357Y-12447667D01*
X10274357Y-12495286D01*
X10264833Y-12533381D01*
X10255310Y-12552428D01*
X10245786Y-12561952D01*
X10226738Y-12571476D01*
X10207690Y-12571476D01*
X10188643Y-12561952D01*
X10179119Y-12552428D01*
X10169595Y-12533381D01*
X10160071Y-12495286D01*
X10160071Y-12447667D01*
X10169595Y-12409571D01*
X10179119Y-12390524D01*
X10188643Y-12381000D01*
X10207690Y-12371476D01*
X10464833Y-12571476D02*
X10350548Y-12571476D01*
X10407690Y-12571476D02*
X10407690Y-12371476D01*
X10388643Y-12400048D01*
X10369595Y-12419095D01*
X10350548Y-12428619D01*
X10645786Y-12371476D02*
X10550548Y-12371476D01*
X10541024Y-12466714D01*
X10550548Y-12457190D01*
X10569595Y-12447667D01*
X10617214Y-12447667D01*
X10636262Y-12457190D01*
X10645786Y-12466714D01*
X10655310Y-12485762D01*
X10655310Y-12533381D01*
X10645786Y-12552428D01*
X10636262Y-12561952D01*
X10617214Y-12571476D01*
X10569595Y-12571476D01*
X10550548Y-12561952D01*
X10541024Y-12552428D01*
X10721976Y-12371476D02*
X10855310Y-12371476D01*
X10769595Y-12571476D01*
X10921976Y-12371476D02*
X10921976Y-12409571D01*
X10998167Y-12371476D02*
X10998167Y-12409571D01*
X11293405Y-12647667D02*
X11283881Y-12638143D01*
X11264833Y-12609571D01*
X11255309Y-12590524D01*
X11245786Y-12561952D01*
X11236262Y-12514333D01*
X11236262Y-12476238D01*
X11245786Y-12428619D01*
X11255309Y-12400048D01*
X11264833Y-12381000D01*
X11283881Y-12352428D01*
X11293405Y-12342905D01*
X11350548Y-12371476D02*
X11474357Y-12371476D01*
X11407690Y-12447667D01*
X11436262Y-12447667D01*
X11455309Y-12457190D01*
X11464833Y-12466714D01*
X11474357Y-12485762D01*
X11474357Y-12533381D01*
X11464833Y-12552428D01*
X11455309Y-12561952D01*
X11436262Y-12571476D01*
X11379119Y-12571476D01*
X11360071Y-12561952D01*
X11350548Y-12552428D01*
X11645786Y-12438143D02*
X11645786Y-12571476D01*
X11598167Y-12361952D02*
X11550548Y-12504809D01*
X11674357Y-12504809D01*
X11836262Y-12371476D02*
X11798167Y-12371476D01*
X11779119Y-12381000D01*
X11769595Y-12390524D01*
X11750548Y-12419095D01*
X11741024Y-12457190D01*
X11741024Y-12533381D01*
X11750548Y-12552428D01*
X11760071Y-12561952D01*
X11779119Y-12571476D01*
X11817214Y-12571476D01*
X11836262Y-12561952D01*
X11845786Y-12552428D01*
X11855309Y-12533381D01*
X11855309Y-12485762D01*
X11845786Y-12466714D01*
X11836262Y-12457190D01*
X11817214Y-12447667D01*
X11779119Y-12447667D01*
X11760071Y-12457190D01*
X11750548Y-12466714D01*
X11741024Y-12485762D01*
X12093405Y-12571476D02*
X12093405Y-12371476D01*
X12179119Y-12571476D02*
X12179119Y-12466714D01*
X12169595Y-12447667D01*
X12150548Y-12438143D01*
X12121976Y-12438143D01*
X12102928Y-12447667D01*
X12093405Y-12457190D01*
X12302928Y-12571476D02*
X12283881Y-12561952D01*
X12274357Y-12552428D01*
X12264833Y-12533381D01*
X12264833Y-12476238D01*
X12274357Y-12457190D01*
X12283881Y-12447667D01*
X12302928Y-12438143D01*
X12331500Y-12438143D01*
X12350548Y-12447667D01*
X12360071Y-12457190D01*
X12369595Y-12476238D01*
X12369595Y-12533381D01*
X12360071Y-12552428D01*
X12350548Y-12561952D01*
X12331500Y-12571476D01*
X12302928Y-12571476D01*
X12483881Y-12571476D02*
X12464833Y-12561952D01*
X12455309Y-12542905D01*
X12455309Y-12371476D01*
X12636262Y-12561952D02*
X12617214Y-12571476D01*
X12579119Y-12571476D01*
X12560071Y-12561952D01*
X12550548Y-12542905D01*
X12550548Y-12466714D01*
X12560071Y-12447667D01*
X12579119Y-12438143D01*
X12617214Y-12438143D01*
X12636262Y-12447667D01*
X12645786Y-12466714D01*
X12645786Y-12485762D01*
X12550548Y-12504809D01*
X12721976Y-12561952D02*
X12741024Y-12571476D01*
X12779119Y-12571476D01*
X12798167Y-12561952D01*
X12807690Y-12542905D01*
X12807690Y-12533381D01*
X12798167Y-12514333D01*
X12779119Y-12504809D01*
X12750548Y-12504809D01*
X12731500Y-12495286D01*
X12721976Y-12476238D01*
X12721976Y-12466714D01*
X12731500Y-12447667D01*
X12750548Y-12438143D01*
X12779119Y-12438143D01*
X12798167Y-12447667D01*
X12874357Y-12647667D02*
X12883881Y-12638143D01*
X12902928Y-12609571D01*
X12912452Y-12590524D01*
X12921976Y-12561952D01*
X12931500Y-12514333D01*
X12931500Y-12476238D01*
X12921976Y-12428619D01*
X12912452Y-12400048D01*
X12902928Y-12381000D01*
X12883881Y-12352428D01*
X12874357Y-12342905D01*
D13*
X7721500Y-12745000D02*
G75*
G03*
X7721500Y-12745000I-25000J0D01*
G01*
D11*
X8017214Y-12635476D02*
X8036262Y-12635476D01*
X8055309Y-12645000D01*
X8064833Y-12654524D01*
X8074357Y-12673571D01*
X8083881Y-12711667D01*
X8083881Y-12759286D01*
X8074357Y-12797381D01*
X8064833Y-12816428D01*
X8055309Y-12825952D01*
X8036262Y-12835476D01*
X8017214Y-12835476D01*
X7998167Y-12825952D01*
X7988643Y-12816428D01*
X7979119Y-12797381D01*
X7969595Y-12759286D01*
X7969595Y-12711667D01*
X7979119Y-12673571D01*
X7988643Y-12654524D01*
X7998167Y-12645000D01*
X8017214Y-12635476D01*
X8169595Y-12816428D02*
X8179119Y-12825952D01*
X8169595Y-12835476D01*
X8160071Y-12825952D01*
X8169595Y-12816428D01*
X8169595Y-12835476D01*
X8360071Y-12635476D02*
X8264833Y-12635476D01*
X8255309Y-12730714D01*
X8264833Y-12721190D01*
X8283881Y-12711667D01*
X8331500Y-12711667D01*
X8350548Y-12721190D01*
X8360071Y-12730714D01*
X8369595Y-12749762D01*
X8369595Y-12797381D01*
X8360071Y-12816428D01*
X8350548Y-12825952D01*
X8331500Y-12835476D01*
X8283881Y-12835476D01*
X8264833Y-12825952D01*
X8255309Y-12816428D01*
X8493405Y-12635476D02*
X8512452Y-12635476D01*
X8531500Y-12645000D01*
X8541024Y-12654524D01*
X8550548Y-12673571D01*
X8560071Y-12711667D01*
X8560071Y-12759286D01*
X8550548Y-12797381D01*
X8541024Y-12816428D01*
X8531500Y-12825952D01*
X8512452Y-12835476D01*
X8493405Y-12835476D01*
X8474357Y-12825952D01*
X8464833Y-12816428D01*
X8455310Y-12797381D01*
X8445786Y-12759286D01*
X8445786Y-12711667D01*
X8455310Y-12673571D01*
X8464833Y-12654524D01*
X8474357Y-12645000D01*
X8493405Y-12635476D01*
X8683881Y-12635476D02*
X8702929Y-12635476D01*
X8721976Y-12645000D01*
X8731500Y-12654524D01*
X8741024Y-12673571D01*
X8750548Y-12711667D01*
X8750548Y-12759286D01*
X8741024Y-12797381D01*
X8731500Y-12816428D01*
X8721976Y-12825952D01*
X8702929Y-12835476D01*
X8683881Y-12835476D01*
X8664833Y-12825952D01*
X8655310Y-12816428D01*
X8645786Y-12797381D01*
X8636262Y-12759286D01*
X8636262Y-12711667D01*
X8645786Y-12673571D01*
X8655310Y-12654524D01*
X8664833Y-12645000D01*
X8683881Y-12635476D01*
X8836262Y-12835476D02*
X8836262Y-12702143D01*
X8836262Y-12721190D02*
X8845786Y-12711667D01*
X8864833Y-12702143D01*
X8893405Y-12702143D01*
X8912452Y-12711667D01*
X8921976Y-12730714D01*
X8921976Y-12835476D01*
X8921976Y-12730714D02*
X8931500Y-12711667D01*
X8950548Y-12702143D01*
X8979119Y-12702143D01*
X8998167Y-12711667D01*
X9007690Y-12730714D01*
X9007690Y-12835476D01*
X9102929Y-12835476D02*
X9102929Y-12702143D01*
X9102929Y-12721190D02*
X9112452Y-12711667D01*
X9131500Y-12702143D01*
X9160071Y-12702143D01*
X9179119Y-12711667D01*
X9188643Y-12730714D01*
X9188643Y-12835476D01*
X9188643Y-12730714D02*
X9198167Y-12711667D01*
X9217214Y-12702143D01*
X9245786Y-12702143D01*
X9264833Y-12711667D01*
X9274357Y-12730714D01*
X9274357Y-12835476D01*
X9664833Y-12625952D02*
X9493405Y-12883095D01*
X9921976Y-12635476D02*
X9941024Y-12635476D01*
X9960071Y-12645000D01*
X9969595Y-12654524D01*
X9979119Y-12673571D01*
X9988643Y-12711667D01*
X9988643Y-12759286D01*
X9979119Y-12797381D01*
X9969595Y-12816428D01*
X9960071Y-12825952D01*
X9941024Y-12835476D01*
X9921976Y-12835476D01*
X9902929Y-12825952D01*
X9893405Y-12816428D01*
X9883881Y-12797381D01*
X9874357Y-12759286D01*
X9874357Y-12711667D01*
X9883881Y-12673571D01*
X9893405Y-12654524D01*
X9902929Y-12645000D01*
X9921976Y-12635476D01*
X10074357Y-12816428D02*
X10083881Y-12825952D01*
X10074357Y-12835476D01*
X10064833Y-12825952D01*
X10074357Y-12816428D01*
X10074357Y-12835476D01*
X10207690Y-12635476D02*
X10226738Y-12635476D01*
X10245786Y-12645000D01*
X10255310Y-12654524D01*
X10264833Y-12673571D01*
X10274357Y-12711667D01*
X10274357Y-12759286D01*
X10264833Y-12797381D01*
X10255310Y-12816428D01*
X10245786Y-12825952D01*
X10226738Y-12835476D01*
X10207690Y-12835476D01*
X10188643Y-12825952D01*
X10179119Y-12816428D01*
X10169595Y-12797381D01*
X10160071Y-12759286D01*
X10160071Y-12711667D01*
X10169595Y-12673571D01*
X10179119Y-12654524D01*
X10188643Y-12645000D01*
X10207690Y-12635476D01*
X10464833Y-12835476D02*
X10350548Y-12835476D01*
X10407690Y-12835476D02*
X10407690Y-12635476D01*
X10388643Y-12664048D01*
X10369595Y-12683095D01*
X10350548Y-12692619D01*
X10560071Y-12835476D02*
X10598167Y-12835476D01*
X10617214Y-12825952D01*
X10626738Y-12816428D01*
X10645786Y-12787857D01*
X10655310Y-12749762D01*
X10655310Y-12673571D01*
X10645786Y-12654524D01*
X10636262Y-12645000D01*
X10617214Y-12635476D01*
X10579119Y-12635476D01*
X10560071Y-12645000D01*
X10550548Y-12654524D01*
X10541024Y-12673571D01*
X10541024Y-12721190D01*
X10550548Y-12740238D01*
X10560071Y-12749762D01*
X10579119Y-12759286D01*
X10617214Y-12759286D01*
X10636262Y-12749762D01*
X10645786Y-12740238D01*
X10655310Y-12721190D01*
X10721976Y-12635476D02*
X10855310Y-12635476D01*
X10769595Y-12835476D01*
X10921976Y-12635476D02*
X10921976Y-12673571D01*
X10998167Y-12635476D02*
X10998167Y-12673571D01*
X11293405Y-12911667D02*
X11283881Y-12902143D01*
X11264833Y-12873571D01*
X11255309Y-12854524D01*
X11245786Y-12825952D01*
X11236262Y-12778333D01*
X11236262Y-12740238D01*
X11245786Y-12692619D01*
X11255309Y-12664048D01*
X11264833Y-12645000D01*
X11283881Y-12616428D01*
X11293405Y-12606905D01*
X11474357Y-12835476D02*
X11360071Y-12835476D01*
X11417214Y-12835476D02*
X11417214Y-12635476D01*
X11398167Y-12664048D01*
X11379119Y-12683095D01*
X11360071Y-12692619D01*
X11598167Y-12635476D02*
X11617214Y-12635476D01*
X11636262Y-12645000D01*
X11645786Y-12654524D01*
X11655309Y-12673571D01*
X11664833Y-12711667D01*
X11664833Y-12759286D01*
X11655309Y-12797381D01*
X11645786Y-12816428D01*
X11636262Y-12825952D01*
X11617214Y-12835476D01*
X11598167Y-12835476D01*
X11579119Y-12825952D01*
X11569595Y-12816428D01*
X11560071Y-12797381D01*
X11550548Y-12759286D01*
X11550548Y-12711667D01*
X11560071Y-12673571D01*
X11569595Y-12654524D01*
X11579119Y-12645000D01*
X11598167Y-12635476D01*
X11855309Y-12835476D02*
X11741024Y-12835476D01*
X11798167Y-12835476D02*
X11798167Y-12635476D01*
X11779119Y-12664048D01*
X11760071Y-12683095D01*
X11741024Y-12692619D01*
X12093405Y-12835476D02*
X12093405Y-12635476D01*
X12179119Y-12835476D02*
X12179119Y-12730714D01*
X12169595Y-12711667D01*
X12150548Y-12702143D01*
X12121976Y-12702143D01*
X12102928Y-12711667D01*
X12093405Y-12721190D01*
X12302928Y-12835476D02*
X12283881Y-12825952D01*
X12274357Y-12816428D01*
X12264833Y-12797381D01*
X12264833Y-12740238D01*
X12274357Y-12721190D01*
X12283881Y-12711667D01*
X12302928Y-12702143D01*
X12331500Y-12702143D01*
X12350548Y-12711667D01*
X12360071Y-12721190D01*
X12369595Y-12740238D01*
X12369595Y-12797381D01*
X12360071Y-12816428D01*
X12350548Y-12825952D01*
X12331500Y-12835476D01*
X12302928Y-12835476D01*
X12483881Y-12835476D02*
X12464833Y-12825952D01*
X12455309Y-12806905D01*
X12455309Y-12635476D01*
X12636262Y-12825952D02*
X12617214Y-12835476D01*
X12579119Y-12835476D01*
X12560071Y-12825952D01*
X12550548Y-12806905D01*
X12550548Y-12730714D01*
X12560071Y-12711667D01*
X12579119Y-12702143D01*
X12617214Y-12702143D01*
X12636262Y-12711667D01*
X12645786Y-12730714D01*
X12645786Y-12749762D01*
X12550548Y-12768809D01*
X12721976Y-12825952D02*
X12741024Y-12835476D01*
X12779119Y-12835476D01*
X12798167Y-12825952D01*
X12807690Y-12806905D01*
X12807690Y-12797381D01*
X12798167Y-12778333D01*
X12779119Y-12768809D01*
X12750548Y-12768809D01*
X12731500Y-12759286D01*
X12721976Y-12740238D01*
X12721976Y-12730714D01*
X12731500Y-12711667D01*
X12750548Y-12702143D01*
X12779119Y-12702143D01*
X12798167Y-12711667D01*
X12874357Y-12911667D02*
X12883881Y-12902143D01*
X12902928Y-12873571D01*
X12912452Y-12854524D01*
X12921976Y-12825952D01*
X12931500Y-12778333D01*
X12931500Y-12740238D01*
X12921976Y-12692619D01*
X12912452Y-12664048D01*
X12902928Y-12645000D01*
X12883881Y-12616428D01*
X12874357Y-12606905D01*
D14*
X7691500Y-12979000D02*
X7691500Y-13039000D01*
X7661500Y-13009000D02*
X7721500Y-13009000D01*
D11*
X8017214Y-12899476D02*
X8036262Y-12899476D01*
X8055309Y-12909000D01*
X8064833Y-12918524D01*
X8074357Y-12937571D01*
X8083881Y-12975667D01*
X8083881Y-13023286D01*
X8074357Y-13061381D01*
X8064833Y-13080428D01*
X8055309Y-13089952D01*
X8036262Y-13099476D01*
X8017214Y-13099476D01*
X7998167Y-13089952D01*
X7988643Y-13080428D01*
X7979119Y-13061381D01*
X7969595Y-13023286D01*
X7969595Y-12975667D01*
X7979119Y-12937571D01*
X7988643Y-12918524D01*
X7998167Y-12909000D01*
X8017214Y-12899476D01*
X8169595Y-13080428D02*
X8179119Y-13089952D01*
X8169595Y-13099476D01*
X8160071Y-13089952D01*
X8169595Y-13080428D01*
X8169595Y-13099476D01*
X8350548Y-12899476D02*
X8312452Y-12899476D01*
X8293405Y-12909000D01*
X8283881Y-12918524D01*
X8264833Y-12947095D01*
X8255309Y-12985190D01*
X8255309Y-13061381D01*
X8264833Y-13080428D01*
X8274357Y-13089952D01*
X8293405Y-13099476D01*
X8331500Y-13099476D01*
X8350548Y-13089952D01*
X8360071Y-13080428D01*
X8369595Y-13061381D01*
X8369595Y-13013762D01*
X8360071Y-12994714D01*
X8350548Y-12985190D01*
X8331500Y-12975667D01*
X8293405Y-12975667D01*
X8274357Y-12985190D01*
X8264833Y-12994714D01*
X8255309Y-13013762D01*
X8493405Y-12899476D02*
X8512452Y-12899476D01*
X8531500Y-12909000D01*
X8541024Y-12918524D01*
X8550548Y-12937571D01*
X8560071Y-12975667D01*
X8560071Y-13023286D01*
X8550548Y-13061381D01*
X8541024Y-13080428D01*
X8531500Y-13089952D01*
X8512452Y-13099476D01*
X8493405Y-13099476D01*
X8474357Y-13089952D01*
X8464833Y-13080428D01*
X8455310Y-13061381D01*
X8445786Y-13023286D01*
X8445786Y-12975667D01*
X8455310Y-12937571D01*
X8464833Y-12918524D01*
X8474357Y-12909000D01*
X8493405Y-12899476D01*
X8683881Y-12899476D02*
X8702929Y-12899476D01*
X8721976Y-12909000D01*
X8731500Y-12918524D01*
X8741024Y-12937571D01*
X8750548Y-12975667D01*
X8750548Y-13023286D01*
X8741024Y-13061381D01*
X8731500Y-13080428D01*
X8721976Y-13089952D01*
X8702929Y-13099476D01*
X8683881Y-13099476D01*
X8664833Y-13089952D01*
X8655310Y-13080428D01*
X8645786Y-13061381D01*
X8636262Y-13023286D01*
X8636262Y-12975667D01*
X8645786Y-12937571D01*
X8655310Y-12918524D01*
X8664833Y-12909000D01*
X8683881Y-12899476D01*
X8836262Y-13099476D02*
X8836262Y-12966143D01*
X8836262Y-12985190D02*
X8845786Y-12975667D01*
X8864833Y-12966143D01*
X8893405Y-12966143D01*
X8912452Y-12975667D01*
X8921976Y-12994714D01*
X8921976Y-13099476D01*
X8921976Y-12994714D02*
X8931500Y-12975667D01*
X8950548Y-12966143D01*
X8979119Y-12966143D01*
X8998167Y-12975667D01*
X9007690Y-12994714D01*
X9007690Y-13099476D01*
X9102929Y-13099476D02*
X9102929Y-12966143D01*
X9102929Y-12985190D02*
X9112452Y-12975667D01*
X9131500Y-12966143D01*
X9160071Y-12966143D01*
X9179119Y-12975667D01*
X9188643Y-12994714D01*
X9188643Y-13099476D01*
X9188643Y-12994714D02*
X9198167Y-12975667D01*
X9217214Y-12966143D01*
X9245786Y-12966143D01*
X9264833Y-12975667D01*
X9274357Y-12994714D01*
X9274357Y-13099476D01*
X9664833Y-12889952D02*
X9493405Y-13147095D01*
X9921976Y-12899476D02*
X9941024Y-12899476D01*
X9960071Y-12909000D01*
X9969595Y-12918524D01*
X9979119Y-12937571D01*
X9988643Y-12975667D01*
X9988643Y-13023286D01*
X9979119Y-13061381D01*
X9969595Y-13080428D01*
X9960071Y-13089952D01*
X9941024Y-13099476D01*
X9921976Y-13099476D01*
X9902929Y-13089952D01*
X9893405Y-13080428D01*
X9883881Y-13061381D01*
X9874357Y-13023286D01*
X9874357Y-12975667D01*
X9883881Y-12937571D01*
X9893405Y-12918524D01*
X9902929Y-12909000D01*
X9921976Y-12899476D01*
X10074357Y-13080428D02*
X10083881Y-13089952D01*
X10074357Y-13099476D01*
X10064833Y-13089952D01*
X10074357Y-13080428D01*
X10074357Y-13099476D01*
X10207690Y-12899476D02*
X10226738Y-12899476D01*
X10245786Y-12909000D01*
X10255310Y-12918524D01*
X10264833Y-12937571D01*
X10274357Y-12975667D01*
X10274357Y-13023286D01*
X10264833Y-13061381D01*
X10255310Y-13080428D01*
X10245786Y-13089952D01*
X10226738Y-13099476D01*
X10207690Y-13099476D01*
X10188643Y-13089952D01*
X10179119Y-13080428D01*
X10169595Y-13061381D01*
X10160071Y-13023286D01*
X10160071Y-12975667D01*
X10169595Y-12937571D01*
X10179119Y-12918524D01*
X10188643Y-12909000D01*
X10207690Y-12899476D01*
X10350548Y-12918524D02*
X10360071Y-12909000D01*
X10379119Y-12899476D01*
X10426738Y-12899476D01*
X10445786Y-12909000D01*
X10455310Y-12918524D01*
X10464833Y-12937571D01*
X10464833Y-12956619D01*
X10455310Y-12985190D01*
X10341024Y-13099476D01*
X10464833Y-13099476D01*
X10531500Y-12899476D02*
X10655310Y-12899476D01*
X10588643Y-12975667D01*
X10617214Y-12975667D01*
X10636262Y-12985190D01*
X10645786Y-12994714D01*
X10655310Y-13013762D01*
X10655310Y-13061381D01*
X10645786Y-13080428D01*
X10636262Y-13089952D01*
X10617214Y-13099476D01*
X10560071Y-13099476D01*
X10541024Y-13089952D01*
X10531500Y-13080428D01*
X10826738Y-12899476D02*
X10788643Y-12899476D01*
X10769595Y-12909000D01*
X10760071Y-12918524D01*
X10741024Y-12947095D01*
X10731500Y-12985190D01*
X10731500Y-13061381D01*
X10741024Y-13080428D01*
X10750548Y-13089952D01*
X10769595Y-13099476D01*
X10807690Y-13099476D01*
X10826738Y-13089952D01*
X10836262Y-13080428D01*
X10845786Y-13061381D01*
X10845786Y-13013762D01*
X10836262Y-12994714D01*
X10826738Y-12985190D01*
X10807690Y-12975667D01*
X10769595Y-12975667D01*
X10750548Y-12985190D01*
X10741024Y-12994714D01*
X10731500Y-13013762D01*
X10921976Y-12899476D02*
X10921976Y-12937571D01*
X10998167Y-12899476D02*
X10998167Y-12937571D01*
X11293405Y-13175667D02*
X11283881Y-13166143D01*
X11264833Y-13137571D01*
X11255309Y-13118524D01*
X11245786Y-13089952D01*
X11236262Y-13042333D01*
X11236262Y-13004238D01*
X11245786Y-12956619D01*
X11255309Y-12928048D01*
X11264833Y-12909000D01*
X11283881Y-12880428D01*
X11293405Y-12870905D01*
X11398167Y-12985190D02*
X11379119Y-12975667D01*
X11369595Y-12966143D01*
X11360071Y-12947095D01*
X11360071Y-12937571D01*
X11369595Y-12918524D01*
X11379119Y-12909000D01*
X11398167Y-12899476D01*
X11436262Y-12899476D01*
X11455309Y-12909000D01*
X11464833Y-12918524D01*
X11474357Y-12937571D01*
X11474357Y-12947095D01*
X11464833Y-12966143D01*
X11455309Y-12975667D01*
X11436262Y-12985190D01*
X11398167Y-12985190D01*
X11379119Y-12994714D01*
X11369595Y-13004238D01*
X11360071Y-13023286D01*
X11360071Y-13061381D01*
X11369595Y-13080428D01*
X11379119Y-13089952D01*
X11398167Y-13099476D01*
X11436262Y-13099476D01*
X11455309Y-13089952D01*
X11464833Y-13080428D01*
X11474357Y-13061381D01*
X11474357Y-13023286D01*
X11464833Y-13004238D01*
X11455309Y-12994714D01*
X11436262Y-12985190D01*
X11712452Y-13099476D02*
X11712452Y-12899476D01*
X11798167Y-13099476D02*
X11798167Y-12994714D01*
X11788643Y-12975667D01*
X11769595Y-12966143D01*
X11741024Y-12966143D01*
X11721976Y-12975667D01*
X11712452Y-12985190D01*
X11921976Y-13099476D02*
X11902928Y-13089952D01*
X11893405Y-13080428D01*
X11883881Y-13061381D01*
X11883881Y-13004238D01*
X11893405Y-12985190D01*
X11902928Y-12975667D01*
X11921976Y-12966143D01*
X11950548Y-12966143D01*
X11969595Y-12975667D01*
X11979119Y-12985190D01*
X11988643Y-13004238D01*
X11988643Y-13061381D01*
X11979119Y-13080428D01*
X11969595Y-13089952D01*
X11950548Y-13099476D01*
X11921976Y-13099476D01*
X12102928Y-13099476D02*
X12083881Y-13089952D01*
X12074357Y-13070905D01*
X12074357Y-12899476D01*
X12255309Y-13089952D02*
X12236262Y-13099476D01*
X12198167Y-13099476D01*
X12179119Y-13089952D01*
X12169595Y-13070905D01*
X12169595Y-12994714D01*
X12179119Y-12975667D01*
X12198167Y-12966143D01*
X12236262Y-12966143D01*
X12255309Y-12975667D01*
X12264833Y-12994714D01*
X12264833Y-13013762D01*
X12169595Y-13032809D01*
X12341024Y-13089952D02*
X12360071Y-13099476D01*
X12398167Y-13099476D01*
X12417214Y-13089952D01*
X12426738Y-13070905D01*
X12426738Y-13061381D01*
X12417214Y-13042333D01*
X12398167Y-13032809D01*
X12369595Y-13032809D01*
X12350548Y-13023286D01*
X12341024Y-13004238D01*
X12341024Y-12994714D01*
X12350548Y-12975667D01*
X12369595Y-12966143D01*
X12398167Y-12966143D01*
X12417214Y-12975667D01*
X12493405Y-13175667D02*
X12502928Y-13166143D01*
X12521976Y-13137571D01*
X12531500Y-13118524D01*
X12541024Y-13089952D01*
X12550548Y-13042333D01*
X12550548Y-13004238D01*
X12541024Y-12956619D01*
X12531500Y-12928048D01*
X12521976Y-12909000D01*
X12502928Y-12880428D01*
X12493405Y-12870905D01*
D15*
X7711981Y-13295981D02*
X7711981Y-13250019D01*
X7666019Y-13250019D01*
X7666019Y-13295981D01*
X7711981Y-13295981D01*
D11*
X8017214Y-13163476D02*
X8036262Y-13163476D01*
X8055309Y-13173000D01*
X8064833Y-13182524D01*
X8074357Y-13201571D01*
X8083881Y-13239667D01*
X8083881Y-13287286D01*
X8074357Y-13325381D01*
X8064833Y-13344428D01*
X8055309Y-13353952D01*
X8036262Y-13363476D01*
X8017214Y-13363476D01*
X7998167Y-13353952D01*
X7988643Y-13344428D01*
X7979119Y-13325381D01*
X7969595Y-13287286D01*
X7969595Y-13239667D01*
X7979119Y-13201571D01*
X7988643Y-13182524D01*
X7998167Y-13173000D01*
X8017214Y-13163476D01*
X8169595Y-13344428D02*
X8179119Y-13353952D01*
X8169595Y-13363476D01*
X8160071Y-13353952D01*
X8169595Y-13344428D01*
X8169595Y-13363476D01*
X8350548Y-13163476D02*
X8312452Y-13163476D01*
X8293405Y-13173000D01*
X8283881Y-13182524D01*
X8264833Y-13211095D01*
X8255309Y-13249190D01*
X8255309Y-13325381D01*
X8264833Y-13344428D01*
X8274357Y-13353952D01*
X8293405Y-13363476D01*
X8331500Y-13363476D01*
X8350548Y-13353952D01*
X8360071Y-13344428D01*
X8369595Y-13325381D01*
X8369595Y-13277762D01*
X8360071Y-13258714D01*
X8350548Y-13249190D01*
X8331500Y-13239667D01*
X8293405Y-13239667D01*
X8274357Y-13249190D01*
X8264833Y-13258714D01*
X8255309Y-13277762D01*
X8550548Y-13163476D02*
X8455310Y-13163476D01*
X8445786Y-13258714D01*
X8455310Y-13249190D01*
X8474357Y-13239667D01*
X8521976Y-13239667D01*
X8541024Y-13249190D01*
X8550548Y-13258714D01*
X8560071Y-13277762D01*
X8560071Y-13325381D01*
X8550548Y-13344428D01*
X8541024Y-13353952D01*
X8521976Y-13363476D01*
X8474357Y-13363476D01*
X8455310Y-13353952D01*
X8445786Y-13344428D01*
X8683881Y-13163476D02*
X8702929Y-13163476D01*
X8721976Y-13173000D01*
X8731500Y-13182524D01*
X8741024Y-13201571D01*
X8750548Y-13239667D01*
X8750548Y-13287286D01*
X8741024Y-13325381D01*
X8731500Y-13344428D01*
X8721976Y-13353952D01*
X8702929Y-13363476D01*
X8683881Y-13363476D01*
X8664833Y-13353952D01*
X8655310Y-13344428D01*
X8645786Y-13325381D01*
X8636262Y-13287286D01*
X8636262Y-13239667D01*
X8645786Y-13201571D01*
X8655310Y-13182524D01*
X8664833Y-13173000D01*
X8683881Y-13163476D01*
X8836262Y-13363476D02*
X8836262Y-13230143D01*
X8836262Y-13249190D02*
X8845786Y-13239667D01*
X8864833Y-13230143D01*
X8893405Y-13230143D01*
X8912452Y-13239667D01*
X8921976Y-13258714D01*
X8921976Y-13363476D01*
X8921976Y-13258714D02*
X8931500Y-13239667D01*
X8950548Y-13230143D01*
X8979119Y-13230143D01*
X8998167Y-13239667D01*
X9007690Y-13258714D01*
X9007690Y-13363476D01*
X9102929Y-13363476D02*
X9102929Y-13230143D01*
X9102929Y-13249190D02*
X9112452Y-13239667D01*
X9131500Y-13230143D01*
X9160071Y-13230143D01*
X9179119Y-13239667D01*
X9188643Y-13258714D01*
X9188643Y-13363476D01*
X9188643Y-13258714D02*
X9198167Y-13239667D01*
X9217214Y-13230143D01*
X9245786Y-13230143D01*
X9264833Y-13239667D01*
X9274357Y-13258714D01*
X9274357Y-13363476D01*
X9664833Y-13153952D02*
X9493405Y-13411095D01*
X9921976Y-13163476D02*
X9941024Y-13163476D01*
X9960071Y-13173000D01*
X9969595Y-13182524D01*
X9979119Y-13201571D01*
X9988643Y-13239667D01*
X9988643Y-13287286D01*
X9979119Y-13325381D01*
X9969595Y-13344428D01*
X9960071Y-13353952D01*
X9941024Y-13363476D01*
X9921976Y-13363476D01*
X9902929Y-13353952D01*
X9893405Y-13344428D01*
X9883881Y-13325381D01*
X9874357Y-13287286D01*
X9874357Y-13239667D01*
X9883881Y-13201571D01*
X9893405Y-13182524D01*
X9902929Y-13173000D01*
X9921976Y-13163476D01*
X10074357Y-13344428D02*
X10083881Y-13353952D01*
X10074357Y-13363476D01*
X10064833Y-13353952D01*
X10074357Y-13344428D01*
X10074357Y-13363476D01*
X10207690Y-13163476D02*
X10226738Y-13163476D01*
X10245786Y-13173000D01*
X10255310Y-13182524D01*
X10264833Y-13201571D01*
X10274357Y-13239667D01*
X10274357Y-13287286D01*
X10264833Y-13325381D01*
X10255310Y-13344428D01*
X10245786Y-13353952D01*
X10226738Y-13363476D01*
X10207690Y-13363476D01*
X10188643Y-13353952D01*
X10179119Y-13344428D01*
X10169595Y-13325381D01*
X10160071Y-13287286D01*
X10160071Y-13239667D01*
X10169595Y-13201571D01*
X10179119Y-13182524D01*
X10188643Y-13173000D01*
X10207690Y-13163476D01*
X10350548Y-13182524D02*
X10360071Y-13173000D01*
X10379119Y-13163476D01*
X10426738Y-13163476D01*
X10445786Y-13173000D01*
X10455310Y-13182524D01*
X10464833Y-13201571D01*
X10464833Y-13220619D01*
X10455310Y-13249190D01*
X10341024Y-13363476D01*
X10464833Y-13363476D01*
X10645786Y-13163476D02*
X10550548Y-13163476D01*
X10541024Y-13258714D01*
X10550548Y-13249190D01*
X10569595Y-13239667D01*
X10617214Y-13239667D01*
X10636262Y-13249190D01*
X10645786Y-13258714D01*
X10655310Y-13277762D01*
X10655310Y-13325381D01*
X10645786Y-13344428D01*
X10636262Y-13353952D01*
X10617214Y-13363476D01*
X10569595Y-13363476D01*
X10550548Y-13353952D01*
X10541024Y-13344428D01*
X10826738Y-13163476D02*
X10788643Y-13163476D01*
X10769595Y-13173000D01*
X10760071Y-13182524D01*
X10741024Y-13211095D01*
X10731500Y-13249190D01*
X10731500Y-13325381D01*
X10741024Y-13344428D01*
X10750548Y-13353952D01*
X10769595Y-13363476D01*
X10807690Y-13363476D01*
X10826738Y-13353952D01*
X10836262Y-13344428D01*
X10845786Y-13325381D01*
X10845786Y-13277762D01*
X10836262Y-13258714D01*
X10826738Y-13249190D01*
X10807690Y-13239667D01*
X10769595Y-13239667D01*
X10750548Y-13249190D01*
X10741024Y-13258714D01*
X10731500Y-13277762D01*
X10921976Y-13163476D02*
X10921976Y-13201571D01*
X10998167Y-13163476D02*
X10998167Y-13201571D01*
X11293405Y-13439667D02*
X11283881Y-13430143D01*
X11264833Y-13401571D01*
X11255309Y-13382524D01*
X11245786Y-13353952D01*
X11236262Y-13306333D01*
X11236262Y-13268238D01*
X11245786Y-13220619D01*
X11255309Y-13192048D01*
X11264833Y-13173000D01*
X11283881Y-13144428D01*
X11293405Y-13134905D01*
X11474357Y-13363476D02*
X11360071Y-13363476D01*
X11417214Y-13363476D02*
X11417214Y-13163476D01*
X11398167Y-13192048D01*
X11379119Y-13211095D01*
X11360071Y-13220619D01*
X11655309Y-13163476D02*
X11560071Y-13163476D01*
X11550548Y-13258714D01*
X11560071Y-13249190D01*
X11579119Y-13239667D01*
X11626738Y-13239667D01*
X11645786Y-13249190D01*
X11655309Y-13258714D01*
X11664833Y-13277762D01*
X11664833Y-13325381D01*
X11655309Y-13344428D01*
X11645786Y-13353952D01*
X11626738Y-13363476D01*
X11579119Y-13363476D01*
X11560071Y-13353952D01*
X11550548Y-13344428D01*
X11902928Y-13363476D02*
X11902928Y-13163476D01*
X11988643Y-13363476D02*
X11988643Y-13258714D01*
X11979119Y-13239667D01*
X11960071Y-13230143D01*
X11931500Y-13230143D01*
X11912452Y-13239667D01*
X11902928Y-13249190D01*
X12112452Y-13363476D02*
X12093405Y-13353952D01*
X12083881Y-13344428D01*
X12074357Y-13325381D01*
X12074357Y-13268238D01*
X12083881Y-13249190D01*
X12093405Y-13239667D01*
X12112452Y-13230143D01*
X12141024Y-13230143D01*
X12160071Y-13239667D01*
X12169595Y-13249190D01*
X12179119Y-13268238D01*
X12179119Y-13325381D01*
X12169595Y-13344428D01*
X12160071Y-13353952D01*
X12141024Y-13363476D01*
X12112452Y-13363476D01*
X12293405Y-13363476D02*
X12274357Y-13353952D01*
X12264833Y-13334905D01*
X12264833Y-13163476D01*
X12445786Y-13353952D02*
X12426738Y-13363476D01*
X12388643Y-13363476D01*
X12369595Y-13353952D01*
X12360071Y-13334905D01*
X12360071Y-13258714D01*
X12369595Y-13239667D01*
X12388643Y-13230143D01*
X12426738Y-13230143D01*
X12445786Y-13239667D01*
X12455309Y-13258714D01*
X12455309Y-13277762D01*
X12360071Y-13296809D01*
X12531500Y-13353952D02*
X12550548Y-13363476D01*
X12588643Y-13363476D01*
X12607690Y-13353952D01*
X12617214Y-13334905D01*
X12617214Y-13325381D01*
X12607690Y-13306333D01*
X12588643Y-13296809D01*
X12560071Y-13296809D01*
X12541024Y-13287286D01*
X12531500Y-13268238D01*
X12531500Y-13258714D01*
X12541024Y-13239667D01*
X12560071Y-13230143D01*
X12588643Y-13230143D01*
X12607690Y-13239667D01*
X12683881Y-13439667D02*
X12693405Y-13430143D01*
X12712452Y-13401571D01*
X12721976Y-13382524D01*
X12731500Y-13353952D01*
X12741024Y-13306333D01*
X12741024Y-13268238D01*
X12731500Y-13220619D01*
X12721976Y-13192048D01*
X12712452Y-13173000D01*
X12693405Y-13144428D01*
X12683881Y-13134905D01*
D16*
X7686500Y-13572000D02*
X7721500Y-13537000D01*
X7686500Y-13502000D01*
X7651500Y-13537000D01*
X7686500Y-13572000D01*
D11*
X8017214Y-13427476D02*
X8036262Y-13427476D01*
X8055309Y-13437000D01*
X8064833Y-13446524D01*
X8074357Y-13465571D01*
X8083881Y-13503667D01*
X8083881Y-13551286D01*
X8074357Y-13589381D01*
X8064833Y-13608428D01*
X8055309Y-13617952D01*
X8036262Y-13627476D01*
X8017214Y-13627476D01*
X7998167Y-13617952D01*
X7988643Y-13608428D01*
X7979119Y-13589381D01*
X7969595Y-13551286D01*
X7969595Y-13503667D01*
X7979119Y-13465571D01*
X7988643Y-13446524D01*
X7998167Y-13437000D01*
X8017214Y-13427476D01*
X8169595Y-13608428D02*
X8179119Y-13617952D01*
X8169595Y-13627476D01*
X8160071Y-13617952D01*
X8169595Y-13608428D01*
X8169595Y-13627476D01*
X8245786Y-13427476D02*
X8379119Y-13427476D01*
X8293405Y-13627476D01*
X8493405Y-13427476D02*
X8512452Y-13427476D01*
X8531500Y-13437000D01*
X8541024Y-13446524D01*
X8550548Y-13465571D01*
X8560071Y-13503667D01*
X8560071Y-13551286D01*
X8550548Y-13589381D01*
X8541024Y-13608428D01*
X8531500Y-13617952D01*
X8512452Y-13627476D01*
X8493405Y-13627476D01*
X8474357Y-13617952D01*
X8464833Y-13608428D01*
X8455310Y-13589381D01*
X8445786Y-13551286D01*
X8445786Y-13503667D01*
X8455310Y-13465571D01*
X8464833Y-13446524D01*
X8474357Y-13437000D01*
X8493405Y-13427476D01*
X8683881Y-13427476D02*
X8702929Y-13427476D01*
X8721976Y-13437000D01*
X8731500Y-13446524D01*
X8741024Y-13465571D01*
X8750548Y-13503667D01*
X8750548Y-13551286D01*
X8741024Y-13589381D01*
X8731500Y-13608428D01*
X8721976Y-13617952D01*
X8702929Y-13627476D01*
X8683881Y-13627476D01*
X8664833Y-13617952D01*
X8655310Y-13608428D01*
X8645786Y-13589381D01*
X8636262Y-13551286D01*
X8636262Y-13503667D01*
X8645786Y-13465571D01*
X8655310Y-13446524D01*
X8664833Y-13437000D01*
X8683881Y-13427476D01*
X8836262Y-13627476D02*
X8836262Y-13494143D01*
X8836262Y-13513190D02*
X8845786Y-13503667D01*
X8864833Y-13494143D01*
X8893405Y-13494143D01*
X8912452Y-13503667D01*
X8921976Y-13522714D01*
X8921976Y-13627476D01*
X8921976Y-13522714D02*
X8931500Y-13503667D01*
X8950548Y-13494143D01*
X8979119Y-13494143D01*
X8998167Y-13503667D01*
X9007690Y-13522714D01*
X9007690Y-13627476D01*
X9102929Y-13627476D02*
X9102929Y-13494143D01*
X9102929Y-13513190D02*
X9112452Y-13503667D01*
X9131500Y-13494143D01*
X9160071Y-13494143D01*
X9179119Y-13503667D01*
X9188643Y-13522714D01*
X9188643Y-13627476D01*
X9188643Y-13522714D02*
X9198167Y-13503667D01*
X9217214Y-13494143D01*
X9245786Y-13494143D01*
X9264833Y-13503667D01*
X9274357Y-13522714D01*
X9274357Y-13627476D01*
X9664833Y-13417952D02*
X9493405Y-13675095D01*
X9921976Y-13427476D02*
X9941024Y-13427476D01*
X9960071Y-13437000D01*
X9969595Y-13446524D01*
X9979119Y-13465571D01*
X9988643Y-13503667D01*
X9988643Y-13551286D01*
X9979119Y-13589381D01*
X9969595Y-13608428D01*
X9960071Y-13617952D01*
X9941024Y-13627476D01*
X9921976Y-13627476D01*
X9902929Y-13617952D01*
X9893405Y-13608428D01*
X9883881Y-13589381D01*
X9874357Y-13551286D01*
X9874357Y-13503667D01*
X9883881Y-13465571D01*
X9893405Y-13446524D01*
X9902929Y-13437000D01*
X9921976Y-13427476D01*
X10074357Y-13608428D02*
X10083881Y-13617952D01*
X10074357Y-13627476D01*
X10064833Y-13617952D01*
X10074357Y-13608428D01*
X10074357Y-13627476D01*
X10207690Y-13427476D02*
X10226738Y-13427476D01*
X10245786Y-13437000D01*
X10255310Y-13446524D01*
X10264833Y-13465571D01*
X10274357Y-13503667D01*
X10274357Y-13551286D01*
X10264833Y-13589381D01*
X10255310Y-13608428D01*
X10245786Y-13617952D01*
X10226738Y-13627476D01*
X10207690Y-13627476D01*
X10188643Y-13617952D01*
X10179119Y-13608428D01*
X10169595Y-13589381D01*
X10160071Y-13551286D01*
X10160071Y-13503667D01*
X10169595Y-13465571D01*
X10179119Y-13446524D01*
X10188643Y-13437000D01*
X10207690Y-13427476D01*
X10350548Y-13446524D02*
X10360071Y-13437000D01*
X10379119Y-13427476D01*
X10426738Y-13427476D01*
X10445786Y-13437000D01*
X10455310Y-13446524D01*
X10464833Y-13465571D01*
X10464833Y-13484619D01*
X10455310Y-13513190D01*
X10341024Y-13627476D01*
X10464833Y-13627476D01*
X10531500Y-13427476D02*
X10664833Y-13427476D01*
X10579119Y-13627476D01*
X10826738Y-13427476D02*
X10788643Y-13427476D01*
X10769595Y-13437000D01*
X10760071Y-13446524D01*
X10741024Y-13475095D01*
X10731500Y-13513190D01*
X10731500Y-13589381D01*
X10741024Y-13608428D01*
X10750548Y-13617952D01*
X10769595Y-13627476D01*
X10807690Y-13627476D01*
X10826738Y-13617952D01*
X10836262Y-13608428D01*
X10845786Y-13589381D01*
X10845786Y-13541762D01*
X10836262Y-13522714D01*
X10826738Y-13513190D01*
X10807690Y-13503667D01*
X10769595Y-13503667D01*
X10750548Y-13513190D01*
X10741024Y-13522714D01*
X10731500Y-13541762D01*
X10921976Y-13427476D02*
X10921976Y-13465571D01*
X10998167Y-13427476D02*
X10998167Y-13465571D01*
X11293405Y-13703667D02*
X11283881Y-13694143D01*
X11264833Y-13665571D01*
X11255309Y-13646524D01*
X11245786Y-13617952D01*
X11236262Y-13570333D01*
X11236262Y-13532238D01*
X11245786Y-13484619D01*
X11255309Y-13456048D01*
X11264833Y-13437000D01*
X11283881Y-13408428D01*
X11293405Y-13398905D01*
X11474357Y-13627476D02*
X11360071Y-13627476D01*
X11417214Y-13627476D02*
X11417214Y-13427476D01*
X11398167Y-13456048D01*
X11379119Y-13475095D01*
X11360071Y-13484619D01*
X11541024Y-13427476D02*
X11674357Y-13427476D01*
X11588643Y-13627476D01*
X11902928Y-13627476D02*
X11902928Y-13427476D01*
X11988643Y-13627476D02*
X11988643Y-13522714D01*
X11979119Y-13503667D01*
X11960071Y-13494143D01*
X11931500Y-13494143D01*
X11912452Y-13503667D01*
X11902928Y-13513190D01*
X12112452Y-13627476D02*
X12093405Y-13617952D01*
X12083881Y-13608428D01*
X12074357Y-13589381D01*
X12074357Y-13532238D01*
X12083881Y-13513190D01*
X12093405Y-13503667D01*
X12112452Y-13494143D01*
X12141024Y-13494143D01*
X12160071Y-13503667D01*
X12169595Y-13513190D01*
X12179119Y-13532238D01*
X12179119Y-13589381D01*
X12169595Y-13608428D01*
X12160071Y-13617952D01*
X12141024Y-13627476D01*
X12112452Y-13627476D01*
X12293405Y-13627476D02*
X12274357Y-13617952D01*
X12264833Y-13598905D01*
X12264833Y-13427476D01*
X12445786Y-13617952D02*
X12426738Y-13627476D01*
X12388643Y-13627476D01*
X12369595Y-13617952D01*
X12360071Y-13598905D01*
X12360071Y-13522714D01*
X12369595Y-13503667D01*
X12388643Y-13494143D01*
X12426738Y-13494143D01*
X12445786Y-13503667D01*
X12455309Y-13522714D01*
X12455309Y-13541762D01*
X12360071Y-13560809D01*
X12531500Y-13617952D02*
X12550548Y-13627476D01*
X12588643Y-13627476D01*
X12607690Y-13617952D01*
X12617214Y-13598905D01*
X12617214Y-13589381D01*
X12607690Y-13570333D01*
X12588643Y-13560809D01*
X12560071Y-13560809D01*
X12541024Y-13551286D01*
X12531500Y-13532238D01*
X12531500Y-13522714D01*
X12541024Y-13503667D01*
X12560071Y-13494143D01*
X12588643Y-13494143D01*
X12607690Y-13503667D01*
X12683881Y-13703667D02*
X12693405Y-13694143D01*
X12712452Y-13665571D01*
X12721976Y-13646524D01*
X12731500Y-13617952D01*
X12741024Y-13570333D01*
X12741024Y-13532238D01*
X12731500Y-13484619D01*
X12721976Y-13456048D01*
X12712452Y-13437000D01*
X12693405Y-13408428D01*
X12683881Y-13398905D01*
D17*
X7641500Y-13761000D02*
X7721500Y-13841000D01*
X7721500Y-13761000D02*
X7641500Y-13841000D01*
X7721500Y-13801000D02*
G75*
G03*
X7721500Y-13801000I-40000J0D01*
G01*
D11*
X8017214Y-13691476D02*
X8036262Y-13691476D01*
X8055309Y-13701000D01*
X8064833Y-13710524D01*
X8074357Y-13729571D01*
X8083881Y-13767667D01*
X8083881Y-13815286D01*
X8074357Y-13853381D01*
X8064833Y-13872428D01*
X8055309Y-13881952D01*
X8036262Y-13891476D01*
X8017214Y-13891476D01*
X7998167Y-13881952D01*
X7988643Y-13872428D01*
X7979119Y-13853381D01*
X7969595Y-13815286D01*
X7969595Y-13767667D01*
X7979119Y-13729571D01*
X7988643Y-13710524D01*
X7998167Y-13701000D01*
X8017214Y-13691476D01*
X8169595Y-13872428D02*
X8179119Y-13881952D01*
X8169595Y-13891476D01*
X8160071Y-13881952D01*
X8169595Y-13872428D01*
X8169595Y-13891476D01*
X8293405Y-13777190D02*
X8274357Y-13767667D01*
X8264833Y-13758143D01*
X8255309Y-13739095D01*
X8255309Y-13729571D01*
X8264833Y-13710524D01*
X8274357Y-13701000D01*
X8293405Y-13691476D01*
X8331500Y-13691476D01*
X8350548Y-13701000D01*
X8360071Y-13710524D01*
X8369595Y-13729571D01*
X8369595Y-13739095D01*
X8360071Y-13758143D01*
X8350548Y-13767667D01*
X8331500Y-13777190D01*
X8293405Y-13777190D01*
X8274357Y-13786714D01*
X8264833Y-13796238D01*
X8255309Y-13815286D01*
X8255309Y-13853381D01*
X8264833Y-13872428D01*
X8274357Y-13881952D01*
X8293405Y-13891476D01*
X8331500Y-13891476D01*
X8350548Y-13881952D01*
X8360071Y-13872428D01*
X8369595Y-13853381D01*
X8369595Y-13815286D01*
X8360071Y-13796238D01*
X8350548Y-13786714D01*
X8331500Y-13777190D01*
X8493405Y-13691476D02*
X8512452Y-13691476D01*
X8531500Y-13701000D01*
X8541024Y-13710524D01*
X8550548Y-13729571D01*
X8560071Y-13767667D01*
X8560071Y-13815286D01*
X8550548Y-13853381D01*
X8541024Y-13872428D01*
X8531500Y-13881952D01*
X8512452Y-13891476D01*
X8493405Y-13891476D01*
X8474357Y-13881952D01*
X8464833Y-13872428D01*
X8455310Y-13853381D01*
X8445786Y-13815286D01*
X8445786Y-13767667D01*
X8455310Y-13729571D01*
X8464833Y-13710524D01*
X8474357Y-13701000D01*
X8493405Y-13691476D01*
X8683881Y-13691476D02*
X8702929Y-13691476D01*
X8721976Y-13701000D01*
X8731500Y-13710524D01*
X8741024Y-13729571D01*
X8750548Y-13767667D01*
X8750548Y-13815286D01*
X8741024Y-13853381D01*
X8731500Y-13872428D01*
X8721976Y-13881952D01*
X8702929Y-13891476D01*
X8683881Y-13891476D01*
X8664833Y-13881952D01*
X8655310Y-13872428D01*
X8645786Y-13853381D01*
X8636262Y-13815286D01*
X8636262Y-13767667D01*
X8645786Y-13729571D01*
X8655310Y-13710524D01*
X8664833Y-13701000D01*
X8683881Y-13691476D01*
X8836262Y-13891476D02*
X8836262Y-13758143D01*
X8836262Y-13777190D02*
X8845786Y-13767667D01*
X8864833Y-13758143D01*
X8893405Y-13758143D01*
X8912452Y-13767667D01*
X8921976Y-13786714D01*
X8921976Y-13891476D01*
X8921976Y-13786714D02*
X8931500Y-13767667D01*
X8950548Y-13758143D01*
X8979119Y-13758143D01*
X8998167Y-13767667D01*
X9007690Y-13786714D01*
X9007690Y-13891476D01*
X9102929Y-13891476D02*
X9102929Y-13758143D01*
X9102929Y-13777190D02*
X9112452Y-13767667D01*
X9131500Y-13758143D01*
X9160071Y-13758143D01*
X9179119Y-13767667D01*
X9188643Y-13786714D01*
X9188643Y-13891476D01*
X9188643Y-13786714D02*
X9198167Y-13767667D01*
X9217214Y-13758143D01*
X9245786Y-13758143D01*
X9264833Y-13767667D01*
X9274357Y-13786714D01*
X9274357Y-13891476D01*
X9664833Y-13681952D02*
X9493405Y-13939095D01*
X9921976Y-13691476D02*
X9941024Y-13691476D01*
X9960071Y-13701000D01*
X9969595Y-13710524D01*
X9979119Y-13729571D01*
X9988643Y-13767667D01*
X9988643Y-13815286D01*
X9979119Y-13853381D01*
X9969595Y-13872428D01*
X9960071Y-13881952D01*
X9941024Y-13891476D01*
X9921976Y-13891476D01*
X9902929Y-13881952D01*
X9893405Y-13872428D01*
X9883881Y-13853381D01*
X9874357Y-13815286D01*
X9874357Y-13767667D01*
X9883881Y-13729571D01*
X9893405Y-13710524D01*
X9902929Y-13701000D01*
X9921976Y-13691476D01*
X10074357Y-13872428D02*
X10083881Y-13881952D01*
X10074357Y-13891476D01*
X10064833Y-13881952D01*
X10074357Y-13872428D01*
X10074357Y-13891476D01*
X10207690Y-13691476D02*
X10226738Y-13691476D01*
X10245786Y-13701000D01*
X10255310Y-13710524D01*
X10264833Y-13729571D01*
X10274357Y-13767667D01*
X10274357Y-13815286D01*
X10264833Y-13853381D01*
X10255310Y-13872428D01*
X10245786Y-13881952D01*
X10226738Y-13891476D01*
X10207690Y-13891476D01*
X10188643Y-13881952D01*
X10179119Y-13872428D01*
X10169595Y-13853381D01*
X10160071Y-13815286D01*
X10160071Y-13767667D01*
X10169595Y-13729571D01*
X10179119Y-13710524D01*
X10188643Y-13701000D01*
X10207690Y-13691476D01*
X10341024Y-13691476D02*
X10464833Y-13691476D01*
X10398167Y-13767667D01*
X10426738Y-13767667D01*
X10445786Y-13777190D01*
X10455310Y-13786714D01*
X10464833Y-13805762D01*
X10464833Y-13853381D01*
X10455310Y-13872428D01*
X10445786Y-13881952D01*
X10426738Y-13891476D01*
X10369595Y-13891476D01*
X10350548Y-13881952D01*
X10341024Y-13872428D01*
X10655310Y-13891476D02*
X10541024Y-13891476D01*
X10598167Y-13891476D02*
X10598167Y-13691476D01*
X10579119Y-13720048D01*
X10560071Y-13739095D01*
X10541024Y-13748619D01*
X10836262Y-13691476D02*
X10741024Y-13691476D01*
X10731500Y-13786714D01*
X10741024Y-13777190D01*
X10760071Y-13767667D01*
X10807690Y-13767667D01*
X10826738Y-13777190D01*
X10836262Y-13786714D01*
X10845786Y-13805762D01*
X10845786Y-13853381D01*
X10836262Y-13872428D01*
X10826738Y-13881952D01*
X10807690Y-13891476D01*
X10760071Y-13891476D01*
X10741024Y-13881952D01*
X10731500Y-13872428D01*
X10921976Y-13691476D02*
X10921976Y-13729571D01*
X10998167Y-13691476D02*
X10998167Y-13729571D01*
X11293405Y-13967667D02*
X11283881Y-13958143D01*
X11264833Y-13929571D01*
X11255309Y-13910524D01*
X11245786Y-13881952D01*
X11236262Y-13834333D01*
X11236262Y-13796238D01*
X11245786Y-13748619D01*
X11255309Y-13720048D01*
X11264833Y-13701000D01*
X11283881Y-13672428D01*
X11293405Y-13662905D01*
X11360071Y-13710524D02*
X11369595Y-13701000D01*
X11388643Y-13691476D01*
X11436262Y-13691476D01*
X11455309Y-13701000D01*
X11464833Y-13710524D01*
X11474357Y-13729571D01*
X11474357Y-13748619D01*
X11464833Y-13777190D01*
X11350548Y-13891476D01*
X11474357Y-13891476D01*
X11712452Y-13891476D02*
X11712452Y-13691476D01*
X11798167Y-13891476D02*
X11798167Y-13786714D01*
X11788643Y-13767667D01*
X11769595Y-13758143D01*
X11741024Y-13758143D01*
X11721976Y-13767667D01*
X11712452Y-13777190D01*
X11921976Y-13891476D02*
X11902928Y-13881952D01*
X11893405Y-13872428D01*
X11883881Y-13853381D01*
X11883881Y-13796238D01*
X11893405Y-13777190D01*
X11902928Y-13767667D01*
X11921976Y-13758143D01*
X11950548Y-13758143D01*
X11969595Y-13767667D01*
X11979119Y-13777190D01*
X11988643Y-13796238D01*
X11988643Y-13853381D01*
X11979119Y-13872428D01*
X11969595Y-13881952D01*
X11950548Y-13891476D01*
X11921976Y-13891476D01*
X12102928Y-13891476D02*
X12083881Y-13881952D01*
X12074357Y-13862905D01*
X12074357Y-13691476D01*
X12255309Y-13881952D02*
X12236262Y-13891476D01*
X12198167Y-13891476D01*
X12179119Y-13881952D01*
X12169595Y-13862905D01*
X12169595Y-13786714D01*
X12179119Y-13767667D01*
X12198167Y-13758143D01*
X12236262Y-13758143D01*
X12255309Y-13767667D01*
X12264833Y-13786714D01*
X12264833Y-13805762D01*
X12169595Y-13824809D01*
X12341024Y-13881952D02*
X12360071Y-13891476D01*
X12398167Y-13891476D01*
X12417214Y-13881952D01*
X12426738Y-13862905D01*
X12426738Y-13853381D01*
X12417214Y-13834333D01*
X12398167Y-13824809D01*
X12369595Y-13824809D01*
X12350548Y-13815286D01*
X12341024Y-13796238D01*
X12341024Y-13786714D01*
X12350548Y-13767667D01*
X12369595Y-13758143D01*
X12398167Y-13758143D01*
X12417214Y-13767667D01*
X12493405Y-13967667D02*
X12502928Y-13958143D01*
X12521976Y-13929571D01*
X12531500Y-13910524D01*
X12541024Y-13881952D01*
X12550548Y-13834333D01*
X12550548Y-13796238D01*
X12541024Y-13748619D01*
X12531500Y-13720048D01*
X12521976Y-13701000D01*
X12502928Y-13672428D01*
X12493405Y-13662905D01*
D18*
X7621500Y-14015000D02*
X7721500Y-14115000D01*
X7721500Y-14015000D02*
X7621500Y-14115000D01*
X7671500Y-14015000D02*
X7671500Y-14115000D01*
X7621500Y-14065000D02*
X7721500Y-14065000D01*
D11*
X8083881Y-14155476D02*
X7969595Y-14155476D01*
X8026738Y-14155476D02*
X8026738Y-13955476D01*
X8007690Y-13984048D01*
X7988643Y-14003095D01*
X7969595Y-14012619D01*
X8169595Y-14136428D02*
X8179119Y-14145952D01*
X8169595Y-14155476D01*
X8160071Y-14145952D01*
X8169595Y-14136428D01*
X8169595Y-14155476D01*
X8302928Y-13955476D02*
X8321976Y-13955476D01*
X8341024Y-13965000D01*
X8350548Y-13974524D01*
X8360071Y-13993571D01*
X8369595Y-14031667D01*
X8369595Y-14079286D01*
X8360071Y-14117381D01*
X8350548Y-14136428D01*
X8341024Y-14145952D01*
X8321976Y-14155476D01*
X8302928Y-14155476D01*
X8283881Y-14145952D01*
X8274357Y-14136428D01*
X8264833Y-14117381D01*
X8255309Y-14079286D01*
X8255309Y-14031667D01*
X8264833Y-13993571D01*
X8274357Y-13974524D01*
X8283881Y-13965000D01*
X8302928Y-13955476D01*
X8493405Y-13955476D02*
X8512452Y-13955476D01*
X8531500Y-13965000D01*
X8541024Y-13974524D01*
X8550548Y-13993571D01*
X8560071Y-14031667D01*
X8560071Y-14079286D01*
X8550548Y-14117381D01*
X8541024Y-14136428D01*
X8531500Y-14145952D01*
X8512452Y-14155476D01*
X8493405Y-14155476D01*
X8474357Y-14145952D01*
X8464833Y-14136428D01*
X8455310Y-14117381D01*
X8445786Y-14079286D01*
X8445786Y-14031667D01*
X8455310Y-13993571D01*
X8464833Y-13974524D01*
X8474357Y-13965000D01*
X8493405Y-13955476D01*
X8683881Y-13955476D02*
X8702929Y-13955476D01*
X8721976Y-13965000D01*
X8731500Y-13974524D01*
X8741024Y-13993571D01*
X8750548Y-14031667D01*
X8750548Y-14079286D01*
X8741024Y-14117381D01*
X8731500Y-14136428D01*
X8721976Y-14145952D01*
X8702929Y-14155476D01*
X8683881Y-14155476D01*
X8664833Y-14145952D01*
X8655310Y-14136428D01*
X8645786Y-14117381D01*
X8636262Y-14079286D01*
X8636262Y-14031667D01*
X8645786Y-13993571D01*
X8655310Y-13974524D01*
X8664833Y-13965000D01*
X8683881Y-13955476D01*
X8836262Y-14155476D02*
X8836262Y-14022143D01*
X8836262Y-14041190D02*
X8845786Y-14031667D01*
X8864833Y-14022143D01*
X8893405Y-14022143D01*
X8912452Y-14031667D01*
X8921976Y-14050714D01*
X8921976Y-14155476D01*
X8921976Y-14050714D02*
X8931500Y-14031667D01*
X8950548Y-14022143D01*
X8979119Y-14022143D01*
X8998167Y-14031667D01*
X9007690Y-14050714D01*
X9007690Y-14155476D01*
X9102929Y-14155476D02*
X9102929Y-14022143D01*
X9102929Y-14041190D02*
X9112452Y-14031667D01*
X9131500Y-14022143D01*
X9160071Y-14022143D01*
X9179119Y-14031667D01*
X9188643Y-14050714D01*
X9188643Y-14155476D01*
X9188643Y-14050714D02*
X9198167Y-14031667D01*
X9217214Y-14022143D01*
X9245786Y-14022143D01*
X9264833Y-14031667D01*
X9274357Y-14050714D01*
X9274357Y-14155476D01*
X9664833Y-13945952D02*
X9493405Y-14203095D01*
X9921976Y-13955476D02*
X9941024Y-13955476D01*
X9960071Y-13965000D01*
X9969595Y-13974524D01*
X9979119Y-13993571D01*
X9988643Y-14031667D01*
X9988643Y-14079286D01*
X9979119Y-14117381D01*
X9969595Y-14136428D01*
X9960071Y-14145952D01*
X9941024Y-14155476D01*
X9921976Y-14155476D01*
X9902929Y-14145952D01*
X9893405Y-14136428D01*
X9883881Y-14117381D01*
X9874357Y-14079286D01*
X9874357Y-14031667D01*
X9883881Y-13993571D01*
X9893405Y-13974524D01*
X9902929Y-13965000D01*
X9921976Y-13955476D01*
X10074357Y-14136428D02*
X10083881Y-14145952D01*
X10074357Y-14155476D01*
X10064833Y-14145952D01*
X10074357Y-14136428D01*
X10074357Y-14155476D01*
X10207690Y-13955476D02*
X10226738Y-13955476D01*
X10245786Y-13965000D01*
X10255310Y-13974524D01*
X10264833Y-13993571D01*
X10274357Y-14031667D01*
X10274357Y-14079286D01*
X10264833Y-14117381D01*
X10255310Y-14136428D01*
X10245786Y-14145952D01*
X10226738Y-14155476D01*
X10207690Y-14155476D01*
X10188643Y-14145952D01*
X10179119Y-14136428D01*
X10169595Y-14117381D01*
X10160071Y-14079286D01*
X10160071Y-14031667D01*
X10169595Y-13993571D01*
X10179119Y-13974524D01*
X10188643Y-13965000D01*
X10207690Y-13955476D01*
X10341024Y-13955476D02*
X10464833Y-13955476D01*
X10398167Y-14031667D01*
X10426738Y-14031667D01*
X10445786Y-14041190D01*
X10455310Y-14050714D01*
X10464833Y-14069762D01*
X10464833Y-14117381D01*
X10455310Y-14136428D01*
X10445786Y-14145952D01*
X10426738Y-14155476D01*
X10369595Y-14155476D01*
X10350548Y-14145952D01*
X10341024Y-14136428D01*
X10560071Y-14155476D02*
X10598167Y-14155476D01*
X10617214Y-14145952D01*
X10626738Y-14136428D01*
X10645786Y-14107857D01*
X10655310Y-14069762D01*
X10655310Y-13993571D01*
X10645786Y-13974524D01*
X10636262Y-13965000D01*
X10617214Y-13955476D01*
X10579119Y-13955476D01*
X10560071Y-13965000D01*
X10550548Y-13974524D01*
X10541024Y-13993571D01*
X10541024Y-14041190D01*
X10550548Y-14060238D01*
X10560071Y-14069762D01*
X10579119Y-14079286D01*
X10617214Y-14079286D01*
X10636262Y-14069762D01*
X10645786Y-14060238D01*
X10655310Y-14041190D01*
X10826738Y-14022143D02*
X10826738Y-14155476D01*
X10779119Y-13945952D02*
X10731500Y-14088809D01*
X10855310Y-14088809D01*
X10921976Y-13955476D02*
X10921976Y-13993571D01*
X10998167Y-13955476D02*
X10998167Y-13993571D01*
X11293405Y-14231667D02*
X11283881Y-14222143D01*
X11264833Y-14193571D01*
X11255309Y-14174524D01*
X11245786Y-14145952D01*
X11236262Y-14098333D01*
X11236262Y-14060238D01*
X11245786Y-14012619D01*
X11255309Y-13984048D01*
X11264833Y-13965000D01*
X11283881Y-13936428D01*
X11293405Y-13926905D01*
X11455309Y-14022143D02*
X11455309Y-14155476D01*
X11407690Y-13945952D02*
X11360071Y-14088809D01*
X11483881Y-14088809D01*
X11541024Y-13955476D02*
X11674357Y-13955476D01*
X11588643Y-14155476D01*
X11902928Y-14155476D02*
X11902928Y-13955476D01*
X11988643Y-14155476D02*
X11988643Y-14050714D01*
X11979119Y-14031667D01*
X11960071Y-14022143D01*
X11931500Y-14022143D01*
X11912452Y-14031667D01*
X11902928Y-14041190D01*
X12112452Y-14155476D02*
X12093405Y-14145952D01*
X12083881Y-14136428D01*
X12074357Y-14117381D01*
X12074357Y-14060238D01*
X12083881Y-14041190D01*
X12093405Y-14031667D01*
X12112452Y-14022143D01*
X12141024Y-14022143D01*
X12160071Y-14031667D01*
X12169595Y-14041190D01*
X12179119Y-14060238D01*
X12179119Y-14117381D01*
X12169595Y-14136428D01*
X12160071Y-14145952D01*
X12141024Y-14155476D01*
X12112452Y-14155476D01*
X12293405Y-14155476D02*
X12274357Y-14145952D01*
X12264833Y-14126905D01*
X12264833Y-13955476D01*
X12445786Y-14145952D02*
X12426738Y-14155476D01*
X12388643Y-14155476D01*
X12369595Y-14145952D01*
X12360071Y-14126905D01*
X12360071Y-14050714D01*
X12369595Y-14031667D01*
X12388643Y-14022143D01*
X12426738Y-14022143D01*
X12445786Y-14031667D01*
X12455309Y-14050714D01*
X12455309Y-14069762D01*
X12360071Y-14088809D01*
X12531500Y-14145952D02*
X12550548Y-14155476D01*
X12588643Y-14155476D01*
X12607690Y-14145952D01*
X12617214Y-14126905D01*
X12617214Y-14117381D01*
X12607690Y-14098333D01*
X12588643Y-14088809D01*
X12560071Y-14088809D01*
X12541024Y-14079286D01*
X12531500Y-14060238D01*
X12531500Y-14050714D01*
X12541024Y-14031667D01*
X12560071Y-14022143D01*
X12588643Y-14022143D01*
X12607690Y-14031667D01*
X12683881Y-14231667D02*
X12693405Y-14222143D01*
X12712452Y-14193571D01*
X12721976Y-14174524D01*
X12731500Y-14145952D01*
X12741024Y-14098333D01*
X12741024Y-14060238D01*
X12731500Y-14012619D01*
X12721976Y-13984048D01*
X12712452Y-13965000D01*
X12693405Y-13936428D01*
X12683881Y-13926905D01*
D19*
X7561500Y-14249000D02*
X7721500Y-14409000D01*
X7721500Y-14249000D02*
X7561500Y-14409000D01*
X7698069Y-14385569D02*
X7698069Y-14272431D01*
X7584931Y-14272431D01*
X7584931Y-14385569D01*
X7698069Y-14385569D01*
D11*
X8083881Y-14419476D02*
X7969595Y-14419476D01*
X8026738Y-14419476D02*
X8026738Y-14219476D01*
X8007690Y-14248048D01*
X7988643Y-14267095D01*
X7969595Y-14276619D01*
X8169595Y-14400428D02*
X8179119Y-14409952D01*
X8169595Y-14419476D01*
X8160071Y-14409952D01*
X8169595Y-14400428D01*
X8169595Y-14419476D01*
X8350548Y-14219476D02*
X8312452Y-14219476D01*
X8293405Y-14229000D01*
X8283881Y-14238524D01*
X8264833Y-14267095D01*
X8255309Y-14305190D01*
X8255309Y-14381381D01*
X8264833Y-14400428D01*
X8274357Y-14409952D01*
X8293405Y-14419476D01*
X8331500Y-14419476D01*
X8350548Y-14409952D01*
X8360071Y-14400428D01*
X8369595Y-14381381D01*
X8369595Y-14333762D01*
X8360071Y-14314714D01*
X8350548Y-14305190D01*
X8331500Y-14295667D01*
X8293405Y-14295667D01*
X8274357Y-14305190D01*
X8264833Y-14314714D01*
X8255309Y-14333762D01*
X8493405Y-14219476D02*
X8512452Y-14219476D01*
X8531500Y-14229000D01*
X8541024Y-14238524D01*
X8550548Y-14257571D01*
X8560071Y-14295667D01*
X8560071Y-14343286D01*
X8550548Y-14381381D01*
X8541024Y-14400428D01*
X8531500Y-14409952D01*
X8512452Y-14419476D01*
X8493405Y-14419476D01*
X8474357Y-14409952D01*
X8464833Y-14400428D01*
X8455310Y-14381381D01*
X8445786Y-14343286D01*
X8445786Y-14295667D01*
X8455310Y-14257571D01*
X8464833Y-14238524D01*
X8474357Y-14229000D01*
X8493405Y-14219476D01*
X8683881Y-14219476D02*
X8702929Y-14219476D01*
X8721976Y-14229000D01*
X8731500Y-14238524D01*
X8741024Y-14257571D01*
X8750548Y-14295667D01*
X8750548Y-14343286D01*
X8741024Y-14381381D01*
X8731500Y-14400428D01*
X8721976Y-14409952D01*
X8702929Y-14419476D01*
X8683881Y-14419476D01*
X8664833Y-14409952D01*
X8655310Y-14400428D01*
X8645786Y-14381381D01*
X8636262Y-14343286D01*
X8636262Y-14295667D01*
X8645786Y-14257571D01*
X8655310Y-14238524D01*
X8664833Y-14229000D01*
X8683881Y-14219476D01*
X8836262Y-14419476D02*
X8836262Y-14286143D01*
X8836262Y-14305190D02*
X8845786Y-14295667D01*
X8864833Y-14286143D01*
X8893405Y-14286143D01*
X8912452Y-14295667D01*
X8921976Y-14314714D01*
X8921976Y-14419476D01*
X8921976Y-14314714D02*
X8931500Y-14295667D01*
X8950548Y-14286143D01*
X8979119Y-14286143D01*
X8998167Y-14295667D01*
X9007690Y-14314714D01*
X9007690Y-14419476D01*
X9102929Y-14419476D02*
X9102929Y-14286143D01*
X9102929Y-14305190D02*
X9112452Y-14295667D01*
X9131500Y-14286143D01*
X9160071Y-14286143D01*
X9179119Y-14295667D01*
X9188643Y-14314714D01*
X9188643Y-14419476D01*
X9188643Y-14314714D02*
X9198167Y-14295667D01*
X9217214Y-14286143D01*
X9245786Y-14286143D01*
X9264833Y-14295667D01*
X9274357Y-14314714D01*
X9274357Y-14419476D01*
X9664833Y-14209952D02*
X9493405Y-14467095D01*
X9921976Y-14219476D02*
X9941024Y-14219476D01*
X9960071Y-14229000D01*
X9969595Y-14238524D01*
X9979119Y-14257571D01*
X9988643Y-14295667D01*
X9988643Y-14343286D01*
X9979119Y-14381381D01*
X9969595Y-14400428D01*
X9960071Y-14409952D01*
X9941024Y-14419476D01*
X9921976Y-14419476D01*
X9902929Y-14409952D01*
X9893405Y-14400428D01*
X9883881Y-14381381D01*
X9874357Y-14343286D01*
X9874357Y-14295667D01*
X9883881Y-14257571D01*
X9893405Y-14238524D01*
X9902929Y-14229000D01*
X9921976Y-14219476D01*
X10074357Y-14400428D02*
X10083881Y-14409952D01*
X10074357Y-14419476D01*
X10064833Y-14409952D01*
X10074357Y-14400428D01*
X10074357Y-14419476D01*
X10207690Y-14219476D02*
X10226738Y-14219476D01*
X10245786Y-14229000D01*
X10255310Y-14238524D01*
X10264833Y-14257571D01*
X10274357Y-14295667D01*
X10274357Y-14343286D01*
X10264833Y-14381381D01*
X10255310Y-14400428D01*
X10245786Y-14409952D01*
X10226738Y-14419476D01*
X10207690Y-14419476D01*
X10188643Y-14409952D01*
X10179119Y-14400428D01*
X10169595Y-14381381D01*
X10160071Y-14343286D01*
X10160071Y-14295667D01*
X10169595Y-14257571D01*
X10179119Y-14238524D01*
X10188643Y-14229000D01*
X10207690Y-14219476D01*
X10445786Y-14219476D02*
X10407690Y-14219476D01*
X10388643Y-14229000D01*
X10379119Y-14238524D01*
X10360071Y-14267095D01*
X10350548Y-14305190D01*
X10350548Y-14381381D01*
X10360071Y-14400428D01*
X10369595Y-14409952D01*
X10388643Y-14419476D01*
X10426738Y-14419476D01*
X10445786Y-14409952D01*
X10455310Y-14400428D01*
X10464833Y-14381381D01*
X10464833Y-14333762D01*
X10455310Y-14314714D01*
X10445786Y-14305190D01*
X10426738Y-14295667D01*
X10388643Y-14295667D01*
X10369595Y-14305190D01*
X10360071Y-14314714D01*
X10350548Y-14333762D01*
X10531500Y-14219476D02*
X10655310Y-14219476D01*
X10588643Y-14295667D01*
X10617214Y-14295667D01*
X10636262Y-14305190D01*
X10645786Y-14314714D01*
X10655310Y-14333762D01*
X10655310Y-14381381D01*
X10645786Y-14400428D01*
X10636262Y-14409952D01*
X10617214Y-14419476D01*
X10560071Y-14419476D01*
X10541024Y-14409952D01*
X10531500Y-14400428D01*
X10779119Y-14219476D02*
X10798167Y-14219476D01*
X10817214Y-14229000D01*
X10826738Y-14238524D01*
X10836262Y-14257571D01*
X10845786Y-14295667D01*
X10845786Y-14343286D01*
X10836262Y-14381381D01*
X10826738Y-14400428D01*
X10817214Y-14409952D01*
X10798167Y-14419476D01*
X10779119Y-14419476D01*
X10760071Y-14409952D01*
X10750548Y-14400428D01*
X10741024Y-14381381D01*
X10731500Y-14343286D01*
X10731500Y-14295667D01*
X10741024Y-14257571D01*
X10750548Y-14238524D01*
X10760071Y-14229000D01*
X10779119Y-14219476D01*
X10921976Y-14219476D02*
X10921976Y-14257571D01*
X10998167Y-14219476D02*
X10998167Y-14257571D01*
X11293405Y-14495667D02*
X11283881Y-14486143D01*
X11264833Y-14457571D01*
X11255309Y-14438524D01*
X11245786Y-14409952D01*
X11236262Y-14362333D01*
X11236262Y-14324238D01*
X11245786Y-14276619D01*
X11255309Y-14248048D01*
X11264833Y-14229000D01*
X11283881Y-14200428D01*
X11293405Y-14190905D01*
X11350548Y-14219476D02*
X11483881Y-14219476D01*
X11398167Y-14419476D01*
X11712452Y-14419476D02*
X11712452Y-14219476D01*
X11798167Y-14419476D02*
X11798167Y-14314714D01*
X11788643Y-14295667D01*
X11769595Y-14286143D01*
X11741024Y-14286143D01*
X11721976Y-14295667D01*
X11712452Y-14305190D01*
X11921976Y-14419476D02*
X11902928Y-14409952D01*
X11893405Y-14400428D01*
X11883881Y-14381381D01*
X11883881Y-14324238D01*
X11893405Y-14305190D01*
X11902928Y-14295667D01*
X11921976Y-14286143D01*
X11950548Y-14286143D01*
X11969595Y-14295667D01*
X11979119Y-14305190D01*
X11988643Y-14324238D01*
X11988643Y-14381381D01*
X11979119Y-14400428D01*
X11969595Y-14409952D01*
X11950548Y-14419476D01*
X11921976Y-14419476D01*
X12102928Y-14419476D02*
X12083881Y-14409952D01*
X12074357Y-14390905D01*
X12074357Y-14219476D01*
X12255309Y-14409952D02*
X12236262Y-14419476D01*
X12198167Y-14419476D01*
X12179119Y-14409952D01*
X12169595Y-14390905D01*
X12169595Y-14314714D01*
X12179119Y-14295667D01*
X12198167Y-14286143D01*
X12236262Y-14286143D01*
X12255309Y-14295667D01*
X12264833Y-14314714D01*
X12264833Y-14333762D01*
X12169595Y-14352809D01*
X12341024Y-14409952D02*
X12360071Y-14419476D01*
X12398167Y-14419476D01*
X12417214Y-14409952D01*
X12426738Y-14390905D01*
X12426738Y-14381381D01*
X12417214Y-14362333D01*
X12398167Y-14352809D01*
X12369595Y-14352809D01*
X12350548Y-14343286D01*
X12341024Y-14324238D01*
X12341024Y-14314714D01*
X12350548Y-14295667D01*
X12369595Y-14286143D01*
X12398167Y-14286143D01*
X12417214Y-14295667D01*
X12493405Y-14495667D02*
X12502928Y-14486143D01*
X12521976Y-14457571D01*
X12531500Y-14438524D01*
X12541024Y-14409952D01*
X12550548Y-14362333D01*
X12550548Y-14324238D01*
X12541024Y-14276619D01*
X12531500Y-14248048D01*
X12521976Y-14229000D01*
X12502928Y-14200428D01*
X12493405Y-14190905D01*
D20*
X7546500Y-14521500D02*
X7721500Y-14696500D01*
X7721500Y-14521500D02*
X7546500Y-14696500D01*
X7634000Y-14696500D02*
X7721500Y-14609000D01*
X7634000Y-14521500D01*
X7546500Y-14609000D01*
X7634000Y-14696500D01*
D11*
X8083881Y-14699476D02*
X7969595Y-14699476D01*
X8026738Y-14699476D02*
X8026738Y-14499476D01*
X8007690Y-14528048D01*
X7988643Y-14547095D01*
X7969595Y-14556619D01*
X8169595Y-14680428D02*
X8179119Y-14689952D01*
X8169595Y-14699476D01*
X8160071Y-14689952D01*
X8169595Y-14680428D01*
X8169595Y-14699476D01*
X8245786Y-14499476D02*
X8379119Y-14499476D01*
X8293405Y-14699476D01*
X8550548Y-14499476D02*
X8455310Y-14499476D01*
X8445786Y-14594714D01*
X8455310Y-14585190D01*
X8474357Y-14575667D01*
X8521976Y-14575667D01*
X8541024Y-14585190D01*
X8550548Y-14594714D01*
X8560071Y-14613762D01*
X8560071Y-14661381D01*
X8550548Y-14680428D01*
X8541024Y-14689952D01*
X8521976Y-14699476D01*
X8474357Y-14699476D01*
X8455310Y-14689952D01*
X8445786Y-14680428D01*
X8683881Y-14499476D02*
X8702929Y-14499476D01*
X8721976Y-14509000D01*
X8731500Y-14518524D01*
X8741024Y-14537571D01*
X8750548Y-14575667D01*
X8750548Y-14623286D01*
X8741024Y-14661381D01*
X8731500Y-14680428D01*
X8721976Y-14689952D01*
X8702929Y-14699476D01*
X8683881Y-14699476D01*
X8664833Y-14689952D01*
X8655310Y-14680428D01*
X8645786Y-14661381D01*
X8636262Y-14623286D01*
X8636262Y-14575667D01*
X8645786Y-14537571D01*
X8655310Y-14518524D01*
X8664833Y-14509000D01*
X8683881Y-14499476D01*
X8836262Y-14699476D02*
X8836262Y-14566143D01*
X8836262Y-14585190D02*
X8845786Y-14575667D01*
X8864833Y-14566143D01*
X8893405Y-14566143D01*
X8912452Y-14575667D01*
X8921976Y-14594714D01*
X8921976Y-14699476D01*
X8921976Y-14594714D02*
X8931500Y-14575667D01*
X8950548Y-14566143D01*
X8979119Y-14566143D01*
X8998167Y-14575667D01*
X9007690Y-14594714D01*
X9007690Y-14699476D01*
X9102929Y-14699476D02*
X9102929Y-14566143D01*
X9102929Y-14585190D02*
X9112452Y-14575667D01*
X9131500Y-14566143D01*
X9160071Y-14566143D01*
X9179119Y-14575667D01*
X9188643Y-14594714D01*
X9188643Y-14699476D01*
X9188643Y-14594714D02*
X9198167Y-14575667D01*
X9217214Y-14566143D01*
X9245786Y-14566143D01*
X9264833Y-14575667D01*
X9274357Y-14594714D01*
X9274357Y-14699476D01*
X9664833Y-14489952D02*
X9493405Y-14747095D01*
X9921976Y-14499476D02*
X9941024Y-14499476D01*
X9960071Y-14509000D01*
X9969595Y-14518524D01*
X9979119Y-14537571D01*
X9988643Y-14575667D01*
X9988643Y-14623286D01*
X9979119Y-14661381D01*
X9969595Y-14680428D01*
X9960071Y-14689952D01*
X9941024Y-14699476D01*
X9921976Y-14699476D01*
X9902929Y-14689952D01*
X9893405Y-14680428D01*
X9883881Y-14661381D01*
X9874357Y-14623286D01*
X9874357Y-14575667D01*
X9883881Y-14537571D01*
X9893405Y-14518524D01*
X9902929Y-14509000D01*
X9921976Y-14499476D01*
X10074357Y-14680428D02*
X10083881Y-14689952D01*
X10074357Y-14699476D01*
X10064833Y-14689952D01*
X10074357Y-14680428D01*
X10074357Y-14699476D01*
X10207690Y-14499476D02*
X10226738Y-14499476D01*
X10245786Y-14509000D01*
X10255310Y-14518524D01*
X10264833Y-14537571D01*
X10274357Y-14575667D01*
X10274357Y-14623286D01*
X10264833Y-14661381D01*
X10255310Y-14680428D01*
X10245786Y-14689952D01*
X10226738Y-14699476D01*
X10207690Y-14699476D01*
X10188643Y-14689952D01*
X10179119Y-14680428D01*
X10169595Y-14661381D01*
X10160071Y-14623286D01*
X10160071Y-14575667D01*
X10169595Y-14537571D01*
X10179119Y-14518524D01*
X10188643Y-14509000D01*
X10207690Y-14499476D01*
X10445786Y-14499476D02*
X10407690Y-14499476D01*
X10388643Y-14509000D01*
X10379119Y-14518524D01*
X10360071Y-14547095D01*
X10350548Y-14585190D01*
X10350548Y-14661381D01*
X10360071Y-14680428D01*
X10369595Y-14689952D01*
X10388643Y-14699476D01*
X10426738Y-14699476D01*
X10445786Y-14689952D01*
X10455310Y-14680428D01*
X10464833Y-14661381D01*
X10464833Y-14613762D01*
X10455310Y-14594714D01*
X10445786Y-14585190D01*
X10426738Y-14575667D01*
X10388643Y-14575667D01*
X10369595Y-14585190D01*
X10360071Y-14594714D01*
X10350548Y-14613762D01*
X10579119Y-14585190D02*
X10560071Y-14575667D01*
X10550548Y-14566143D01*
X10541024Y-14547095D01*
X10541024Y-14537571D01*
X10550548Y-14518524D01*
X10560071Y-14509000D01*
X10579119Y-14499476D01*
X10617214Y-14499476D01*
X10636262Y-14509000D01*
X10645786Y-14518524D01*
X10655310Y-14537571D01*
X10655310Y-14547095D01*
X10645786Y-14566143D01*
X10636262Y-14575667D01*
X10617214Y-14585190D01*
X10579119Y-14585190D01*
X10560071Y-14594714D01*
X10550548Y-14604238D01*
X10541024Y-14623286D01*
X10541024Y-14661381D01*
X10550548Y-14680428D01*
X10560071Y-14689952D01*
X10579119Y-14699476D01*
X10617214Y-14699476D01*
X10636262Y-14689952D01*
X10645786Y-14680428D01*
X10655310Y-14661381D01*
X10655310Y-14623286D01*
X10645786Y-14604238D01*
X10636262Y-14594714D01*
X10617214Y-14585190D01*
X10750548Y-14699476D02*
X10788643Y-14699476D01*
X10807690Y-14689952D01*
X10817214Y-14680428D01*
X10836262Y-14651857D01*
X10845786Y-14613762D01*
X10845786Y-14537571D01*
X10836262Y-14518524D01*
X10826738Y-14509000D01*
X10807690Y-14499476D01*
X10769595Y-14499476D01*
X10750548Y-14509000D01*
X10741024Y-14518524D01*
X10731500Y-14537571D01*
X10731500Y-14585190D01*
X10741024Y-14604238D01*
X10750548Y-14613762D01*
X10769595Y-14623286D01*
X10807690Y-14623286D01*
X10826738Y-14613762D01*
X10836262Y-14604238D01*
X10845786Y-14585190D01*
X10921976Y-14499476D02*
X10921976Y-14537571D01*
X10998167Y-14499476D02*
X10998167Y-14537571D01*
X11293405Y-14775667D02*
X11283881Y-14766143D01*
X11264833Y-14737571D01*
X11255309Y-14718524D01*
X11245786Y-14689952D01*
X11236262Y-14642333D01*
X11236262Y-14604238D01*
X11245786Y-14556619D01*
X11255309Y-14528048D01*
X11264833Y-14509000D01*
X11283881Y-14480428D01*
X11293405Y-14470905D01*
X11360071Y-14518524D02*
X11369595Y-14509000D01*
X11388643Y-14499476D01*
X11436262Y-14499476D01*
X11455309Y-14509000D01*
X11464833Y-14518524D01*
X11474357Y-14537571D01*
X11474357Y-14556619D01*
X11464833Y-14585190D01*
X11350548Y-14699476D01*
X11474357Y-14699476D01*
X11712452Y-14699476D02*
X11712452Y-14499476D01*
X11798167Y-14699476D02*
X11798167Y-14594714D01*
X11788643Y-14575667D01*
X11769595Y-14566143D01*
X11741024Y-14566143D01*
X11721976Y-14575667D01*
X11712452Y-14585190D01*
X11921976Y-14699476D02*
X11902928Y-14689952D01*
X11893405Y-14680428D01*
X11883881Y-14661381D01*
X11883881Y-14604238D01*
X11893405Y-14585190D01*
X11902928Y-14575667D01*
X11921976Y-14566143D01*
X11950548Y-14566143D01*
X11969595Y-14575667D01*
X11979119Y-14585190D01*
X11988643Y-14604238D01*
X11988643Y-14661381D01*
X11979119Y-14680428D01*
X11969595Y-14689952D01*
X11950548Y-14699476D01*
X11921976Y-14699476D01*
X12102928Y-14699476D02*
X12083881Y-14689952D01*
X12074357Y-14670905D01*
X12074357Y-14499476D01*
X12255309Y-14689952D02*
X12236262Y-14699476D01*
X12198167Y-14699476D01*
X12179119Y-14689952D01*
X12169595Y-14670905D01*
X12169595Y-14594714D01*
X12179119Y-14575667D01*
X12198167Y-14566143D01*
X12236262Y-14566143D01*
X12255309Y-14575667D01*
X12264833Y-14594714D01*
X12264833Y-14613762D01*
X12169595Y-14632809D01*
X12341024Y-14689952D02*
X12360071Y-14699476D01*
X12398167Y-14699476D01*
X12417214Y-14689952D01*
X12426738Y-14670905D01*
X12426738Y-14661381D01*
X12417214Y-14642333D01*
X12398167Y-14632809D01*
X12369595Y-14632809D01*
X12350548Y-14623286D01*
X12341024Y-14604238D01*
X12341024Y-14594714D01*
X12350548Y-14575667D01*
X12369595Y-14566143D01*
X12398167Y-14566143D01*
X12417214Y-14575667D01*
X12493405Y-14775667D02*
X12502928Y-14766143D01*
X12521976Y-14737571D01*
X12531500Y-14718524D01*
X12541024Y-14689952D01*
X12550548Y-14642333D01*
X12550548Y-14604238D01*
X12541024Y-14556619D01*
X12531500Y-14528048D01*
X12521976Y-14509000D01*
X12502928Y-14480428D01*
X12493405Y-14470905D01*
X7621500Y-14804000D02*
X7621500Y-15004000D01*
X7521500Y-14904000D02*
X7721500Y-14904000D01*
X7721500Y-14904000D02*
G75*
G03*
X7721500Y-14904000I-100000J0D01*
G01*
X7969595Y-14813524D02*
X7979119Y-14804000D01*
X7998167Y-14794476D01*
X8045786Y-14794476D01*
X8064833Y-14804000D01*
X8074357Y-14813524D01*
X8083881Y-14832571D01*
X8083881Y-14851619D01*
X8074357Y-14880190D01*
X7960071Y-14994476D01*
X8083881Y-14994476D01*
X8169595Y-14975428D02*
X8179119Y-14984952D01*
X8169595Y-14994476D01*
X8160071Y-14984952D01*
X8169595Y-14975428D01*
X8169595Y-14994476D01*
X8369595Y-14994476D02*
X8255309Y-14994476D01*
X8312452Y-14994476D02*
X8312452Y-14794476D01*
X8293405Y-14823048D01*
X8274357Y-14842095D01*
X8255309Y-14851619D01*
X8493405Y-14794476D02*
X8512452Y-14794476D01*
X8531500Y-14804000D01*
X8541024Y-14813524D01*
X8550548Y-14832571D01*
X8560071Y-14870667D01*
X8560071Y-14918286D01*
X8550548Y-14956381D01*
X8541024Y-14975428D01*
X8531500Y-14984952D01*
X8512452Y-14994476D01*
X8493405Y-14994476D01*
X8474357Y-14984952D01*
X8464833Y-14975428D01*
X8455310Y-14956381D01*
X8445786Y-14918286D01*
X8445786Y-14870667D01*
X8455310Y-14832571D01*
X8464833Y-14813524D01*
X8474357Y-14804000D01*
X8493405Y-14794476D01*
X8683881Y-14794476D02*
X8702929Y-14794476D01*
X8721976Y-14804000D01*
X8731500Y-14813524D01*
X8741024Y-14832571D01*
X8750548Y-14870667D01*
X8750548Y-14918286D01*
X8741024Y-14956381D01*
X8731500Y-14975428D01*
X8721976Y-14984952D01*
X8702929Y-14994476D01*
X8683881Y-14994476D01*
X8664833Y-14984952D01*
X8655310Y-14975428D01*
X8645786Y-14956381D01*
X8636262Y-14918286D01*
X8636262Y-14870667D01*
X8645786Y-14832571D01*
X8655310Y-14813524D01*
X8664833Y-14804000D01*
X8683881Y-14794476D01*
X8836262Y-14994476D02*
X8836262Y-14861143D01*
X8836262Y-14880190D02*
X8845786Y-14870667D01*
X8864833Y-14861143D01*
X8893405Y-14861143D01*
X8912452Y-14870667D01*
X8921976Y-14889714D01*
X8921976Y-14994476D01*
X8921976Y-14889714D02*
X8931500Y-14870667D01*
X8950548Y-14861143D01*
X8979119Y-14861143D01*
X8998167Y-14870667D01*
X9007690Y-14889714D01*
X9007690Y-14994476D01*
X9102929Y-14994476D02*
X9102929Y-14861143D01*
X9102929Y-14880190D02*
X9112452Y-14870667D01*
X9131500Y-14861143D01*
X9160071Y-14861143D01*
X9179119Y-14870667D01*
X9188643Y-14889714D01*
X9188643Y-14994476D01*
X9188643Y-14889714D02*
X9198167Y-14870667D01*
X9217214Y-14861143D01*
X9245786Y-14861143D01*
X9264833Y-14870667D01*
X9274357Y-14889714D01*
X9274357Y-14994476D01*
X9664833Y-14784952D02*
X9493405Y-15042095D01*
X9921976Y-14794476D02*
X9941024Y-14794476D01*
X9960071Y-14804000D01*
X9969595Y-14813524D01*
X9979119Y-14832571D01*
X9988643Y-14870667D01*
X9988643Y-14918286D01*
X9979119Y-14956381D01*
X9969595Y-14975428D01*
X9960071Y-14984952D01*
X9941024Y-14994476D01*
X9921976Y-14994476D01*
X9902929Y-14984952D01*
X9893405Y-14975428D01*
X9883881Y-14956381D01*
X9874357Y-14918286D01*
X9874357Y-14870667D01*
X9883881Y-14832571D01*
X9893405Y-14813524D01*
X9902929Y-14804000D01*
X9921976Y-14794476D01*
X10074357Y-14975428D02*
X10083881Y-14984952D01*
X10074357Y-14994476D01*
X10064833Y-14984952D01*
X10074357Y-14975428D01*
X10074357Y-14994476D01*
X10207690Y-14794476D02*
X10226738Y-14794476D01*
X10245786Y-14804000D01*
X10255310Y-14813524D01*
X10264833Y-14832571D01*
X10274357Y-14870667D01*
X10274357Y-14918286D01*
X10264833Y-14956381D01*
X10255310Y-14975428D01*
X10245786Y-14984952D01*
X10226738Y-14994476D01*
X10207690Y-14994476D01*
X10188643Y-14984952D01*
X10179119Y-14975428D01*
X10169595Y-14956381D01*
X10160071Y-14918286D01*
X10160071Y-14870667D01*
X10169595Y-14832571D01*
X10179119Y-14813524D01*
X10188643Y-14804000D01*
X10207690Y-14794476D01*
X10388643Y-14880190D02*
X10369595Y-14870667D01*
X10360071Y-14861143D01*
X10350548Y-14842095D01*
X10350548Y-14832571D01*
X10360071Y-14813524D01*
X10369595Y-14804000D01*
X10388643Y-14794476D01*
X10426738Y-14794476D01*
X10445786Y-14804000D01*
X10455310Y-14813524D01*
X10464833Y-14832571D01*
X10464833Y-14842095D01*
X10455310Y-14861143D01*
X10445786Y-14870667D01*
X10426738Y-14880190D01*
X10388643Y-14880190D01*
X10369595Y-14889714D01*
X10360071Y-14899238D01*
X10350548Y-14918286D01*
X10350548Y-14956381D01*
X10360071Y-14975428D01*
X10369595Y-14984952D01*
X10388643Y-14994476D01*
X10426738Y-14994476D01*
X10445786Y-14984952D01*
X10455310Y-14975428D01*
X10464833Y-14956381D01*
X10464833Y-14918286D01*
X10455310Y-14899238D01*
X10445786Y-14889714D01*
X10426738Y-14880190D01*
X10541024Y-14813524D02*
X10550548Y-14804000D01*
X10569595Y-14794476D01*
X10617214Y-14794476D01*
X10636262Y-14804000D01*
X10645786Y-14813524D01*
X10655310Y-14832571D01*
X10655310Y-14851619D01*
X10645786Y-14880190D01*
X10531500Y-14994476D01*
X10655310Y-14994476D01*
X10721976Y-14794476D02*
X10855310Y-14794476D01*
X10769595Y-14994476D01*
X10921976Y-14794476D02*
X10921976Y-14832571D01*
X10998167Y-14794476D02*
X10998167Y-14832571D01*
X11293405Y-15070667D02*
X11283881Y-15061143D01*
X11264833Y-15032571D01*
X11255309Y-15013524D01*
X11245786Y-14984952D01*
X11236262Y-14937333D01*
X11236262Y-14899238D01*
X11245786Y-14851619D01*
X11255309Y-14823048D01*
X11264833Y-14804000D01*
X11283881Y-14775428D01*
X11293405Y-14765905D01*
X11360071Y-14813524D02*
X11369595Y-14804000D01*
X11388643Y-14794476D01*
X11436262Y-14794476D01*
X11455309Y-14804000D01*
X11464833Y-14813524D01*
X11474357Y-14832571D01*
X11474357Y-14851619D01*
X11464833Y-14880190D01*
X11350548Y-14994476D01*
X11474357Y-14994476D01*
X11712452Y-14994476D02*
X11712452Y-14794476D01*
X11798167Y-14994476D02*
X11798167Y-14889714D01*
X11788643Y-14870667D01*
X11769595Y-14861143D01*
X11741024Y-14861143D01*
X11721976Y-14870667D01*
X11712452Y-14880190D01*
X11921976Y-14994476D02*
X11902928Y-14984952D01*
X11893405Y-14975428D01*
X11883881Y-14956381D01*
X11883881Y-14899238D01*
X11893405Y-14880190D01*
X11902928Y-14870667D01*
X11921976Y-14861143D01*
X11950548Y-14861143D01*
X11969595Y-14870667D01*
X11979119Y-14880190D01*
X11988643Y-14899238D01*
X11988643Y-14956381D01*
X11979119Y-14975428D01*
X11969595Y-14984952D01*
X11950548Y-14994476D01*
X11921976Y-14994476D01*
X12102928Y-14994476D02*
X12083881Y-14984952D01*
X12074357Y-14965905D01*
X12074357Y-14794476D01*
X12255309Y-14984952D02*
X12236262Y-14994476D01*
X12198167Y-14994476D01*
X12179119Y-14984952D01*
X12169595Y-14965905D01*
X12169595Y-14889714D01*
X12179119Y-14870667D01*
X12198167Y-14861143D01*
X12236262Y-14861143D01*
X12255309Y-14870667D01*
X12264833Y-14889714D01*
X12264833Y-14908762D01*
X12169595Y-14927809D01*
X12341024Y-14984952D02*
X12360071Y-14994476D01*
X12398167Y-14994476D01*
X12417214Y-14984952D01*
X12426738Y-14965905D01*
X12426738Y-14956381D01*
X12417214Y-14937333D01*
X12398167Y-14927809D01*
X12369595Y-14927809D01*
X12350548Y-14918286D01*
X12341024Y-14899238D01*
X12341024Y-14889714D01*
X12350548Y-14870667D01*
X12369595Y-14861143D01*
X12398167Y-14861143D01*
X12417214Y-14870667D01*
X12664833Y-14918286D02*
X12817214Y-14918286D01*
X12741024Y-14994476D02*
X12741024Y-14842095D01*
X13169595Y-14994476D02*
X13055309Y-14994476D01*
X13112452Y-14994476D02*
X13112452Y-14794476D01*
X13093405Y-14823048D01*
X13074357Y-14842095D01*
X13055309Y-14851619D01*
X13398167Y-14984952D02*
X13417214Y-14994476D01*
X13455309Y-14994476D01*
X13474357Y-14984952D01*
X13483881Y-14965905D01*
X13483881Y-14956381D01*
X13474357Y-14937333D01*
X13455309Y-14927809D01*
X13426738Y-14927809D01*
X13407690Y-14918286D01*
X13398167Y-14899238D01*
X13398167Y-14889714D01*
X13407690Y-14870667D01*
X13426738Y-14861143D01*
X13455309Y-14861143D01*
X13474357Y-14870667D01*
X13598167Y-14994476D02*
X13579119Y-14984952D01*
X13569595Y-14965905D01*
X13569595Y-14794476D01*
X13702928Y-14994476D02*
X13683881Y-14984952D01*
X13674357Y-14975428D01*
X13664833Y-14956381D01*
X13664833Y-14899238D01*
X13674357Y-14880190D01*
X13683881Y-14870667D01*
X13702928Y-14861143D01*
X13731500Y-14861143D01*
X13750548Y-14870667D01*
X13760071Y-14880190D01*
X13769595Y-14899238D01*
X13769595Y-14956381D01*
X13760071Y-14975428D01*
X13750548Y-14984952D01*
X13731500Y-14994476D01*
X13702928Y-14994476D01*
X13826738Y-14861143D02*
X13902928Y-14861143D01*
X13855309Y-14794476D02*
X13855309Y-14965905D01*
X13864833Y-14984952D01*
X13883881Y-14994476D01*
X13902928Y-14994476D01*
X13950548Y-15070667D02*
X13960071Y-15061143D01*
X13979119Y-15032571D01*
X13988643Y-15013524D01*
X13998167Y-14984952D01*
X14007690Y-14937333D01*
X14007690Y-14899238D01*
X13998167Y-14851619D01*
X13988643Y-14823048D01*
X13979119Y-14804000D01*
X13960071Y-14775428D01*
X13950548Y-14765905D01*
X7692211Y-15294711D02*
X7692211Y-15153289D01*
X7550789Y-15153289D01*
X7550789Y-15294711D01*
X7692211Y-15294711D01*
X7721500Y-15224000D02*
G75*
G03*
X7721500Y-15224000I-100000J0D01*
G01*
X7969595Y-15133524D02*
X7979119Y-15124000D01*
X7998167Y-15114476D01*
X8045786Y-15114476D01*
X8064833Y-15124000D01*
X8074357Y-15133524D01*
X8083881Y-15152571D01*
X8083881Y-15171619D01*
X8074357Y-15200190D01*
X7960071Y-15314476D01*
X8083881Y-15314476D01*
X8169595Y-15295428D02*
X8179119Y-15304952D01*
X8169595Y-15314476D01*
X8160071Y-15304952D01*
X8169595Y-15295428D01*
X8169595Y-15314476D01*
X8350548Y-15114476D02*
X8312452Y-15114476D01*
X8293405Y-15124000D01*
X8283881Y-15133524D01*
X8264833Y-15162095D01*
X8255309Y-15200190D01*
X8255309Y-15276381D01*
X8264833Y-15295428D01*
X8274357Y-15304952D01*
X8293405Y-15314476D01*
X8331500Y-15314476D01*
X8350548Y-15304952D01*
X8360071Y-15295428D01*
X8369595Y-15276381D01*
X8369595Y-15228762D01*
X8360071Y-15209714D01*
X8350548Y-15200190D01*
X8331500Y-15190667D01*
X8293405Y-15190667D01*
X8274357Y-15200190D01*
X8264833Y-15209714D01*
X8255309Y-15228762D01*
X8493405Y-15114476D02*
X8512452Y-15114476D01*
X8531500Y-15124000D01*
X8541024Y-15133524D01*
X8550548Y-15152571D01*
X8560071Y-15190667D01*
X8560071Y-15238286D01*
X8550548Y-15276381D01*
X8541024Y-15295428D01*
X8531500Y-15304952D01*
X8512452Y-15314476D01*
X8493405Y-15314476D01*
X8474357Y-15304952D01*
X8464833Y-15295428D01*
X8455310Y-15276381D01*
X8445786Y-15238286D01*
X8445786Y-15190667D01*
X8455310Y-15152571D01*
X8464833Y-15133524D01*
X8474357Y-15124000D01*
X8493405Y-15114476D01*
X8683881Y-15114476D02*
X8702929Y-15114476D01*
X8721976Y-15124000D01*
X8731500Y-15133524D01*
X8741024Y-15152571D01*
X8750548Y-15190667D01*
X8750548Y-15238286D01*
X8741024Y-15276381D01*
X8731500Y-15295428D01*
X8721976Y-15304952D01*
X8702929Y-15314476D01*
X8683881Y-15314476D01*
X8664833Y-15304952D01*
X8655310Y-15295428D01*
X8645786Y-15276381D01*
X8636262Y-15238286D01*
X8636262Y-15190667D01*
X8645786Y-15152571D01*
X8655310Y-15133524D01*
X8664833Y-15124000D01*
X8683881Y-15114476D01*
X8836262Y-15314476D02*
X8836262Y-15181143D01*
X8836262Y-15200190D02*
X8845786Y-15190667D01*
X8864833Y-15181143D01*
X8893405Y-15181143D01*
X8912452Y-15190667D01*
X8921976Y-15209714D01*
X8921976Y-15314476D01*
X8921976Y-15209714D02*
X8931500Y-15190667D01*
X8950548Y-15181143D01*
X8979119Y-15181143D01*
X8998167Y-15190667D01*
X9007690Y-15209714D01*
X9007690Y-15314476D01*
X9102929Y-15314476D02*
X9102929Y-15181143D01*
X9102929Y-15200190D02*
X9112452Y-15190667D01*
X9131500Y-15181143D01*
X9160071Y-15181143D01*
X9179119Y-15190667D01*
X9188643Y-15209714D01*
X9188643Y-15314476D01*
X9188643Y-15209714D02*
X9198167Y-15190667D01*
X9217214Y-15181143D01*
X9245786Y-15181143D01*
X9264833Y-15190667D01*
X9274357Y-15209714D01*
X9274357Y-15314476D01*
X9664833Y-15104952D02*
X9493405Y-15362095D01*
X9921976Y-15114476D02*
X9941024Y-15114476D01*
X9960071Y-15124000D01*
X9969595Y-15133524D01*
X9979119Y-15152571D01*
X9988643Y-15190667D01*
X9988643Y-15238286D01*
X9979119Y-15276381D01*
X9969595Y-15295428D01*
X9960071Y-15304952D01*
X9941024Y-15314476D01*
X9921976Y-15314476D01*
X9902929Y-15304952D01*
X9893405Y-15295428D01*
X9883881Y-15276381D01*
X9874357Y-15238286D01*
X9874357Y-15190667D01*
X9883881Y-15152571D01*
X9893405Y-15133524D01*
X9902929Y-15124000D01*
X9921976Y-15114476D01*
X10074357Y-15295428D02*
X10083881Y-15304952D01*
X10074357Y-15314476D01*
X10064833Y-15304952D01*
X10074357Y-15295428D01*
X10074357Y-15314476D01*
X10274357Y-15314476D02*
X10160071Y-15314476D01*
X10217214Y-15314476D02*
X10217214Y-15114476D01*
X10198167Y-15143048D01*
X10179119Y-15162095D01*
X10160071Y-15171619D01*
X10398167Y-15114476D02*
X10417214Y-15114476D01*
X10436262Y-15124000D01*
X10445786Y-15133524D01*
X10455310Y-15152571D01*
X10464833Y-15190667D01*
X10464833Y-15238286D01*
X10455310Y-15276381D01*
X10445786Y-15295428D01*
X10436262Y-15304952D01*
X10417214Y-15314476D01*
X10398167Y-15314476D01*
X10379119Y-15304952D01*
X10369595Y-15295428D01*
X10360071Y-15276381D01*
X10350548Y-15238286D01*
X10350548Y-15190667D01*
X10360071Y-15152571D01*
X10369595Y-15133524D01*
X10379119Y-15124000D01*
X10398167Y-15114476D01*
X10541024Y-15133524D02*
X10550548Y-15124000D01*
X10569595Y-15114476D01*
X10617214Y-15114476D01*
X10636262Y-15124000D01*
X10645786Y-15133524D01*
X10655310Y-15152571D01*
X10655310Y-15171619D01*
X10645786Y-15200190D01*
X10531500Y-15314476D01*
X10655310Y-15314476D01*
X10826738Y-15181143D02*
X10826738Y-15314476D01*
X10779119Y-15104952D02*
X10731500Y-15247809D01*
X10855310Y-15247809D01*
X10921976Y-15114476D02*
X10921976Y-15152571D01*
X10998167Y-15114476D02*
X10998167Y-15152571D01*
X11293405Y-15390667D02*
X11283881Y-15381143D01*
X11264833Y-15352571D01*
X11255309Y-15333524D01*
X11245786Y-15304952D01*
X11236262Y-15257333D01*
X11236262Y-15219238D01*
X11245786Y-15171619D01*
X11255309Y-15143048D01*
X11264833Y-15124000D01*
X11283881Y-15095428D01*
X11293405Y-15085905D01*
X11360071Y-15133524D02*
X11369595Y-15124000D01*
X11388643Y-15114476D01*
X11436262Y-15114476D01*
X11455309Y-15124000D01*
X11464833Y-15133524D01*
X11474357Y-15152571D01*
X11474357Y-15171619D01*
X11464833Y-15200190D01*
X11350548Y-15314476D01*
X11474357Y-15314476D01*
X11712452Y-15314476D02*
X11712452Y-15114476D01*
X11798167Y-15314476D02*
X11798167Y-15209714D01*
X11788643Y-15190667D01*
X11769595Y-15181143D01*
X11741024Y-15181143D01*
X11721976Y-15190667D01*
X11712452Y-15200190D01*
X11921976Y-15314476D02*
X11902928Y-15304952D01*
X11893405Y-15295428D01*
X11883881Y-15276381D01*
X11883881Y-15219238D01*
X11893405Y-15200190D01*
X11902928Y-15190667D01*
X11921976Y-15181143D01*
X11950548Y-15181143D01*
X11969595Y-15190667D01*
X11979119Y-15200190D01*
X11988643Y-15219238D01*
X11988643Y-15276381D01*
X11979119Y-15295428D01*
X11969595Y-15304952D01*
X11950548Y-15314476D01*
X11921976Y-15314476D01*
X12102928Y-15314476D02*
X12083881Y-15304952D01*
X12074357Y-15285905D01*
X12074357Y-15114476D01*
X12255309Y-15304952D02*
X12236262Y-15314476D01*
X12198167Y-15314476D01*
X12179119Y-15304952D01*
X12169595Y-15285905D01*
X12169595Y-15209714D01*
X12179119Y-15190667D01*
X12198167Y-15181143D01*
X12236262Y-15181143D01*
X12255309Y-15190667D01*
X12264833Y-15209714D01*
X12264833Y-15228762D01*
X12169595Y-15247809D01*
X12341024Y-15304952D02*
X12360071Y-15314476D01*
X12398167Y-15314476D01*
X12417214Y-15304952D01*
X12426738Y-15285905D01*
X12426738Y-15276381D01*
X12417214Y-15257333D01*
X12398167Y-15247809D01*
X12369595Y-15247809D01*
X12350548Y-15238286D01*
X12341024Y-15219238D01*
X12341024Y-15209714D01*
X12350548Y-15190667D01*
X12369595Y-15181143D01*
X12398167Y-15181143D01*
X12417214Y-15190667D01*
X12493405Y-15390667D02*
X12502928Y-15381143D01*
X12521976Y-15352571D01*
X12531500Y-15333524D01*
X12541024Y-15304952D01*
X12550548Y-15257333D01*
X12550548Y-15219238D01*
X12541024Y-15171619D01*
X12531500Y-15143048D01*
X12521976Y-15124000D01*
X12502928Y-15095428D01*
X12493405Y-15085905D01*
M02*
