M48
; DRILL file {KiCad (6.0.4-0)} date 
; FORMAT={-:-/ absolute / metric / decimal}
; #@! TF.CreationDate,2024-03-30T21:06:22-04:00
; #@! TF.GenerationSoftware,Kicad,Pcbnew,(6.0.4-0)
; #@! TF.FileFunction,Plated,1,4,PTH
FMAT,2
METRIC
; #@! TA.AperFunction,Plated,PTH,ViaDrill
T1C0.400
; #@! TA.AperFunction,Plated,PTH,ViaDrill
T2C0.500
; #@! TA.AperFunction,Plated,PTH,ComponentDrill
T3C0.600
; #@! TA.AperFunction,Plated,PTH,ComponentDrill
T4C0.650
; #@! TA.AperFunction,Plated,PTH,ComponentDrill
T5C0.700
; #@! TA.AperFunction,Plated,PTH,ComponentDrill
T6C0.900
; #@! TA.AperFunction,Plated,PTH,ComponentDrill
T7C1.000
; #@! TA.AperFunction,Plated,PTH,ComponentDrill
T8C1.600
; #@! TA.AperFunction,Plated,PTH,ComponentDrill
T9C1.750
; #@! TA.AperFunction,Plated,PTH,ComponentDrill
T10C2.100
; #@! TA.AperFunction,Plated,PTH,ComponentDrill
T11C2.600
%
G90
G05
T1
X90.58Y-86.65
X90.58Y-88.41
X90.7Y-84.56
X92.49Y-108.22
X94.34Y-107.5
X94.418Y-103.908
X99.4Y-96.23
X100.1Y-105.8
X101.52Y-105.8
X101.64Y-96.23
X102.81Y-110.17
X102.86Y-111.69
X103.99Y-95.44
X104.35Y-113.56
X106.51Y-95.42
X107.47Y-106.66
X108.54Y-111.76
X108.83Y-94.89
X109.331Y-107.58
X110.28Y-109.89
X110.774Y-116.222
X111.16Y-104.2
X111.37Y-93.76
X112.25Y-102.36
X113.88Y-108.77
X113.98Y-101.49
X114.03Y-74.986
X115.113Y-104.672
X115.15Y-112.24
X115.78Y-74.986
X116.1Y-107.62
X116.3Y-112.29
X116.7Y-104.18
X116.73Y-101.84
X117.53Y-74.986
X120.8Y-110.95
X120.8Y-112.65
X123.44Y-100.42
X124.65Y-100.95
X124.69Y-112.78
X124.72Y-109.82
X124.777Y-108.213
X124.927Y-92.257
X125.14Y-88.339
X125.16Y-89.63
X125.65Y-106.09
X125.67Y-86.89
X126.1Y-100.94
X126.14Y-88.35
X126.43Y-95.84
X126.52Y-112.44
X126.68Y-107.38
X127.49Y-95.19
X127.65Y-83.01
X127.919Y-94.104
X128.02Y-112.01
X128.05Y-88.339
X128.06Y-84.55
X128.64Y-92.02
X128.788Y-93.61
X128.97Y-101.52
X129.37Y-98.205
X129.77Y-75.335
X129.86Y-112.05
X130.01Y-109.16
X130.315Y-84.29
X130.588Y-90.218
X131.17Y-99.03
X131.322Y-101.928
X131.36Y-100.47
X131.55Y-75.335
X132.06Y-84.03
X133.55Y-75.335
X133.612Y-91.818
X134.02Y-109.09
X134.05Y-103.24
X134.07Y-101.81
X134.22Y-88.339
X134.87Y-83.506
X135.0Y-92.14
X135.01Y-81.56
X135.11Y-114.0
X135.19Y-88.355
X135.45Y-75.335
X135.54Y-109.15
X135.87Y-112.8
X136.85Y-92.26
X136.95Y-85.43
X137.05Y-115.707
X137.23Y-94.334
X137.24Y-95.445
X137.28Y-98.205
X137.55Y-75.335
X137.674Y-90.28
X137.8Y-106.57
X138.46Y-83.28
X138.64Y-92.285
X138.75Y-94.334
X138.86Y-98.3
X139.07Y-114.258
X139.51Y-106.76
X139.71Y-82.31
X140.66Y-92.23
X140.89Y-113.32
X141.28Y-105.28
X141.291Y-103.181
X142.24Y-110.62
X142.26Y-108.23
X142.73Y-91.47
X142.9Y-104.23
X142.98Y-101.78
X143.1Y-88.39
X143.128Y-96.915
X144.03Y-95.14
X144.44Y-87.404
X145.181Y-97.355
X145.35Y-99.62
X145.36Y-106.59
X146.35Y-99.409
X146.36Y-87.404
X146.78Y-106.82
X148.02Y-105.67
X148.03Y-88.31
X148.04Y-107.22
X148.14Y-84.38
X148.14Y-99.79
X148.68Y-89.796
X148.77Y-87.404
X148.97Y-90.976
X149.165Y-99.943
X149.165Y-101.64
X149.39Y-97.59
X149.485Y-109.35
X149.533Y-94.916
X149.55Y-107.76
X150.13Y-116.49
X150.593Y-99.083
X150.78Y-101.75
X150.87Y-96.22
X151.02Y-103.41
X151.37Y-93.99
X151.48Y-89.725
X152.01Y-97.18
X152.3Y-116.49
X152.66Y-95.13
X152.82Y-89.725
X153.118Y-98.102
X153.68Y-87.404
X154.13Y-116.49
X154.325Y-113.185
X154.353Y-99.337
X154.47Y-96.79
X155.02Y-111.62
X155.03Y-74.91
X155.43Y-99.56
X156.361Y-90.921
X157.231Y-74.861
X157.73Y-91.9
X158.25Y-103.38
X158.37Y-78.24
X158.59Y-82.06
X158.63Y-91.06
X159.55Y-79.47
X160.06Y-74.861
X160.19Y-99.22
X160.304Y-78.233
X160.41Y-80.24
X161.123Y-79.017
X161.47Y-78.08
X161.66Y-82.95
X162.78Y-74.861
X162.98Y-99.595
X163.02Y-83.75
X163.11Y-88.24
X163.584Y-89.12
X164.5Y-99.595
X164.59Y-87.0
X165.01Y-85.64
X165.154Y-97.736
X165.44Y-74.9
X166.21Y-95.74
X166.62Y-81.15
X166.67Y-94.68
X166.98Y-83.89
X167.13Y-84.99
X167.14Y-86.26
X167.162Y-96.911
X167.77Y-74.87
X167.82Y-90.284
X168.61Y-84.13
X168.84Y-96.92
X168.92Y-109.68
X169.43Y-106.81
X169.76Y-102.359
X169.97Y-74.88
X170.08Y-84.48
X170.24Y-103.89
X170.804Y-91.005
X170.804Y-92.16
X170.9Y-108.346
X170.99Y-87.215
X171.078Y-98.062
X171.45Y-93.566
X171.78Y-88.835
X171.905Y-74.884
X172.34Y-78.33
X173.32Y-108.346
X174.15Y-74.94
X174.304Y-88.69
X174.64Y-76.64
X175.243Y-98.603
X175.463Y-88.664
X175.62Y-108.346
X176.298Y-87.215
X176.46Y-74.92
X176.54Y-98.33
X177.115Y-92.785
X177.27Y-84.91
X177.505Y-94.375
X178.33Y-108.35
X178.45Y-89.705
X178.625Y-94.695
X178.645Y-99.215
X178.99Y-74.92
X179.09Y-100.91
X179.4Y-86.83
X179.53Y-84.87
X180.18Y-110.2
X180.445Y-89.705
X180.775Y-108.38
X180.85Y-95.22
X180.88Y-83.7
X181.35Y-74.94
X181.445Y-89.729
X182.38Y-92.67
X182.405Y-94.345
X182.438Y-90.279
X182.517Y-98.507
X183.21Y-108.34
X183.535Y-84.259
X183.82Y-99.81
X183.84Y-74.98
X184.686Y-85.02
X184.72Y-97.43
X184.785Y-83.775
X184.921Y-88.947
X184.96Y-106.61
X185.31Y-99.39
X185.362Y-89.844
X185.46Y-91.509
X185.549Y-84.516
X186.16Y-92.566
X186.25Y-74.98
X187.185Y-94.524
X187.21Y-100.221
X187.21Y-106.54
X187.536Y-90.97
X188.7Y-74.95
X188.89Y-104.31
X188.985Y-91.7
X189.08Y-89.53
X189.19Y-97.869
X189.19Y-99.9
X189.24Y-102.83
X189.38Y-106.61
X189.861Y-87.215
X189.861Y-90.84
X190.6Y-101.46
X190.73Y-74.98
X192.11Y-106.73
X192.14Y-99.96
X192.2Y-104.29
X192.63Y-84.31
X193.29Y-75.04
X193.87Y-86.31
X193.93Y-104.1
X194.08Y-88.664
X194.41Y-90.64
X194.6Y-92.53
X194.83Y-102.91
X195.44Y-75.07
X195.55Y-89.26
X195.69Y-77.13
X195.87Y-80.88
X195.87Y-82.95
X196.11Y-101.57
X196.13Y-97.56
X196.13Y-99.53
X196.53Y-91.53
X196.53Y-93.07
X197.38Y-100.93
X197.38Y-102.2
X198.6Y-77.32
X199.05Y-97.07
X199.06Y-98.85
X199.16Y-91.32
X199.24Y-109.33
X199.29Y-106.79
X199.3Y-105.57
X199.35Y-111.15
X200.49Y-84.53
X200.51Y-86.47
X200.54Y-100.48
X200.58Y-102.25
X200.62Y-89.36
X201.89Y-90.55
X202.0Y-81.57
X203.47Y-98.94
X204.06Y-94.1
X204.09Y-84.47
X204.43Y-82.44
X204.9Y-83.66
X205.16Y-110.79
X206.07Y-86.86
X206.77Y-82.5
X207.62Y-105.61
X207.62Y-107.25
X208.28Y-94.75
X208.473Y-89.277
X209.65Y-91.54
X209.72Y-95.49
X209.74Y-93.46
X209.76Y-97.21
X209.78Y-99.09
T2
X78.24Y-84.3
X78.28Y-78.11
X78.28Y-81.27
X78.29Y-102.05
X78.33Y-104.62
X78.33Y-107.31
X78.37Y-110.32
X78.37Y-113.47
X79.15Y-116.4
X79.45Y-75.94
X81.09Y-93.44
X81.11Y-91.15
X81.11Y-98.9
X81.72Y-117.47
X82.0Y-74.99
X82.67Y-92.65
X83.23Y-90.17
X83.85Y-101.77
X84.03Y-99.4
X84.74Y-117.43
X84.86Y-75.03
X87.67Y-117.39
X88.1Y-74.99
X90.62Y-104.16
X90.65Y-117.39
X91.05Y-74.99
X91.68Y-101.902
X92.48Y-104.05
X93.34Y-117.39
X94.34Y-75.03
X94.703Y-89.083
X95.07Y-84.54
X95.09Y-82.59
X96.11Y-117.42
X96.4Y-81.24
X97.63Y-75.05
X98.04Y-82.39
X98.98Y-117.46
X101.03Y-75.07
X101.24Y-85.47
X102.18Y-117.42
X102.213Y-84.523
X103.346Y-83.21
X104.14Y-75.1
X105.15Y-117.37
X107.43Y-75.1
X108.35Y-117.37
X110.69Y-75.08
X111.04Y-117.34
X111.87Y-87.77
X111.89Y-81.89
X111.9Y-77.41
X111.9Y-79.56
X111.9Y-84.78
X117.68Y-81.6
X117.74Y-84.53
X117.8Y-87.59
X118.64Y-79.72
X121.38Y-79.58
X124.13Y-79.58
X126.92Y-79.58
X129.66Y-79.62
X130.93Y-88.355
X131.78Y-88.339
X132.69Y-79.62
X132.84Y-98.455
X135.44Y-79.62
X138.18Y-79.72
X141.49Y-79.68
X144.6Y-79.62
X148.01Y-79.58
X162.9Y-114.77
X165.16Y-116.85
X168.92Y-116.99
X172.76Y-116.99
X174.8Y-96.84
X176.57Y-117.03
X179.87Y-116.99
X183.71Y-117.0
X187.11Y-117.04
X190.88Y-117.0
X194.12Y-117.04
X197.43Y-117.07
X198.0Y-75.02
X200.66Y-117.1
X201.0Y-75.01
X203.91Y-75.01
X203.95Y-117.1
X206.75Y-75.01
X206.82Y-117.1
X208.63Y-116.07
X208.77Y-76.1
X209.62Y-78.92
X209.63Y-108.93
X209.64Y-83.93
X209.65Y-81.32
X209.66Y-111.64
X209.66Y-114.41
T3
X126.905Y-75.275
X127.035Y-115.807
X127.035Y-117.078
X128.175Y-75.275
X147.827Y-75.235
X147.93Y-115.84
X147.93Y-117.11
X149.097Y-75.235
T4
X88.82Y-81.52
X88.82Y-82.82
X88.87Y-109.5
X88.87Y-110.8
X89.19Y-91.38
X89.64Y-100.94
X90.49Y-91.38
X90.94Y-100.94
X95.26Y-87.04
X96.56Y-87.04
X118.26Y-98.305
X118.26Y-99.575
X118.26Y-100.845
X155.11Y-89.5
X155.11Y-91.5
T5
X117.26Y-106.56
X118.56Y-105.16
X118.73Y-107.85
X121.47Y-105.16
X122.24Y-103.34
X123.38Y-104.84
X151.12Y-81.52
X152.39Y-81.52
X153.66Y-81.52
X154.93Y-81.52
X191.188Y-82.755
X191.188Y-84.025
X191.237Y-77.835
X191.237Y-79.105
T6
X97.46Y-77.608
X99.96Y-77.608
X102.46Y-77.608
T7
X81.19Y-85.702
X81.19Y-88.242
X81.19Y-104.13
X81.19Y-106.67
X83.73Y-85.702
X83.73Y-88.242
X83.73Y-104.13
X83.73Y-106.67
X86.27Y-85.702
X86.27Y-88.242
X86.27Y-104.13
X86.27Y-106.67
X88.81Y-85.702
X88.81Y-88.242
X88.81Y-104.13
X88.81Y-106.67
X100.0Y-93.686
X100.0Y-98.686
X114.5Y-93.686
X114.5Y-96.186
X114.5Y-98.686
X160.56Y-110.895
X160.56Y-113.435
X160.56Y-115.975
X160.71Y-91.6
X160.71Y-94.14
X160.71Y-96.68
X168.8Y-85.88
X168.8Y-111.28
X171.34Y-85.88
X171.34Y-111.28
X173.88Y-111.28
X176.42Y-111.28
X178.96Y-111.28
X181.5Y-111.28
X184.04Y-111.28
X186.58Y-111.28
X189.12Y-85.88
X189.12Y-111.28
X191.66Y-85.88
X191.66Y-111.28
T8
X81.915Y-96.186
X96.16Y-92.13
X96.17Y-96.19
X96.19Y-100.17
X118.15Y-91.06
X118.15Y-94.98
X140.92Y-95.89
X155.28Y-103.6
X165.33Y-107.44
T9
X122.415Y-82.475
X122.415Y-90.275
T10
X92.5Y-111.722
X100.3Y-111.722
T11
X107.0Y-90.586
X107.0Y-101.786
T10
X96.4Y-105.922G85X96.4Y-105.922
G05
T0
M30
