%TF.GenerationSoftware,KiCad,Pcbnew,(6.0.4-0)*%
%TF.CreationDate,2024-06-19T10:00:29-04:00*%
%TF.ProjectId,SignalSnagger,5369676e-616c-4536-9e61-676765722e6b,rev?*%
%TF.SameCoordinates,Original*%
%TF.FileFunction,Legend,Bot*%
%TF.FilePolarity,Positive*%
%FSLAX46Y46*%
G04 Gerber Fmt 4.6, Leading zero omitted, Abs format (unit mm)*
G04 Created by KiCad (PCBNEW (6.0.4-0)) date 2024-06-19 10:00:29*
%MOMM*%
%LPD*%
G01*
G04 APERTURE LIST*
%ADD10C,0.250000*%
%ADD11C,0.300000*%
%ADD12C,0.150000*%
%ADD13C,0.120000*%
%ADD14C,0.127000*%
%ADD15C,0.200000*%
G04 APERTURE END LIST*
D10*
X144044285Y-111637380D02*
X144044285Y-110637380D01*
X143472857Y-111637380D02*
X143901428Y-111065952D01*
X143472857Y-110637380D02*
X144044285Y-111208809D01*
X143187142Y-110637380D02*
X142615714Y-110637380D01*
X142901428Y-111637380D02*
X142901428Y-110637380D01*
X142282380Y-111256428D02*
X141520476Y-111256428D01*
X141139523Y-110637380D02*
X140472857Y-110637380D01*
X140901428Y-111637380D01*
X139901428Y-110637380D02*
X139806190Y-110637380D01*
X139710952Y-110685000D01*
X139663333Y-110732619D01*
X139615714Y-110827857D01*
X139568095Y-111018333D01*
X139568095Y-111256428D01*
X139615714Y-111446904D01*
X139663333Y-111542142D01*
X139710952Y-111589761D01*
X139806190Y-111637380D01*
X139901428Y-111637380D01*
X139996666Y-111589761D01*
X140044285Y-111542142D01*
X140091904Y-111446904D01*
X140139523Y-111256428D01*
X140139523Y-111018333D01*
X140091904Y-110827857D01*
X140044285Y-110732619D01*
X139996666Y-110685000D01*
X139901428Y-110637380D01*
X138377619Y-111637380D02*
X138377619Y-110637380D01*
X137996666Y-110637380D01*
X137901428Y-110685000D01*
X137853809Y-110732619D01*
X137806190Y-110827857D01*
X137806190Y-110970714D01*
X137853809Y-111065952D01*
X137901428Y-111113571D01*
X137996666Y-111161190D01*
X138377619Y-111161190D01*
X137234761Y-111637380D02*
X137330000Y-111589761D01*
X137377619Y-111494523D01*
X137377619Y-110637380D01*
X136425238Y-111637380D02*
X136425238Y-111113571D01*
X136472857Y-111018333D01*
X136568095Y-110970714D01*
X136758571Y-110970714D01*
X136853809Y-111018333D01*
X136425238Y-111589761D02*
X136520476Y-111637380D01*
X136758571Y-111637380D01*
X136853809Y-111589761D01*
X136901428Y-111494523D01*
X136901428Y-111399285D01*
X136853809Y-111304047D01*
X136758571Y-111256428D01*
X136520476Y-111256428D01*
X136425238Y-111208809D01*
X135996666Y-111589761D02*
X135901428Y-111637380D01*
X135710952Y-111637380D01*
X135615714Y-111589761D01*
X135568095Y-111494523D01*
X135568095Y-111446904D01*
X135615714Y-111351666D01*
X135710952Y-111304047D01*
X135853809Y-111304047D01*
X135949047Y-111256428D01*
X135996666Y-111161190D01*
X135996666Y-111113571D01*
X135949047Y-111018333D01*
X135853809Y-110970714D01*
X135710952Y-110970714D01*
X135615714Y-111018333D01*
X135282380Y-110970714D02*
X134901428Y-110970714D01*
X135139523Y-110637380D02*
X135139523Y-111494523D01*
X135091904Y-111589761D01*
X134996666Y-111637380D01*
X134901428Y-111637380D01*
X134568095Y-111637380D02*
X134568095Y-110970714D01*
X134568095Y-110637380D02*
X134615714Y-110685000D01*
X134568095Y-110732619D01*
X134520476Y-110685000D01*
X134568095Y-110637380D01*
X134568095Y-110732619D01*
X133663333Y-111589761D02*
X133758571Y-111637380D01*
X133949047Y-111637380D01*
X134044285Y-111589761D01*
X134091904Y-111542142D01*
X134139523Y-111446904D01*
X134139523Y-111161190D01*
X134091904Y-111065952D01*
X134044285Y-111018333D01*
X133949047Y-110970714D01*
X133758571Y-110970714D01*
X133663333Y-111018333D01*
X132472857Y-111113571D02*
X132139523Y-111113571D01*
X131996666Y-111637380D02*
X132472857Y-111637380D01*
X132472857Y-110637380D01*
X131996666Y-110637380D01*
X131425238Y-111637380D02*
X131520476Y-111589761D01*
X131568095Y-111494523D01*
X131568095Y-110637380D01*
X130663333Y-111589761D02*
X130758571Y-111637380D01*
X130949047Y-111637380D01*
X131044285Y-111589761D01*
X131091904Y-111494523D01*
X131091904Y-111113571D01*
X131044285Y-111018333D01*
X130949047Y-110970714D01*
X130758571Y-110970714D01*
X130663333Y-111018333D01*
X130615714Y-111113571D01*
X130615714Y-111208809D01*
X131091904Y-111304047D01*
X129758571Y-111589761D02*
X129853809Y-111637380D01*
X130044285Y-111637380D01*
X130139523Y-111589761D01*
X130187142Y-111542142D01*
X130234761Y-111446904D01*
X130234761Y-111161190D01*
X130187142Y-111065952D01*
X130139523Y-111018333D01*
X130044285Y-110970714D01*
X129853809Y-110970714D01*
X129758571Y-111018333D01*
X129472857Y-110970714D02*
X129091904Y-110970714D01*
X129330000Y-110637380D02*
X129330000Y-111494523D01*
X129282380Y-111589761D01*
X129187142Y-111637380D01*
X129091904Y-111637380D01*
X128758571Y-111637380D02*
X128758571Y-110970714D01*
X128758571Y-111161190D02*
X128710952Y-111065952D01*
X128663333Y-111018333D01*
X128568095Y-110970714D01*
X128472857Y-110970714D01*
X127996666Y-111637380D02*
X128091904Y-111589761D01*
X128139523Y-111542142D01*
X128187142Y-111446904D01*
X128187142Y-111161190D01*
X128139523Y-111065952D01*
X128091904Y-111018333D01*
X127996666Y-110970714D01*
X127853809Y-110970714D01*
X127758571Y-111018333D01*
X127710952Y-111065952D01*
X127663333Y-111161190D01*
X127663333Y-111446904D01*
X127710952Y-111542142D01*
X127758571Y-111589761D01*
X127853809Y-111637380D01*
X127996666Y-111637380D01*
X127234761Y-110970714D02*
X127234761Y-111637380D01*
X127234761Y-111065952D02*
X127187142Y-111018333D01*
X127091904Y-110970714D01*
X126949047Y-110970714D01*
X126853809Y-111018333D01*
X126806190Y-111113571D01*
X126806190Y-111637380D01*
X126330000Y-111637380D02*
X126330000Y-110970714D01*
X126330000Y-110637380D02*
X126377619Y-110685000D01*
X126330000Y-110732619D01*
X126282380Y-110685000D01*
X126330000Y-110637380D01*
X126330000Y-110732619D01*
X125425238Y-111589761D02*
X125520476Y-111637380D01*
X125710952Y-111637380D01*
X125806190Y-111589761D01*
X125853809Y-111542142D01*
X125901428Y-111446904D01*
X125901428Y-111161190D01*
X125853809Y-111065952D01*
X125806190Y-111018333D01*
X125710952Y-110970714D01*
X125520476Y-110970714D01*
X125425238Y-111018333D01*
X125044285Y-111589761D02*
X124949047Y-111637380D01*
X124758571Y-111637380D01*
X124663333Y-111589761D01*
X124615714Y-111494523D01*
X124615714Y-111446904D01*
X124663333Y-111351666D01*
X124758571Y-111304047D01*
X124901428Y-111304047D01*
X124996666Y-111256428D01*
X125044285Y-111161190D01*
X125044285Y-111113571D01*
X124996666Y-111018333D01*
X124901428Y-110970714D01*
X124758571Y-110970714D01*
X124663333Y-111018333D01*
X123425238Y-111113571D02*
X123091904Y-111113571D01*
X122949047Y-111637380D02*
X123425238Y-111637380D01*
X123425238Y-110637380D01*
X122949047Y-110637380D01*
X122520476Y-110970714D02*
X122520476Y-111637380D01*
X122520476Y-111065952D02*
X122472857Y-111018333D01*
X122377619Y-110970714D01*
X122234761Y-110970714D01*
X122139523Y-111018333D01*
X122091904Y-111113571D01*
X122091904Y-111637380D01*
X121187142Y-111589761D02*
X121282380Y-111637380D01*
X121472857Y-111637380D01*
X121568095Y-111589761D01*
X121615714Y-111542142D01*
X121663333Y-111446904D01*
X121663333Y-111161190D01*
X121615714Y-111065952D01*
X121568095Y-111018333D01*
X121472857Y-110970714D01*
X121282380Y-110970714D01*
X121187142Y-111018333D01*
X120615714Y-111637380D02*
X120710952Y-111589761D01*
X120758571Y-111494523D01*
X120758571Y-110637380D01*
X120091904Y-111637380D02*
X120187142Y-111589761D01*
X120234761Y-111542142D01*
X120282380Y-111446904D01*
X120282380Y-111161190D01*
X120234761Y-111065952D01*
X120187142Y-111018333D01*
X120091904Y-110970714D01*
X119949047Y-110970714D01*
X119853809Y-111018333D01*
X119806190Y-111065952D01*
X119758571Y-111161190D01*
X119758571Y-111446904D01*
X119806190Y-111542142D01*
X119853809Y-111589761D01*
X119949047Y-111637380D01*
X120091904Y-111637380D01*
X119377619Y-111589761D02*
X119282380Y-111637380D01*
X119091904Y-111637380D01*
X118996666Y-111589761D01*
X118949047Y-111494523D01*
X118949047Y-111446904D01*
X118996666Y-111351666D01*
X119091904Y-111304047D01*
X119234761Y-111304047D01*
X119330000Y-111256428D01*
X119377619Y-111161190D01*
X119377619Y-111113571D01*
X119330000Y-111018333D01*
X119234761Y-110970714D01*
X119091904Y-110970714D01*
X118996666Y-111018333D01*
X118091904Y-110970714D02*
X118091904Y-111637380D01*
X118520476Y-110970714D02*
X118520476Y-111494523D01*
X118472857Y-111589761D01*
X118377619Y-111637380D01*
X118234761Y-111637380D01*
X118139523Y-111589761D01*
X118091904Y-111542142D01*
X117615714Y-111637380D02*
X117615714Y-110970714D01*
X117615714Y-111161190D02*
X117568095Y-111065952D01*
X117520476Y-111018333D01*
X117425238Y-110970714D01*
X117330000Y-110970714D01*
X116615714Y-111589761D02*
X116710952Y-111637380D01*
X116901428Y-111637380D01*
X116996666Y-111589761D01*
X117044285Y-111494523D01*
X117044285Y-111113571D01*
X116996666Y-111018333D01*
X116901428Y-110970714D01*
X116710952Y-110970714D01*
X116615714Y-111018333D01*
X116568095Y-111113571D01*
X116568095Y-111208809D01*
X117044285Y-111304047D01*
X151139523Y-112247380D02*
X151615714Y-112247380D01*
X151663333Y-112723571D01*
X151615714Y-112675952D01*
X151520476Y-112628333D01*
X151282380Y-112628333D01*
X151187142Y-112675952D01*
X151139523Y-112723571D01*
X151091904Y-112818809D01*
X151091904Y-113056904D01*
X151139523Y-113152142D01*
X151187142Y-113199761D01*
X151282380Y-113247380D01*
X151520476Y-113247380D01*
X151615714Y-113199761D01*
X151663333Y-113152142D01*
X150663333Y-113152142D02*
X150615714Y-113199761D01*
X150663333Y-113247380D01*
X150710952Y-113199761D01*
X150663333Y-113152142D01*
X150663333Y-113247380D01*
X149710952Y-112247380D02*
X150187142Y-112247380D01*
X150234761Y-112723571D01*
X150187142Y-112675952D01*
X150091904Y-112628333D01*
X149853809Y-112628333D01*
X149758571Y-112675952D01*
X149710952Y-112723571D01*
X149663333Y-112818809D01*
X149663333Y-113056904D01*
X149710952Y-113152142D01*
X149758571Y-113199761D01*
X149853809Y-113247380D01*
X150091904Y-113247380D01*
X150187142Y-113199761D01*
X150234761Y-113152142D01*
X149044285Y-112247380D02*
X148949047Y-112247380D01*
X148853809Y-112295000D01*
X148806190Y-112342619D01*
X148758571Y-112437857D01*
X148710952Y-112628333D01*
X148710952Y-112866428D01*
X148758571Y-113056904D01*
X148806190Y-113152142D01*
X148853809Y-113199761D01*
X148949047Y-113247380D01*
X149044285Y-113247380D01*
X149139523Y-113199761D01*
X149187142Y-113152142D01*
X149234761Y-113056904D01*
X149282380Y-112866428D01*
X149282380Y-112628333D01*
X149234761Y-112437857D01*
X149187142Y-112342619D01*
X149139523Y-112295000D01*
X149044285Y-112247380D01*
X147615714Y-113247380D02*
X147091904Y-112580714D01*
X147615714Y-112580714D02*
X147091904Y-113247380D01*
X145996666Y-112342619D02*
X145949047Y-112295000D01*
X145853809Y-112247380D01*
X145615714Y-112247380D01*
X145520476Y-112295000D01*
X145472857Y-112342619D01*
X145425238Y-112437857D01*
X145425238Y-112533095D01*
X145472857Y-112675952D01*
X146044285Y-113247380D01*
X145425238Y-113247380D01*
X144996666Y-113152142D02*
X144949047Y-113199761D01*
X144996666Y-113247380D01*
X145044285Y-113199761D01*
X144996666Y-113152142D01*
X144996666Y-113247380D01*
X144330000Y-112247380D02*
X144234761Y-112247380D01*
X144139523Y-112295000D01*
X144091904Y-112342619D01*
X144044285Y-112437857D01*
X143996666Y-112628333D01*
X143996666Y-112866428D01*
X144044285Y-113056904D01*
X144091904Y-113152142D01*
X144139523Y-113199761D01*
X144234761Y-113247380D01*
X144330000Y-113247380D01*
X144425238Y-113199761D01*
X144472857Y-113152142D01*
X144520476Y-113056904D01*
X144568095Y-112866428D01*
X144568095Y-112628333D01*
X144520476Y-112437857D01*
X144472857Y-112342619D01*
X144425238Y-112295000D01*
X144330000Y-112247380D01*
X143377619Y-112247380D02*
X143282380Y-112247380D01*
X143187142Y-112295000D01*
X143139523Y-112342619D01*
X143091904Y-112437857D01*
X143044285Y-112628333D01*
X143044285Y-112866428D01*
X143091904Y-113056904D01*
X143139523Y-113152142D01*
X143187142Y-113199761D01*
X143282380Y-113247380D01*
X143377619Y-113247380D01*
X143472857Y-113199761D01*
X143520476Y-113152142D01*
X143568095Y-113056904D01*
X143615714Y-112866428D01*
X143615714Y-112628333D01*
X143568095Y-112437857D01*
X143520476Y-112342619D01*
X143472857Y-112295000D01*
X143377619Y-112247380D01*
X141949047Y-113247380D02*
X141425238Y-112580714D01*
X141949047Y-112580714D02*
X141425238Y-113247380D01*
X140091904Y-112247380D02*
X139996666Y-112247380D01*
X139901428Y-112295000D01*
X139853809Y-112342619D01*
X139806190Y-112437857D01*
X139758571Y-112628333D01*
X139758571Y-112866428D01*
X139806190Y-113056904D01*
X139853809Y-113152142D01*
X139901428Y-113199761D01*
X139996666Y-113247380D01*
X140091904Y-113247380D01*
X140187142Y-113199761D01*
X140234761Y-113152142D01*
X140282380Y-113056904D01*
X140330000Y-112866428D01*
X140330000Y-112628333D01*
X140282380Y-112437857D01*
X140234761Y-112342619D01*
X140187142Y-112295000D01*
X140091904Y-112247380D01*
X139330000Y-113152142D02*
X139282380Y-113199761D01*
X139330000Y-113247380D01*
X139377619Y-113199761D01*
X139330000Y-113152142D01*
X139330000Y-113247380D01*
X138710952Y-112675952D02*
X138806190Y-112628333D01*
X138853809Y-112580714D01*
X138901428Y-112485476D01*
X138901428Y-112437857D01*
X138853809Y-112342619D01*
X138806190Y-112295000D01*
X138710952Y-112247380D01*
X138520476Y-112247380D01*
X138425238Y-112295000D01*
X138377619Y-112342619D01*
X138330000Y-112437857D01*
X138330000Y-112485476D01*
X138377619Y-112580714D01*
X138425238Y-112628333D01*
X138520476Y-112675952D01*
X138710952Y-112675952D01*
X138806190Y-112723571D01*
X138853809Y-112771190D01*
X138901428Y-112866428D01*
X138901428Y-113056904D01*
X138853809Y-113152142D01*
X138806190Y-113199761D01*
X138710952Y-113247380D01*
X138520476Y-113247380D01*
X138425238Y-113199761D01*
X138377619Y-113152142D01*
X138330000Y-113056904D01*
X138330000Y-112866428D01*
X138377619Y-112771190D01*
X138425238Y-112723571D01*
X138520476Y-112675952D01*
X137710952Y-112247380D02*
X137615714Y-112247380D01*
X137520476Y-112295000D01*
X137472857Y-112342619D01*
X137425238Y-112437857D01*
X137377619Y-112628333D01*
X137377619Y-112866428D01*
X137425238Y-113056904D01*
X137472857Y-113152142D01*
X137520476Y-113199761D01*
X137615714Y-113247380D01*
X137710952Y-113247380D01*
X137806190Y-113199761D01*
X137853809Y-113152142D01*
X137901428Y-113056904D01*
X137949047Y-112866428D01*
X137949047Y-112628333D01*
X137901428Y-112437857D01*
X137853809Y-112342619D01*
X137806190Y-112295000D01*
X137710952Y-112247380D01*
X136187142Y-113247380D02*
X136187142Y-112580714D01*
X136187142Y-112247380D02*
X136234761Y-112295000D01*
X136187142Y-112342619D01*
X136139523Y-112295000D01*
X136187142Y-112247380D01*
X136187142Y-112342619D01*
X135710952Y-112580714D02*
X135710952Y-113247380D01*
X135710952Y-112675952D02*
X135663333Y-112628333D01*
X135568095Y-112580714D01*
X135425238Y-112580714D01*
X135330000Y-112628333D01*
X135282380Y-112723571D01*
X135282380Y-113247380D01*
X133329999Y-112199761D02*
X134187142Y-113485476D01*
X131710952Y-113247380D02*
X132282380Y-113247380D01*
X131996666Y-113247380D02*
X131996666Y-112247380D01*
X132091904Y-112390238D01*
X132187142Y-112485476D01*
X132282380Y-112533095D01*
X130853809Y-112580714D02*
X130853809Y-113247380D01*
X131091904Y-112199761D02*
X131329999Y-112914047D01*
X130710952Y-112914047D01*
X130139523Y-112247380D02*
X130044285Y-112247380D01*
X129949047Y-112295000D01*
X129901428Y-112342619D01*
X129853809Y-112437857D01*
X129806190Y-112628333D01*
X129806190Y-112866428D01*
X129853809Y-113056904D01*
X129901428Y-113152142D01*
X129949047Y-113199761D01*
X130044285Y-113247380D01*
X130139523Y-113247380D01*
X130234761Y-113199761D01*
X130282380Y-113152142D01*
X130329999Y-113056904D01*
X130377619Y-112866428D01*
X130377619Y-112628333D01*
X130329999Y-112437857D01*
X130282380Y-112342619D01*
X130234761Y-112295000D01*
X130139523Y-112247380D01*
X128710952Y-113247380D02*
X128187142Y-112580714D01*
X128710952Y-112580714D02*
X128187142Y-113247380D01*
X126568095Y-112247380D02*
X127044285Y-112247380D01*
X127091904Y-112723571D01*
X127044285Y-112675952D01*
X126949047Y-112628333D01*
X126710952Y-112628333D01*
X126615714Y-112675952D01*
X126568095Y-112723571D01*
X126520476Y-112818809D01*
X126520476Y-113056904D01*
X126568095Y-113152142D01*
X126615714Y-113199761D01*
X126710952Y-113247380D01*
X126949047Y-113247380D01*
X127044285Y-113199761D01*
X127091904Y-113152142D01*
X125568095Y-113247380D02*
X126139523Y-113247380D01*
X125853809Y-113247380D02*
X125853809Y-112247380D01*
X125949047Y-112390238D01*
X126044285Y-112485476D01*
X126139523Y-112533095D01*
X124472857Y-113247380D02*
X123949047Y-112580714D01*
X124472857Y-112580714D02*
X123949047Y-113247380D01*
X122853809Y-112342619D02*
X122806190Y-112295000D01*
X122710952Y-112247380D01*
X122472857Y-112247380D01*
X122377619Y-112295000D01*
X122330000Y-112342619D01*
X122282380Y-112437857D01*
X122282380Y-112533095D01*
X122330000Y-112675952D01*
X122901428Y-113247380D01*
X122282380Y-113247380D01*
X121663333Y-112247380D02*
X121568095Y-112247380D01*
X121472857Y-112295000D01*
X121425238Y-112342619D01*
X121377619Y-112437857D01*
X121330000Y-112628333D01*
X121330000Y-112866428D01*
X121377619Y-113056904D01*
X121425238Y-113152142D01*
X121472857Y-113199761D01*
X121568095Y-113247380D01*
X121663333Y-113247380D01*
X121758571Y-113199761D01*
X121806190Y-113152142D01*
X121853809Y-113056904D01*
X121901428Y-112866428D01*
X121901428Y-112628333D01*
X121853809Y-112437857D01*
X121806190Y-112342619D01*
X121758571Y-112295000D01*
X121663333Y-112247380D01*
X120139523Y-113247380D02*
X120139523Y-112580714D01*
X120139523Y-112675952D02*
X120091904Y-112628333D01*
X119996666Y-112580714D01*
X119853809Y-112580714D01*
X119758571Y-112628333D01*
X119710952Y-112723571D01*
X119710952Y-113247380D01*
X119710952Y-112723571D02*
X119663333Y-112628333D01*
X119568095Y-112580714D01*
X119425238Y-112580714D01*
X119330000Y-112628333D01*
X119282380Y-112723571D01*
X119282380Y-113247380D01*
X118806190Y-113247380D02*
X118806190Y-112580714D01*
X118806190Y-112675952D02*
X118758571Y-112628333D01*
X118663333Y-112580714D01*
X118520476Y-112580714D01*
X118425238Y-112628333D01*
X118377619Y-112723571D01*
X118377619Y-113247380D01*
X118377619Y-112723571D02*
X118330000Y-112628333D01*
X118234761Y-112580714D01*
X118091904Y-112580714D01*
X117996666Y-112628333D01*
X117949047Y-112723571D01*
X117949047Y-113247380D01*
X115996666Y-112199761D02*
X116853809Y-113485476D01*
X114710952Y-112247380D02*
X114615714Y-112247380D01*
X114520476Y-112295000D01*
X114472857Y-112342619D01*
X114425238Y-112437857D01*
X114377619Y-112628333D01*
X114377619Y-112866428D01*
X114425238Y-113056904D01*
X114472857Y-113152142D01*
X114520476Y-113199761D01*
X114615714Y-113247380D01*
X114710952Y-113247380D01*
X114806190Y-113199761D01*
X114853809Y-113152142D01*
X114901428Y-113056904D01*
X114949047Y-112866428D01*
X114949047Y-112628333D01*
X114901428Y-112437857D01*
X114853809Y-112342619D01*
X114806190Y-112295000D01*
X114710952Y-112247380D01*
X113949047Y-113152142D02*
X113901428Y-113199761D01*
X113949047Y-113247380D01*
X113996666Y-113199761D01*
X113949047Y-113152142D01*
X113949047Y-113247380D01*
X112949047Y-113247380D02*
X113520476Y-113247380D01*
X113234761Y-113247380D02*
X113234761Y-112247380D01*
X113330000Y-112390238D01*
X113425238Y-112485476D01*
X113520476Y-112533095D01*
X112615714Y-112247380D02*
X111996666Y-112247380D01*
X112330000Y-112628333D01*
X112187142Y-112628333D01*
X112091904Y-112675952D01*
X112044285Y-112723571D01*
X111996666Y-112818809D01*
X111996666Y-113056904D01*
X112044285Y-113152142D01*
X112091904Y-113199761D01*
X112187142Y-113247380D01*
X112472857Y-113247380D01*
X112568095Y-113199761D01*
X112615714Y-113152142D01*
X110663333Y-113247380D02*
X110758571Y-113199761D01*
X110806190Y-113104523D01*
X110806190Y-112247380D01*
X110282380Y-113247380D02*
X110282380Y-112247380D01*
X110282380Y-112628333D02*
X110187142Y-112580714D01*
X109996666Y-112580714D01*
X109901428Y-112628333D01*
X109853809Y-112675952D01*
X109806190Y-112771190D01*
X109806190Y-113056904D01*
X109853809Y-113152142D01*
X109901428Y-113199761D01*
X109996666Y-113247380D01*
X110187142Y-113247380D01*
X110282380Y-113199761D01*
X109425238Y-113199761D02*
X109330000Y-113247380D01*
X109139523Y-113247380D01*
X109044285Y-113199761D01*
X108996666Y-113104523D01*
X108996666Y-113056904D01*
X109044285Y-112961666D01*
X109139523Y-112914047D01*
X109282380Y-112914047D01*
X109377619Y-112866428D01*
X109425238Y-112771190D01*
X109425238Y-112723571D01*
X109377619Y-112628333D01*
X109282380Y-112580714D01*
X109139523Y-112580714D01*
X109044285Y-112628333D01*
D11*
X149354285Y-104846857D02*
X149354285Y-103646857D01*
X148897142Y-103646857D01*
X148782857Y-103704000D01*
X148725714Y-103761142D01*
X148668571Y-103875428D01*
X148668571Y-104046857D01*
X148725714Y-104161142D01*
X148782857Y-104218285D01*
X148897142Y-104275428D01*
X149354285Y-104275428D01*
X147982857Y-104846857D02*
X148097142Y-104789714D01*
X148154285Y-104675428D01*
X148154285Y-103646857D01*
X147011428Y-104846857D02*
X147011428Y-104218285D01*
X147068571Y-104104000D01*
X147182857Y-104046857D01*
X147411428Y-104046857D01*
X147525714Y-104104000D01*
X147011428Y-104789714D02*
X147125714Y-104846857D01*
X147411428Y-104846857D01*
X147525714Y-104789714D01*
X147582857Y-104675428D01*
X147582857Y-104561142D01*
X147525714Y-104446857D01*
X147411428Y-104389714D01*
X147125714Y-104389714D01*
X147011428Y-104332571D01*
X145925714Y-104789714D02*
X146040000Y-104846857D01*
X146268571Y-104846857D01*
X146382857Y-104789714D01*
X146440000Y-104732571D01*
X146497142Y-104618285D01*
X146497142Y-104275428D01*
X146440000Y-104161142D01*
X146382857Y-104104000D01*
X146268571Y-104046857D01*
X146040000Y-104046857D01*
X145925714Y-104104000D01*
X144954285Y-104789714D02*
X145068571Y-104846857D01*
X145297142Y-104846857D01*
X145411428Y-104789714D01*
X145468571Y-104675428D01*
X145468571Y-104218285D01*
X145411428Y-104104000D01*
X145297142Y-104046857D01*
X145068571Y-104046857D01*
X144954285Y-104104000D01*
X144897142Y-104218285D01*
X144897142Y-104332571D01*
X145468571Y-104446857D01*
X143640000Y-103646857D02*
X142954285Y-103646857D01*
X143297142Y-104846857D02*
X143297142Y-103646857D01*
X141925714Y-104846857D02*
X142611428Y-104846857D01*
X142268571Y-104846857D02*
X142268571Y-103646857D01*
X142382857Y-103818285D01*
X142497142Y-103932571D01*
X142611428Y-103989714D01*
X141182857Y-103646857D02*
X141068571Y-103646857D01*
X140954285Y-103704000D01*
X140897142Y-103761142D01*
X140840000Y-103875428D01*
X140782857Y-104104000D01*
X140782857Y-104389714D01*
X140840000Y-104618285D01*
X140897142Y-104732571D01*
X140954285Y-104789714D01*
X141068571Y-104846857D01*
X141182857Y-104846857D01*
X141297142Y-104789714D01*
X141354285Y-104732571D01*
X141411428Y-104618285D01*
X141468571Y-104389714D01*
X141468571Y-104104000D01*
X141411428Y-103875428D01*
X141354285Y-103761142D01*
X141297142Y-103704000D01*
X141182857Y-103646857D01*
X139640000Y-104846857D02*
X140325714Y-104846857D01*
X139982857Y-104846857D02*
X139982857Y-103646857D01*
X140097142Y-103818285D01*
X140211428Y-103932571D01*
X140325714Y-103989714D01*
X138040000Y-104846857D02*
X138154285Y-104789714D01*
X138211428Y-104732571D01*
X138268571Y-104618285D01*
X138268571Y-104275428D01*
X138211428Y-104161142D01*
X138154285Y-104104000D01*
X138040000Y-104046857D01*
X137868571Y-104046857D01*
X137754285Y-104104000D01*
X137697142Y-104161142D01*
X137640000Y-104275428D01*
X137640000Y-104618285D01*
X137697142Y-104732571D01*
X137754285Y-104789714D01*
X137868571Y-104846857D01*
X138040000Y-104846857D01*
X137125714Y-104046857D02*
X137125714Y-104846857D01*
X137125714Y-104161142D02*
X137068571Y-104104000D01*
X136954285Y-104046857D01*
X136782857Y-104046857D01*
X136668571Y-104104000D01*
X136611428Y-104218285D01*
X136611428Y-104846857D01*
X135297142Y-104046857D02*
X134840000Y-104046857D01*
X135125714Y-103646857D02*
X135125714Y-104675428D01*
X135068571Y-104789714D01*
X134954285Y-104846857D01*
X134840000Y-104846857D01*
X134440000Y-104846857D02*
X134440000Y-103646857D01*
X133925714Y-104846857D02*
X133925714Y-104218285D01*
X133982857Y-104104000D01*
X134097142Y-104046857D01*
X134268571Y-104046857D01*
X134382857Y-104104000D01*
X134440000Y-104161142D01*
X133354285Y-104846857D02*
X133354285Y-104046857D01*
X133354285Y-103646857D02*
X133411428Y-103704000D01*
X133354285Y-103761142D01*
X133297142Y-103704000D01*
X133354285Y-103646857D01*
X133354285Y-103761142D01*
X132840000Y-104789714D02*
X132725714Y-104846857D01*
X132497142Y-104846857D01*
X132382857Y-104789714D01*
X132325714Y-104675428D01*
X132325714Y-104618285D01*
X132382857Y-104504000D01*
X132497142Y-104446857D01*
X132668571Y-104446857D01*
X132782857Y-104389714D01*
X132840000Y-104275428D01*
X132840000Y-104218285D01*
X132782857Y-104104000D01*
X132668571Y-104046857D01*
X132497142Y-104046857D01*
X132382857Y-104104000D01*
X130954285Y-104789714D02*
X130840000Y-104846857D01*
X130611428Y-104846857D01*
X130497142Y-104789714D01*
X130440000Y-104675428D01*
X130440000Y-104618285D01*
X130497142Y-104504000D01*
X130611428Y-104446857D01*
X130782857Y-104446857D01*
X130897142Y-104389714D01*
X130954285Y-104275428D01*
X130954285Y-104218285D01*
X130897142Y-104104000D01*
X130782857Y-104046857D01*
X130611428Y-104046857D01*
X130497142Y-104104000D01*
X129925714Y-104846857D02*
X129925714Y-104046857D01*
X129925714Y-103646857D02*
X129982857Y-103704000D01*
X129925714Y-103761142D01*
X129868571Y-103704000D01*
X129925714Y-103646857D01*
X129925714Y-103761142D01*
X128840000Y-104846857D02*
X128840000Y-103646857D01*
X128840000Y-104789714D02*
X128954285Y-104846857D01*
X129182857Y-104846857D01*
X129297142Y-104789714D01*
X129354285Y-104732571D01*
X129411428Y-104618285D01*
X129411428Y-104275428D01*
X129354285Y-104161142D01*
X129297142Y-104104000D01*
X129182857Y-104046857D01*
X128954285Y-104046857D01*
X128840000Y-104104000D01*
X127811428Y-104789714D02*
X127925714Y-104846857D01*
X128154285Y-104846857D01*
X128268571Y-104789714D01*
X128325714Y-104675428D01*
X128325714Y-104218285D01*
X128268571Y-104104000D01*
X128154285Y-104046857D01*
X127925714Y-104046857D01*
X127811428Y-104104000D01*
X127754285Y-104218285D01*
X127754285Y-104332571D01*
X128325714Y-104446857D01*
X127240000Y-104732571D02*
X127182857Y-104789714D01*
X127240000Y-104846857D01*
X127297142Y-104789714D01*
X127240000Y-104732571D01*
X127240000Y-104846857D01*
X149982857Y-106721714D02*
X149811428Y-106778857D01*
X149525714Y-106778857D01*
X149411428Y-106721714D01*
X149354285Y-106664571D01*
X149297142Y-106550285D01*
X149297142Y-106436000D01*
X149354285Y-106321714D01*
X149411428Y-106264571D01*
X149525714Y-106207428D01*
X149754285Y-106150285D01*
X149868571Y-106093142D01*
X149925714Y-106036000D01*
X149982857Y-105921714D01*
X149982857Y-105807428D01*
X149925714Y-105693142D01*
X149868571Y-105636000D01*
X149754285Y-105578857D01*
X149468571Y-105578857D01*
X149297142Y-105636000D01*
X148611428Y-106778857D02*
X148725714Y-106721714D01*
X148782857Y-106664571D01*
X148840000Y-106550285D01*
X148840000Y-106207428D01*
X148782857Y-106093142D01*
X148725714Y-106036000D01*
X148611428Y-105978857D01*
X148440000Y-105978857D01*
X148325714Y-106036000D01*
X148268571Y-106093142D01*
X148211428Y-106207428D01*
X148211428Y-106550285D01*
X148268571Y-106664571D01*
X148325714Y-106721714D01*
X148440000Y-106778857D01*
X148611428Y-106778857D01*
X147525714Y-106778857D02*
X147640000Y-106721714D01*
X147697142Y-106607428D01*
X147697142Y-105578857D01*
X146554285Y-106778857D02*
X146554285Y-105578857D01*
X146554285Y-106721714D02*
X146668571Y-106778857D01*
X146897142Y-106778857D01*
X147011428Y-106721714D01*
X147068571Y-106664571D01*
X147125714Y-106550285D01*
X147125714Y-106207428D01*
X147068571Y-106093142D01*
X147011428Y-106036000D01*
X146897142Y-105978857D01*
X146668571Y-105978857D01*
X146554285Y-106036000D01*
X145525714Y-106721714D02*
X145640000Y-106778857D01*
X145868571Y-106778857D01*
X145982857Y-106721714D01*
X146040000Y-106607428D01*
X146040000Y-106150285D01*
X145982857Y-106036000D01*
X145868571Y-105978857D01*
X145640000Y-105978857D01*
X145525714Y-106036000D01*
X145468571Y-106150285D01*
X145468571Y-106264571D01*
X146040000Y-106378857D01*
X144954285Y-106778857D02*
X144954285Y-105978857D01*
X144954285Y-106207428D02*
X144897142Y-106093142D01*
X144840000Y-106036000D01*
X144725714Y-105978857D01*
X144611428Y-105978857D01*
X143468571Y-105578857D02*
X142782857Y-105578857D01*
X143125714Y-106778857D02*
X143125714Y-105578857D01*
X141754285Y-106778857D02*
X142440000Y-106778857D01*
X142097142Y-106778857D02*
X142097142Y-105578857D01*
X142211428Y-105750285D01*
X142325714Y-105864571D01*
X142440000Y-105921714D01*
X141011428Y-105578857D02*
X140897142Y-105578857D01*
X140782857Y-105636000D01*
X140725714Y-105693142D01*
X140668571Y-105807428D01*
X140611428Y-106036000D01*
X140611428Y-106321714D01*
X140668571Y-106550285D01*
X140725714Y-106664571D01*
X140782857Y-106721714D01*
X140897142Y-106778857D01*
X141011428Y-106778857D01*
X141125714Y-106721714D01*
X141182857Y-106664571D01*
X141240000Y-106550285D01*
X141297142Y-106321714D01*
X141297142Y-106036000D01*
X141240000Y-105807428D01*
X141182857Y-105693142D01*
X141125714Y-105636000D01*
X141011428Y-105578857D01*
X139468571Y-106778857D02*
X140154285Y-106778857D01*
X139811428Y-106778857D02*
X139811428Y-105578857D01*
X139925714Y-105750285D01*
X140040000Y-105864571D01*
X140154285Y-105921714D01*
X137868571Y-106778857D02*
X137982857Y-106721714D01*
X138040000Y-106664571D01*
X138097142Y-106550285D01*
X138097142Y-106207428D01*
X138040000Y-106093142D01*
X137982857Y-106036000D01*
X137868571Y-105978857D01*
X137697142Y-105978857D01*
X137582857Y-106036000D01*
X137525714Y-106093142D01*
X137468571Y-106207428D01*
X137468571Y-106550285D01*
X137525714Y-106664571D01*
X137582857Y-106721714D01*
X137697142Y-106778857D01*
X137868571Y-106778857D01*
X136954285Y-105978857D02*
X136954285Y-106778857D01*
X136954285Y-106093142D02*
X136897142Y-106036000D01*
X136782857Y-105978857D01*
X136611428Y-105978857D01*
X136497142Y-106036000D01*
X136440000Y-106150285D01*
X136440000Y-106778857D01*
X134782857Y-106778857D02*
X134897142Y-106721714D01*
X134954285Y-106664571D01*
X135011428Y-106550285D01*
X135011428Y-106207428D01*
X134954285Y-106093142D01*
X134897142Y-106036000D01*
X134782857Y-105978857D01*
X134611428Y-105978857D01*
X134497142Y-106036000D01*
X134440000Y-106093142D01*
X134382857Y-106207428D01*
X134382857Y-106550285D01*
X134440000Y-106664571D01*
X134497142Y-106721714D01*
X134611428Y-106778857D01*
X134782857Y-106778857D01*
X134040000Y-105978857D02*
X133582857Y-105978857D01*
X133868571Y-105578857D02*
X133868571Y-106607428D01*
X133811428Y-106721714D01*
X133697142Y-106778857D01*
X133582857Y-106778857D01*
X133182857Y-106778857D02*
X133182857Y-105578857D01*
X132668571Y-106778857D02*
X132668571Y-106150285D01*
X132725714Y-106036000D01*
X132840000Y-105978857D01*
X133011428Y-105978857D01*
X133125714Y-106036000D01*
X133182857Y-106093142D01*
X131640000Y-106721714D02*
X131754285Y-106778857D01*
X131982857Y-106778857D01*
X132097142Y-106721714D01*
X132154285Y-106607428D01*
X132154285Y-106150285D01*
X132097142Y-106036000D01*
X131982857Y-105978857D01*
X131754285Y-105978857D01*
X131640000Y-106036000D01*
X131582857Y-106150285D01*
X131582857Y-106264571D01*
X132154285Y-106378857D01*
X131068571Y-106778857D02*
X131068571Y-105978857D01*
X131068571Y-106207428D02*
X131011428Y-106093142D01*
X130954285Y-106036000D01*
X130840000Y-105978857D01*
X130725714Y-105978857D01*
X129468571Y-106721714D02*
X129354285Y-106778857D01*
X129125714Y-106778857D01*
X129011428Y-106721714D01*
X128954285Y-106607428D01*
X128954285Y-106550285D01*
X129011428Y-106436000D01*
X129125714Y-106378857D01*
X129297142Y-106378857D01*
X129411428Y-106321714D01*
X129468571Y-106207428D01*
X129468571Y-106150285D01*
X129411428Y-106036000D01*
X129297142Y-105978857D01*
X129125714Y-105978857D01*
X129011428Y-106036000D01*
X128440000Y-106778857D02*
X128440000Y-105978857D01*
X128440000Y-105578857D02*
X128497142Y-105636000D01*
X128440000Y-105693142D01*
X128382857Y-105636000D01*
X128440000Y-105578857D01*
X128440000Y-105693142D01*
X127354285Y-106778857D02*
X127354285Y-105578857D01*
X127354285Y-106721714D02*
X127468571Y-106778857D01*
X127697142Y-106778857D01*
X127811428Y-106721714D01*
X127868571Y-106664571D01*
X127925714Y-106550285D01*
X127925714Y-106207428D01*
X127868571Y-106093142D01*
X127811428Y-106036000D01*
X127697142Y-105978857D01*
X127468571Y-105978857D01*
X127354285Y-106036000D01*
X126325714Y-106721714D02*
X126440000Y-106778857D01*
X126668571Y-106778857D01*
X126782857Y-106721714D01*
X126840000Y-106607428D01*
X126840000Y-106150285D01*
X126782857Y-106036000D01*
X126668571Y-105978857D01*
X126440000Y-105978857D01*
X126325714Y-106036000D01*
X126268571Y-106150285D01*
X126268571Y-106264571D01*
X126840000Y-106378857D01*
X125754285Y-106664571D02*
X125697142Y-106721714D01*
X125754285Y-106778857D01*
X125811428Y-106721714D01*
X125754285Y-106664571D01*
X125754285Y-106778857D01*
D12*
X111410476Y-108762380D02*
X111886666Y-108762380D01*
X111886666Y-107762380D01*
X110934285Y-108762380D02*
X111029523Y-108714761D01*
X111077142Y-108667142D01*
X111124761Y-108571904D01*
X111124761Y-108286190D01*
X111077142Y-108190952D01*
X111029523Y-108143333D01*
X110934285Y-108095714D01*
X110791428Y-108095714D01*
X110696190Y-108143333D01*
X110648571Y-108190952D01*
X110600952Y-108286190D01*
X110600952Y-108571904D01*
X110648571Y-108667142D01*
X110696190Y-108714761D01*
X110791428Y-108762380D01*
X110934285Y-108762380D01*
X110029523Y-108762380D02*
X110124761Y-108714761D01*
X110172380Y-108667142D01*
X110220000Y-108571904D01*
X110220000Y-108286190D01*
X110172380Y-108190952D01*
X110124761Y-108143333D01*
X110029523Y-108095714D01*
X109886666Y-108095714D01*
X109791428Y-108143333D01*
X109743809Y-108190952D01*
X109696190Y-108286190D01*
X109696190Y-108571904D01*
X109743809Y-108667142D01*
X109791428Y-108714761D01*
X109886666Y-108762380D01*
X110029523Y-108762380D01*
X109267619Y-108095714D02*
X109267619Y-109095714D01*
X109267619Y-108143333D02*
X109172380Y-108095714D01*
X108981904Y-108095714D01*
X108886666Y-108143333D01*
X108839047Y-108190952D01*
X108791428Y-108286190D01*
X108791428Y-108571904D01*
X108839047Y-108667142D01*
X108886666Y-108714761D01*
X108981904Y-108762380D01*
X109172380Y-108762380D01*
X109267619Y-108714761D01*
X107648571Y-108476666D02*
X107172380Y-108476666D01*
X107743809Y-108762380D02*
X107410476Y-107762380D01*
X107077142Y-108762380D01*
X106315238Y-108762380D02*
X106315238Y-107762380D01*
X106315238Y-108714761D02*
X106410476Y-108762380D01*
X106600952Y-108762380D01*
X106696190Y-108714761D01*
X106743809Y-108667142D01*
X106791428Y-108571904D01*
X106791428Y-108286190D01*
X106743809Y-108190952D01*
X106696190Y-108143333D01*
X106600952Y-108095714D01*
X106410476Y-108095714D01*
X106315238Y-108143333D01*
X105839047Y-108095714D02*
X105839047Y-108952857D01*
X105886666Y-109048095D01*
X105981904Y-109095714D01*
X106029523Y-109095714D01*
X105839047Y-107762380D02*
X105886666Y-107810000D01*
X105839047Y-107857619D01*
X105791428Y-107810000D01*
X105839047Y-107762380D01*
X105839047Y-107857619D01*
X104934285Y-108095714D02*
X104934285Y-108762380D01*
X105362857Y-108095714D02*
X105362857Y-108619523D01*
X105315238Y-108714761D01*
X105219999Y-108762380D01*
X105077142Y-108762380D01*
X104981904Y-108714761D01*
X104934285Y-108667142D01*
X104505714Y-108714761D02*
X104410476Y-108762380D01*
X104219999Y-108762380D01*
X104124761Y-108714761D01*
X104077142Y-108619523D01*
X104077142Y-108571904D01*
X104124761Y-108476666D01*
X104219999Y-108429047D01*
X104362857Y-108429047D01*
X104458095Y-108381428D01*
X104505714Y-108286190D01*
X104505714Y-108238571D01*
X104458095Y-108143333D01*
X104362857Y-108095714D01*
X104219999Y-108095714D01*
X104124761Y-108143333D01*
X103791428Y-108095714D02*
X103410476Y-108095714D01*
X103648571Y-107762380D02*
X103648571Y-108619523D01*
X103600952Y-108714761D01*
X103505714Y-108762380D01*
X103410476Y-108762380D01*
D11*
X84261428Y-90031428D02*
X83547142Y-90031428D01*
X83547142Y-91531428D01*
X84761428Y-90817142D02*
X85261428Y-90817142D01*
X85475714Y-90031428D02*
X84761428Y-90031428D01*
X84761428Y-91531428D01*
X85475714Y-91531428D01*
X86618571Y-90817142D02*
X86118571Y-90817142D01*
X86118571Y-90031428D02*
X86118571Y-91531428D01*
X86832857Y-91531428D01*
X87190000Y-91531428D02*
X88047142Y-91531428D01*
X87618571Y-90031428D02*
X87618571Y-91531428D01*
X87300000Y-102248571D02*
X87800000Y-101534285D01*
X88157142Y-102248571D02*
X88157142Y-100748571D01*
X87585714Y-100748571D01*
X87442857Y-100820000D01*
X87371428Y-100891428D01*
X87300000Y-101034285D01*
X87300000Y-101248571D01*
X87371428Y-101391428D01*
X87442857Y-101462857D01*
X87585714Y-101534285D01*
X88157142Y-101534285D01*
X86657142Y-102248571D02*
X86657142Y-100748571D01*
X85157142Y-100820000D02*
X85300000Y-100748571D01*
X85514285Y-100748571D01*
X85728571Y-100820000D01*
X85871428Y-100962857D01*
X85942857Y-101105714D01*
X86014285Y-101391428D01*
X86014285Y-101605714D01*
X85942857Y-101891428D01*
X85871428Y-102034285D01*
X85728571Y-102177142D01*
X85514285Y-102248571D01*
X85371428Y-102248571D01*
X85157142Y-102177142D01*
X85085714Y-102105714D01*
X85085714Y-101605714D01*
X85371428Y-101605714D01*
X84442857Y-102248571D02*
X84442857Y-100748571D01*
X84442857Y-101462857D02*
X83585714Y-101462857D01*
X83585714Y-102248571D02*
X83585714Y-100748571D01*
X83085714Y-100748571D02*
X82228571Y-100748571D01*
X82657142Y-102248571D02*
X82657142Y-100748571D01*
D12*
X188809047Y-82252142D02*
X188856666Y-82299761D01*
X188999523Y-82347380D01*
X189094761Y-82347380D01*
X189237619Y-82299761D01*
X189332857Y-82204523D01*
X189380476Y-82109285D01*
X189428095Y-81918809D01*
X189428095Y-81775952D01*
X189380476Y-81585476D01*
X189332857Y-81490238D01*
X189237619Y-81395000D01*
X189094761Y-81347380D01*
X188999523Y-81347380D01*
X188856666Y-81395000D01*
X188809047Y-81442619D01*
X188237619Y-82347380D02*
X188332857Y-82299761D01*
X188380476Y-82252142D01*
X188428095Y-82156904D01*
X188428095Y-81871190D01*
X188380476Y-81775952D01*
X188332857Y-81728333D01*
X188237619Y-81680714D01*
X188094761Y-81680714D01*
X187999523Y-81728333D01*
X187951904Y-81775952D01*
X187904285Y-81871190D01*
X187904285Y-82156904D01*
X187951904Y-82252142D01*
X187999523Y-82299761D01*
X188094761Y-82347380D01*
X188237619Y-82347380D01*
X187475714Y-81680714D02*
X187475714Y-82347380D01*
X187475714Y-81775952D02*
X187428095Y-81728333D01*
X187332857Y-81680714D01*
X187190000Y-81680714D01*
X187094761Y-81728333D01*
X187047142Y-81823571D01*
X187047142Y-82347380D01*
X186570952Y-81680714D02*
X186570952Y-82347380D01*
X186570952Y-81775952D02*
X186523333Y-81728333D01*
X186428095Y-81680714D01*
X186285238Y-81680714D01*
X186190000Y-81728333D01*
X186142380Y-81823571D01*
X186142380Y-82347380D01*
X185285238Y-82299761D02*
X185380476Y-82347380D01*
X185570952Y-82347380D01*
X185666190Y-82299761D01*
X185713809Y-82204523D01*
X185713809Y-81823571D01*
X185666190Y-81728333D01*
X185570952Y-81680714D01*
X185380476Y-81680714D01*
X185285238Y-81728333D01*
X185237619Y-81823571D01*
X185237619Y-81918809D01*
X185713809Y-82014047D01*
X184380476Y-82299761D02*
X184475714Y-82347380D01*
X184666190Y-82347380D01*
X184761428Y-82299761D01*
X184809047Y-82252142D01*
X184856666Y-82156904D01*
X184856666Y-81871190D01*
X184809047Y-81775952D01*
X184761428Y-81728333D01*
X184666190Y-81680714D01*
X184475714Y-81680714D01*
X184380476Y-81728333D01*
X184094761Y-81680714D02*
X183713809Y-81680714D01*
X183951904Y-81347380D02*
X183951904Y-82204523D01*
X183904285Y-82299761D01*
X183809047Y-82347380D01*
X183713809Y-82347380D01*
X182618571Y-82347380D02*
X182618571Y-81347380D01*
X182237619Y-81347380D01*
X182142380Y-81395000D01*
X182094761Y-81442619D01*
X182047142Y-81537857D01*
X182047142Y-81680714D01*
X182094761Y-81775952D01*
X182142380Y-81823571D01*
X182237619Y-81871190D01*
X182618571Y-81871190D01*
X181618571Y-82347380D02*
X181618571Y-81680714D01*
X181618571Y-81871190D02*
X181570952Y-81775952D01*
X181523333Y-81728333D01*
X181428095Y-81680714D01*
X181332857Y-81680714D01*
X180856666Y-82347380D02*
X180951904Y-82299761D01*
X180999523Y-82252142D01*
X181047142Y-82156904D01*
X181047142Y-81871190D01*
X180999523Y-81775952D01*
X180951904Y-81728333D01*
X180856666Y-81680714D01*
X180713809Y-81680714D01*
X180618571Y-81728333D01*
X180570952Y-81775952D01*
X180523333Y-81871190D01*
X180523333Y-82156904D01*
X180570952Y-82252142D01*
X180618571Y-82299761D01*
X180713809Y-82347380D01*
X180856666Y-82347380D01*
X179666190Y-81680714D02*
X179666190Y-82490238D01*
X179713809Y-82585476D01*
X179761428Y-82633095D01*
X179856666Y-82680714D01*
X179999523Y-82680714D01*
X180094761Y-82633095D01*
X179666190Y-82299761D02*
X179761428Y-82347380D01*
X179951904Y-82347380D01*
X180047142Y-82299761D01*
X180094761Y-82252142D01*
X180142380Y-82156904D01*
X180142380Y-81871190D01*
X180094761Y-81775952D01*
X180047142Y-81728333D01*
X179951904Y-81680714D01*
X179761428Y-81680714D01*
X179666190Y-81728333D01*
X179190000Y-82347380D02*
X179190000Y-81680714D01*
X179190000Y-81871190D02*
X179142380Y-81775952D01*
X179094761Y-81728333D01*
X178999523Y-81680714D01*
X178904285Y-81680714D01*
X178142380Y-82347380D02*
X178142380Y-81823571D01*
X178190000Y-81728333D01*
X178285238Y-81680714D01*
X178475714Y-81680714D01*
X178570952Y-81728333D01*
X178142380Y-82299761D02*
X178237619Y-82347380D01*
X178475714Y-82347380D01*
X178570952Y-82299761D01*
X178618571Y-82204523D01*
X178618571Y-82109285D01*
X178570952Y-82014047D01*
X178475714Y-81966428D01*
X178237619Y-81966428D01*
X178142380Y-81918809D01*
X177666190Y-82347380D02*
X177666190Y-81680714D01*
X177666190Y-81775952D02*
X177618571Y-81728333D01*
X177523333Y-81680714D01*
X177380476Y-81680714D01*
X177285238Y-81728333D01*
X177237619Y-81823571D01*
X177237619Y-82347380D01*
X177237619Y-81823571D02*
X177190000Y-81728333D01*
X177094761Y-81680714D01*
X176951904Y-81680714D01*
X176856666Y-81728333D01*
X176809047Y-81823571D01*
X176809047Y-82347380D01*
X176332857Y-82347380D02*
X176332857Y-81680714D01*
X176332857Y-81775952D02*
X176285238Y-81728333D01*
X176190000Y-81680714D01*
X176047142Y-81680714D01*
X175951904Y-81728333D01*
X175904285Y-81823571D01*
X175904285Y-82347380D01*
X175904285Y-81823571D02*
X175856666Y-81728333D01*
X175761428Y-81680714D01*
X175618571Y-81680714D01*
X175523333Y-81728333D01*
X175475714Y-81823571D01*
X175475714Y-82347380D01*
X174618571Y-82299761D02*
X174713809Y-82347380D01*
X174904285Y-82347380D01*
X174999523Y-82299761D01*
X175047142Y-82204523D01*
X175047142Y-81823571D01*
X174999523Y-81728333D01*
X174904285Y-81680714D01*
X174713809Y-81680714D01*
X174618571Y-81728333D01*
X174570952Y-81823571D01*
X174570952Y-81918809D01*
X175047142Y-82014047D01*
X174142380Y-82347380D02*
X174142380Y-81680714D01*
X174142380Y-81871190D02*
X174094761Y-81775952D01*
X174047142Y-81728333D01*
X173951904Y-81680714D01*
X173856666Y-81680714D01*
X187285238Y-82957380D02*
X186713809Y-82957380D01*
X186999523Y-83957380D02*
X186999523Y-82957380D01*
X186380476Y-83957380D02*
X186380476Y-82957380D01*
X185951904Y-83957380D02*
X185951904Y-83433571D01*
X185999523Y-83338333D01*
X186094761Y-83290714D01*
X186237619Y-83290714D01*
X186332857Y-83338333D01*
X186380476Y-83385952D01*
X185475714Y-83957380D02*
X185475714Y-83290714D01*
X185475714Y-82957380D02*
X185523333Y-83005000D01*
X185475714Y-83052619D01*
X185428095Y-83005000D01*
X185475714Y-82957380D01*
X185475714Y-83052619D01*
X185047142Y-83909761D02*
X184951904Y-83957380D01*
X184761428Y-83957380D01*
X184666190Y-83909761D01*
X184618571Y-83814523D01*
X184618571Y-83766904D01*
X184666190Y-83671666D01*
X184761428Y-83624047D01*
X184904285Y-83624047D01*
X184999523Y-83576428D01*
X185047142Y-83481190D01*
X185047142Y-83433571D01*
X184999523Y-83338333D01*
X184904285Y-83290714D01*
X184761428Y-83290714D01*
X184666190Y-83338333D01*
X183475714Y-83909761D02*
X183332857Y-83957380D01*
X183094761Y-83957380D01*
X182999523Y-83909761D01*
X182951904Y-83862142D01*
X182904285Y-83766904D01*
X182904285Y-83671666D01*
X182951904Y-83576428D01*
X182999523Y-83528809D01*
X183094761Y-83481190D01*
X183285238Y-83433571D01*
X183380476Y-83385952D01*
X183428095Y-83338333D01*
X183475714Y-83243095D01*
X183475714Y-83147857D01*
X183428095Y-83052619D01*
X183380476Y-83005000D01*
X183285238Y-82957380D01*
X183047142Y-82957380D01*
X182904285Y-83005000D01*
X182475714Y-83957380D02*
X182475714Y-83290714D01*
X182475714Y-82957380D02*
X182523333Y-83005000D01*
X182475714Y-83052619D01*
X182428095Y-83005000D01*
X182475714Y-82957380D01*
X182475714Y-83052619D01*
X181570952Y-83957380D02*
X181570952Y-82957380D01*
X181570952Y-83909761D02*
X181666190Y-83957380D01*
X181856666Y-83957380D01*
X181951904Y-83909761D01*
X181999523Y-83862142D01*
X182047142Y-83766904D01*
X182047142Y-83481190D01*
X181999523Y-83385952D01*
X181951904Y-83338333D01*
X181856666Y-83290714D01*
X181666190Y-83290714D01*
X181570952Y-83338333D01*
X180713809Y-83909761D02*
X180809047Y-83957380D01*
X180999523Y-83957380D01*
X181094761Y-83909761D01*
X181142380Y-83814523D01*
X181142380Y-83433571D01*
X181094761Y-83338333D01*
X180999523Y-83290714D01*
X180809047Y-83290714D01*
X180713809Y-83338333D01*
X180666190Y-83433571D01*
X180666190Y-83528809D01*
X181142380Y-83624047D01*
X179285238Y-82957380D02*
X179094761Y-82957380D01*
X178999523Y-83005000D01*
X178904285Y-83100238D01*
X178856666Y-83290714D01*
X178856666Y-83624047D01*
X178904285Y-83814523D01*
X178999523Y-83909761D01*
X179094761Y-83957380D01*
X179285238Y-83957380D01*
X179380476Y-83909761D01*
X179475714Y-83814523D01*
X179523333Y-83624047D01*
X179523333Y-83290714D01*
X179475714Y-83100238D01*
X179380476Y-83005000D01*
X179285238Y-82957380D01*
X178428095Y-83290714D02*
X178428095Y-83957380D01*
X178428095Y-83385952D02*
X178380476Y-83338333D01*
X178285238Y-83290714D01*
X178142380Y-83290714D01*
X178047142Y-83338333D01*
X177999523Y-83433571D01*
X177999523Y-83957380D01*
X177380476Y-83957380D02*
X177475714Y-83909761D01*
X177523333Y-83814523D01*
X177523333Y-82957380D01*
X177094761Y-83290714D02*
X176856666Y-83957380D01*
X176618571Y-83290714D02*
X176856666Y-83957380D01*
X176951904Y-84195476D01*
X176999523Y-84243095D01*
X177094761Y-84290714D01*
X176237619Y-83862142D02*
X176190000Y-83909761D01*
X176237619Y-83957380D01*
X176285238Y-83909761D01*
X176237619Y-83862142D01*
X176237619Y-83957380D01*
X176237619Y-83576428D02*
X176285238Y-83005000D01*
X176237619Y-82957380D01*
X176190000Y-83005000D01*
X176237619Y-83576428D01*
X176237619Y-82957380D01*
D10*
X170487023Y-77869761D02*
X170344166Y-77917380D01*
X170106071Y-77917380D01*
X170010833Y-77869761D01*
X169963214Y-77822142D01*
X169915595Y-77726904D01*
X169915595Y-77631666D01*
X169963214Y-77536428D01*
X170010833Y-77488809D01*
X170106071Y-77441190D01*
X170296547Y-77393571D01*
X170391785Y-77345952D01*
X170439404Y-77298333D01*
X170487023Y-77203095D01*
X170487023Y-77107857D01*
X170439404Y-77012619D01*
X170391785Y-76965000D01*
X170296547Y-76917380D01*
X170058452Y-76917380D01*
X169915595Y-76965000D01*
X169487023Y-77917380D02*
X169487023Y-77250714D01*
X169487023Y-76917380D02*
X169534642Y-76965000D01*
X169487023Y-77012619D01*
X169439404Y-76965000D01*
X169487023Y-76917380D01*
X169487023Y-77012619D01*
X168582261Y-77250714D02*
X168582261Y-78060238D01*
X168629880Y-78155476D01*
X168677500Y-78203095D01*
X168772738Y-78250714D01*
X168915595Y-78250714D01*
X169010833Y-78203095D01*
X168582261Y-77869761D02*
X168677500Y-77917380D01*
X168867976Y-77917380D01*
X168963214Y-77869761D01*
X169010833Y-77822142D01*
X169058452Y-77726904D01*
X169058452Y-77441190D01*
X169010833Y-77345952D01*
X168963214Y-77298333D01*
X168867976Y-77250714D01*
X168677500Y-77250714D01*
X168582261Y-77298333D01*
X168106071Y-77250714D02*
X168106071Y-77917380D01*
X168106071Y-77345952D02*
X168058452Y-77298333D01*
X167963214Y-77250714D01*
X167820357Y-77250714D01*
X167725119Y-77298333D01*
X167677500Y-77393571D01*
X167677500Y-77917380D01*
X166772738Y-77917380D02*
X166772738Y-77393571D01*
X166820357Y-77298333D01*
X166915595Y-77250714D01*
X167106071Y-77250714D01*
X167201309Y-77298333D01*
X166772738Y-77869761D02*
X166867976Y-77917380D01*
X167106071Y-77917380D01*
X167201309Y-77869761D01*
X167248928Y-77774523D01*
X167248928Y-77679285D01*
X167201309Y-77584047D01*
X167106071Y-77536428D01*
X166867976Y-77536428D01*
X166772738Y-77488809D01*
X166153690Y-77917380D02*
X166248928Y-77869761D01*
X166296547Y-77774523D01*
X166296547Y-76917380D01*
X165820357Y-77869761D02*
X165677500Y-77917380D01*
X165439404Y-77917380D01*
X165344166Y-77869761D01*
X165296547Y-77822142D01*
X165248928Y-77726904D01*
X165248928Y-77631666D01*
X165296547Y-77536428D01*
X165344166Y-77488809D01*
X165439404Y-77441190D01*
X165629880Y-77393571D01*
X165725119Y-77345952D01*
X165772738Y-77298333D01*
X165820357Y-77203095D01*
X165820357Y-77107857D01*
X165772738Y-77012619D01*
X165725119Y-76965000D01*
X165629880Y-76917380D01*
X165391785Y-76917380D01*
X165248928Y-76965000D01*
X164820357Y-77250714D02*
X164820357Y-77917380D01*
X164820357Y-77345952D02*
X164772738Y-77298333D01*
X164677500Y-77250714D01*
X164534642Y-77250714D01*
X164439404Y-77298333D01*
X164391785Y-77393571D01*
X164391785Y-77917380D01*
X163487023Y-77917380D02*
X163487023Y-77393571D01*
X163534642Y-77298333D01*
X163629880Y-77250714D01*
X163820357Y-77250714D01*
X163915595Y-77298333D01*
X163487023Y-77869761D02*
X163582261Y-77917380D01*
X163820357Y-77917380D01*
X163915595Y-77869761D01*
X163963214Y-77774523D01*
X163963214Y-77679285D01*
X163915595Y-77584047D01*
X163820357Y-77536428D01*
X163582261Y-77536428D01*
X163487023Y-77488809D01*
X162582261Y-77250714D02*
X162582261Y-78060238D01*
X162629880Y-78155476D01*
X162677500Y-78203095D01*
X162772738Y-78250714D01*
X162915595Y-78250714D01*
X163010833Y-78203095D01*
X162582261Y-77869761D02*
X162677500Y-77917380D01*
X162867976Y-77917380D01*
X162963214Y-77869761D01*
X163010833Y-77822142D01*
X163058452Y-77726904D01*
X163058452Y-77441190D01*
X163010833Y-77345952D01*
X162963214Y-77298333D01*
X162867976Y-77250714D01*
X162677500Y-77250714D01*
X162582261Y-77298333D01*
X161677500Y-77250714D02*
X161677500Y-78060238D01*
X161725119Y-78155476D01*
X161772738Y-78203095D01*
X161867976Y-78250714D01*
X162010833Y-78250714D01*
X162106071Y-78203095D01*
X161677500Y-77869761D02*
X161772738Y-77917380D01*
X161963214Y-77917380D01*
X162058452Y-77869761D01*
X162106071Y-77822142D01*
X162153690Y-77726904D01*
X162153690Y-77441190D01*
X162106071Y-77345952D01*
X162058452Y-77298333D01*
X161963214Y-77250714D01*
X161772738Y-77250714D01*
X161677500Y-77298333D01*
X160820357Y-77869761D02*
X160915595Y-77917380D01*
X161106071Y-77917380D01*
X161201309Y-77869761D01*
X161248928Y-77774523D01*
X161248928Y-77393571D01*
X161201309Y-77298333D01*
X161106071Y-77250714D01*
X160915595Y-77250714D01*
X160820357Y-77298333D01*
X160772738Y-77393571D01*
X160772738Y-77488809D01*
X161248928Y-77584047D01*
X160344166Y-77917380D02*
X160344166Y-77250714D01*
X160344166Y-77441190D02*
X160296547Y-77345952D01*
X160248928Y-77298333D01*
X160153690Y-77250714D01*
X160058452Y-77250714D01*
X159725119Y-77822142D02*
X159677500Y-77869761D01*
X159725119Y-77917380D01*
X159772738Y-77869761D01*
X159725119Y-77822142D01*
X159725119Y-77917380D01*
X159725119Y-77298333D02*
X159677500Y-77345952D01*
X159725119Y-77393571D01*
X159772738Y-77345952D01*
X159725119Y-77298333D01*
X159725119Y-77393571D01*
X158344166Y-77345952D02*
X158439404Y-77298333D01*
X158487023Y-77250714D01*
X158534642Y-77155476D01*
X158534642Y-77107857D01*
X158487023Y-77012619D01*
X158439404Y-76965000D01*
X158344166Y-76917380D01*
X158153690Y-76917380D01*
X158058452Y-76965000D01*
X158010833Y-77012619D01*
X157963214Y-77107857D01*
X157963214Y-77155476D01*
X158010833Y-77250714D01*
X158058452Y-77298333D01*
X158153690Y-77345952D01*
X158344166Y-77345952D01*
X158439404Y-77393571D01*
X158487023Y-77441190D01*
X158534642Y-77536428D01*
X158534642Y-77726904D01*
X158487023Y-77822142D01*
X158439404Y-77869761D01*
X158344166Y-77917380D01*
X158153690Y-77917380D01*
X158058452Y-77869761D01*
X158010833Y-77822142D01*
X157963214Y-77726904D01*
X157963214Y-77536428D01*
X158010833Y-77441190D01*
X158058452Y-77393571D01*
X158153690Y-77345952D01*
X157344166Y-76917380D02*
X157248928Y-76917380D01*
X157153690Y-76965000D01*
X157106071Y-77012619D01*
X157058452Y-77107857D01*
X157010833Y-77298333D01*
X157010833Y-77536428D01*
X157058452Y-77726904D01*
X157106071Y-77822142D01*
X157153690Y-77869761D01*
X157248928Y-77917380D01*
X157344166Y-77917380D01*
X157439404Y-77869761D01*
X157487023Y-77822142D01*
X157534642Y-77726904D01*
X157582261Y-77536428D01*
X157582261Y-77298333D01*
X157534642Y-77107857D01*
X157487023Y-77012619D01*
X157439404Y-76965000D01*
X157344166Y-76917380D01*
X156582261Y-77917380D02*
X156582261Y-77250714D01*
X156582261Y-77345952D02*
X156534642Y-77298333D01*
X156439404Y-77250714D01*
X156296547Y-77250714D01*
X156201309Y-77298333D01*
X156153690Y-77393571D01*
X156153690Y-77917380D01*
X156153690Y-77393571D02*
X156106071Y-77298333D01*
X156010833Y-77250714D01*
X155867976Y-77250714D01*
X155772738Y-77298333D01*
X155725119Y-77393571D01*
X155725119Y-77917380D01*
X153915595Y-77917380D02*
X154248928Y-77441190D01*
X154487023Y-77917380D02*
X154487023Y-76917380D01*
X154106071Y-76917380D01*
X154010833Y-76965000D01*
X153963214Y-77012619D01*
X153915595Y-77107857D01*
X153915595Y-77250714D01*
X153963214Y-77345952D01*
X154010833Y-77393571D01*
X154106071Y-77441190D01*
X154487023Y-77441190D01*
X153058452Y-77917380D02*
X153058452Y-77393571D01*
X153106071Y-77298333D01*
X153201309Y-77250714D01*
X153391785Y-77250714D01*
X153487023Y-77298333D01*
X153058452Y-77869761D02*
X153153690Y-77917380D01*
X153391785Y-77917380D01*
X153487023Y-77869761D01*
X153534642Y-77774523D01*
X153534642Y-77679285D01*
X153487023Y-77584047D01*
X153391785Y-77536428D01*
X153153690Y-77536428D01*
X153058452Y-77488809D01*
X152153690Y-77917380D02*
X152153690Y-76917380D01*
X152153690Y-77869761D02*
X152248928Y-77917380D01*
X152439404Y-77917380D01*
X152534642Y-77869761D01*
X152582261Y-77822142D01*
X152629880Y-77726904D01*
X152629880Y-77441190D01*
X152582261Y-77345952D01*
X152534642Y-77298333D01*
X152439404Y-77250714D01*
X152248928Y-77250714D01*
X152153690Y-77298333D01*
X151677500Y-77917380D02*
X151677500Y-77250714D01*
X151677500Y-76917380D02*
X151725119Y-76965000D01*
X151677500Y-77012619D01*
X151629880Y-76965000D01*
X151677500Y-76917380D01*
X151677500Y-77012619D01*
X151058452Y-77917380D02*
X151153690Y-77869761D01*
X151201309Y-77822142D01*
X151248928Y-77726904D01*
X151248928Y-77441190D01*
X151201309Y-77345952D01*
X151153690Y-77298333D01*
X151058452Y-77250714D01*
X150915595Y-77250714D01*
X150820357Y-77298333D01*
X150772738Y-77345952D01*
X150725119Y-77441190D01*
X150725119Y-77726904D01*
X150772738Y-77822142D01*
X150820357Y-77869761D01*
X150915595Y-77917380D01*
X151058452Y-77917380D01*
X150296547Y-77536428D02*
X149534642Y-77536428D01*
X148867976Y-76917380D02*
X148677500Y-76917380D01*
X148582261Y-76965000D01*
X148487023Y-77060238D01*
X148439404Y-77250714D01*
X148439404Y-77584047D01*
X148487023Y-77774523D01*
X148582261Y-77869761D01*
X148677500Y-77917380D01*
X148867976Y-77917380D01*
X148963214Y-77869761D01*
X149058452Y-77774523D01*
X149106071Y-77584047D01*
X149106071Y-77250714D01*
X149058452Y-77060238D01*
X148963214Y-76965000D01*
X148867976Y-76917380D01*
X146677500Y-77917380D02*
X147010833Y-77441190D01*
X147248928Y-77917380D02*
X147248928Y-76917380D01*
X146867976Y-76917380D01*
X146772738Y-76965000D01*
X146725119Y-77012619D01*
X146677500Y-77107857D01*
X146677500Y-77250714D01*
X146725119Y-77345952D01*
X146772738Y-77393571D01*
X146867976Y-77441190D01*
X147248928Y-77441190D01*
X145867976Y-77869761D02*
X145963214Y-77917380D01*
X146153690Y-77917380D01*
X146248928Y-77869761D01*
X146296547Y-77774523D01*
X146296547Y-77393571D01*
X146248928Y-77298333D01*
X146153690Y-77250714D01*
X145963214Y-77250714D01*
X145867976Y-77298333D01*
X145820357Y-77393571D01*
X145820357Y-77488809D01*
X146296547Y-77584047D01*
X144963214Y-77869761D02*
X145058452Y-77917380D01*
X145248928Y-77917380D01*
X145344166Y-77869761D01*
X145391785Y-77822142D01*
X145439404Y-77726904D01*
X145439404Y-77441190D01*
X145391785Y-77345952D01*
X145344166Y-77298333D01*
X145248928Y-77250714D01*
X145058452Y-77250714D01*
X144963214Y-77298333D01*
X144153690Y-77869761D02*
X144248928Y-77917380D01*
X144439404Y-77917380D01*
X144534642Y-77869761D01*
X144582261Y-77774523D01*
X144582261Y-77393571D01*
X144534642Y-77298333D01*
X144439404Y-77250714D01*
X144248928Y-77250714D01*
X144153690Y-77298333D01*
X144106071Y-77393571D01*
X144106071Y-77488809D01*
X144582261Y-77584047D01*
X143677500Y-77917380D02*
X143677500Y-77250714D01*
X143677500Y-76917380D02*
X143725119Y-76965000D01*
X143677500Y-77012619D01*
X143629880Y-76965000D01*
X143677500Y-76917380D01*
X143677500Y-77012619D01*
X143296547Y-77250714D02*
X143058452Y-77917380D01*
X142820357Y-77250714D01*
X142058452Y-77869761D02*
X142153690Y-77917380D01*
X142344166Y-77917380D01*
X142439404Y-77869761D01*
X142487023Y-77774523D01*
X142487023Y-77393571D01*
X142439404Y-77298333D01*
X142344166Y-77250714D01*
X142153690Y-77250714D01*
X142058452Y-77298333D01*
X142010833Y-77393571D01*
X142010833Y-77488809D01*
X142487023Y-77584047D01*
X141582261Y-77917380D02*
X141582261Y-77250714D01*
X141582261Y-77441190D02*
X141534642Y-77345952D01*
X141487023Y-77298333D01*
X141391785Y-77250714D01*
X141296547Y-77250714D01*
X170582261Y-78527380D02*
X170248928Y-79527380D01*
X169915595Y-78527380D01*
X169201309Y-79479761D02*
X169296547Y-79527380D01*
X169487023Y-79527380D01*
X169582261Y-79479761D01*
X169629880Y-79384523D01*
X169629880Y-79003571D01*
X169582261Y-78908333D01*
X169487023Y-78860714D01*
X169296547Y-78860714D01*
X169201309Y-78908333D01*
X169153690Y-79003571D01*
X169153690Y-79098809D01*
X169629880Y-79194047D01*
X168725119Y-79527380D02*
X168725119Y-78860714D01*
X168725119Y-79051190D02*
X168677500Y-78955952D01*
X168629880Y-78908333D01*
X168534642Y-78860714D01*
X168439404Y-78860714D01*
X168106071Y-79432142D02*
X168058452Y-79479761D01*
X168106071Y-79527380D01*
X168153690Y-79479761D01*
X168106071Y-79432142D01*
X168106071Y-79527380D01*
X166725119Y-78955952D02*
X166820357Y-78908333D01*
X166867976Y-78860714D01*
X166915595Y-78765476D01*
X166915595Y-78717857D01*
X166867976Y-78622619D01*
X166820357Y-78575000D01*
X166725119Y-78527380D01*
X166534642Y-78527380D01*
X166439404Y-78575000D01*
X166391785Y-78622619D01*
X166344166Y-78717857D01*
X166344166Y-78765476D01*
X166391785Y-78860714D01*
X166439404Y-78908333D01*
X166534642Y-78955952D01*
X166725119Y-78955952D01*
X166820357Y-79003571D01*
X166867976Y-79051190D01*
X166915595Y-79146428D01*
X166915595Y-79336904D01*
X166867976Y-79432142D01*
X166820357Y-79479761D01*
X166725119Y-79527380D01*
X166534642Y-79527380D01*
X166439404Y-79479761D01*
X166391785Y-79432142D01*
X166344166Y-79336904D01*
X166344166Y-79146428D01*
X166391785Y-79051190D01*
X166439404Y-79003571D01*
X166534642Y-78955952D01*
X165915595Y-79146428D02*
X165153690Y-79146428D01*
X164391785Y-78527380D02*
X164391785Y-79241666D01*
X164439404Y-79384523D01*
X164534642Y-79479761D01*
X164677500Y-79527380D01*
X164772738Y-79527380D01*
X163487023Y-78860714D02*
X163487023Y-79527380D01*
X163915595Y-78860714D02*
X163915595Y-79384523D01*
X163867976Y-79479761D01*
X163772738Y-79527380D01*
X163629880Y-79527380D01*
X163534642Y-79479761D01*
X163487023Y-79432142D01*
X163010833Y-78860714D02*
X163010833Y-79527380D01*
X163010833Y-78955952D02*
X162963214Y-78908333D01*
X162867976Y-78860714D01*
X162725119Y-78860714D01*
X162629880Y-78908333D01*
X162582261Y-79003571D01*
X162582261Y-79527380D01*
X162106071Y-79146428D02*
X161344166Y-79146428D01*
X160915595Y-78622619D02*
X160867976Y-78575000D01*
X160772738Y-78527380D01*
X160534642Y-78527380D01*
X160439404Y-78575000D01*
X160391785Y-78622619D01*
X160344166Y-78717857D01*
X160344166Y-78813095D01*
X160391785Y-78955952D01*
X160963214Y-79527380D01*
X160344166Y-79527380D01*
X159725119Y-78527380D02*
X159629880Y-78527380D01*
X159534642Y-78575000D01*
X159487023Y-78622619D01*
X159439404Y-78717857D01*
X159391785Y-78908333D01*
X159391785Y-79146428D01*
X159439404Y-79336904D01*
X159487023Y-79432142D01*
X159534642Y-79479761D01*
X159629880Y-79527380D01*
X159725119Y-79527380D01*
X159820357Y-79479761D01*
X159867976Y-79432142D01*
X159915595Y-79336904D01*
X159963214Y-79146428D01*
X159963214Y-78908333D01*
X159915595Y-78717857D01*
X159867976Y-78622619D01*
X159820357Y-78575000D01*
X159725119Y-78527380D01*
X159010833Y-78622619D02*
X158963214Y-78575000D01*
X158867976Y-78527380D01*
X158629880Y-78527380D01*
X158534642Y-78575000D01*
X158487023Y-78622619D01*
X158439404Y-78717857D01*
X158439404Y-78813095D01*
X158487023Y-78955952D01*
X159058452Y-79527380D01*
X158439404Y-79527380D01*
X157582261Y-78860714D02*
X157582261Y-79527380D01*
X157820357Y-78479761D02*
X158058452Y-79194047D01*
X157439404Y-79194047D01*
D12*
X111162857Y-81044761D02*
X111020000Y-81092380D01*
X110781904Y-81092380D01*
X110686666Y-81044761D01*
X110639047Y-80997142D01*
X110591428Y-80901904D01*
X110591428Y-80806666D01*
X110639047Y-80711428D01*
X110686666Y-80663809D01*
X110781904Y-80616190D01*
X110972380Y-80568571D01*
X111067619Y-80520952D01*
X111115238Y-80473333D01*
X111162857Y-80378095D01*
X111162857Y-80282857D01*
X111115238Y-80187619D01*
X111067619Y-80140000D01*
X110972380Y-80092380D01*
X110734285Y-80092380D01*
X110591428Y-80140000D01*
X109781904Y-81044761D02*
X109877142Y-81092380D01*
X110067619Y-81092380D01*
X110162857Y-81044761D01*
X110210476Y-80949523D01*
X110210476Y-80568571D01*
X110162857Y-80473333D01*
X110067619Y-80425714D01*
X109877142Y-80425714D01*
X109781904Y-80473333D01*
X109734285Y-80568571D01*
X109734285Y-80663809D01*
X110210476Y-80759047D01*
X109305714Y-80425714D02*
X109305714Y-81092380D01*
X109305714Y-80520952D02*
X109258095Y-80473333D01*
X109162857Y-80425714D01*
X109020000Y-80425714D01*
X108924761Y-80473333D01*
X108877142Y-80568571D01*
X108877142Y-81092380D01*
X108448571Y-81044761D02*
X108353333Y-81092380D01*
X108162857Y-81092380D01*
X108067619Y-81044761D01*
X108020000Y-80949523D01*
X108020000Y-80901904D01*
X108067619Y-80806666D01*
X108162857Y-80759047D01*
X108305714Y-80759047D01*
X108400952Y-80711428D01*
X108448571Y-80616190D01*
X108448571Y-80568571D01*
X108400952Y-80473333D01*
X108305714Y-80425714D01*
X108162857Y-80425714D01*
X108067619Y-80473333D01*
X107210476Y-81044761D02*
X107305714Y-81092380D01*
X107496190Y-81092380D01*
X107591428Y-81044761D01*
X107639047Y-80949523D01*
X107639047Y-80568571D01*
X107591428Y-80473333D01*
X107496190Y-80425714D01*
X107305714Y-80425714D01*
X107210476Y-80473333D01*
X107162857Y-80568571D01*
X107162857Y-80663809D01*
X107639047Y-80759047D01*
X106020000Y-80806666D02*
X105543809Y-80806666D01*
X106115238Y-81092380D02*
X105781904Y-80092380D01*
X105448571Y-81092380D01*
X104686666Y-81092380D02*
X104686666Y-80092380D01*
X104686666Y-81044761D02*
X104781904Y-81092380D01*
X104972380Y-81092380D01*
X105067619Y-81044761D01*
X105115238Y-80997142D01*
X105162857Y-80901904D01*
X105162857Y-80616190D01*
X105115238Y-80520952D01*
X105067619Y-80473333D01*
X104972380Y-80425714D01*
X104781904Y-80425714D01*
X104686666Y-80473333D01*
X104210476Y-80425714D02*
X104210476Y-81282857D01*
X104258095Y-81378095D01*
X104353333Y-81425714D01*
X104400952Y-81425714D01*
X104210476Y-80092380D02*
X104258095Y-80140000D01*
X104210476Y-80187619D01*
X104162857Y-80140000D01*
X104210476Y-80092380D01*
X104210476Y-80187619D01*
X103305714Y-80425714D02*
X103305714Y-81092380D01*
X103734285Y-80425714D02*
X103734285Y-80949523D01*
X103686666Y-81044761D01*
X103591428Y-81092380D01*
X103448571Y-81092380D01*
X103353333Y-81044761D01*
X103305714Y-80997142D01*
X102877142Y-81044761D02*
X102781904Y-81092380D01*
X102591428Y-81092380D01*
X102496190Y-81044761D01*
X102448571Y-80949523D01*
X102448571Y-80901904D01*
X102496190Y-80806666D01*
X102591428Y-80759047D01*
X102734285Y-80759047D01*
X102829523Y-80711428D01*
X102877142Y-80616190D01*
X102877142Y-80568571D01*
X102829523Y-80473333D01*
X102734285Y-80425714D01*
X102591428Y-80425714D01*
X102496190Y-80473333D01*
X102162857Y-80425714D02*
X101781904Y-80425714D01*
X102020000Y-80092380D02*
X102020000Y-80949523D01*
X101972380Y-81044761D01*
X101877142Y-81092380D01*
X101781904Y-81092380D01*
%TO.C,RV102*%
X111680833Y-105856666D02*
X111914166Y-105523333D01*
X112080833Y-105856666D02*
X112080833Y-105156666D01*
X111814166Y-105156666D01*
X111747500Y-105190000D01*
X111714166Y-105223333D01*
X111680833Y-105290000D01*
X111680833Y-105390000D01*
X111714166Y-105456666D01*
X111747500Y-105490000D01*
X111814166Y-105523333D01*
X112080833Y-105523333D01*
X111480833Y-105156666D02*
X111247500Y-105856666D01*
X111014166Y-105156666D01*
X110414166Y-105856666D02*
X110814166Y-105856666D01*
X110614166Y-105856666D02*
X110614166Y-105156666D01*
X110680833Y-105256666D01*
X110747500Y-105323333D01*
X110814166Y-105356666D01*
X109980833Y-105156666D02*
X109914166Y-105156666D01*
X109847500Y-105190000D01*
X109814166Y-105223333D01*
X109780833Y-105290000D01*
X109747500Y-105423333D01*
X109747500Y-105590000D01*
X109780833Y-105723333D01*
X109814166Y-105790000D01*
X109847500Y-105823333D01*
X109914166Y-105856666D01*
X109980833Y-105856666D01*
X110047500Y-105823333D01*
X110080833Y-105790000D01*
X110114166Y-105723333D01*
X110147500Y-105590000D01*
X110147500Y-105423333D01*
X110114166Y-105290000D01*
X110080833Y-105223333D01*
X110047500Y-105190000D01*
X109980833Y-105156666D01*
X109480833Y-105223333D02*
X109447500Y-105190000D01*
X109380833Y-105156666D01*
X109214166Y-105156666D01*
X109147500Y-105190000D01*
X109114166Y-105223333D01*
X109080833Y-105290000D01*
X109080833Y-105356666D01*
X109114166Y-105456666D01*
X109514166Y-105856666D01*
X109080833Y-105856666D01*
%TO.C,J105*%
X98361666Y-95070000D02*
X98861666Y-95070000D01*
X98961666Y-95036666D01*
X99028333Y-94970000D01*
X99061666Y-94870000D01*
X99061666Y-94803333D01*
X99061666Y-95770000D02*
X99061666Y-95370000D01*
X99061666Y-95570000D02*
X98361666Y-95570000D01*
X98461666Y-95503333D01*
X98528333Y-95436666D01*
X98561666Y-95370000D01*
X98361666Y-96203333D02*
X98361666Y-96270000D01*
X98395000Y-96336666D01*
X98428333Y-96370000D01*
X98495000Y-96403333D01*
X98628333Y-96436666D01*
X98795000Y-96436666D01*
X98928333Y-96403333D01*
X98995000Y-96370000D01*
X99028333Y-96336666D01*
X99061666Y-96270000D01*
X99061666Y-96203333D01*
X99028333Y-96136666D01*
X98995000Y-96103333D01*
X98928333Y-96070000D01*
X98795000Y-96036666D01*
X98628333Y-96036666D01*
X98495000Y-96070000D01*
X98428333Y-96103333D01*
X98395000Y-96136666D01*
X98361666Y-96203333D01*
X98361666Y-97070000D02*
X98361666Y-96736666D01*
X98695000Y-96703333D01*
X98661666Y-96736666D01*
X98628333Y-96803333D01*
X98628333Y-96970000D01*
X98661666Y-97036666D01*
X98695000Y-97070000D01*
X98761666Y-97103333D01*
X98928333Y-97103333D01*
X98995000Y-97070000D01*
X99028333Y-97036666D01*
X99061666Y-96970000D01*
X99061666Y-96803333D01*
X99028333Y-96736666D01*
X98995000Y-96703333D01*
%TO.C,T101*%
X123482380Y-99815714D02*
X123482380Y-100387142D01*
X124482380Y-100101428D02*
X123482380Y-100101428D01*
X124482380Y-101244285D02*
X124482380Y-100672857D01*
X124482380Y-100958571D02*
X123482380Y-100958571D01*
X123625238Y-100863333D01*
X123720476Y-100768095D01*
X123768095Y-100672857D01*
X123482380Y-101863333D02*
X123482380Y-101958571D01*
X123530000Y-102053809D01*
X123577619Y-102101428D01*
X123672857Y-102149047D01*
X123863333Y-102196666D01*
X124101428Y-102196666D01*
X124291904Y-102149047D01*
X124387142Y-102101428D01*
X124434761Y-102053809D01*
X124482380Y-101958571D01*
X124482380Y-101863333D01*
X124434761Y-101768095D01*
X124387142Y-101720476D01*
X124291904Y-101672857D01*
X124101428Y-101625238D01*
X123863333Y-101625238D01*
X123672857Y-101672857D01*
X123577619Y-101720476D01*
X123530000Y-101768095D01*
X123482380Y-101863333D01*
X124482380Y-103149047D02*
X124482380Y-102577619D01*
X124482380Y-102863333D02*
X123482380Y-102863333D01*
X123625238Y-102768095D01*
X123720476Y-102672857D01*
X123768095Y-102577619D01*
X121974285Y-97032142D02*
X122002857Y-97003571D01*
X122031428Y-96917857D01*
X122031428Y-96860714D01*
X122002857Y-96775000D01*
X121945714Y-96717857D01*
X121888571Y-96689285D01*
X121774285Y-96660714D01*
X121688571Y-96660714D01*
X121574285Y-96689285D01*
X121517142Y-96717857D01*
X121460000Y-96775000D01*
X121431428Y-96860714D01*
X121431428Y-96917857D01*
X121460000Y-97003571D01*
X121488571Y-97032142D01*
X121431428Y-97203571D02*
X121431428Y-97546428D01*
X122031428Y-97375000D02*
X121431428Y-97375000D01*
X119502857Y-105523571D02*
X119531428Y-105609285D01*
X119531428Y-105752142D01*
X119502857Y-105809285D01*
X119474285Y-105837857D01*
X119417142Y-105866428D01*
X119360000Y-105866428D01*
X119302857Y-105837857D01*
X119274285Y-105809285D01*
X119245714Y-105752142D01*
X119217142Y-105637857D01*
X119188571Y-105580714D01*
X119160000Y-105552142D01*
X119102857Y-105523571D01*
X119045714Y-105523571D01*
X118988571Y-105552142D01*
X118960000Y-105580714D01*
X118931428Y-105637857D01*
X118931428Y-105780714D01*
X118960000Y-105866428D01*
X124562857Y-105530714D02*
X124591428Y-105616428D01*
X124591428Y-105759285D01*
X124562857Y-105816428D01*
X124534285Y-105845000D01*
X124477142Y-105873571D01*
X124420000Y-105873571D01*
X124362857Y-105845000D01*
X124334285Y-105816428D01*
X124305714Y-105759285D01*
X124277142Y-105645000D01*
X124248571Y-105587857D01*
X124220000Y-105559285D01*
X124162857Y-105530714D01*
X124105714Y-105530714D01*
X124048571Y-105559285D01*
X124020000Y-105587857D01*
X123991428Y-105645000D01*
X123991428Y-105787857D01*
X124020000Y-105873571D01*
X123991428Y-106159285D02*
X124105714Y-106102142D01*
X119691428Y-97302857D02*
X119091428Y-97302857D01*
X119091428Y-97531428D01*
X119120000Y-97588571D01*
X119148571Y-97617142D01*
X119205714Y-97645714D01*
X119291428Y-97645714D01*
X119348571Y-97617142D01*
X119377142Y-97588571D01*
X119405714Y-97531428D01*
X119405714Y-97302857D01*
X122434285Y-106077142D02*
X122462857Y-106048571D01*
X122491428Y-105962857D01*
X122491428Y-105905714D01*
X122462857Y-105820000D01*
X122405714Y-105762857D01*
X122348571Y-105734285D01*
X122234285Y-105705714D01*
X122148571Y-105705714D01*
X122034285Y-105734285D01*
X121977142Y-105762857D01*
X121920000Y-105820000D01*
X121891428Y-105905714D01*
X121891428Y-105962857D01*
X121920000Y-106048571D01*
X121948571Y-106077142D01*
X121891428Y-106248571D02*
X121891428Y-106591428D01*
X122491428Y-106420000D02*
X121891428Y-106420000D01*
X125141428Y-97030000D02*
X124541428Y-97030000D01*
X124541428Y-97258571D01*
X124570000Y-97315714D01*
X124598571Y-97344285D01*
X124655714Y-97372857D01*
X124741428Y-97372857D01*
X124798571Y-97344285D01*
X124827142Y-97315714D01*
X124855714Y-97258571D01*
X124855714Y-97030000D01*
X124541428Y-97658571D02*
X124655714Y-97601428D01*
%TO.C,C103*%
X91819047Y-115487142D02*
X91866666Y-115534761D01*
X92009523Y-115582380D01*
X92104761Y-115582380D01*
X92247619Y-115534761D01*
X92342857Y-115439523D01*
X92390476Y-115344285D01*
X92438095Y-115153809D01*
X92438095Y-115010952D01*
X92390476Y-114820476D01*
X92342857Y-114725238D01*
X92247619Y-114630000D01*
X92104761Y-114582380D01*
X92009523Y-114582380D01*
X91866666Y-114630000D01*
X91819047Y-114677619D01*
X90866666Y-115582380D02*
X91438095Y-115582380D01*
X91152380Y-115582380D02*
X91152380Y-114582380D01*
X91247619Y-114725238D01*
X91342857Y-114820476D01*
X91438095Y-114868095D01*
X90247619Y-114582380D02*
X90152380Y-114582380D01*
X90057142Y-114630000D01*
X90009523Y-114677619D01*
X89961904Y-114772857D01*
X89914285Y-114963333D01*
X89914285Y-115201428D01*
X89961904Y-115391904D01*
X90009523Y-115487142D01*
X90057142Y-115534761D01*
X90152380Y-115582380D01*
X90247619Y-115582380D01*
X90342857Y-115534761D01*
X90390476Y-115487142D01*
X90438095Y-115391904D01*
X90485714Y-115201428D01*
X90485714Y-114963333D01*
X90438095Y-114772857D01*
X90390476Y-114677619D01*
X90342857Y-114630000D01*
X90247619Y-114582380D01*
X89580952Y-114582380D02*
X88961904Y-114582380D01*
X89295238Y-114963333D01*
X89152380Y-114963333D01*
X89057142Y-115010952D01*
X89009523Y-115058571D01*
X88961904Y-115153809D01*
X88961904Y-115391904D01*
X89009523Y-115487142D01*
X89057142Y-115534761D01*
X89152380Y-115582380D01*
X89438095Y-115582380D01*
X89533333Y-115534761D01*
X89580952Y-115487142D01*
%TO.C,JP103*%
X88566666Y-77480000D02*
X89066666Y-77480000D01*
X89166666Y-77446666D01*
X89233333Y-77380000D01*
X89266666Y-77280000D01*
X89266666Y-77213333D01*
X89266666Y-77813333D02*
X88566666Y-77813333D01*
X88566666Y-78080000D01*
X88600000Y-78146666D01*
X88633333Y-78180000D01*
X88700000Y-78213333D01*
X88800000Y-78213333D01*
X88866666Y-78180000D01*
X88900000Y-78146666D01*
X88933333Y-78080000D01*
X88933333Y-77813333D01*
X89266666Y-78880000D02*
X89266666Y-78480000D01*
X89266666Y-78680000D02*
X88566666Y-78680000D01*
X88666666Y-78613333D01*
X88733333Y-78546666D01*
X88766666Y-78480000D01*
X88566666Y-79313333D02*
X88566666Y-79380000D01*
X88600000Y-79446666D01*
X88633333Y-79480000D01*
X88700000Y-79513333D01*
X88833333Y-79546666D01*
X89000000Y-79546666D01*
X89133333Y-79513333D01*
X89200000Y-79480000D01*
X89233333Y-79446666D01*
X89266666Y-79380000D01*
X89266666Y-79313333D01*
X89233333Y-79246666D01*
X89200000Y-79213333D01*
X89133333Y-79180000D01*
X89000000Y-79146666D01*
X88833333Y-79146666D01*
X88700000Y-79180000D01*
X88633333Y-79213333D01*
X88600000Y-79246666D01*
X88566666Y-79313333D01*
X88566666Y-79780000D02*
X88566666Y-80213333D01*
X88833333Y-79980000D01*
X88833333Y-80080000D01*
X88866666Y-80146666D01*
X88900000Y-80180000D01*
X88966666Y-80213333D01*
X89133333Y-80213333D01*
X89200000Y-80180000D01*
X89233333Y-80146666D01*
X89266666Y-80080000D01*
X89266666Y-79880000D01*
X89233333Y-79813333D01*
X89200000Y-79780000D01*
%TO.C,TP301*%
X153736666Y-93660000D02*
X153736666Y-94060000D01*
X154436666Y-93860000D02*
X153736666Y-93860000D01*
X154436666Y-94293333D02*
X153736666Y-94293333D01*
X153736666Y-94560000D01*
X153770000Y-94626666D01*
X153803333Y-94660000D01*
X153870000Y-94693333D01*
X153970000Y-94693333D01*
X154036666Y-94660000D01*
X154070000Y-94626666D01*
X154103333Y-94560000D01*
X154103333Y-94293333D01*
X153736666Y-94926666D02*
X153736666Y-95360000D01*
X154003333Y-95126666D01*
X154003333Y-95226666D01*
X154036666Y-95293333D01*
X154070000Y-95326666D01*
X154136666Y-95360000D01*
X154303333Y-95360000D01*
X154370000Y-95326666D01*
X154403333Y-95293333D01*
X154436666Y-95226666D01*
X154436666Y-95026666D01*
X154403333Y-94960000D01*
X154370000Y-94926666D01*
X153736666Y-95793333D02*
X153736666Y-95860000D01*
X153770000Y-95926666D01*
X153803333Y-95960000D01*
X153870000Y-95993333D01*
X154003333Y-96026666D01*
X154170000Y-96026666D01*
X154303333Y-95993333D01*
X154370000Y-95960000D01*
X154403333Y-95926666D01*
X154436666Y-95860000D01*
X154436666Y-95793333D01*
X154403333Y-95726666D01*
X154370000Y-95693333D01*
X154303333Y-95660000D01*
X154170000Y-95626666D01*
X154003333Y-95626666D01*
X153870000Y-95660000D01*
X153803333Y-95693333D01*
X153770000Y-95726666D01*
X153736666Y-95793333D01*
X154436666Y-96693333D02*
X154436666Y-96293333D01*
X154436666Y-96493333D02*
X153736666Y-96493333D01*
X153836666Y-96426666D01*
X153903333Y-96360000D01*
X153936666Y-96293333D01*
%TO.C,J108*%
X82815000Y-98052666D02*
X82815000Y-98552666D01*
X82848333Y-98652666D01*
X82915000Y-98719333D01*
X83015000Y-98752666D01*
X83081666Y-98752666D01*
X82115000Y-98752666D02*
X82515000Y-98752666D01*
X82315000Y-98752666D02*
X82315000Y-98052666D01*
X82381666Y-98152666D01*
X82448333Y-98219333D01*
X82515000Y-98252666D01*
X81681666Y-98052666D02*
X81615000Y-98052666D01*
X81548333Y-98086000D01*
X81515000Y-98119333D01*
X81481666Y-98186000D01*
X81448333Y-98319333D01*
X81448333Y-98486000D01*
X81481666Y-98619333D01*
X81515000Y-98686000D01*
X81548333Y-98719333D01*
X81615000Y-98752666D01*
X81681666Y-98752666D01*
X81748333Y-98719333D01*
X81781666Y-98686000D01*
X81815000Y-98619333D01*
X81848333Y-98486000D01*
X81848333Y-98319333D01*
X81815000Y-98186000D01*
X81781666Y-98119333D01*
X81748333Y-98086000D01*
X81681666Y-98052666D01*
X81048333Y-98352666D02*
X81115000Y-98319333D01*
X81148333Y-98286000D01*
X81181666Y-98219333D01*
X81181666Y-98186000D01*
X81148333Y-98119333D01*
X81115000Y-98086000D01*
X81048333Y-98052666D01*
X80915000Y-98052666D01*
X80848333Y-98086000D01*
X80815000Y-98119333D01*
X80781666Y-98186000D01*
X80781666Y-98219333D01*
X80815000Y-98286000D01*
X80848333Y-98319333D01*
X80915000Y-98352666D01*
X81048333Y-98352666D01*
X81115000Y-98386000D01*
X81148333Y-98419333D01*
X81181666Y-98486000D01*
X81181666Y-98619333D01*
X81148333Y-98686000D01*
X81115000Y-98719333D01*
X81048333Y-98752666D01*
X80915000Y-98752666D01*
X80848333Y-98719333D01*
X80815000Y-98686000D01*
X80781666Y-98619333D01*
X80781666Y-98486000D01*
X80815000Y-98419333D01*
X80848333Y-98386000D01*
X80915000Y-98352666D01*
%TO.C,JP201*%
X133895714Y-82672380D02*
X133895714Y-83386666D01*
X133943333Y-83529523D01*
X134038571Y-83624761D01*
X134181428Y-83672380D01*
X134276666Y-83672380D01*
X133419523Y-83672380D02*
X133419523Y-82672380D01*
X133038571Y-82672380D01*
X132943333Y-82720000D01*
X132895714Y-82767619D01*
X132848095Y-82862857D01*
X132848095Y-83005714D01*
X132895714Y-83100952D01*
X132943333Y-83148571D01*
X133038571Y-83196190D01*
X133419523Y-83196190D01*
X132467142Y-82767619D02*
X132419523Y-82720000D01*
X132324285Y-82672380D01*
X132086190Y-82672380D01*
X131990952Y-82720000D01*
X131943333Y-82767619D01*
X131895714Y-82862857D01*
X131895714Y-82958095D01*
X131943333Y-83100952D01*
X132514761Y-83672380D01*
X131895714Y-83672380D01*
X131276666Y-82672380D02*
X131181428Y-82672380D01*
X131086190Y-82720000D01*
X131038571Y-82767619D01*
X130990952Y-82862857D01*
X130943333Y-83053333D01*
X130943333Y-83291428D01*
X130990952Y-83481904D01*
X131038571Y-83577142D01*
X131086190Y-83624761D01*
X131181428Y-83672380D01*
X131276666Y-83672380D01*
X131371904Y-83624761D01*
X131419523Y-83577142D01*
X131467142Y-83481904D01*
X131514761Y-83291428D01*
X131514761Y-83053333D01*
X131467142Y-82862857D01*
X131419523Y-82767619D01*
X131371904Y-82720000D01*
X131276666Y-82672380D01*
X129990952Y-83672380D02*
X130562380Y-83672380D01*
X130276666Y-83672380D02*
X130276666Y-82672380D01*
X130371904Y-82815238D01*
X130467142Y-82910476D01*
X130562380Y-82958095D01*
%TO.C,JP106*%
X91680000Y-98916666D02*
X91680000Y-99416666D01*
X91713333Y-99516666D01*
X91780000Y-99583333D01*
X91880000Y-99616666D01*
X91946666Y-99616666D01*
X91346666Y-99616666D02*
X91346666Y-98916666D01*
X91080000Y-98916666D01*
X91013333Y-98950000D01*
X90980000Y-98983333D01*
X90946666Y-99050000D01*
X90946666Y-99150000D01*
X90980000Y-99216666D01*
X91013333Y-99250000D01*
X91080000Y-99283333D01*
X91346666Y-99283333D01*
X90280000Y-99616666D02*
X90680000Y-99616666D01*
X90480000Y-99616666D02*
X90480000Y-98916666D01*
X90546666Y-99016666D01*
X90613333Y-99083333D01*
X90680000Y-99116666D01*
X89846666Y-98916666D02*
X89780000Y-98916666D01*
X89713333Y-98950000D01*
X89680000Y-98983333D01*
X89646666Y-99050000D01*
X89613333Y-99183333D01*
X89613333Y-99350000D01*
X89646666Y-99483333D01*
X89680000Y-99550000D01*
X89713333Y-99583333D01*
X89780000Y-99616666D01*
X89846666Y-99616666D01*
X89913333Y-99583333D01*
X89946666Y-99550000D01*
X89980000Y-99483333D01*
X90013333Y-99350000D01*
X90013333Y-99183333D01*
X89980000Y-99050000D01*
X89946666Y-98983333D01*
X89913333Y-98950000D01*
X89846666Y-98916666D01*
X89013333Y-98916666D02*
X89146666Y-98916666D01*
X89213333Y-98950000D01*
X89246666Y-98983333D01*
X89313333Y-99083333D01*
X89346666Y-99216666D01*
X89346666Y-99483333D01*
X89313333Y-99550000D01*
X89280000Y-99583333D01*
X89213333Y-99616666D01*
X89080000Y-99616666D01*
X89013333Y-99583333D01*
X88980000Y-99550000D01*
X88946666Y-99483333D01*
X88946666Y-99316666D01*
X88980000Y-99250000D01*
X89013333Y-99216666D01*
X89080000Y-99183333D01*
X89213333Y-99183333D01*
X89280000Y-99216666D01*
X89313333Y-99250000D01*
X89346666Y-99316666D01*
%TO.C,J302*%
X141850000Y-97896666D02*
X141850000Y-98396666D01*
X141883333Y-98496666D01*
X141950000Y-98563333D01*
X142050000Y-98596666D01*
X142116666Y-98596666D01*
X141583333Y-97896666D02*
X141150000Y-97896666D01*
X141383333Y-98163333D01*
X141283333Y-98163333D01*
X141216666Y-98196666D01*
X141183333Y-98230000D01*
X141150000Y-98296666D01*
X141150000Y-98463333D01*
X141183333Y-98530000D01*
X141216666Y-98563333D01*
X141283333Y-98596666D01*
X141483333Y-98596666D01*
X141550000Y-98563333D01*
X141583333Y-98530000D01*
X140716666Y-97896666D02*
X140650000Y-97896666D01*
X140583333Y-97930000D01*
X140550000Y-97963333D01*
X140516666Y-98030000D01*
X140483333Y-98163333D01*
X140483333Y-98330000D01*
X140516666Y-98463333D01*
X140550000Y-98530000D01*
X140583333Y-98563333D01*
X140650000Y-98596666D01*
X140716666Y-98596666D01*
X140783333Y-98563333D01*
X140816666Y-98530000D01*
X140850000Y-98463333D01*
X140883333Y-98330000D01*
X140883333Y-98163333D01*
X140850000Y-98030000D01*
X140816666Y-97963333D01*
X140783333Y-97930000D01*
X140716666Y-97896666D01*
X140216666Y-97963333D02*
X140183333Y-97930000D01*
X140116666Y-97896666D01*
X139950000Y-97896666D01*
X139883333Y-97930000D01*
X139850000Y-97963333D01*
X139816666Y-98030000D01*
X139816666Y-98096666D01*
X139850000Y-98196666D01*
X140250000Y-98596666D01*
X139816666Y-98596666D01*
%TO.C,SW203*%
X112785714Y-93164761D02*
X112642857Y-93212380D01*
X112404761Y-93212380D01*
X112309523Y-93164761D01*
X112261904Y-93117142D01*
X112214285Y-93021904D01*
X112214285Y-92926666D01*
X112261904Y-92831428D01*
X112309523Y-92783809D01*
X112404761Y-92736190D01*
X112595238Y-92688571D01*
X112690476Y-92640952D01*
X112738095Y-92593333D01*
X112785714Y-92498095D01*
X112785714Y-92402857D01*
X112738095Y-92307619D01*
X112690476Y-92260000D01*
X112595238Y-92212380D01*
X112357142Y-92212380D01*
X112214285Y-92260000D01*
X111880952Y-92212380D02*
X111642857Y-93212380D01*
X111452380Y-92498095D01*
X111261904Y-93212380D01*
X111023809Y-92212380D01*
X110690476Y-92307619D02*
X110642857Y-92260000D01*
X110547619Y-92212380D01*
X110309523Y-92212380D01*
X110214285Y-92260000D01*
X110166666Y-92307619D01*
X110119047Y-92402857D01*
X110119047Y-92498095D01*
X110166666Y-92640952D01*
X110738095Y-93212380D01*
X110119047Y-93212380D01*
X109500000Y-92212380D02*
X109404761Y-92212380D01*
X109309523Y-92260000D01*
X109261904Y-92307619D01*
X109214285Y-92402857D01*
X109166666Y-92593333D01*
X109166666Y-92831428D01*
X109214285Y-93021904D01*
X109261904Y-93117142D01*
X109309523Y-93164761D01*
X109404761Y-93212380D01*
X109500000Y-93212380D01*
X109595238Y-93164761D01*
X109642857Y-93117142D01*
X109690476Y-93021904D01*
X109738095Y-92831428D01*
X109738095Y-92593333D01*
X109690476Y-92402857D01*
X109642857Y-92307619D01*
X109595238Y-92260000D01*
X109500000Y-92212380D01*
X108833333Y-92212380D02*
X108214285Y-92212380D01*
X108547619Y-92593333D01*
X108404761Y-92593333D01*
X108309523Y-92640952D01*
X108261904Y-92688571D01*
X108214285Y-92783809D01*
X108214285Y-93021904D01*
X108261904Y-93117142D01*
X108309523Y-93164761D01*
X108404761Y-93212380D01*
X108690476Y-93212380D01*
X108785714Y-93164761D01*
X108833333Y-93117142D01*
%TO.C,D203*%
X192813333Y-76656666D02*
X192813333Y-75956666D01*
X192646666Y-75956666D01*
X192546666Y-75990000D01*
X192480000Y-76056666D01*
X192446666Y-76123333D01*
X192413333Y-76256666D01*
X192413333Y-76356666D01*
X192446666Y-76490000D01*
X192480000Y-76556666D01*
X192546666Y-76623333D01*
X192646666Y-76656666D01*
X192813333Y-76656666D01*
X192146666Y-76023333D02*
X192113333Y-75990000D01*
X192046666Y-75956666D01*
X191880000Y-75956666D01*
X191813333Y-75990000D01*
X191780000Y-76023333D01*
X191746666Y-76090000D01*
X191746666Y-76156666D01*
X191780000Y-76256666D01*
X192180000Y-76656666D01*
X191746666Y-76656666D01*
X191313333Y-75956666D02*
X191246666Y-75956666D01*
X191180000Y-75990000D01*
X191146666Y-76023333D01*
X191113333Y-76090000D01*
X191080000Y-76223333D01*
X191080000Y-76390000D01*
X191113333Y-76523333D01*
X191146666Y-76590000D01*
X191180000Y-76623333D01*
X191246666Y-76656666D01*
X191313333Y-76656666D01*
X191380000Y-76623333D01*
X191413333Y-76590000D01*
X191446666Y-76523333D01*
X191480000Y-76390000D01*
X191480000Y-76223333D01*
X191446666Y-76090000D01*
X191413333Y-76023333D01*
X191380000Y-75990000D01*
X191313333Y-75956666D01*
X190846666Y-75956666D02*
X190413333Y-75956666D01*
X190646666Y-76223333D01*
X190546666Y-76223333D01*
X190480000Y-76256666D01*
X190446666Y-76290000D01*
X190413333Y-76356666D01*
X190413333Y-76523333D01*
X190446666Y-76590000D01*
X190480000Y-76623333D01*
X190546666Y-76656666D01*
X190746666Y-76656666D01*
X190813333Y-76623333D01*
X190846666Y-76590000D01*
%TO.C,J208*%
X180600000Y-102076666D02*
X180600000Y-102576666D01*
X180633333Y-102676666D01*
X180700000Y-102743333D01*
X180800000Y-102776666D01*
X180866666Y-102776666D01*
X180300000Y-102143333D02*
X180266666Y-102110000D01*
X180200000Y-102076666D01*
X180033333Y-102076666D01*
X179966666Y-102110000D01*
X179933333Y-102143333D01*
X179900000Y-102210000D01*
X179900000Y-102276666D01*
X179933333Y-102376666D01*
X180333333Y-102776666D01*
X179900000Y-102776666D01*
X179466666Y-102076666D02*
X179400000Y-102076666D01*
X179333333Y-102110000D01*
X179300000Y-102143333D01*
X179266666Y-102210000D01*
X179233333Y-102343333D01*
X179233333Y-102510000D01*
X179266666Y-102643333D01*
X179300000Y-102710000D01*
X179333333Y-102743333D01*
X179400000Y-102776666D01*
X179466666Y-102776666D01*
X179533333Y-102743333D01*
X179566666Y-102710000D01*
X179600000Y-102643333D01*
X179633333Y-102510000D01*
X179633333Y-102343333D01*
X179600000Y-102210000D01*
X179566666Y-102143333D01*
X179533333Y-102110000D01*
X179466666Y-102076666D01*
X178833333Y-102376666D02*
X178900000Y-102343333D01*
X178933333Y-102310000D01*
X178966666Y-102243333D01*
X178966666Y-102210000D01*
X178933333Y-102143333D01*
X178900000Y-102110000D01*
X178833333Y-102076666D01*
X178700000Y-102076666D01*
X178633333Y-102110000D01*
X178600000Y-102143333D01*
X178566666Y-102210000D01*
X178566666Y-102243333D01*
X178600000Y-102310000D01*
X178633333Y-102343333D01*
X178700000Y-102376666D01*
X178833333Y-102376666D01*
X178900000Y-102410000D01*
X178933333Y-102443333D01*
X178966666Y-102510000D01*
X178966666Y-102643333D01*
X178933333Y-102710000D01*
X178900000Y-102743333D01*
X178833333Y-102776666D01*
X178700000Y-102776666D01*
X178633333Y-102743333D01*
X178600000Y-102710000D01*
X178566666Y-102643333D01*
X178566666Y-102510000D01*
X178600000Y-102443333D01*
X178633333Y-102410000D01*
X178700000Y-102376666D01*
%TO.C,J204*%
X189390000Y-116036666D02*
X189390000Y-116536666D01*
X189423333Y-116636666D01*
X189490000Y-116703333D01*
X189590000Y-116736666D01*
X189656666Y-116736666D01*
X189090000Y-116103333D02*
X189056666Y-116070000D01*
X188990000Y-116036666D01*
X188823333Y-116036666D01*
X188756666Y-116070000D01*
X188723333Y-116103333D01*
X188690000Y-116170000D01*
X188690000Y-116236666D01*
X188723333Y-116336666D01*
X189123333Y-116736666D01*
X188690000Y-116736666D01*
X188256666Y-116036666D02*
X188190000Y-116036666D01*
X188123333Y-116070000D01*
X188090000Y-116103333D01*
X188056666Y-116170000D01*
X188023333Y-116303333D01*
X188023333Y-116470000D01*
X188056666Y-116603333D01*
X188090000Y-116670000D01*
X188123333Y-116703333D01*
X188190000Y-116736666D01*
X188256666Y-116736666D01*
X188323333Y-116703333D01*
X188356666Y-116670000D01*
X188390000Y-116603333D01*
X188423333Y-116470000D01*
X188423333Y-116303333D01*
X188390000Y-116170000D01*
X188356666Y-116103333D01*
X188323333Y-116070000D01*
X188256666Y-116036666D01*
X187423333Y-116270000D02*
X187423333Y-116736666D01*
X187590000Y-116003333D02*
X187756666Y-116503333D01*
X187323333Y-116503333D01*
%TO.C,P201*%
X176981666Y-77551666D02*
X176281666Y-77551666D01*
X176281666Y-77818333D01*
X176315000Y-77885000D01*
X176348333Y-77918333D01*
X176415000Y-77951666D01*
X176515000Y-77951666D01*
X176581666Y-77918333D01*
X176615000Y-77885000D01*
X176648333Y-77818333D01*
X176648333Y-77551666D01*
X176348333Y-78218333D02*
X176315000Y-78251666D01*
X176281666Y-78318333D01*
X176281666Y-78485000D01*
X176315000Y-78551666D01*
X176348333Y-78585000D01*
X176415000Y-78618333D01*
X176481666Y-78618333D01*
X176581666Y-78585000D01*
X176981666Y-78185000D01*
X176981666Y-78618333D01*
X176281666Y-79051666D02*
X176281666Y-79118333D01*
X176315000Y-79185000D01*
X176348333Y-79218333D01*
X176415000Y-79251666D01*
X176548333Y-79285000D01*
X176715000Y-79285000D01*
X176848333Y-79251666D01*
X176915000Y-79218333D01*
X176948333Y-79185000D01*
X176981666Y-79118333D01*
X176981666Y-79051666D01*
X176948333Y-78985000D01*
X176915000Y-78951666D01*
X176848333Y-78918333D01*
X176715000Y-78885000D01*
X176548333Y-78885000D01*
X176415000Y-78918333D01*
X176348333Y-78951666D01*
X176315000Y-78985000D01*
X176281666Y-79051666D01*
X176981666Y-79951666D02*
X176981666Y-79551666D01*
X176981666Y-79751666D02*
X176281666Y-79751666D01*
X176381666Y-79685000D01*
X176448333Y-79618333D01*
X176481666Y-79551666D01*
%TO.C,U205*%
X183958571Y-94854761D02*
X183958571Y-96473809D01*
X183863333Y-96664285D01*
X183768095Y-96759523D01*
X183577619Y-96854761D01*
X183196666Y-96854761D01*
X183006190Y-96759523D01*
X182910952Y-96664285D01*
X182815714Y-96473809D01*
X182815714Y-94854761D01*
X181958571Y-95045238D02*
X181863333Y-94950000D01*
X181672857Y-94854761D01*
X181196666Y-94854761D01*
X181006190Y-94950000D01*
X180910952Y-95045238D01*
X180815714Y-95235714D01*
X180815714Y-95426190D01*
X180910952Y-95711904D01*
X182053809Y-96854761D01*
X180815714Y-96854761D01*
X179577619Y-94854761D02*
X179387142Y-94854761D01*
X179196666Y-94950000D01*
X179101428Y-95045238D01*
X179006190Y-95235714D01*
X178910952Y-95616666D01*
X178910952Y-96092857D01*
X179006190Y-96473809D01*
X179101428Y-96664285D01*
X179196666Y-96759523D01*
X179387142Y-96854761D01*
X179577619Y-96854761D01*
X179768095Y-96759523D01*
X179863333Y-96664285D01*
X179958571Y-96473809D01*
X180053809Y-96092857D01*
X180053809Y-95616666D01*
X179958571Y-95235714D01*
X179863333Y-95045238D01*
X179768095Y-94950000D01*
X179577619Y-94854761D01*
X177101428Y-94854761D02*
X178053809Y-94854761D01*
X178149047Y-95807142D01*
X178053809Y-95711904D01*
X177863333Y-95616666D01*
X177387142Y-95616666D01*
X177196666Y-95711904D01*
X177101428Y-95807142D01*
X177006190Y-95997619D01*
X177006190Y-96473809D01*
X177101428Y-96664285D01*
X177196666Y-96759523D01*
X177387142Y-96854761D01*
X177863333Y-96854761D01*
X178053809Y-96759523D01*
X178149047Y-96664285D01*
%TO.C,JP107*%
X86726666Y-109080000D02*
X87226666Y-109080000D01*
X87326666Y-109046666D01*
X87393333Y-108980000D01*
X87426666Y-108880000D01*
X87426666Y-108813333D01*
X87426666Y-109413333D02*
X86726666Y-109413333D01*
X86726666Y-109680000D01*
X86760000Y-109746666D01*
X86793333Y-109780000D01*
X86860000Y-109813333D01*
X86960000Y-109813333D01*
X87026666Y-109780000D01*
X87060000Y-109746666D01*
X87093333Y-109680000D01*
X87093333Y-109413333D01*
X87426666Y-110480000D02*
X87426666Y-110080000D01*
X87426666Y-110280000D02*
X86726666Y-110280000D01*
X86826666Y-110213333D01*
X86893333Y-110146666D01*
X86926666Y-110080000D01*
X86726666Y-110913333D02*
X86726666Y-110980000D01*
X86760000Y-111046666D01*
X86793333Y-111080000D01*
X86860000Y-111113333D01*
X86993333Y-111146666D01*
X87160000Y-111146666D01*
X87293333Y-111113333D01*
X87360000Y-111080000D01*
X87393333Y-111046666D01*
X87426666Y-110980000D01*
X87426666Y-110913333D01*
X87393333Y-110846666D01*
X87360000Y-110813333D01*
X87293333Y-110780000D01*
X87160000Y-110746666D01*
X86993333Y-110746666D01*
X86860000Y-110780000D01*
X86793333Y-110813333D01*
X86760000Y-110846666D01*
X86726666Y-110913333D01*
X86726666Y-111380000D02*
X86726666Y-111846666D01*
X87426666Y-111546666D01*
%TO.C,J203*%
X189020000Y-75646666D02*
X189020000Y-76146666D01*
X189053333Y-76246666D01*
X189120000Y-76313333D01*
X189220000Y-76346666D01*
X189286666Y-76346666D01*
X188720000Y-75713333D02*
X188686666Y-75680000D01*
X188620000Y-75646666D01*
X188453333Y-75646666D01*
X188386666Y-75680000D01*
X188353333Y-75713333D01*
X188320000Y-75780000D01*
X188320000Y-75846666D01*
X188353333Y-75946666D01*
X188753333Y-76346666D01*
X188320000Y-76346666D01*
X187886666Y-75646666D02*
X187820000Y-75646666D01*
X187753333Y-75680000D01*
X187720000Y-75713333D01*
X187686666Y-75780000D01*
X187653333Y-75913333D01*
X187653333Y-76080000D01*
X187686666Y-76213333D01*
X187720000Y-76280000D01*
X187753333Y-76313333D01*
X187820000Y-76346666D01*
X187886666Y-76346666D01*
X187953333Y-76313333D01*
X187986666Y-76280000D01*
X188020000Y-76213333D01*
X188053333Y-76080000D01*
X188053333Y-75913333D01*
X188020000Y-75780000D01*
X187986666Y-75713333D01*
X187953333Y-75680000D01*
X187886666Y-75646666D01*
X187420000Y-75646666D02*
X186986666Y-75646666D01*
X187220000Y-75913333D01*
X187120000Y-75913333D01*
X187053333Y-75946666D01*
X187020000Y-75980000D01*
X186986666Y-76046666D01*
X186986666Y-76213333D01*
X187020000Y-76280000D01*
X187053333Y-76313333D01*
X187120000Y-76346666D01*
X187320000Y-76346666D01*
X187386666Y-76313333D01*
X187420000Y-76280000D01*
%TO.C,J209*%
X198485714Y-82702380D02*
X198485714Y-83416666D01*
X198533333Y-83559523D01*
X198628571Y-83654761D01*
X198771428Y-83702380D01*
X198866666Y-83702380D01*
X198057142Y-82797619D02*
X198009523Y-82750000D01*
X197914285Y-82702380D01*
X197676190Y-82702380D01*
X197580952Y-82750000D01*
X197533333Y-82797619D01*
X197485714Y-82892857D01*
X197485714Y-82988095D01*
X197533333Y-83130952D01*
X198104761Y-83702380D01*
X197485714Y-83702380D01*
X196866666Y-82702380D02*
X196771428Y-82702380D01*
X196676190Y-82750000D01*
X196628571Y-82797619D01*
X196580952Y-82892857D01*
X196533333Y-83083333D01*
X196533333Y-83321428D01*
X196580952Y-83511904D01*
X196628571Y-83607142D01*
X196676190Y-83654761D01*
X196771428Y-83702380D01*
X196866666Y-83702380D01*
X196961904Y-83654761D01*
X197009523Y-83607142D01*
X197057142Y-83511904D01*
X197104761Y-83321428D01*
X197104761Y-83083333D01*
X197057142Y-82892857D01*
X197009523Y-82797619D01*
X196961904Y-82750000D01*
X196866666Y-82702380D01*
X196057142Y-83702380D02*
X195866666Y-83702380D01*
X195771428Y-83654761D01*
X195723809Y-83607142D01*
X195628571Y-83464285D01*
X195580952Y-83273809D01*
X195580952Y-82892857D01*
X195628571Y-82797619D01*
X195676190Y-82750000D01*
X195771428Y-82702380D01*
X195961904Y-82702380D01*
X196057142Y-82750000D01*
X196104761Y-82797619D01*
X196152380Y-82892857D01*
X196152380Y-83130952D01*
X196104761Y-83226190D01*
X196057142Y-83273809D01*
X195961904Y-83321428D01*
X195771428Y-83321428D01*
X195676190Y-83273809D01*
X195628571Y-83226190D01*
X195580952Y-83130952D01*
%TO.C,JP104*%
X91260000Y-92846666D02*
X91260000Y-93346666D01*
X91293333Y-93446666D01*
X91360000Y-93513333D01*
X91460000Y-93546666D01*
X91526666Y-93546666D01*
X90926666Y-93546666D02*
X90926666Y-92846666D01*
X90660000Y-92846666D01*
X90593333Y-92880000D01*
X90560000Y-92913333D01*
X90526666Y-92980000D01*
X90526666Y-93080000D01*
X90560000Y-93146666D01*
X90593333Y-93180000D01*
X90660000Y-93213333D01*
X90926666Y-93213333D01*
X89860000Y-93546666D02*
X90260000Y-93546666D01*
X90060000Y-93546666D02*
X90060000Y-92846666D01*
X90126666Y-92946666D01*
X90193333Y-93013333D01*
X90260000Y-93046666D01*
X89426666Y-92846666D02*
X89360000Y-92846666D01*
X89293333Y-92880000D01*
X89260000Y-92913333D01*
X89226666Y-92980000D01*
X89193333Y-93113333D01*
X89193333Y-93280000D01*
X89226666Y-93413333D01*
X89260000Y-93480000D01*
X89293333Y-93513333D01*
X89360000Y-93546666D01*
X89426666Y-93546666D01*
X89493333Y-93513333D01*
X89526666Y-93480000D01*
X89560000Y-93413333D01*
X89593333Y-93280000D01*
X89593333Y-93113333D01*
X89560000Y-92980000D01*
X89526666Y-92913333D01*
X89493333Y-92880000D01*
X89426666Y-92846666D01*
X88593333Y-93080000D02*
X88593333Y-93546666D01*
X88760000Y-92813333D02*
X88926666Y-93313333D01*
X88493333Y-93313333D01*
%TO.C,D204*%
X192950833Y-113176666D02*
X192950833Y-112476666D01*
X192784166Y-112476666D01*
X192684166Y-112510000D01*
X192617500Y-112576666D01*
X192584166Y-112643333D01*
X192550833Y-112776666D01*
X192550833Y-112876666D01*
X192584166Y-113010000D01*
X192617500Y-113076666D01*
X192684166Y-113143333D01*
X192784166Y-113176666D01*
X192950833Y-113176666D01*
X192284166Y-112543333D02*
X192250833Y-112510000D01*
X192184166Y-112476666D01*
X192017500Y-112476666D01*
X191950833Y-112510000D01*
X191917500Y-112543333D01*
X191884166Y-112610000D01*
X191884166Y-112676666D01*
X191917500Y-112776666D01*
X192317500Y-113176666D01*
X191884166Y-113176666D01*
X191450833Y-112476666D02*
X191384166Y-112476666D01*
X191317500Y-112510000D01*
X191284166Y-112543333D01*
X191250833Y-112610000D01*
X191217500Y-112743333D01*
X191217500Y-112910000D01*
X191250833Y-113043333D01*
X191284166Y-113110000D01*
X191317500Y-113143333D01*
X191384166Y-113176666D01*
X191450833Y-113176666D01*
X191517500Y-113143333D01*
X191550833Y-113110000D01*
X191584166Y-113043333D01*
X191617500Y-112910000D01*
X191617500Y-112743333D01*
X191584166Y-112610000D01*
X191550833Y-112543333D01*
X191517500Y-112510000D01*
X191450833Y-112476666D01*
X190617500Y-112710000D02*
X190617500Y-113176666D01*
X190784166Y-112443333D02*
X190950833Y-112943333D01*
X190517500Y-112943333D01*
%TO.C,J107*%
X98151666Y-91060000D02*
X98651666Y-91060000D01*
X98751666Y-91026666D01*
X98818333Y-90960000D01*
X98851666Y-90860000D01*
X98851666Y-90793333D01*
X98851666Y-91760000D02*
X98851666Y-91360000D01*
X98851666Y-91560000D02*
X98151666Y-91560000D01*
X98251666Y-91493333D01*
X98318333Y-91426666D01*
X98351666Y-91360000D01*
X98151666Y-92193333D02*
X98151666Y-92260000D01*
X98185000Y-92326666D01*
X98218333Y-92360000D01*
X98285000Y-92393333D01*
X98418333Y-92426666D01*
X98585000Y-92426666D01*
X98718333Y-92393333D01*
X98785000Y-92360000D01*
X98818333Y-92326666D01*
X98851666Y-92260000D01*
X98851666Y-92193333D01*
X98818333Y-92126666D01*
X98785000Y-92093333D01*
X98718333Y-92060000D01*
X98585000Y-92026666D01*
X98418333Y-92026666D01*
X98285000Y-92060000D01*
X98218333Y-92093333D01*
X98185000Y-92126666D01*
X98151666Y-92193333D01*
X98151666Y-92660000D02*
X98151666Y-93126666D01*
X98851666Y-92826666D01*
%TO.C,J104*%
X85875714Y-108542380D02*
X85875714Y-109256666D01*
X85923333Y-109399523D01*
X86018571Y-109494761D01*
X86161428Y-109542380D01*
X86256666Y-109542380D01*
X84875714Y-109542380D02*
X85447142Y-109542380D01*
X85161428Y-109542380D02*
X85161428Y-108542380D01*
X85256666Y-108685238D01*
X85351904Y-108780476D01*
X85447142Y-108828095D01*
X84256666Y-108542380D02*
X84161428Y-108542380D01*
X84066190Y-108590000D01*
X84018571Y-108637619D01*
X83970952Y-108732857D01*
X83923333Y-108923333D01*
X83923333Y-109161428D01*
X83970952Y-109351904D01*
X84018571Y-109447142D01*
X84066190Y-109494761D01*
X84161428Y-109542380D01*
X84256666Y-109542380D01*
X84351904Y-109494761D01*
X84399523Y-109447142D01*
X84447142Y-109351904D01*
X84494761Y-109161428D01*
X84494761Y-108923333D01*
X84447142Y-108732857D01*
X84399523Y-108637619D01*
X84351904Y-108590000D01*
X84256666Y-108542380D01*
X83066190Y-108875714D02*
X83066190Y-109542380D01*
X83304285Y-108494761D02*
X83542380Y-109209047D01*
X82923333Y-109209047D01*
%TO.C,J106*%
X98261666Y-99390000D02*
X98761666Y-99390000D01*
X98861666Y-99356666D01*
X98928333Y-99290000D01*
X98961666Y-99190000D01*
X98961666Y-99123333D01*
X98961666Y-100090000D02*
X98961666Y-99690000D01*
X98961666Y-99890000D02*
X98261666Y-99890000D01*
X98361666Y-99823333D01*
X98428333Y-99756666D01*
X98461666Y-99690000D01*
X98261666Y-100523333D02*
X98261666Y-100590000D01*
X98295000Y-100656666D01*
X98328333Y-100690000D01*
X98395000Y-100723333D01*
X98528333Y-100756666D01*
X98695000Y-100756666D01*
X98828333Y-100723333D01*
X98895000Y-100690000D01*
X98928333Y-100656666D01*
X98961666Y-100590000D01*
X98961666Y-100523333D01*
X98928333Y-100456666D01*
X98895000Y-100423333D01*
X98828333Y-100390000D01*
X98695000Y-100356666D01*
X98528333Y-100356666D01*
X98395000Y-100390000D01*
X98328333Y-100423333D01*
X98295000Y-100456666D01*
X98261666Y-100523333D01*
X98261666Y-101356666D02*
X98261666Y-101223333D01*
X98295000Y-101156666D01*
X98328333Y-101123333D01*
X98428333Y-101056666D01*
X98561666Y-101023333D01*
X98828333Y-101023333D01*
X98895000Y-101056666D01*
X98928333Y-101090000D01*
X98961666Y-101156666D01*
X98961666Y-101290000D01*
X98928333Y-101356666D01*
X98895000Y-101390000D01*
X98828333Y-101423333D01*
X98661666Y-101423333D01*
X98595000Y-101390000D01*
X98561666Y-101356666D01*
X98528333Y-101290000D01*
X98528333Y-101156666D01*
X98561666Y-101090000D01*
X98595000Y-101056666D01*
X98661666Y-101023333D01*
%TO.C,J301*%
X196972380Y-95054285D02*
X197686666Y-95054285D01*
X197829523Y-95006666D01*
X197924761Y-94911428D01*
X197972380Y-94768571D01*
X197972380Y-94673333D01*
X196972380Y-95435238D02*
X196972380Y-96054285D01*
X197353333Y-95720952D01*
X197353333Y-95863809D01*
X197400952Y-95959047D01*
X197448571Y-96006666D01*
X197543809Y-96054285D01*
X197781904Y-96054285D01*
X197877142Y-96006666D01*
X197924761Y-95959047D01*
X197972380Y-95863809D01*
X197972380Y-95578095D01*
X197924761Y-95482857D01*
X197877142Y-95435238D01*
X196972380Y-96673333D02*
X196972380Y-96768571D01*
X197020000Y-96863809D01*
X197067619Y-96911428D01*
X197162857Y-96959047D01*
X197353333Y-97006666D01*
X197591428Y-97006666D01*
X197781904Y-96959047D01*
X197877142Y-96911428D01*
X197924761Y-96863809D01*
X197972380Y-96768571D01*
X197972380Y-96673333D01*
X197924761Y-96578095D01*
X197877142Y-96530476D01*
X197781904Y-96482857D01*
X197591428Y-96435238D01*
X197353333Y-96435238D01*
X197162857Y-96482857D01*
X197067619Y-96530476D01*
X197020000Y-96578095D01*
X196972380Y-96673333D01*
X197972380Y-97959047D02*
X197972380Y-97387619D01*
X197972380Y-97673333D02*
X196972380Y-97673333D01*
X197115238Y-97578095D01*
X197210476Y-97482857D01*
X197258095Y-97387619D01*
%TO.C,SW201*%
X109107142Y-76866285D02*
X108978571Y-76909142D01*
X108764285Y-76909142D01*
X108678571Y-76866285D01*
X108635714Y-76823428D01*
X108592857Y-76737714D01*
X108592857Y-76652000D01*
X108635714Y-76566285D01*
X108678571Y-76523428D01*
X108764285Y-76480571D01*
X108935714Y-76437714D01*
X109021428Y-76394857D01*
X109064285Y-76352000D01*
X109107142Y-76266285D01*
X109107142Y-76180571D01*
X109064285Y-76094857D01*
X109021428Y-76052000D01*
X108935714Y-76009142D01*
X108721428Y-76009142D01*
X108592857Y-76052000D01*
X108292857Y-76009142D02*
X108078571Y-76909142D01*
X107907142Y-76266285D01*
X107735714Y-76909142D01*
X107521428Y-76009142D01*
X107221428Y-76094857D02*
X107178571Y-76052000D01*
X107092857Y-76009142D01*
X106878571Y-76009142D01*
X106792857Y-76052000D01*
X106750000Y-76094857D01*
X106707142Y-76180571D01*
X106707142Y-76266285D01*
X106750000Y-76394857D01*
X107264285Y-76909142D01*
X106707142Y-76909142D01*
X106150000Y-76009142D02*
X106064285Y-76009142D01*
X105978571Y-76052000D01*
X105935714Y-76094857D01*
X105892857Y-76180571D01*
X105850000Y-76352000D01*
X105850000Y-76566285D01*
X105892857Y-76737714D01*
X105935714Y-76823428D01*
X105978571Y-76866285D01*
X106064285Y-76909142D01*
X106150000Y-76909142D01*
X106235714Y-76866285D01*
X106278571Y-76823428D01*
X106321428Y-76737714D01*
X106364285Y-76566285D01*
X106364285Y-76352000D01*
X106321428Y-76180571D01*
X106278571Y-76094857D01*
X106235714Y-76052000D01*
X106150000Y-76009142D01*
X104992857Y-76909142D02*
X105507142Y-76909142D01*
X105250000Y-76909142D02*
X105250000Y-76009142D01*
X105335714Y-76137714D01*
X105421428Y-76223428D01*
X105507142Y-76266285D01*
%TO.C,RV302*%
X160883333Y-92851666D02*
X161116666Y-92518333D01*
X161283333Y-92851666D02*
X161283333Y-92151666D01*
X161016666Y-92151666D01*
X160950000Y-92185000D01*
X160916666Y-92218333D01*
X160883333Y-92285000D01*
X160883333Y-92385000D01*
X160916666Y-92451666D01*
X160950000Y-92485000D01*
X161016666Y-92518333D01*
X161283333Y-92518333D01*
X160683333Y-92151666D02*
X160450000Y-92851666D01*
X160216666Y-92151666D01*
X160050000Y-92151666D02*
X159616666Y-92151666D01*
X159850000Y-92418333D01*
X159750000Y-92418333D01*
X159683333Y-92451666D01*
X159650000Y-92485000D01*
X159616666Y-92551666D01*
X159616666Y-92718333D01*
X159650000Y-92785000D01*
X159683333Y-92818333D01*
X159750000Y-92851666D01*
X159950000Y-92851666D01*
X160016666Y-92818333D01*
X160050000Y-92785000D01*
X159183333Y-92151666D02*
X159116666Y-92151666D01*
X159050000Y-92185000D01*
X159016666Y-92218333D01*
X158983333Y-92285000D01*
X158950000Y-92418333D01*
X158950000Y-92585000D01*
X158983333Y-92718333D01*
X159016666Y-92785000D01*
X159050000Y-92818333D01*
X159116666Y-92851666D01*
X159183333Y-92851666D01*
X159250000Y-92818333D01*
X159283333Y-92785000D01*
X159316666Y-92718333D01*
X159350000Y-92585000D01*
X159350000Y-92418333D01*
X159316666Y-92285000D01*
X159283333Y-92218333D01*
X159250000Y-92185000D01*
X159183333Y-92151666D01*
X158683333Y-92218333D02*
X158650000Y-92185000D01*
X158583333Y-92151666D01*
X158416666Y-92151666D01*
X158350000Y-92185000D01*
X158316666Y-92218333D01*
X158283333Y-92285000D01*
X158283333Y-92351666D01*
X158316666Y-92451666D01*
X158716666Y-92851666D01*
X158283333Y-92851666D01*
%TO.C,J219*%
X125186666Y-115470000D02*
X125686666Y-115470000D01*
X125786666Y-115436666D01*
X125853333Y-115370000D01*
X125886666Y-115270000D01*
X125886666Y-115203333D01*
X125253333Y-115770000D02*
X125220000Y-115803333D01*
X125186666Y-115870000D01*
X125186666Y-116036666D01*
X125220000Y-116103333D01*
X125253333Y-116136666D01*
X125320000Y-116170000D01*
X125386666Y-116170000D01*
X125486666Y-116136666D01*
X125886666Y-115736666D01*
X125886666Y-116170000D01*
X125886666Y-116836666D02*
X125886666Y-116436666D01*
X125886666Y-116636666D02*
X125186666Y-116636666D01*
X125286666Y-116570000D01*
X125353333Y-116503333D01*
X125386666Y-116436666D01*
X125886666Y-117170000D02*
X125886666Y-117303333D01*
X125853333Y-117370000D01*
X125820000Y-117403333D01*
X125720000Y-117470000D01*
X125586666Y-117503333D01*
X125320000Y-117503333D01*
X125253333Y-117470000D01*
X125220000Y-117436666D01*
X125186666Y-117370000D01*
X125186666Y-117236666D01*
X125220000Y-117170000D01*
X125253333Y-117136666D01*
X125320000Y-117103333D01*
X125486666Y-117103333D01*
X125553333Y-117136666D01*
X125586666Y-117170000D01*
X125620000Y-117236666D01*
X125620000Y-117370000D01*
X125586666Y-117436666D01*
X125553333Y-117470000D01*
X125486666Y-117503333D01*
%TO.C,J903*%
X155930000Y-100816666D02*
X155930000Y-101316666D01*
X155963333Y-101416666D01*
X156030000Y-101483333D01*
X156130000Y-101516666D01*
X156196666Y-101516666D01*
X155563333Y-101516666D02*
X155430000Y-101516666D01*
X155363333Y-101483333D01*
X155330000Y-101450000D01*
X155263333Y-101350000D01*
X155230000Y-101216666D01*
X155230000Y-100950000D01*
X155263333Y-100883333D01*
X155296666Y-100850000D01*
X155363333Y-100816666D01*
X155496666Y-100816666D01*
X155563333Y-100850000D01*
X155596666Y-100883333D01*
X155630000Y-100950000D01*
X155630000Y-101116666D01*
X155596666Y-101183333D01*
X155563333Y-101216666D01*
X155496666Y-101250000D01*
X155363333Y-101250000D01*
X155296666Y-101216666D01*
X155263333Y-101183333D01*
X155230000Y-101116666D01*
X154796666Y-100816666D02*
X154730000Y-100816666D01*
X154663333Y-100850000D01*
X154630000Y-100883333D01*
X154596666Y-100950000D01*
X154563333Y-101083333D01*
X154563333Y-101250000D01*
X154596666Y-101383333D01*
X154630000Y-101450000D01*
X154663333Y-101483333D01*
X154730000Y-101516666D01*
X154796666Y-101516666D01*
X154863333Y-101483333D01*
X154896666Y-101450000D01*
X154930000Y-101383333D01*
X154963333Y-101250000D01*
X154963333Y-101083333D01*
X154930000Y-100950000D01*
X154896666Y-100883333D01*
X154863333Y-100850000D01*
X154796666Y-100816666D01*
X154330000Y-100816666D02*
X153896666Y-100816666D01*
X154130000Y-101083333D01*
X154030000Y-101083333D01*
X153963333Y-101116666D01*
X153930000Y-101150000D01*
X153896666Y-101216666D01*
X153896666Y-101383333D01*
X153930000Y-101450000D01*
X153963333Y-101483333D01*
X154030000Y-101516666D01*
X154230000Y-101516666D01*
X154296666Y-101483333D01*
X154330000Y-101450000D01*
%TO.C,J218*%
X128345000Y-76571666D02*
X128345000Y-77071666D01*
X128378333Y-77171666D01*
X128445000Y-77238333D01*
X128545000Y-77271666D01*
X128611666Y-77271666D01*
X128045000Y-76638333D02*
X128011666Y-76605000D01*
X127945000Y-76571666D01*
X127778333Y-76571666D01*
X127711666Y-76605000D01*
X127678333Y-76638333D01*
X127645000Y-76705000D01*
X127645000Y-76771666D01*
X127678333Y-76871666D01*
X128078333Y-77271666D01*
X127645000Y-77271666D01*
X126978333Y-77271666D02*
X127378333Y-77271666D01*
X127178333Y-77271666D02*
X127178333Y-76571666D01*
X127245000Y-76671666D01*
X127311666Y-76738333D01*
X127378333Y-76771666D01*
X126578333Y-76871666D02*
X126645000Y-76838333D01*
X126678333Y-76805000D01*
X126711666Y-76738333D01*
X126711666Y-76705000D01*
X126678333Y-76638333D01*
X126645000Y-76605000D01*
X126578333Y-76571666D01*
X126445000Y-76571666D01*
X126378333Y-76605000D01*
X126345000Y-76638333D01*
X126311666Y-76705000D01*
X126311666Y-76738333D01*
X126345000Y-76805000D01*
X126378333Y-76838333D01*
X126445000Y-76871666D01*
X126578333Y-76871666D01*
X126645000Y-76905000D01*
X126678333Y-76938333D01*
X126711666Y-77005000D01*
X126711666Y-77138333D01*
X126678333Y-77205000D01*
X126645000Y-77238333D01*
X126578333Y-77271666D01*
X126445000Y-77271666D01*
X126378333Y-77238333D01*
X126345000Y-77205000D01*
X126311666Y-77138333D01*
X126311666Y-77005000D01*
X126345000Y-76938333D01*
X126378333Y-76905000D01*
X126445000Y-76871666D01*
%TO.C,TP201*%
X155454285Y-83242380D02*
X154882857Y-83242380D01*
X155168571Y-84242380D02*
X155168571Y-83242380D01*
X154549523Y-84242380D02*
X154549523Y-83242380D01*
X154168571Y-83242380D01*
X154073333Y-83290000D01*
X154025714Y-83337619D01*
X153978095Y-83432857D01*
X153978095Y-83575714D01*
X154025714Y-83670952D01*
X154073333Y-83718571D01*
X154168571Y-83766190D01*
X154549523Y-83766190D01*
X153597142Y-83337619D02*
X153549523Y-83290000D01*
X153454285Y-83242380D01*
X153216190Y-83242380D01*
X153120952Y-83290000D01*
X153073333Y-83337619D01*
X153025714Y-83432857D01*
X153025714Y-83528095D01*
X153073333Y-83670952D01*
X153644761Y-84242380D01*
X153025714Y-84242380D01*
X152406666Y-83242380D02*
X152311428Y-83242380D01*
X152216190Y-83290000D01*
X152168571Y-83337619D01*
X152120952Y-83432857D01*
X152073333Y-83623333D01*
X152073333Y-83861428D01*
X152120952Y-84051904D01*
X152168571Y-84147142D01*
X152216190Y-84194761D01*
X152311428Y-84242380D01*
X152406666Y-84242380D01*
X152501904Y-84194761D01*
X152549523Y-84147142D01*
X152597142Y-84051904D01*
X152644761Y-83861428D01*
X152644761Y-83623333D01*
X152597142Y-83432857D01*
X152549523Y-83337619D01*
X152501904Y-83290000D01*
X152406666Y-83242380D01*
X151120952Y-84242380D02*
X151692380Y-84242380D01*
X151406666Y-84242380D02*
X151406666Y-83242380D01*
X151501904Y-83385238D01*
X151597142Y-83480476D01*
X151692380Y-83528095D01*
%TO.C,SW202*%
X109067142Y-116184285D02*
X108938571Y-116227142D01*
X108724285Y-116227142D01*
X108638571Y-116184285D01*
X108595714Y-116141428D01*
X108552857Y-116055714D01*
X108552857Y-115970000D01*
X108595714Y-115884285D01*
X108638571Y-115841428D01*
X108724285Y-115798571D01*
X108895714Y-115755714D01*
X108981428Y-115712857D01*
X109024285Y-115670000D01*
X109067142Y-115584285D01*
X109067142Y-115498571D01*
X109024285Y-115412857D01*
X108981428Y-115370000D01*
X108895714Y-115327142D01*
X108681428Y-115327142D01*
X108552857Y-115370000D01*
X108252857Y-115327142D02*
X108038571Y-116227142D01*
X107867142Y-115584285D01*
X107695714Y-116227142D01*
X107481428Y-115327142D01*
X107181428Y-115412857D02*
X107138571Y-115370000D01*
X107052857Y-115327142D01*
X106838571Y-115327142D01*
X106752857Y-115370000D01*
X106710000Y-115412857D01*
X106667142Y-115498571D01*
X106667142Y-115584285D01*
X106710000Y-115712857D01*
X107224285Y-116227142D01*
X106667142Y-116227142D01*
X106110000Y-115327142D02*
X106024285Y-115327142D01*
X105938571Y-115370000D01*
X105895714Y-115412857D01*
X105852857Y-115498571D01*
X105810000Y-115670000D01*
X105810000Y-115884285D01*
X105852857Y-116055714D01*
X105895714Y-116141428D01*
X105938571Y-116184285D01*
X106024285Y-116227142D01*
X106110000Y-116227142D01*
X106195714Y-116184285D01*
X106238571Y-116141428D01*
X106281428Y-116055714D01*
X106324285Y-115884285D01*
X106324285Y-115670000D01*
X106281428Y-115498571D01*
X106238571Y-115412857D01*
X106195714Y-115370000D01*
X106110000Y-115327142D01*
X105467142Y-115412857D02*
X105424285Y-115370000D01*
X105338571Y-115327142D01*
X105124285Y-115327142D01*
X105038571Y-115370000D01*
X104995714Y-115412857D01*
X104952857Y-115498571D01*
X104952857Y-115584285D01*
X104995714Y-115712857D01*
X105510000Y-116227142D01*
X104952857Y-116227142D01*
%TO.C,TP901*%
X154466666Y-112235000D02*
X154466666Y-112635000D01*
X155166666Y-112435000D02*
X154466666Y-112435000D01*
X155166666Y-112868333D02*
X154466666Y-112868333D01*
X154466666Y-113135000D01*
X154500000Y-113201666D01*
X154533333Y-113235000D01*
X154600000Y-113268333D01*
X154700000Y-113268333D01*
X154766666Y-113235000D01*
X154800000Y-113201666D01*
X154833333Y-113135000D01*
X154833333Y-112868333D01*
X155166666Y-113601666D02*
X155166666Y-113735000D01*
X155133333Y-113801666D01*
X155100000Y-113835000D01*
X155000000Y-113901666D01*
X154866666Y-113935000D01*
X154600000Y-113935000D01*
X154533333Y-113901666D01*
X154500000Y-113868333D01*
X154466666Y-113801666D01*
X154466666Y-113668333D01*
X154500000Y-113601666D01*
X154533333Y-113568333D01*
X154600000Y-113535000D01*
X154766666Y-113535000D01*
X154833333Y-113568333D01*
X154866666Y-113601666D01*
X154900000Y-113668333D01*
X154900000Y-113801666D01*
X154866666Y-113868333D01*
X154833333Y-113901666D01*
X154766666Y-113935000D01*
X154466666Y-114368333D02*
X154466666Y-114435000D01*
X154500000Y-114501666D01*
X154533333Y-114535000D01*
X154600000Y-114568333D01*
X154733333Y-114601666D01*
X154900000Y-114601666D01*
X155033333Y-114568333D01*
X155100000Y-114535000D01*
X155133333Y-114501666D01*
X155166666Y-114435000D01*
X155166666Y-114368333D01*
X155133333Y-114301666D01*
X155100000Y-114268333D01*
X155033333Y-114235000D01*
X154900000Y-114201666D01*
X154733333Y-114201666D01*
X154600000Y-114235000D01*
X154533333Y-114268333D01*
X154500000Y-114301666D01*
X154466666Y-114368333D01*
X155166666Y-115268333D02*
X155166666Y-114868333D01*
X155166666Y-115068333D02*
X154466666Y-115068333D01*
X154566666Y-115001666D01*
X154633333Y-114935000D01*
X154666666Y-114868333D01*
%TO.C,T901*%
X122284285Y-100212857D02*
X122312857Y-100184285D01*
X122341428Y-100098571D01*
X122341428Y-100041428D01*
X122312857Y-99955714D01*
X122255714Y-99898571D01*
X122198571Y-99870000D01*
X122084285Y-99841428D01*
X121998571Y-99841428D01*
X121884285Y-99870000D01*
X121827142Y-99898571D01*
X121770000Y-99955714D01*
X121741428Y-100041428D01*
X121741428Y-100098571D01*
X121770000Y-100184285D01*
X121798571Y-100212857D01*
X121741428Y-100498571D02*
X121855714Y-100441428D01*
X118117142Y-108062857D02*
X118145714Y-108148571D01*
X118174285Y-108177142D01*
X118231428Y-108205714D01*
X118317142Y-108205714D01*
X118374285Y-108177142D01*
X118402857Y-108148571D01*
X118431428Y-108091428D01*
X118431428Y-107862857D01*
X117831428Y-107862857D01*
X117831428Y-108062857D01*
X117860000Y-108120000D01*
X117888571Y-108148571D01*
X117945714Y-108177142D01*
X118002857Y-108177142D01*
X118060000Y-108148571D01*
X118088571Y-108120000D01*
X118117142Y-108062857D01*
X118117142Y-107862857D01*
X121251428Y-107112857D02*
X120651428Y-107112857D01*
X120651428Y-107341428D01*
X120680000Y-107398571D01*
X120708571Y-107427142D01*
X120765714Y-107455714D01*
X120851428Y-107455714D01*
X120908571Y-107427142D01*
X120937142Y-107398571D01*
X120965714Y-107341428D01*
X120965714Y-107112857D01*
X119741428Y-101760000D02*
X119141428Y-101760000D01*
X119141428Y-101988571D01*
X119170000Y-102045714D01*
X119198571Y-102074285D01*
X119255714Y-102102857D01*
X119341428Y-102102857D01*
X119398571Y-102074285D01*
X119427142Y-102045714D01*
X119455714Y-101988571D01*
X119455714Y-101760000D01*
X119141428Y-102388571D02*
X119255714Y-102331428D01*
X116674285Y-106405714D02*
X116702857Y-106377142D01*
X116731428Y-106291428D01*
X116731428Y-106234285D01*
X116702857Y-106148571D01*
X116645714Y-106091428D01*
X116588571Y-106062857D01*
X116474285Y-106034285D01*
X116388571Y-106034285D01*
X116274285Y-106062857D01*
X116217142Y-106091428D01*
X116160000Y-106148571D01*
X116131428Y-106234285D01*
X116131428Y-106291428D01*
X116160000Y-106377142D01*
X116188571Y-106405714D01*
X123067142Y-103370000D02*
X123095714Y-103455714D01*
X123124285Y-103484285D01*
X123181428Y-103512857D01*
X123267142Y-103512857D01*
X123324285Y-103484285D01*
X123352857Y-103455714D01*
X123381428Y-103398571D01*
X123381428Y-103170000D01*
X122781428Y-103170000D01*
X122781428Y-103370000D01*
X122810000Y-103427142D01*
X122838571Y-103455714D01*
X122895714Y-103484285D01*
X122952857Y-103484285D01*
X123010000Y-103455714D01*
X123038571Y-103427142D01*
X123067142Y-103370000D01*
X123067142Y-103170000D01*
X122781428Y-103798571D02*
X122895714Y-103741428D01*
%TO.C,J102*%
X85755714Y-83042380D02*
X85755714Y-83756666D01*
X85803333Y-83899523D01*
X85898571Y-83994761D01*
X86041428Y-84042380D01*
X86136666Y-84042380D01*
X84755714Y-84042380D02*
X85327142Y-84042380D01*
X85041428Y-84042380D02*
X85041428Y-83042380D01*
X85136666Y-83185238D01*
X85231904Y-83280476D01*
X85327142Y-83328095D01*
X84136666Y-83042380D02*
X84041428Y-83042380D01*
X83946190Y-83090000D01*
X83898571Y-83137619D01*
X83850952Y-83232857D01*
X83803333Y-83423333D01*
X83803333Y-83661428D01*
X83850952Y-83851904D01*
X83898571Y-83947142D01*
X83946190Y-83994761D01*
X84041428Y-84042380D01*
X84136666Y-84042380D01*
X84231904Y-83994761D01*
X84279523Y-83947142D01*
X84327142Y-83851904D01*
X84374761Y-83661428D01*
X84374761Y-83423333D01*
X84327142Y-83232857D01*
X84279523Y-83137619D01*
X84231904Y-83090000D01*
X84136666Y-83042380D01*
X83422380Y-83137619D02*
X83374761Y-83090000D01*
X83279523Y-83042380D01*
X83041428Y-83042380D01*
X82946190Y-83090000D01*
X82898571Y-83137619D01*
X82850952Y-83232857D01*
X82850952Y-83328095D01*
X82898571Y-83470952D01*
X83470000Y-84042380D01*
X82850952Y-84042380D01*
%TO.C,RV101*%
X100777619Y-83922380D02*
X101110952Y-83446190D01*
X101349047Y-83922380D02*
X101349047Y-82922380D01*
X100968095Y-82922380D01*
X100872857Y-82970000D01*
X100825238Y-83017619D01*
X100777619Y-83112857D01*
X100777619Y-83255714D01*
X100825238Y-83350952D01*
X100872857Y-83398571D01*
X100968095Y-83446190D01*
X101349047Y-83446190D01*
X100491904Y-82922380D02*
X100158571Y-83922380D01*
X99825238Y-82922380D01*
X98968095Y-83922380D02*
X99539523Y-83922380D01*
X99253809Y-83922380D02*
X99253809Y-82922380D01*
X99349047Y-83065238D01*
X99444285Y-83160476D01*
X99539523Y-83208095D01*
X98349047Y-82922380D02*
X98253809Y-82922380D01*
X98158571Y-82970000D01*
X98110952Y-83017619D01*
X98063333Y-83112857D01*
X98015714Y-83303333D01*
X98015714Y-83541428D01*
X98063333Y-83731904D01*
X98110952Y-83827142D01*
X98158571Y-83874761D01*
X98253809Y-83922380D01*
X98349047Y-83922380D01*
X98444285Y-83874761D01*
X98491904Y-83827142D01*
X98539523Y-83731904D01*
X98587142Y-83541428D01*
X98587142Y-83303333D01*
X98539523Y-83112857D01*
X98491904Y-83017619D01*
X98444285Y-82970000D01*
X98349047Y-82922380D01*
X97063333Y-83922380D02*
X97634761Y-83922380D01*
X97349047Y-83922380D02*
X97349047Y-82922380D01*
X97444285Y-83065238D01*
X97539523Y-83160476D01*
X97634761Y-83208095D01*
%TO.C,BT201*%
X119193571Y-84636904D02*
X119241190Y-84779761D01*
X119288809Y-84827380D01*
X119384047Y-84875000D01*
X119526904Y-84875000D01*
X119622142Y-84827380D01*
X119669761Y-84779761D01*
X119717380Y-84684523D01*
X119717380Y-84303571D01*
X118717380Y-84303571D01*
X118717380Y-84636904D01*
X118765000Y-84732142D01*
X118812619Y-84779761D01*
X118907857Y-84827380D01*
X119003095Y-84827380D01*
X119098333Y-84779761D01*
X119145952Y-84732142D01*
X119193571Y-84636904D01*
X119193571Y-84303571D01*
X118717380Y-85160714D02*
X118717380Y-85732142D01*
X119717380Y-85446428D02*
X118717380Y-85446428D01*
X118812619Y-86017857D02*
X118765000Y-86065476D01*
X118717380Y-86160714D01*
X118717380Y-86398809D01*
X118765000Y-86494047D01*
X118812619Y-86541666D01*
X118907857Y-86589285D01*
X119003095Y-86589285D01*
X119145952Y-86541666D01*
X119717380Y-85970238D01*
X119717380Y-86589285D01*
X118717380Y-87208333D02*
X118717380Y-87303571D01*
X118765000Y-87398809D01*
X118812619Y-87446428D01*
X118907857Y-87494047D01*
X119098333Y-87541666D01*
X119336428Y-87541666D01*
X119526904Y-87494047D01*
X119622142Y-87446428D01*
X119669761Y-87398809D01*
X119717380Y-87303571D01*
X119717380Y-87208333D01*
X119669761Y-87113095D01*
X119622142Y-87065476D01*
X119526904Y-87017857D01*
X119336428Y-86970238D01*
X119098333Y-86970238D01*
X118907857Y-87017857D01*
X118812619Y-87065476D01*
X118765000Y-87113095D01*
X118717380Y-87208333D01*
X119717380Y-88494047D02*
X119717380Y-87922619D01*
X119717380Y-88208333D02*
X118717380Y-88208333D01*
X118860238Y-88113095D01*
X118955476Y-88017857D01*
X119003095Y-87922619D01*
%TO.C,RV901*%
X161023333Y-117346666D02*
X161256666Y-117013333D01*
X161423333Y-117346666D02*
X161423333Y-116646666D01*
X161156666Y-116646666D01*
X161090000Y-116680000D01*
X161056666Y-116713333D01*
X161023333Y-116780000D01*
X161023333Y-116880000D01*
X161056666Y-116946666D01*
X161090000Y-116980000D01*
X161156666Y-117013333D01*
X161423333Y-117013333D01*
X160823333Y-116646666D02*
X160590000Y-117346666D01*
X160356666Y-116646666D01*
X160090000Y-117346666D02*
X159956666Y-117346666D01*
X159890000Y-117313333D01*
X159856666Y-117280000D01*
X159790000Y-117180000D01*
X159756666Y-117046666D01*
X159756666Y-116780000D01*
X159790000Y-116713333D01*
X159823333Y-116680000D01*
X159890000Y-116646666D01*
X160023333Y-116646666D01*
X160090000Y-116680000D01*
X160123333Y-116713333D01*
X160156666Y-116780000D01*
X160156666Y-116946666D01*
X160123333Y-117013333D01*
X160090000Y-117046666D01*
X160023333Y-117080000D01*
X159890000Y-117080000D01*
X159823333Y-117046666D01*
X159790000Y-117013333D01*
X159756666Y-116946666D01*
X159323333Y-116646666D02*
X159256666Y-116646666D01*
X159190000Y-116680000D01*
X159156666Y-116713333D01*
X159123333Y-116780000D01*
X159090000Y-116913333D01*
X159090000Y-117080000D01*
X159123333Y-117213333D01*
X159156666Y-117280000D01*
X159190000Y-117313333D01*
X159256666Y-117346666D01*
X159323333Y-117346666D01*
X159390000Y-117313333D01*
X159423333Y-117280000D01*
X159456666Y-117213333D01*
X159490000Y-117080000D01*
X159490000Y-116913333D01*
X159456666Y-116780000D01*
X159423333Y-116713333D01*
X159390000Y-116680000D01*
X159323333Y-116646666D01*
X158423333Y-117346666D02*
X158823333Y-117346666D01*
X158623333Y-117346666D02*
X158623333Y-116646666D01*
X158690000Y-116746666D01*
X158756666Y-116813333D01*
X158823333Y-116846666D01*
%TO.C,JP202*%
G36*
X131760000Y-79780000D02*
G01*
X130890000Y-79780000D01*
X130890000Y-78870000D01*
X131760000Y-78870000D01*
X131760000Y-79780000D01*
G37*
D13*
%TO.C,J105*%
X97770000Y-94590000D02*
X97770000Y-97790000D01*
X94570000Y-94590000D02*
X94570000Y-97790000D01*
X97770000Y-97790000D02*
X94570000Y-97790000D01*
X97770000Y-94590000D02*
X94570000Y-94590000D01*
D10*
%TO.C,T101*%
X118294164Y-97635000D02*
G75*
G03*
X118294164Y-97635000I-134164J0D01*
G01*
D13*
%TO.C,C103*%
X95830000Y-103490000D02*
X95830000Y-105890000D01*
X99830000Y-105890000D02*
X99830000Y-103490000D01*
X99830000Y-103490000D02*
X95830000Y-103490000D01*
X95860000Y-105900000D02*
G75*
G03*
X99860000Y-105900000I2000000J-5494955D01*
G01*
%TO.C,JP103*%
X87800000Y-81460000D02*
X87800000Y-82860000D01*
X88500000Y-83560000D02*
X89100000Y-83560000D01*
X89100000Y-80760000D02*
X88500000Y-80760000D01*
X89800000Y-82860000D02*
X89800000Y-81460000D01*
X89800000Y-81460000D02*
G75*
G03*
X89100000Y-80760000I-699999J1D01*
G01*
X89100000Y-83560000D02*
G75*
G03*
X89800000Y-82860000I0J700000D01*
G01*
X87800000Y-82860000D02*
G75*
G03*
X88500000Y-83560000I700000J0D01*
G01*
X88500000Y-80760000D02*
G75*
G03*
X87800000Y-81460000I-1J-699999D01*
G01*
%TO.C,TP301*%
X154870000Y-94845000D02*
X154870000Y-97320000D01*
X155416529Y-94845000D02*
X154870000Y-94845000D01*
X157090000Y-97320000D02*
X156287530Y-97320000D01*
X155672470Y-97320000D02*
X154870000Y-97320000D01*
X157090000Y-93325000D02*
X155980000Y-93325000D01*
X157090000Y-94845000D02*
X157090000Y-97320000D01*
X157090000Y-94085000D02*
X157090000Y-93325000D01*
X157090000Y-94845000D02*
X156543471Y-94845000D01*
%TO.C,J108*%
X80315000Y-94586000D02*
X80315000Y-97786000D01*
X83515000Y-94586000D02*
X80315000Y-94586000D01*
X83515000Y-97786000D02*
X80315000Y-97786000D01*
X83515000Y-94586000D02*
X83515000Y-97786000D01*
%TO.C,JP201*%
X137270000Y-81930000D02*
X135870000Y-81930000D01*
X137970000Y-83230000D02*
X137970000Y-82630000D01*
X135870000Y-83930000D02*
X137270000Y-83930000D01*
X135170000Y-82630000D02*
X135170000Y-83230000D01*
X137270000Y-83930000D02*
G75*
G03*
X137970000Y-83230000I1J699999D01*
G01*
X135170000Y-83230000D02*
G75*
G03*
X135870000Y-83930000I700000J0D01*
G01*
X135870000Y-81930000D02*
G75*
G03*
X135170000Y-82630000I0J-700000D01*
G01*
X137970000Y-82630000D02*
G75*
G03*
X137270000Y-81930000I-699999J1D01*
G01*
%TO.C,JP106*%
X91690000Y-101240000D02*
X91690000Y-100640000D01*
X89590000Y-101940000D02*
X90990000Y-101940000D01*
X88890000Y-100640000D02*
X88890000Y-101240000D01*
X90990000Y-99940000D02*
X89590000Y-99940000D01*
X90990000Y-101940000D02*
G75*
G03*
X91690000Y-101240000I1J699999D01*
G01*
X89590000Y-99940000D02*
G75*
G03*
X88890000Y-100640000I0J-700000D01*
G01*
X88890000Y-101240000D02*
G75*
G03*
X89590000Y-101940000I700000J0D01*
G01*
X91690000Y-100640000D02*
G75*
G03*
X90990000Y-99940000I-699999J1D01*
G01*
%TO.C,J302*%
X142520000Y-97490000D02*
X139320000Y-97490000D01*
X142520000Y-94290000D02*
X142520000Y-97490000D01*
X139320000Y-94290000D02*
X139320000Y-97490000D01*
X142520000Y-94290000D02*
X139320000Y-94290000D01*
%TO.C,SW203*%
X104990000Y-90286000D02*
X100890000Y-90286000D01*
X100890000Y-102086000D02*
X104990000Y-102086000D01*
X100890000Y-90286000D02*
X100890000Y-92686000D01*
X100890000Y-99686000D02*
X100890000Y-102086000D01*
X113090000Y-90286000D02*
X113090000Y-102086000D01*
X106990000Y-95686000D02*
X106990000Y-96686000D01*
X114190000Y-92086000D02*
X114490000Y-92386000D01*
X114490000Y-92386000D02*
X114790000Y-92086000D01*
X108990000Y-90286000D02*
X113090000Y-90286000D01*
X108990000Y-102086000D02*
X113090000Y-102086000D01*
X107490000Y-96186000D02*
X106490000Y-96186000D01*
X114790000Y-92086000D02*
X114190000Y-92086000D01*
X100890000Y-94886000D02*
X100890000Y-97486000D01*
X109990000Y-96186000D02*
G75*
G03*
X109990000Y-96186000I-3000000J0D01*
G01*
D10*
%TO.C,D203*%
X193020000Y-79950000D02*
X190060000Y-79950000D01*
D13*
X190630000Y-77030000D02*
X193315000Y-77030000D01*
X193315000Y-78950000D02*
X190630000Y-78950000D01*
D10*
X192180000Y-79260000D02*
X192180000Y-80780000D01*
D13*
X193315000Y-77030000D02*
X193315000Y-78950000D01*
G36*
X192152802Y-79965493D02*
G01*
X191020000Y-80830000D01*
X191010000Y-79250000D01*
X192152802Y-79965493D01*
G37*
D10*
X192152802Y-79965493D02*
X191020000Y-80830000D01*
X191010000Y-79250000D01*
X192152802Y-79965493D01*
D13*
%TO.C,J208*%
X177550000Y-99520000D02*
X177550000Y-100066529D01*
X177550000Y-101740000D02*
X181295000Y-101740000D01*
X181300000Y-101430000D02*
X181295000Y-101740000D01*
X177550000Y-99520000D02*
X181295000Y-99520000D01*
X177550000Y-101430000D02*
X177550000Y-101740000D01*
X176790000Y-99520000D02*
X176030000Y-99520000D01*
X176030000Y-99520000D02*
X176030000Y-100630000D01*
X181295000Y-99520000D02*
X181295000Y-100322470D01*
%TO.C,J204*%
X188130000Y-115775000D02*
X189460000Y-115775000D01*
X188130000Y-113115000D02*
X189460000Y-113115000D01*
X186735000Y-115775000D02*
X187495000Y-115775000D01*
X189460000Y-114752530D02*
X189460000Y-115775000D01*
X186735000Y-114445000D02*
X186735000Y-115775000D01*
X188130000Y-113115000D02*
X188130000Y-113685000D01*
X188130000Y-115205000D02*
X188130000Y-115775000D01*
X189460000Y-113115000D02*
X189460000Y-114137470D01*
%TO.C,P201*%
X177320000Y-75950000D02*
X177320000Y-77280000D01*
X179920000Y-75950000D02*
X185060000Y-75950000D01*
X177320000Y-81150000D02*
X185060000Y-81150000D01*
X177320000Y-78550000D02*
X177320000Y-81150000D01*
X179920000Y-78550000D02*
X177320000Y-78550000D01*
X178650000Y-75950000D02*
X177320000Y-75950000D01*
X185060000Y-75950000D02*
X185060000Y-81150000D01*
X179920000Y-75950000D02*
X179920000Y-78550000D01*
D10*
X181330227Y-75490000D02*
G75*
G03*
X181330227Y-75490000I-220227J0D01*
G01*
D13*
%TO.C,U205*%
X195180000Y-101270000D02*
X165400000Y-101270000D01*
X172800000Y-85880000D02*
X187800000Y-85880000D01*
X193300000Y-111280000D02*
X198350000Y-111280000D01*
X165400000Y-101270000D02*
X165400000Y-90880000D01*
X198350000Y-111280000D02*
X198350000Y-85880000D01*
X165400000Y-90880000D02*
X195180000Y-90880000D01*
X162110000Y-111280000D02*
X166800000Y-111280000D01*
X195180000Y-90880000D02*
X195180000Y-101270000D01*
X193300000Y-85880000D02*
X198350000Y-85880000D01*
X162110000Y-85880000D02*
X162110000Y-111280000D01*
X167550000Y-84630000D02*
X167550000Y-85880000D01*
X167550000Y-84630000D02*
X169800000Y-84630000D01*
X166800000Y-85880000D02*
X162110000Y-85880000D01*
%TO.C,JP107*%
X88570000Y-111550000D02*
X89170000Y-111550000D01*
X87870000Y-109450000D02*
X87870000Y-110850000D01*
X89870000Y-110850000D02*
X89870000Y-109450000D01*
X89170000Y-108750000D02*
X88570000Y-108750000D01*
X89170000Y-111550000D02*
G75*
G03*
X89870000Y-110850000I1J699999D01*
G01*
X88570000Y-108750000D02*
G75*
G03*
X87870000Y-109450000I0J-700000D01*
G01*
X87870000Y-110850000D02*
G75*
G03*
X88570000Y-111550000I699999J-1D01*
G01*
X89870000Y-109450000D02*
G75*
G03*
X89170000Y-108750000I-700000J0D01*
G01*
%TO.C,J203*%
X188050000Y-76645000D02*
X188050000Y-77215000D01*
X188050000Y-78735000D02*
X188050000Y-79305000D01*
X189380000Y-78282530D02*
X189380000Y-79305000D01*
X186655000Y-77975000D02*
X186655000Y-79305000D01*
X188050000Y-76645000D02*
X189380000Y-76645000D01*
X189380000Y-76645000D02*
X189380000Y-77667470D01*
X188050000Y-79305000D02*
X189380000Y-79305000D01*
X186655000Y-79305000D02*
X187415000Y-79305000D01*
%TO.C,J209*%
X189935000Y-82572470D02*
X189935000Y-81770000D01*
X194440000Y-83990000D02*
X195200000Y-83990000D01*
X193680000Y-82316529D02*
X193680000Y-81770000D01*
X193680000Y-83990000D02*
X189935000Y-83990000D01*
X193680000Y-81770000D02*
X189935000Y-81770000D01*
X189935000Y-83990000D02*
X189935000Y-83187530D01*
X193680000Y-83990000D02*
X193680000Y-83443471D01*
X195200000Y-83990000D02*
X195200000Y-82880000D01*
%TO.C,JP104*%
X91240000Y-91680000D02*
X91240000Y-91080000D01*
X90540000Y-90380000D02*
X89140000Y-90380000D01*
X88440000Y-91080000D02*
X88440000Y-91680000D01*
X89140000Y-92380000D02*
X90540000Y-92380000D01*
X89140000Y-90380000D02*
G75*
G03*
X88440000Y-91080000I0J-700000D01*
G01*
X88440000Y-91680000D02*
G75*
G03*
X89140000Y-92380000I700000J0D01*
G01*
X90540000Y-92380000D02*
G75*
G03*
X91240000Y-91680000I1J699999D01*
G01*
X91240000Y-91080000D02*
G75*
G03*
X90540000Y-90380000I-699999J1D01*
G01*
%TO.C,D204*%
X193335000Y-115387500D02*
X190650000Y-115387500D01*
D10*
X192200000Y-115697500D02*
X192200000Y-117217500D01*
D13*
X190650000Y-113467500D02*
X193335000Y-113467500D01*
D10*
X193040000Y-116387500D02*
X190080000Y-116387500D01*
D13*
X193335000Y-113467500D02*
X193335000Y-115387500D01*
G36*
X192172802Y-116402993D02*
G01*
X191040000Y-117267500D01*
X191030000Y-115687500D01*
X192172802Y-116402993D01*
G37*
D10*
X192172802Y-116402993D02*
X191040000Y-117267500D01*
X191030000Y-115687500D01*
X192172802Y-116402993D01*
D13*
%TO.C,J107*%
X97760000Y-90530000D02*
X94560000Y-90530000D01*
X94560000Y-90530000D02*
X94560000Y-93730000D01*
X97760000Y-93730000D02*
X94560000Y-93730000D01*
X97760000Y-90530000D02*
X97760000Y-93730000D01*
%TO.C,J104*%
X82420000Y-105345000D02*
X79820000Y-105345000D01*
X81150000Y-102745000D02*
X79820000Y-102745000D01*
X82420000Y-102745000D02*
X82420000Y-105345000D01*
X79820000Y-107945000D02*
X90100000Y-107945000D01*
X82420000Y-102745000D02*
X90100000Y-102745000D01*
X90100000Y-102745000D02*
X90100000Y-107945000D01*
X79820000Y-102745000D02*
X79820000Y-104075000D01*
X79820000Y-105345000D02*
X79820000Y-107945000D01*
%TO.C,J106*%
X97790000Y-101770000D02*
X94590000Y-101770000D01*
X97790000Y-98570000D02*
X97790000Y-101770000D01*
X97790000Y-98570000D02*
X94590000Y-98570000D01*
X94590000Y-98570000D02*
X94590000Y-101770000D01*
D14*
%TO.C,J301*%
X204470000Y-93186000D02*
X199000000Y-93186000D01*
X210500000Y-93186000D02*
X207070000Y-93186000D01*
X210500000Y-99186000D02*
X209670000Y-99186000D01*
X202920000Y-99186000D02*
X207230000Y-99186000D01*
X199000000Y-99186000D02*
X200480000Y-99186000D01*
X199000000Y-93186000D02*
X199000000Y-99186000D01*
D15*
X205950000Y-90436000D02*
G75*
G03*
X205950000Y-90436000I-100000J0D01*
G01*
D13*
%TO.C,SW201*%
X106150000Y-73642000D02*
X107850000Y-73642000D01*
X104630000Y-74642000D02*
X104630000Y-75042000D01*
X107845000Y-73642000D02*
X107850000Y-73862000D01*
X104630000Y-78382000D02*
X109370000Y-78382000D01*
X106130000Y-74152000D02*
X106130000Y-74642000D01*
X104630000Y-74642000D02*
X109370000Y-74642000D01*
X109370000Y-78382000D02*
X109370000Y-77982000D01*
X106130000Y-73642000D02*
X106130000Y-73872000D01*
X104630000Y-78382000D02*
X104630000Y-77982000D01*
X107845000Y-74152000D02*
X107850000Y-74642000D01*
X109370000Y-74642000D02*
X109370000Y-75042000D01*
%TO.C,RV302*%
X158260000Y-96180000D02*
X158260000Y-93280000D01*
X161460000Y-96180000D02*
X161460000Y-93280000D01*
X158260000Y-93280000D02*
X158860000Y-93280000D01*
X161660000Y-97780000D02*
X160960000Y-97780000D01*
X160060000Y-97280000D02*
X159660000Y-97280000D01*
X161660000Y-97080000D02*
X161660000Y-97780000D01*
X161460000Y-93280000D02*
X160860000Y-93280000D01*
%TO.C,J219*%
X126165000Y-116337500D02*
X126165000Y-115007500D01*
X127905000Y-116347500D02*
X127905000Y-115017500D01*
X126165000Y-116322500D02*
X126255000Y-116337500D01*
X126165000Y-115007500D02*
X126707470Y-115007500D01*
X127895000Y-117732500D02*
X127895000Y-116972500D01*
X127775000Y-116337500D02*
X127905000Y-116347500D01*
X127015000Y-117732500D02*
X127895000Y-117732500D01*
X127322530Y-115007500D02*
X127905000Y-115017500D01*
%TO.C,J903*%
X156880000Y-105200000D02*
X153680000Y-105200000D01*
X156880000Y-102000000D02*
X153680000Y-102000000D01*
X156880000Y-102000000D02*
X156880000Y-105200000D01*
X153680000Y-102000000D02*
X153680000Y-105200000D01*
%TO.C,J218*%
X127560000Y-76120000D02*
X127575000Y-76030000D01*
X127585000Y-74380000D02*
X126255000Y-74380000D01*
X126245000Y-74962470D02*
X126255000Y-74380000D01*
X128970000Y-75270000D02*
X128970000Y-74390000D01*
X127575000Y-76120000D02*
X126245000Y-76120000D01*
X128970000Y-74390000D02*
X128210000Y-74390000D01*
X127575000Y-74510000D02*
X127585000Y-74380000D01*
X126245000Y-76120000D02*
X126245000Y-75577530D01*
%TO.C,TP201*%
X154295000Y-82850000D02*
X154295000Y-82280000D01*
X155690000Y-81520000D02*
X155690000Y-80190000D01*
X150425000Y-82850000D02*
X150425000Y-81827530D01*
X154295000Y-80760000D02*
X154295000Y-80190000D01*
X154295000Y-80190000D02*
X150425000Y-80190000D01*
X155690000Y-80190000D02*
X154930000Y-80190000D01*
X154295000Y-82850000D02*
X150425000Y-82850000D01*
X150425000Y-81212470D02*
X150425000Y-80190000D01*
%TO.C,SW202*%
X107870000Y-118740000D02*
X107870000Y-118540000D01*
X106170000Y-118735000D02*
X106170000Y-118550000D01*
X104630000Y-117740000D02*
X104630000Y-117340000D01*
X107870000Y-118740000D02*
X106170000Y-118740000D01*
X109370000Y-117740000D02*
X109370000Y-117340000D01*
X107860000Y-118240000D02*
X107860000Y-117770000D01*
X109370000Y-114000000D02*
X104630000Y-114000000D01*
X109370000Y-117740000D02*
X104630000Y-117740000D01*
X106190000Y-118250000D02*
X106180000Y-117760000D01*
X104630000Y-114000000D02*
X104630000Y-114400000D01*
X109370000Y-114000000D02*
X109370000Y-114400000D01*
%TO.C,TP901*%
X155986529Y-113320000D02*
X155440000Y-113320000D01*
X155440000Y-113320000D02*
X155440000Y-115795000D01*
X157660000Y-111800000D02*
X156550000Y-111800000D01*
X157660000Y-113320000D02*
X157660000Y-115795000D01*
X156242470Y-115795000D02*
X155440000Y-115795000D01*
X157660000Y-113320000D02*
X157113471Y-113320000D01*
X157660000Y-115795000D02*
X156857530Y-115795000D01*
X157660000Y-112560000D02*
X157660000Y-111800000D01*
D10*
%TO.C,T901*%
X118440000Y-99630000D02*
G75*
G03*
X119520000Y-102900000I2090228J-1122998D01*
G01*
X122939999Y-101225004D02*
G75*
G03*
X122690000Y-99590000I-2504798J453621D01*
G01*
X124930000Y-103520000D02*
G75*
G03*
X125180000Y-98610000I-4644905J2697867D01*
G01*
X124300000Y-97570000D02*
G75*
G03*
X117580252Y-104641063I-3723221J-3190237D01*
G01*
X121610000Y-105540000D02*
G75*
G03*
X123380000Y-104970000I-454204J4443582D01*
G01*
D13*
%TO.C,J102*%
X79820000Y-84365000D02*
X79820000Y-85695000D01*
X79820000Y-86965000D02*
X79820000Y-89565000D01*
X82420000Y-86965000D02*
X79820000Y-86965000D01*
X82420000Y-84365000D02*
X90100000Y-84365000D01*
X90100000Y-84365000D02*
X90100000Y-89565000D01*
X79820000Y-89565000D02*
X90100000Y-89565000D01*
X81150000Y-84365000D02*
X79820000Y-84365000D01*
X82420000Y-84365000D02*
X82420000Y-86965000D01*
%TO.C,RV101*%
X94560000Y-75270000D02*
X94560000Y-82330000D01*
X101160000Y-75270000D02*
X101160000Y-82330000D01*
X94560000Y-75270000D02*
X101160000Y-75270000D01*
X94560000Y-82330000D02*
X101160000Y-82330000D01*
%TO.C,BT201*%
X124625000Y-84535000D02*
X143755000Y-84535000D01*
X124625000Y-88215000D02*
X143755000Y-88215000D01*
X124625000Y-80415000D02*
X130185000Y-80415000D01*
X124625000Y-92335000D02*
X143755000Y-92335000D01*
X132255000Y-80415000D02*
X143755000Y-80415000D01*
%TO.C,RV901*%
X158420000Y-114810000D02*
X158420000Y-111910000D01*
X160220000Y-115910000D02*
X159820000Y-115910000D01*
X161620000Y-111910000D02*
X161020000Y-111910000D01*
X161820000Y-116410000D02*
X161120000Y-116410000D01*
X161620000Y-114810000D02*
X161620000Y-111910000D01*
X158420000Y-111910000D02*
X159020000Y-111910000D01*
X161820000Y-115710000D02*
X161820000Y-116410000D01*
%TD*%
M02*
