%TF.GenerationSoftware,KiCad,Pcbnew,(6.0.4-0)*%
%TF.CreationDate,2024-07-12T21:07:44-04:00*%
%TF.ProjectId,SignalSnagger,5369676e-616c-4536-9e61-676765722e6b,rev?*%
%TF.SameCoordinates,Original*%
%TF.FileFunction,Soldermask,Bot*%
%TF.FilePolarity,Negative*%
%FSLAX46Y46*%
G04 Gerber Fmt 4.6, Leading zero omitted, Abs format (unit mm)*
G04 Created by KiCad (PCBNEW (6.0.4-0)) date 2024-07-12 21:07:44*
%MOMM*%
%LPD*%
G01*
G04 APERTURE LIST*
G04 Aperture macros list*
%AMRoundRect*
0 Rectangle with rounded corners*
0 $1 Rounding radius*
0 $2 $3 $4 $5 $6 $7 $8 $9 X,Y pos of 4 corners*
0 Add a 4 corners polygon primitive as box body*
4,1,4,$2,$3,$4,$5,$6,$7,$8,$9,$2,$3,0*
0 Add four circle primitives for the rounded corners*
1,1,$1+$1,$2,$3*
1,1,$1+$1,$4,$5*
1,1,$1+$1,$6,$7*
1,1,$1+$1,$8,$9*
0 Add four rect primitives between the rounded corners*
20,1,$1+$1,$2,$3,$4,$5,0*
20,1,$1+$1,$4,$5,$6,$7,0*
20,1,$1+$1,$6,$7,$8,$9,0*
20,1,$1+$1,$8,$9,$2,$3,0*%
G04 Aperture macros list end*
%ADD10C,1.004000*%
%ADD11C,5.000000*%
%ADD12R,1.000000X1.000000*%
%ADD13O,1.000000X1.000000*%
%ADD14R,2.800000X2.800000*%
%ADD15C,1.000000*%
%ADD16C,2.800000*%
%ADD17R,1.270000X1.620000*%
%ADD18RoundRect,0.875000X0.875000X-0.875000X0.875000X0.875000X-0.875000X0.875000X-0.875000X-0.875000X0*%
%ADD19O,3.500000X3.500000*%
%ADD20R,2.000000X2.000000*%
%ADD21C,2.000000*%
%ADD22C,3.600000*%
%ADD23RoundRect,0.243750X0.243750X0.456250X-0.243750X0.456250X-0.243750X-0.456250X0.243750X-0.456250X0*%
%ADD24C,1.700000*%
%ADD25O,1.700000X1.700000*%
%ADD26RoundRect,0.425000X-0.425000X0.425000X-0.425000X-0.425000X0.425000X-0.425000X0.425000X0.425000X0*%
%ADD27C,1.500000*%
%ADD28R,1.500000X1.500000*%
%ADD29RoundRect,0.100000X1.400000X1.400000X-1.400000X1.400000X-1.400000X-1.400000X1.400000X-1.400000X0*%
%ADD30R,1.700000X1.700000*%
%ADD31RoundRect,0.102000X-0.900000X1.300000X-0.900000X-1.300000X0.900000X-1.300000X0.900000X1.300000X0*%
%ADD32RoundRect,0.102000X-0.900000X1.375000X-0.900000X-1.375000X0.900000X-1.375000X0.900000X1.375000X0*%
%ADD33R,1.200000X1.000000*%
%ADD34RoundRect,0.200000X0.500000X-0.500000X0.500000X0.500000X-0.500000X0.500000X-0.500000X-0.500000X0*%
%ADD35O,1.400000X1.400000*%
%ADD36C,0.500000*%
%ADD37C,1.600000*%
%ADD38C,1.300000*%
%ADD39C,4.400000*%
%ADD40RoundRect,0.250002X-1.699998X1.699998X-1.699998X-1.699998X1.699998X-1.699998X1.699998X1.699998X0*%
%ADD41C,3.900000*%
G04 APERTURE END LIST*
D10*
%TO.C,J301*%
X208502000Y-96186000D02*
G75*
G03*
X208502000Y-96186000I-502000J0D01*
G01*
X202502000Y-96186000D02*
G75*
G03*
X202502000Y-96186000I-502000J0D01*
G01*
%TD*%
D11*
%TO.C,REF\u002A\u002A*%
X81964000Y-113665000D03*
%TD*%
D12*
%TO.C,RV102*%
X109372500Y-104300000D03*
D13*
X110642500Y-104300000D03*
X111912500Y-104300000D03*
%TD*%
D11*
%TO.C,REF\u002A\u002A*%
X205917800Y-113665000D03*
%TD*%
%TO.C,REF\u002A\u002A*%
X81964000Y-78711000D03*
%TD*%
D14*
%TO.C,J304*%
X109760000Y-84150000D03*
%TD*%
D15*
%TO.C,JP105*%
X96560000Y-87040000D03*
X95260000Y-87040000D03*
%TD*%
%TO.C,JP202*%
X131340000Y-78330000D03*
X131340000Y-80330000D03*
%TD*%
D11*
%TO.C,REF\u002A\u002A*%
X205917800Y-78711000D03*
%TD*%
D16*
%TO.C,J105*%
X96170000Y-96190000D03*
%TD*%
D17*
%TO.C,T101*%
X119230000Y-98590000D03*
X121770000Y-98590000D03*
X124310000Y-98590000D03*
X124310000Y-104440000D03*
X121770000Y-104440000D03*
X119230000Y-104440000D03*
%TD*%
D18*
%TO.C,C103*%
X101110000Y-111590000D03*
X93310000Y-111590000D03*
D19*
X97210000Y-105790000D03*
%TD*%
D15*
%TO.C,JP103*%
X88800000Y-81510000D03*
X88800000Y-82810000D03*
%TD*%
D12*
%TO.C,TP301*%
X154690000Y-93900000D03*
D13*
X154690000Y-95170000D03*
X154690000Y-96440000D03*
%TD*%
D16*
%TO.C,J108*%
X81915000Y-96186000D03*
%TD*%
D15*
%TO.C,JP106*%
X90940000Y-100940000D03*
X89640000Y-100940000D03*
%TD*%
D16*
%TO.C,J302*%
X155190000Y-101490000D03*
%TD*%
D20*
%TO.C,SW203*%
X114500000Y-93686000D03*
D21*
X114500000Y-98686000D03*
X114500000Y-96186000D03*
D22*
X107000000Y-101986000D03*
X107000000Y-90386000D03*
D21*
X100000000Y-93686000D03*
X100000000Y-98686000D03*
%TD*%
D23*
%TO.C,D203*%
X192567500Y-77990000D03*
X190692500Y-77990000D03*
%TD*%
D12*
%TO.C,J208*%
X176790000Y-100630000D03*
D13*
X178060000Y-100630000D03*
X179330000Y-100630000D03*
X180600000Y-100630000D03*
%TD*%
D12*
%TO.C,J204*%
X187495000Y-114445000D03*
D13*
X188765000Y-114445000D03*
%TD*%
D24*
%TO.C,P201*%
X178520000Y-77620000D03*
D25*
X178520000Y-80360000D03*
X181160000Y-77720000D03*
X181160000Y-80260000D03*
X183800000Y-77620000D03*
D26*
X183800000Y-80360000D03*
%TD*%
D27*
%TO.C,U205*%
X168800000Y-85880000D03*
X171340000Y-85880000D03*
X189120000Y-85880000D03*
X191660000Y-85880000D03*
X191660000Y-111280000D03*
D28*
X189120000Y-111280000D03*
D27*
X186580000Y-111280000D03*
D28*
X184040000Y-111280000D03*
D27*
X181500000Y-111280000D03*
X178960000Y-111280000D03*
X176420000Y-111280000D03*
D28*
X173880000Y-111280000D03*
X171340000Y-111280000D03*
D27*
X168800000Y-111280000D03*
%TD*%
D15*
%TO.C,JP107*%
X88870000Y-110800000D03*
X88870000Y-109500000D03*
%TD*%
D12*
%TO.C,J203*%
X187415000Y-77975000D03*
D13*
X188685000Y-77975000D03*
%TD*%
D12*
%TO.C,J209*%
X194440000Y-82880000D03*
D13*
X193170000Y-82880000D03*
X191900000Y-82880000D03*
X190630000Y-82880000D03*
%TD*%
D15*
%TO.C,JP104*%
X90490000Y-91380000D03*
X89190000Y-91380000D03*
%TD*%
D23*
%TO.C,D204*%
X192587500Y-114427500D03*
X190712500Y-114427500D03*
%TD*%
D29*
%TO.C,J107*%
X96160000Y-92130000D03*
%TD*%
D24*
%TO.C,J104*%
X81150000Y-104075000D03*
D25*
X81150000Y-106615000D03*
D30*
X83690000Y-104075000D03*
D25*
X83690000Y-106615000D03*
X86230000Y-104075000D03*
X86230000Y-106615000D03*
X88770000Y-104075000D03*
X88770000Y-106615000D03*
%TD*%
D14*
%TO.C,J106*%
X96190000Y-100170000D03*
%TD*%
D27*
%TO.C,J301*%
X202000000Y-96186000D03*
X208000000Y-96186000D03*
D31*
X205700000Y-92736000D03*
D32*
X201700000Y-99636000D03*
X208500000Y-99636000D03*
%TD*%
D33*
%TO.C,SW201*%
X104200000Y-79162000D03*
X109800000Y-79162000D03*
X104200000Y-77462000D03*
X109800000Y-77462000D03*
%TD*%
D12*
%TO.C,J219*%
X127015000Y-116972500D03*
D13*
X127015000Y-115702500D03*
%TD*%
D16*
%TO.C,J903*%
X155190000Y-105190000D03*
%TD*%
D34*
%TO.C,J218*%
X128210000Y-75270000D03*
D35*
X126940000Y-75270000D03*
%TD*%
D12*
%TO.C,TP201*%
X154930000Y-81520000D03*
D13*
X153660000Y-81520000D03*
X152390000Y-81520000D03*
X151120000Y-81520000D03*
%TD*%
D33*
%TO.C,SW202*%
X104200000Y-113220000D03*
X109800000Y-113220000D03*
X104200000Y-114920000D03*
X109800000Y-114920000D03*
%TD*%
D12*
%TO.C,TP901*%
X156550000Y-112560000D03*
D13*
X156550000Y-113830000D03*
X156550000Y-115100000D03*
%TD*%
D36*
%TO.C,T901*%
X120510000Y-98590000D03*
D37*
X122380000Y-102210000D03*
X119060000Y-107200000D03*
X120860000Y-100950000D03*
X117740000Y-105800000D03*
X120570000Y-106110000D03*
X120520000Y-102830000D03*
%TD*%
D24*
%TO.C,J102*%
X81150000Y-85695000D03*
D25*
X81150000Y-88235000D03*
X83690000Y-85695000D03*
D30*
X83690000Y-88235000D03*
D25*
X86230000Y-85695000D03*
X86230000Y-88235000D03*
X88770000Y-85695000D03*
X88770000Y-88235000D03*
%TD*%
D38*
%TO.C,RV101*%
X100400000Y-78800000D03*
X97860000Y-81340000D03*
X95320000Y-78800000D03*
%TD*%
D39*
%TO.C,BT201*%
X145815000Y-90275000D03*
X145815000Y-82475000D03*
D40*
X122415000Y-82475000D03*
D41*
X122415000Y-90275000D03*
%TD*%
M02*
