%TF.GenerationSoftware,KiCad,Pcbnew,(6.0.4-0)*%
%TF.CreationDate,2024-06-15T12:02:38-04:00*%
%TF.ProjectId,SignalSnagger,5369676e-616c-4536-9e61-676765722e6b,rev?*%
%TF.SameCoordinates,Original*%
%TF.FileFunction,Paste,Top*%
%TF.FilePolarity,Positive*%
%FSLAX46Y46*%
G04 Gerber Fmt 4.6, Leading zero omitted, Abs format (unit mm)*
G04 Created by KiCad (PCBNEW (6.0.4-0)) date 2024-06-15 12:02:38*
%MOMM*%
%LPD*%
G01*
G04 APERTURE LIST*
G04 Aperture macros list*
%AMRoundRect*
0 Rectangle with rounded corners*
0 $1 Rounding radius*
0 $2 $3 $4 $5 $6 $7 $8 $9 X,Y pos of 4 corners*
0 Add a 4 corners polygon primitive as box body*
4,1,4,$2,$3,$4,$5,$6,$7,$8,$9,$2,$3,0*
0 Add four circle primitives for the rounded corners*
1,1,$1+$1,$2,$3*
1,1,$1+$1,$4,$5*
1,1,$1+$1,$6,$7*
1,1,$1+$1,$8,$9*
0 Add four rect primitives between the rounded corners*
20,1,$1+$1,$2,$3,$4,$5,0*
20,1,$1+$1,$4,$5,$6,$7,0*
20,1,$1+$1,$6,$7,$8,$9,0*
20,1,$1+$1,$8,$9,$2,$3,0*%
%AMRotRect*
0 Rectangle, with rotation*
0 The origin of the aperture is its center*
0 $1 length*
0 $2 width*
0 $3 Rotation angle, in degrees counterclockwise*
0 Add horizontal line*
21,1,$1,$2,0,0,$3*%
G04 Aperture macros list end*
%ADD10R,2.000000X1.100000*%
%ADD11R,0.800000X0.800000*%
%ADD12RoundRect,0.225000X0.250000X-0.225000X0.250000X0.225000X-0.250000X0.225000X-0.250000X-0.225000X0*%
%ADD13RoundRect,0.225000X-0.250000X0.225000X-0.250000X-0.225000X0.250000X-0.225000X0.250000X0.225000X0*%
%ADD14R,0.600000X0.700000*%
%ADD15RoundRect,0.225000X-0.225000X-0.250000X0.225000X-0.250000X0.225000X0.250000X-0.225000X0.250000X0*%
%ADD16RoundRect,0.200000X0.275000X-0.200000X0.275000X0.200000X-0.275000X0.200000X-0.275000X-0.200000X0*%
%ADD17RoundRect,0.200000X-0.275000X0.200000X-0.275000X-0.200000X0.275000X-0.200000X0.275000X0.200000X0*%
%ADD18RoundRect,0.250000X-0.262500X-0.450000X0.262500X-0.450000X0.262500X0.450000X-0.262500X0.450000X0*%
%ADD19RoundRect,0.200000X-0.200000X-0.275000X0.200000X-0.275000X0.200000X0.275000X-0.200000X0.275000X0*%
%ADD20RoundRect,0.200000X0.200000X0.275000X-0.200000X0.275000X-0.200000X-0.275000X0.200000X-0.275000X0*%
%ADD21RoundRect,0.225000X0.225000X0.250000X-0.225000X0.250000X-0.225000X-0.250000X0.225000X-0.250000X0*%
%ADD22RoundRect,0.250000X-0.325000X-1.100000X0.325000X-1.100000X0.325000X1.100000X-0.325000X1.100000X0*%
%ADD23R,0.300000X1.400000*%
%ADD24RoundRect,0.150000X-0.625000X-0.150000X0.625000X-0.150000X0.625000X0.150000X-0.625000X0.150000X0*%
%ADD25RoundRect,0.250000X-0.250000X-0.475000X0.250000X-0.475000X0.250000X0.475000X-0.250000X0.475000X0*%
%ADD26RoundRect,0.150000X0.512500X0.150000X-0.512500X0.150000X-0.512500X-0.150000X0.512500X-0.150000X0*%
%ADD27RoundRect,0.150000X0.150000X-0.512500X0.150000X0.512500X-0.150000X0.512500X-0.150000X-0.512500X0*%
%ADD28R,0.510000X0.700000*%
%ADD29RoundRect,0.150000X-0.150000X0.512500X-0.150000X-0.512500X0.150000X-0.512500X0.150000X0.512500X0*%
%ADD30RoundRect,0.150000X0.150000X-0.587500X0.150000X0.587500X-0.150000X0.587500X-0.150000X-0.587500X0*%
%ADD31RoundRect,0.150000X0.150000X-0.625000X0.150000X0.625000X-0.150000X0.625000X-0.150000X-0.625000X0*%
%ADD32R,0.900000X1.000000*%
%ADD33RoundRect,0.250000X0.325000X1.100000X-0.325000X1.100000X-0.325000X-1.100000X0.325000X-1.100000X0*%
%ADD34R,1.000000X0.400000*%
%ADD35RoundRect,0.150000X-0.512500X-0.150000X0.512500X-0.150000X0.512500X0.150000X-0.512500X0.150000X0*%
%ADD36RoundRect,0.075000X0.075000X-0.662500X0.075000X0.662500X-0.075000X0.662500X-0.075000X-0.662500X0*%
%ADD37RoundRect,0.075000X0.662500X-0.075000X0.662500X0.075000X-0.662500X0.075000X-0.662500X-0.075000X0*%
%ADD38R,0.450000X0.700000*%
%ADD39RoundRect,0.218750X0.218750X0.256250X-0.218750X0.256250X-0.218750X-0.256250X0.218750X-0.256250X0*%
%ADD40R,0.900000X0.700000*%
%ADD41RoundRect,0.218750X-0.218750X-0.256250X0.218750X-0.256250X0.218750X0.256250X-0.218750X0.256250X0*%
%ADD42R,1.200000X1.200000*%
%ADD43R,1.600000X1.500000*%
%ADD44R,1.000000X1.050000*%
%ADD45RoundRect,0.250000X1.100000X-0.325000X1.100000X0.325000X-1.100000X0.325000X-1.100000X-0.325000X0*%
%ADD46RoundRect,0.150000X-0.587500X-0.150000X0.587500X-0.150000X0.587500X0.150000X-0.587500X0.150000X0*%
%ADD47R,0.700000X0.600000*%
%ADD48RoundRect,0.150000X-0.150000X0.587500X-0.150000X-0.587500X0.150000X-0.587500X0.150000X0.587500X0*%
%ADD49RotRect,0.750000X3.000000X95.000000*%
%ADD50RotRect,0.750000X3.000000X80.000000*%
%ADD51RotRect,0.750000X3.000000X70.000000*%
%ADD52RotRect,0.750000X3.000000X60.000000*%
G04 APERTURE END LIST*
D10*
%TO.C,D301*%
X165450000Y-103250000D03*
D11*
X163550000Y-103250000D03*
%TD*%
D12*
%TO.C,C309*%
X157940000Y-100230000D03*
X157940000Y-98680000D03*
%TD*%
D13*
%TO.C,C924*%
X137050000Y-112375000D03*
X137050000Y-113925000D03*
%TD*%
D14*
%TO.C,D202*%
X126450000Y-85610000D03*
X125050000Y-85610000D03*
%TD*%
D15*
%TO.C,C902*%
X150525000Y-110390000D03*
X152075000Y-110390000D03*
%TD*%
D16*
%TO.C,R308*%
X161060000Y-101890000D03*
X161060000Y-100240000D03*
%TD*%
D13*
%TO.C,C114*%
X134450000Y-106415000D03*
X134450000Y-107965000D03*
%TD*%
D15*
%TO.C,C310*%
X148420000Y-104260000D03*
X149970000Y-104260000D03*
%TD*%
D16*
%TO.C,R214*%
X126210000Y-92395000D03*
X126210000Y-90745000D03*
%TD*%
D17*
%TO.C,R107*%
X104530000Y-110385000D03*
X104530000Y-112035000D03*
%TD*%
D18*
%TO.C,R320*%
X205797500Y-83560000D03*
X207622500Y-83560000D03*
%TD*%
D12*
%TO.C,C218*%
X167762500Y-82855000D03*
X167762500Y-81305000D03*
%TD*%
D19*
%TO.C,R307*%
X159505000Y-103375000D03*
X161155000Y-103375000D03*
%TD*%
D20*
%TO.C,R109*%
X125635000Y-103360000D03*
X123985000Y-103360000D03*
%TD*%
D21*
%TO.C,C215*%
X186275000Y-109190000D03*
X184725000Y-109190000D03*
%TD*%
D20*
%TO.C,R901*%
X156765000Y-109400000D03*
X155115000Y-109400000D03*
%TD*%
D19*
%TO.C,R919*%
X151865000Y-114620000D03*
X153515000Y-114620000D03*
%TD*%
D12*
%TO.C,C213*%
X180917901Y-86389599D03*
X180917901Y-84839599D03*
%TD*%
D22*
%TO.C,C211*%
X162795000Y-77780000D03*
X165745000Y-77780000D03*
%TD*%
D16*
%TO.C,R310*%
X144330000Y-98175000D03*
X144330000Y-96525000D03*
%TD*%
D13*
%TO.C,C312*%
X202000000Y-82805000D03*
X202000000Y-84355000D03*
%TD*%
D15*
%TO.C,C313*%
X157955000Y-101795000D03*
X159505000Y-101795000D03*
%TD*%
D19*
%TO.C,R930*%
X156925000Y-107800000D03*
X158575000Y-107800000D03*
%TD*%
%TO.C,R931*%
X159995000Y-107760000D03*
X161645000Y-107760000D03*
%TD*%
D17*
%TO.C,R110*%
X109420000Y-111862500D03*
X109420000Y-113512500D03*
%TD*%
D23*
%TO.C,U202*%
X130435000Y-95650000D03*
X129935000Y-95650000D03*
X129435000Y-95650000D03*
X128935000Y-95650000D03*
X128435000Y-95650000D03*
X128435000Y-100050000D03*
X128935000Y-100050000D03*
X129435000Y-100050000D03*
X129935000Y-100050000D03*
X130435000Y-100050000D03*
%TD*%
D24*
%TO.C,U304*%
X198460000Y-85955000D03*
X198460000Y-87225000D03*
X198460000Y-88495000D03*
X198460000Y-89765000D03*
X203860000Y-89765000D03*
X203860000Y-88495000D03*
X203860000Y-87225000D03*
X203860000Y-85955000D03*
%TD*%
D21*
%TO.C,C122*%
X142265000Y-106810000D03*
X140715000Y-106810000D03*
%TD*%
D17*
%TO.C,R911*%
X209230000Y-105505000D03*
X209230000Y-107155000D03*
%TD*%
D19*
%TO.C,R907*%
X197275000Y-108070000D03*
X198925000Y-108070000D03*
%TD*%
D21*
%TO.C,C207*%
X131465000Y-93870000D03*
X129915000Y-93870000D03*
%TD*%
D25*
%TO.C,C912*%
X207330000Y-100630000D03*
X209230000Y-100630000D03*
%TD*%
D19*
%TO.C,R304*%
X145895000Y-98310000D03*
X147545000Y-98310000D03*
%TD*%
D15*
%TO.C,C126*%
X118865000Y-111680000D03*
X120415000Y-111680000D03*
%TD*%
D12*
%TO.C,C901*%
X147740000Y-112155000D03*
X147740000Y-110605000D03*
%TD*%
D13*
%TO.C,C301*%
X163350000Y-95185000D03*
X163350000Y-96735000D03*
%TD*%
D12*
%TO.C,C209*%
X161660000Y-81795000D03*
X161660000Y-80245000D03*
%TD*%
D15*
%TO.C,C224*%
X136915000Y-87780000D03*
X138465000Y-87780000D03*
%TD*%
%TO.C,C112*%
X132300000Y-100210000D03*
X133850000Y-100210000D03*
%TD*%
D26*
%TO.C,U101*%
X113497500Y-113917500D03*
X113497500Y-112967500D03*
X113497500Y-112017500D03*
X111222500Y-112017500D03*
X111222500Y-113917500D03*
%TD*%
D16*
%TO.C,R121*%
X107800000Y-113505000D03*
X107800000Y-111855000D03*
%TD*%
D15*
%TO.C,C101*%
X84650000Y-96184000D03*
X86200000Y-96184000D03*
%TD*%
D27*
%TO.C,U103*%
X122780000Y-112577500D03*
X123730000Y-112577500D03*
X124680000Y-112577500D03*
X124680000Y-110302500D03*
X122780000Y-110302500D03*
%TD*%
D12*
%TO.C,C212*%
X185637901Y-96339599D03*
X185637901Y-94789599D03*
%TD*%
D13*
%TO.C,C104*%
X97880000Y-110295000D03*
X97880000Y-111845000D03*
%TD*%
D15*
%TO.C,C910*%
X200595000Y-105660000D03*
X202145000Y-105660000D03*
%TD*%
D14*
%TO.C,D206*%
X132030000Y-76060000D03*
X133430000Y-76060000D03*
%TD*%
D12*
%TO.C,C322*%
X209310000Y-86845000D03*
X209310000Y-85295000D03*
%TD*%
D21*
%TO.C,C918*%
X129515000Y-108730000D03*
X127965000Y-108730000D03*
%TD*%
D19*
%TO.C,R101*%
X87875000Y-96184000D03*
X89525000Y-96184000D03*
%TD*%
D28*
%TO.C,U105*%
X91550000Y-105270000D03*
X92500000Y-105270000D03*
X93450000Y-105270000D03*
X93450000Y-102950000D03*
X92500000Y-102950000D03*
X91550000Y-102950000D03*
%TD*%
D24*
%TO.C,U302*%
X139410000Y-101395000D03*
X139410000Y-102665000D03*
X139410000Y-103935000D03*
X139410000Y-105205000D03*
X144810000Y-105205000D03*
X144810000Y-103935000D03*
X144810000Y-102665000D03*
X144810000Y-101395000D03*
%TD*%
D19*
%TO.C,R311*%
X146765000Y-94920000D03*
X148415000Y-94920000D03*
%TD*%
%TO.C,R111*%
X115185000Y-114350000D03*
X116835000Y-114350000D03*
%TD*%
D16*
%TO.C,R103*%
X100730000Y-107455000D03*
X100730000Y-105805000D03*
%TD*%
D15*
%TO.C,C202*%
X171805000Y-92280000D03*
X173355000Y-92280000D03*
%TD*%
D24*
%TO.C,U901*%
X138940000Y-109415000D03*
X138940000Y-110685000D03*
X138940000Y-111955000D03*
X138940000Y-113225000D03*
X144340000Y-113225000D03*
X144340000Y-111955000D03*
X144340000Y-110685000D03*
X144340000Y-109415000D03*
%TD*%
D19*
%TO.C,R916*%
X153760000Y-107840000D03*
X155410000Y-107840000D03*
%TD*%
D16*
%TO.C,R309*%
X169010000Y-99570000D03*
X169010000Y-97920000D03*
%TD*%
D17*
%TO.C,R112*%
X135980000Y-104775000D03*
X135980000Y-106425000D03*
%TD*%
D29*
%TO.C,U207*%
X141910000Y-85432500D03*
X140960000Y-85432500D03*
X140010000Y-85432500D03*
X140010000Y-87707500D03*
X141910000Y-87707500D03*
%TD*%
D19*
%TO.C,R117*%
X142675000Y-99740000D03*
X144325000Y-99740000D03*
%TD*%
D30*
%TO.C,Q101*%
X98300000Y-84717500D03*
X100200000Y-84717500D03*
X99250000Y-82842500D03*
%TD*%
D31*
%TO.C,U902*%
X203795000Y-109090000D03*
X205065000Y-109090000D03*
X206335000Y-109090000D03*
X207605000Y-109090000D03*
X207605000Y-103690000D03*
X206335000Y-103690000D03*
X205065000Y-103690000D03*
X203795000Y-103690000D03*
%TD*%
D13*
%TO.C,C319*%
X196670000Y-88535000D03*
X196670000Y-90085000D03*
%TD*%
D28*
%TO.C,U104*%
X93360000Y-87080000D03*
X92410000Y-87080000D03*
X91460000Y-87080000D03*
X91460000Y-89400000D03*
X92410000Y-89400000D03*
X93360000Y-89400000D03*
%TD*%
D16*
%TO.C,R213*%
X169312500Y-82915000D03*
X169312500Y-81265000D03*
%TD*%
D12*
%TO.C,C217*%
X170842500Y-80745000D03*
X170842500Y-79195000D03*
%TD*%
D16*
%TO.C,R215*%
X123710000Y-87270000D03*
X123710000Y-85620000D03*
%TD*%
D13*
%TO.C,C220*%
X137370000Y-82395000D03*
X137370000Y-83945000D03*
%TD*%
D20*
%TO.C,R207*%
X153975000Y-78960000D03*
X152325000Y-78960000D03*
%TD*%
D16*
%TO.C,R910*%
X200620000Y-110505000D03*
X200620000Y-108855000D03*
%TD*%
D15*
%TO.C,C225*%
X140785000Y-89420000D03*
X142335000Y-89420000D03*
%TD*%
D27*
%TO.C,U106*%
X115370000Y-112457500D03*
X116320000Y-112457500D03*
X117270000Y-112457500D03*
X117270000Y-110182500D03*
X116320000Y-110182500D03*
X115370000Y-110182500D03*
%TD*%
D16*
%TO.C,R915*%
X134490000Y-112305000D03*
X134490000Y-110655000D03*
%TD*%
D12*
%TO.C,C321*%
X198580000Y-84375000D03*
X198580000Y-82825000D03*
%TD*%
D19*
%TO.C,R209*%
X184212901Y-88054599D03*
X185862901Y-88054599D03*
%TD*%
D32*
%TO.C,X202*%
X136000000Y-96510000D03*
X136000000Y-94210000D03*
X134300000Y-94210000D03*
X134300000Y-96510000D03*
%TD*%
D33*
%TO.C,C907*%
X202025000Y-101110000D03*
X199075000Y-101110000D03*
%TD*%
D15*
%TO.C,C117*%
X146755000Y-100880000D03*
X148305000Y-100880000D03*
%TD*%
D21*
%TO.C,C906*%
X202165000Y-107220000D03*
X200615000Y-107220000D03*
%TD*%
D34*
%TO.C,U102*%
X127105000Y-101710000D03*
X127105000Y-102360000D03*
X127105000Y-103010000D03*
X127105000Y-103660000D03*
X127105000Y-104310000D03*
X127105000Y-104960000D03*
X127105000Y-105610000D03*
X127105000Y-106260000D03*
X132905000Y-106260000D03*
X132905000Y-105610000D03*
X132905000Y-104960000D03*
X132905000Y-104310000D03*
X132905000Y-103660000D03*
X132905000Y-103010000D03*
X132905000Y-102360000D03*
X132905000Y-101710000D03*
%TD*%
D20*
%TO.C,R201*%
X130705000Y-87150000D03*
X129055000Y-87150000D03*
%TD*%
D18*
%TO.C,R909*%
X197057500Y-103770000D03*
X198882500Y-103770000D03*
%TD*%
D13*
%TO.C,C116*%
X135940000Y-101395000D03*
X135940000Y-102945000D03*
%TD*%
D21*
%TO.C,C102*%
X95755000Y-82400000D03*
X94205000Y-82400000D03*
%TD*%
D12*
%TO.C,C106*%
X116420000Y-104055000D03*
X116420000Y-102505000D03*
%TD*%
D35*
%TO.C,U206*%
X135982500Y-89330000D03*
X135982500Y-90280000D03*
X135982500Y-91230000D03*
X138257500Y-91230000D03*
X138257500Y-89330000D03*
%TD*%
D20*
%TO.C,R105*%
X106255000Y-105340000D03*
X104605000Y-105340000D03*
%TD*%
D36*
%TO.C,U201*%
X176927901Y-96697099D03*
X177427901Y-96697099D03*
X177927901Y-96697099D03*
X178427901Y-96697099D03*
X178927901Y-96697099D03*
X179427901Y-96697099D03*
X179927901Y-96697099D03*
X180427901Y-96697099D03*
X180927901Y-96697099D03*
X181427901Y-96697099D03*
X181927901Y-96697099D03*
X182427901Y-96697099D03*
D37*
X183840401Y-95284599D03*
X183840401Y-94784599D03*
X183840401Y-94284599D03*
X183840401Y-93784599D03*
X183840401Y-93284599D03*
X183840401Y-92784599D03*
X183840401Y-92284599D03*
X183840401Y-91784599D03*
X183840401Y-91284599D03*
X183840401Y-90784599D03*
X183840401Y-90284599D03*
X183840401Y-89784599D03*
D36*
X182427901Y-88372099D03*
X181927901Y-88372099D03*
X181427901Y-88372099D03*
X180927901Y-88372099D03*
X180427901Y-88372099D03*
X179927901Y-88372099D03*
X179427901Y-88372099D03*
X178927901Y-88372099D03*
X178427901Y-88372099D03*
X177927901Y-88372099D03*
X177427901Y-88372099D03*
X176927901Y-88372099D03*
D37*
X175515401Y-89784599D03*
X175515401Y-90284599D03*
X175515401Y-90784599D03*
X175515401Y-91284599D03*
X175515401Y-91784599D03*
X175515401Y-92284599D03*
X175515401Y-92784599D03*
X175515401Y-93284599D03*
X175515401Y-93784599D03*
X175515401Y-94284599D03*
X175515401Y-94784599D03*
X175515401Y-95284599D03*
%TD*%
D15*
%TO.C,C903*%
X150535000Y-111970000D03*
X152085000Y-111970000D03*
%TD*%
%TO.C,C226*%
X140955000Y-83730000D03*
X142505000Y-83730000D03*
%TD*%
D21*
%TO.C,C324*%
X207345000Y-90070000D03*
X205795000Y-90070000D03*
%TD*%
D35*
%TO.C,U204*%
X163482500Y-80240000D03*
X163482500Y-81190000D03*
X163482500Y-82140000D03*
X165757500Y-82140000D03*
X165757500Y-80240000D03*
%TD*%
D16*
%TO.C,R313*%
X165920000Y-101345000D03*
X165920000Y-99695000D03*
%TD*%
D19*
%TO.C,R102*%
X94125000Y-84050000D03*
X95775000Y-84050000D03*
%TD*%
D17*
%TO.C,R212*%
X172392500Y-79165000D03*
X172392500Y-80815000D03*
%TD*%
D15*
%TO.C,C118*%
X91545000Y-106720000D03*
X93095000Y-106720000D03*
%TD*%
D38*
%TO.C,Q202*%
X126130000Y-89325000D03*
X127430000Y-89325000D03*
X126780000Y-87325000D03*
%TD*%
D21*
%TO.C,C909*%
X202015000Y-103560000D03*
X200465000Y-103560000D03*
%TD*%
D20*
%TO.C,R914*%
X132705000Y-108700000D03*
X131055000Y-108700000D03*
%TD*%
D39*
%TO.C,L201*%
X185535401Y-86354599D03*
X183960401Y-86354599D03*
%TD*%
D17*
%TO.C,R205*%
X193410000Y-107865000D03*
X193410000Y-109515000D03*
%TD*%
D16*
%TO.C,R301*%
X152400000Y-103065000D03*
X152400000Y-101415000D03*
%TD*%
D15*
%TO.C,C119*%
X118865000Y-113210000D03*
X120415000Y-113210000D03*
%TD*%
D21*
%TO.C,C201*%
X135495000Y-86620000D03*
X133945000Y-86620000D03*
%TD*%
D19*
%TO.C,R118*%
X98535000Y-86570000D03*
X100185000Y-86570000D03*
%TD*%
D16*
%TO.C,R322*%
X209300000Y-90185000D03*
X209300000Y-88535000D03*
%TD*%
D12*
%TO.C,C204*%
X126440000Y-84135000D03*
X126440000Y-82585000D03*
%TD*%
D20*
%TO.C,R122*%
X112865000Y-109350000D03*
X111215000Y-109350000D03*
%TD*%
D12*
%TO.C,C222*%
X134220000Y-90845000D03*
X134220000Y-89295000D03*
%TD*%
D27*
%TO.C,U203*%
X133910000Y-84877500D03*
X134860000Y-84877500D03*
X135810000Y-84877500D03*
X135810000Y-82602500D03*
X133910000Y-82602500D03*
%TD*%
D12*
%TO.C,C919*%
X132880000Y-112215000D03*
X132880000Y-110665000D03*
%TD*%
D40*
%TO.C,Q201*%
X129120000Y-88610000D03*
X129120000Y-89910000D03*
X131020000Y-89260000D03*
%TD*%
D16*
%TO.C,R903*%
X146140000Y-112200000D03*
X146140000Y-110550000D03*
%TD*%
D13*
%TO.C,C115*%
X126240000Y-110295000D03*
X126240000Y-111845000D03*
%TD*%
D41*
%TO.C,L101*%
X118862500Y-110090000D03*
X120437500Y-110090000D03*
%TD*%
D12*
%TO.C,C206*%
X132095000Y-97185000D03*
X132095000Y-95635000D03*
%TD*%
D13*
%TO.C,C203*%
X182457901Y-84839599D03*
X182457901Y-86389599D03*
%TD*%
D21*
%TO.C,C219*%
X165755000Y-83730000D03*
X164205000Y-83730000D03*
%TD*%
D42*
%TO.C,RV302*%
X158860000Y-96980000D03*
D43*
X159860000Y-93730000D03*
D42*
X160860000Y-96980000D03*
%TD*%
D13*
%TO.C,C314*%
X167450000Y-97960000D03*
X167450000Y-99510000D03*
%TD*%
D15*
%TO.C,C214*%
X187485000Y-88030000D03*
X189035000Y-88030000D03*
%TD*%
D21*
%TO.C,C110*%
X102275000Y-108910000D03*
X100725000Y-108910000D03*
%TD*%
D16*
%TO.C,R321*%
X198600000Y-81375000D03*
X198600000Y-79725000D03*
%TD*%
D19*
%TO.C,R918*%
X148775000Y-114640000D03*
X150425000Y-114640000D03*
%TD*%
D44*
%TO.C,X901*%
X176052901Y-83484599D03*
X176052901Y-86084599D03*
X177902901Y-86084599D03*
X177902901Y-83484599D03*
%TD*%
D15*
%TO.C,C221*%
X174465000Y-81420000D03*
X176015000Y-81420000D03*
%TD*%
D45*
%TO.C,C210*%
X131400000Y-85445000D03*
X131400000Y-82495000D03*
%TD*%
D21*
%TO.C,C108*%
X93335000Y-85660000D03*
X91785000Y-85660000D03*
%TD*%
D19*
%TO.C,R302*%
X152345000Y-99900000D03*
X153995000Y-99900000D03*
%TD*%
D15*
%TO.C,C311*%
X148390000Y-102660000D03*
X149940000Y-102660000D03*
%TD*%
D46*
%TO.C,Q103*%
X104092500Y-106910000D03*
X104092500Y-108810000D03*
X105967500Y-107860000D03*
%TD*%
D17*
%TO.C,R902*%
X153640000Y-110345000D03*
X153640000Y-111995000D03*
%TD*%
%TO.C,R113*%
X137510000Y-101345000D03*
X137510000Y-102995000D03*
%TD*%
D19*
%TO.C,R303*%
X164130000Y-93615000D03*
X165780000Y-93615000D03*
%TD*%
%TO.C,R120*%
X112155000Y-115710000D03*
X113805000Y-115710000D03*
%TD*%
D47*
%TO.C,D205*%
X128280000Y-80550000D03*
X128280000Y-81950000D03*
%TD*%
D25*
%TO.C,C325*%
X203080000Y-91880000D03*
X204980000Y-91880000D03*
%TD*%
D16*
%TO.C,R202*%
X132570000Y-90895000D03*
X132570000Y-89245000D03*
%TD*%
D20*
%TO.C,R206*%
X152745000Y-84150000D03*
X151095000Y-84150000D03*
%TD*%
D12*
%TO.C,C911*%
X209240000Y-103995000D03*
X209240000Y-102445000D03*
%TD*%
D45*
%TO.C,C320*%
X206650000Y-88385000D03*
X206650000Y-85435000D03*
%TD*%
D19*
%TO.C,R106*%
X113295000Y-103570000D03*
X114945000Y-103570000D03*
%TD*%
D15*
%TO.C,C923*%
X144165000Y-107820000D03*
X145715000Y-107820000D03*
%TD*%
D12*
%TO.C,C208*%
X126795000Y-98615000D03*
X126795000Y-97065000D03*
%TD*%
D15*
%TO.C,C920*%
X150725000Y-107850000D03*
X152275000Y-107850000D03*
%TD*%
D13*
%TO.C,C113*%
X127800000Y-110255000D03*
X127800000Y-111805000D03*
%TD*%
D48*
%TO.C,Q102*%
X109690000Y-108022500D03*
X107790000Y-108022500D03*
X108740000Y-109897500D03*
%TD*%
D19*
%TO.C,R203*%
X129455000Y-91350000D03*
X131105000Y-91350000D03*
%TD*%
D15*
%TO.C,C121*%
X139605000Y-99750000D03*
X141155000Y-99750000D03*
%TD*%
D21*
%TO.C,C205*%
X135760000Y-98660000D03*
X134210000Y-98660000D03*
%TD*%
D13*
%TO.C,C105*%
X102270000Y-105855000D03*
X102270000Y-107405000D03*
%TD*%
D15*
%TO.C,C111*%
X123365000Y-108570000D03*
X124915000Y-108570000D03*
%TD*%
D16*
%TO.C,R306*%
X146805000Y-104225000D03*
X146805000Y-102575000D03*
%TD*%
%TO.C,R204*%
X188690000Y-82125000D03*
X188690000Y-80475000D03*
%TD*%
D14*
%TO.C,D201*%
X127630000Y-85610000D03*
X129030000Y-85610000D03*
%TD*%
D20*
%TO.C,R108*%
X125665000Y-104950000D03*
X124015000Y-104950000D03*
%TD*%
D21*
%TO.C,C127*%
X109935000Y-115740000D03*
X108385000Y-115740000D03*
%TD*%
D15*
%TO.C,C223*%
X139955000Y-91240000D03*
X141505000Y-91240000D03*
%TD*%
D20*
%TO.C,R104*%
X112865000Y-107770000D03*
X111215000Y-107770000D03*
%TD*%
D21*
%TO.C,C107*%
X110255000Y-106200000D03*
X108705000Y-106200000D03*
%TD*%
D20*
%TO.C,R305*%
X147575000Y-96690000D03*
X145925000Y-96690000D03*
%TD*%
D42*
%TO.C,RV901*%
X155770000Y-115820000D03*
D43*
X156770000Y-112570000D03*
D42*
X157770000Y-115820000D03*
%TD*%
D12*
%TO.C,C109*%
X118290000Y-104025000D03*
X118290000Y-102475000D03*
%TD*%
D13*
%TO.C,C908*%
X202170000Y-108925000D03*
X202170000Y-110475000D03*
%TD*%
D15*
%TO.C,C216*%
X189715000Y-109140000D03*
X191265000Y-109140000D03*
%TD*%
D49*
%TO.C,T901*%
X123630000Y-102110000D03*
D50*
X119620000Y-100720000D03*
D49*
X117820000Y-107300000D03*
D51*
X116570000Y-105370000D03*
X121720000Y-106510000D03*
D52*
X121650000Y-103430000D03*
%TD*%
M02*
