M48
; DRILL file {KiCad (6.0.4-0)} date 
; FORMAT={-:-/ absolute / metric / decimal}
; #@! TF.CreationDate,2024-06-15T12:02:42-04:00
; #@! TF.GenerationSoftware,Kicad,Pcbnew,(6.0.4-0)
; #@! TF.FileFunction,Plated,1,4,PTH
FMAT,2
METRIC
; #@! TA.AperFunction,Plated,PTH,ViaDrill
T1C0.400
; #@! TA.AperFunction,Plated,PTH,ComponentDrill
T2C0.400
; #@! TA.AperFunction,Plated,PTH,ViaDrill
T3C0.500
; #@! TA.AperFunction,Plated,PTH,ComponentDrill
T4C0.600
; #@! TA.AperFunction,Plated,PTH,ComponentDrill
T5C0.650
; #@! TA.AperFunction,Plated,PTH,ComponentDrill
T6C0.700
; #@! TA.AperFunction,Plated,PTH,ComponentDrill
T7C1.000
; #@! TA.AperFunction,Plated,PTH,ComponentDrill
T8C1.600
; #@! TA.AperFunction,Plated,PTH,ComponentDrill
T9C1.750
; #@! TA.AperFunction,Plated,PTH,ComponentDrill
T10C2.100
; #@! TA.AperFunction,Plated,PTH,ComponentDrill
T11C2.700
; #@! TA.AperFunction,Plated,PTH,ComponentDrill
T12C3.175
%
G90
G05
T1
X90.58Y-86.65
X90.58Y-88.41
X90.58Y-104.05
X90.7Y-84.56
X92.49Y-108.22
X93.41Y-94.4
X94.34Y-107.5
X94.418Y-103.908
X94.75Y-80.92
X95.9Y-85.99
X97.08Y-84.31
X97.89Y-79.2
X99.4Y-96.23
X99.42Y-108.35
X100.11Y-104.25
X101.28Y-104.62
X101.64Y-96.23
X101.67Y-101.18
X103.99Y-95.44
X104.27Y-98.49
X105.16Y-113.23
X105.46Y-75.86
X105.7Y-116.29
X106.19Y-97.97
X106.43Y-106.74
X106.51Y-95.42
X107.42Y-106.114
X107.854Y-110.629
X108.21Y-117.68
X108.22Y-74.98
X108.28Y-97.97
X108.614Y-112.714
X108.83Y-94.89
X108.859Y-114.504
X109.537Y-110.863
X110.08Y-109.89
X111.14Y-98.45
X111.188Y-110.617
X111.37Y-93.76
X111.81Y-74.91
X112.13Y-112.97
X112.3Y-114.635
X112.484Y-105.885
X113.33Y-102.32
X113.62Y-110.59
X114.03Y-74.986
X114.06Y-106.5
X114.47Y-108.88
X114.875Y-105.921
X115.254Y-102.498
X115.78Y-74.986
X115.93Y-83.02
X115.93Y-90.15
X115.96Y-80.8
X115.96Y-85.43
X115.98Y-78.71
X115.98Y-87.92
X116.92Y-101.164
X117.53Y-74.986
X117.59Y-78.3
X117.834Y-114.328
X118.04Y-108.8
X119.8Y-74.96
X120.01Y-78.3
X120.45Y-114.65
X121.532Y-92.908
X121.67Y-110.16
X121.68Y-111.27
X121.88Y-74.96
X121.913Y-113.972
X122.54Y-78.36
X122.797Y-92.885
X123.005Y-105.13
X123.75Y-111.07
X124.05Y-74.88
X124.21Y-113.81
X124.535Y-95.225
X124.54Y-78.41
X124.927Y-92.257
X125.14Y-88.339
X125.16Y-89.63
X125.21Y-107.34
X125.26Y-94.334
X125.67Y-86.89
X125.7Y-74.93
X125.85Y-106.28
X125.88Y-100.68
X125.89Y-113.7
X126.01Y-109.245
X126.14Y-88.35
X126.43Y-95.84
X126.85Y-78.4
X127.41Y-107.58
X127.49Y-95.19
X127.65Y-83.01
X127.85Y-113.7
X128.05Y-88.339
X128.06Y-84.55
X128.62Y-103.86
X128.64Y-92.02
X128.788Y-93.61
X128.97Y-101.52
X129.35Y-78.382
X129.37Y-98.205
X129.39Y-110.2
X129.64Y-105.734
X129.94Y-113.72
X130.315Y-84.29
X130.39Y-109.72
X130.52Y-111.38
X130.588Y-90.218
X131.17Y-99.03
X131.36Y-100.47
X131.497Y-102.103
X131.91Y-107.46
X131.94Y-114.144
X132.06Y-84.03
X133.14Y-83.76
X133.612Y-91.818
X133.92Y-78.382
X133.987Y-114.144
X134.02Y-109.09
X134.05Y-103.24
X134.07Y-101.81
X134.22Y-88.339
X134.87Y-83.506
X134.92Y-113.37
X135.0Y-92.14
X135.01Y-81.56
X135.19Y-88.355
X135.49Y-75.435
X135.54Y-109.15
X136.85Y-92.26
X136.89Y-78.33
X136.95Y-85.43
X137.23Y-94.334
X137.24Y-95.445
X137.28Y-98.205
X137.674Y-90.28
X137.8Y-106.57
X138.27Y-114.1
X138.64Y-92.285
X138.75Y-94.334
X138.86Y-98.3
X139.088Y-83.228
X139.51Y-106.76
X139.62Y-89.85
X140.17Y-82.05
X140.2Y-78.35
X140.66Y-92.23
X140.89Y-113.32
X141.28Y-105.28
X141.291Y-103.181
X142.24Y-110.62
X142.26Y-108.23
X142.73Y-91.47
X142.9Y-104.23
X142.98Y-101.78
X143.1Y-88.39
X143.128Y-96.915
X144.03Y-95.14
X144.44Y-87.404
X145.181Y-97.355
X145.35Y-99.62
X145.36Y-106.59
X146.35Y-99.409
X146.36Y-87.404
X146.78Y-106.82
X148.02Y-105.67
X148.03Y-88.31
X148.04Y-107.22
X148.14Y-99.79
X148.15Y-84.25
X148.68Y-89.796
X148.77Y-87.404
X148.97Y-90.976
X149.01Y-113.491
X149.165Y-99.943
X149.165Y-101.64
X149.39Y-97.59
X149.47Y-79.69
X149.477Y-112.045
X149.533Y-94.916
X149.55Y-107.76
X149.57Y-81.51
X149.73Y-83.26
X150.593Y-99.083
X150.78Y-101.75
X150.87Y-96.22
X151.02Y-103.41
X151.1Y-113.8
X151.37Y-93.99
X151.916Y-89.299
X152.01Y-97.18
X152.82Y-89.725
X153.118Y-98.102
X153.68Y-87.404
X154.09Y-90.06
X154.21Y-95.18
X154.32Y-93.734
X154.325Y-113.185
X154.47Y-91.8
X155.02Y-111.62
X155.29Y-79.7
X155.411Y-100.566
X155.42Y-87.404
X155.43Y-99.56
X155.98Y-89.28
X156.361Y-90.921
X156.87Y-80.62
X157.41Y-96.91
X157.461Y-84.391
X157.95Y-89.15
X158.021Y-87.513
X158.25Y-103.38
X158.37Y-78.24
X158.59Y-82.06
X158.63Y-91.06
X158.93Y-95.3
X158.98Y-83.77
X159.55Y-79.47
X160.19Y-99.22
X160.304Y-78.233
X160.41Y-80.24
X160.57Y-91.08
X160.782Y-84.371
X160.86Y-95.3
X161.123Y-79.017
X161.47Y-78.08
X161.66Y-82.95
X162.98Y-99.595
X163.02Y-83.75
X163.11Y-88.24
X163.584Y-89.12
X164.5Y-99.595
X164.59Y-87.0
X165.01Y-85.64
X165.154Y-97.736
X166.21Y-95.74
X166.62Y-81.15
X166.98Y-83.89
X167.13Y-84.99
X167.162Y-96.911
X167.264Y-102.359
X167.68Y-103.81
X167.799Y-106.512
X167.903Y-110.272
X168.61Y-84.13
X168.84Y-96.92
X169.12Y-108.625
X169.63Y-91.34
X169.76Y-102.359
X170.08Y-84.48
X170.24Y-103.89
X170.804Y-91.005
X170.804Y-92.16
X171.058Y-107.998
X171.09Y-99.53
X171.78Y-88.835
X172.34Y-78.33
X173.2Y-97.99
X173.23Y-108.625
X173.54Y-106.564
X173.607Y-101.663
X174.304Y-88.69
X174.44Y-78.39
X174.459Y-80.039
X175.297Y-101.233
X175.463Y-88.664
X175.84Y-108.625
X176.04Y-84.79
X176.17Y-98.33
X176.298Y-87.215
X177.115Y-92.785
X177.29Y-91.564
X178.114Y-95.045
X178.35Y-108.625
X178.72Y-94.25
X179.36Y-83.86
X179.46Y-85.37
X179.843Y-86.501
X180.18Y-110.2
X180.445Y-89.705
X180.85Y-95.22
X180.88Y-83.7
X180.9Y-105.87
X181.403Y-107.753
X181.445Y-89.729
X182.38Y-92.67
X182.405Y-94.345
X182.438Y-90.279
X182.53Y-83.67
X182.55Y-102.79
X183.095Y-98.45
X183.21Y-108.34
X183.946Y-84.317
X184.18Y-102.04
X184.72Y-97.43
X184.785Y-83.775
X184.921Y-88.947
X184.96Y-106.61
X185.269Y-102.57
X185.31Y-99.39
X185.46Y-91.509
X185.549Y-84.516
X186.084Y-90.118
X186.16Y-92.566
X186.49Y-98.77
X186.49Y-100.5
X187.21Y-106.54
X187.536Y-90.97
X188.659Y-93.17
X188.659Y-95.53
X189.08Y-89.53
X189.08Y-91.67
X189.38Y-106.61
X189.43Y-104.17
X189.75Y-87.09
X191.75Y-92.08
X191.75Y-103.06
X191.82Y-89.56
X191.82Y-94.71
X191.82Y-100.22
X191.855Y-97.235
X191.87Y-87.215
X192.348Y-108.209
X193.87Y-86.31
X194.747Y-88.664
X194.77Y-90.15
X194.826Y-91.83
X195.55Y-89.26
X195.69Y-77.13
X195.76Y-85.11
X195.87Y-80.88
X196.07Y-102.28
X196.11Y-100.71
X196.13Y-97.56
X196.2Y-99.05
X196.53Y-91.53
X196.53Y-93.07
X196.65Y-106.66
X197.38Y-100.93
X197.38Y-102.2
X198.6Y-77.32
X199.05Y-97.07
X199.06Y-98.85
X199.16Y-91.32
X199.24Y-109.33
X199.29Y-106.79
X199.3Y-105.57
X199.35Y-111.15
X200.49Y-84.53
X200.51Y-86.47
X200.58Y-102.25
X200.62Y-89.36
X201.89Y-90.55
X202.0Y-81.57
X203.17Y-81.67
X203.5Y-95.23
X203.76Y-84.76
X204.43Y-82.44
X204.6Y-83.71
X205.91Y-110.5
X206.07Y-86.86
X206.29Y-94.77
X207.474Y-97.55
X207.62Y-105.61
X207.62Y-107.25
X208.36Y-94.53
X208.473Y-89.277
X209.65Y-91.54
X209.72Y-95.49
X209.74Y-93.46
X209.76Y-97.21
T2
X120.51Y-98.59
T3
X78.24Y-84.3
X78.28Y-78.11
X78.28Y-81.27
X78.29Y-102.05
X78.33Y-104.62
X78.33Y-107.31
X78.346Y-87.11
X78.346Y-90.13
X78.346Y-93.15
X78.346Y-95.9
X78.346Y-98.89
X78.37Y-110.32
X78.37Y-113.47
X79.15Y-116.4
X79.45Y-75.94
X81.09Y-93.44
X81.11Y-91.15
X81.11Y-98.9
X81.72Y-117.47
X82.0Y-74.99
X82.67Y-92.65
X83.23Y-90.17
X83.85Y-101.77
X84.03Y-99.4
X84.74Y-117.43
X84.86Y-75.03
X87.67Y-117.39
X88.1Y-74.99
X90.65Y-117.39
X91.05Y-74.99
X91.68Y-101.902
X92.48Y-104.05
X93.34Y-117.39
X94.34Y-75.03
X94.918Y-88.868
X96.11Y-117.42
X97.63Y-75.05
X98.98Y-117.46
X101.03Y-75.07
X101.71Y-77.64
X102.18Y-117.42
X103.62Y-83.74
X103.62Y-86.87
X117.64Y-82.66
X117.68Y-80.04
X117.77Y-85.14
X117.8Y-87.59
X126.38Y-79.99
X129.58Y-116.84
X129.63Y-79.94
X130.71Y-74.81
X130.93Y-88.355
X131.78Y-88.339
X132.84Y-98.455
X132.85Y-80.02
X133.23Y-116.72
X133.88Y-74.75
X135.57Y-79.855
X136.76Y-116.8
X137.26Y-74.77
X138.81Y-79.81
X140.46Y-74.84
X140.56Y-116.76
X142.252Y-79.852
X142.364Y-82.213
X143.71Y-74.88
X143.98Y-116.88
X147.5Y-74.84
X147.62Y-116.84
X147.7Y-79.88
X150.94Y-74.88
X150.94Y-116.9
X153.68Y-116.9
X153.84Y-74.88
X157.231Y-74.861
X160.06Y-74.861
X162.78Y-74.861
X163.64Y-114.22
X165.16Y-116.85
X165.44Y-74.9
X168.24Y-74.85
X168.92Y-116.99
X170.7Y-74.96
X172.76Y-116.99
X173.34Y-74.92
X174.8Y-96.84
X176.46Y-74.92
X176.57Y-117.03
X178.99Y-74.92
X179.87Y-116.99
X181.35Y-74.94
X183.71Y-117.0
X183.84Y-74.98
X186.25Y-74.98
X187.11Y-117.04
X188.7Y-74.95
X190.73Y-74.98
X190.88Y-117.0
X193.29Y-75.04
X194.12Y-117.04
X195.44Y-75.07
X197.43Y-117.07
X198.0Y-75.02
X200.66Y-117.1
X201.0Y-75.01
X203.91Y-75.01
X203.95Y-117.1
X206.75Y-75.01
X206.82Y-117.1
X208.63Y-116.07
X208.77Y-76.1
X209.62Y-78.92
X209.63Y-108.93
X209.64Y-83.93
X209.65Y-81.32
X209.66Y-111.64
X209.66Y-114.41
T4
X126.94Y-75.27
X127.015Y-115.703
X127.015Y-116.972
X128.21Y-75.27
T5
X88.8Y-81.51
X88.8Y-82.81
X88.87Y-109.5
X88.87Y-110.8
X89.19Y-91.38
X89.64Y-100.94
X90.49Y-91.38
X90.94Y-100.94
X95.26Y-87.04
X96.56Y-87.04
X109.372Y-104.3
X110.642Y-104.3
X111.912Y-104.3
X131.34Y-78.33
X131.34Y-80.33
X155.98Y-94.085
X155.98Y-95.355
X155.98Y-96.625
X160.36Y-113.33
X160.36Y-114.6
X160.36Y-115.87
X176.79Y-100.63
X178.06Y-100.63
X179.33Y-100.63
X180.6Y-100.63
X190.63Y-82.88
X191.9Y-82.88
X193.17Y-82.88
X194.44Y-82.88
T6
X95.32Y-78.8
X97.86Y-81.34
X100.4Y-78.8
X117.74Y-105.8
X119.06Y-107.2
X120.52Y-102.83
X120.57Y-106.11
X120.86Y-100.95
X122.38Y-102.21
X151.12Y-81.52
X152.39Y-81.52
X153.66Y-81.52
X154.93Y-81.52
X187.415Y-77.975
X187.495Y-114.445
X188.685Y-77.975
X188.765Y-114.445
T7
X81.15Y-85.695
X81.15Y-88.235
X81.15Y-104.075
X81.15Y-106.615
X83.69Y-85.695
X83.69Y-88.235
X83.69Y-104.075
X83.69Y-106.615
X86.23Y-85.695
X86.23Y-88.235
X86.23Y-104.075
X86.23Y-106.615
X88.77Y-85.695
X88.77Y-88.235
X88.77Y-104.075
X88.77Y-106.615
X100.0Y-93.686
X100.0Y-98.686
X114.5Y-93.686
X114.5Y-96.186
X114.5Y-98.686
X168.8Y-85.88
X168.8Y-111.28
X171.34Y-85.88
X171.34Y-111.28
X173.88Y-111.28
X176.42Y-111.28
X178.55Y-77.18
X178.55Y-79.92
X178.96Y-111.28
X181.19Y-77.28
X181.19Y-79.82
X181.5Y-111.28
X183.83Y-77.18
X183.83Y-79.92
X184.04Y-111.28
X186.58Y-111.28
X189.12Y-85.88
X189.12Y-111.28
X191.66Y-85.88
X191.66Y-111.28
T8
X81.915Y-96.186
X96.16Y-92.13
X96.17Y-96.19
X96.19Y-100.17
X140.92Y-95.89
X155.28Y-103.6
X165.33Y-107.44
T9
X122.415Y-82.475
X122.415Y-90.275
T10
X93.96Y-111.57
X101.76Y-111.57
T11
X107.0Y-90.386
X107.0Y-101.986
T12
X81.964Y-78.711
X81.964Y-113.665
X205.918Y-78.711
X205.918Y-113.665
T10
X97.86Y-105.77G85X97.86Y-105.77
G05
T0
M30
