%TF.GenerationSoftware,KiCad,Pcbnew,(6.0.4-0)*%
%TF.CreationDate,2024-04-11T20:32:21-04:00*%
%TF.ProjectId,SignalSnagger,5369676e-616c-4536-9e61-676765722e6b,rev?*%
%TF.SameCoordinates,Original*%
%TF.FileFunction,Legend,Bot*%
%TF.FilePolarity,Positive*%
%FSLAX46Y46*%
G04 Gerber Fmt 4.6, Leading zero omitted, Abs format (unit mm)*
G04 Created by KiCad (PCBNEW (6.0.4-0)) date 2024-04-11 20:32:21*
%MOMM*%
%LPD*%
G01*
G04 APERTURE LIST*
%ADD10C,0.250000*%
%ADD11C,0.300000*%
%ADD12C,0.150000*%
%ADD13C,0.120000*%
%ADD14C,0.127000*%
%ADD15C,0.200000*%
G04 APERTURE END LIST*
D10*
X138824285Y-112347380D02*
X138824285Y-111347380D01*
X138252857Y-112347380D02*
X138681428Y-111775952D01*
X138252857Y-111347380D02*
X138824285Y-111918809D01*
X137967142Y-111347380D02*
X137395714Y-111347380D01*
X137681428Y-112347380D02*
X137681428Y-111347380D01*
X137062380Y-111966428D02*
X136300476Y-111966428D01*
X135919523Y-111347380D02*
X135252857Y-111347380D01*
X135681428Y-112347380D01*
X134681428Y-111347380D02*
X134586190Y-111347380D01*
X134490952Y-111395000D01*
X134443333Y-111442619D01*
X134395714Y-111537857D01*
X134348095Y-111728333D01*
X134348095Y-111966428D01*
X134395714Y-112156904D01*
X134443333Y-112252142D01*
X134490952Y-112299761D01*
X134586190Y-112347380D01*
X134681428Y-112347380D01*
X134776666Y-112299761D01*
X134824285Y-112252142D01*
X134871904Y-112156904D01*
X134919523Y-111966428D01*
X134919523Y-111728333D01*
X134871904Y-111537857D01*
X134824285Y-111442619D01*
X134776666Y-111395000D01*
X134681428Y-111347380D01*
X133157619Y-112347380D02*
X133157619Y-111347380D01*
X132776666Y-111347380D01*
X132681428Y-111395000D01*
X132633809Y-111442619D01*
X132586190Y-111537857D01*
X132586190Y-111680714D01*
X132633809Y-111775952D01*
X132681428Y-111823571D01*
X132776666Y-111871190D01*
X133157619Y-111871190D01*
X132014761Y-112347380D02*
X132110000Y-112299761D01*
X132157619Y-112204523D01*
X132157619Y-111347380D01*
X131205238Y-112347380D02*
X131205238Y-111823571D01*
X131252857Y-111728333D01*
X131348095Y-111680714D01*
X131538571Y-111680714D01*
X131633809Y-111728333D01*
X131205238Y-112299761D02*
X131300476Y-112347380D01*
X131538571Y-112347380D01*
X131633809Y-112299761D01*
X131681428Y-112204523D01*
X131681428Y-112109285D01*
X131633809Y-112014047D01*
X131538571Y-111966428D01*
X131300476Y-111966428D01*
X131205238Y-111918809D01*
X130776666Y-112299761D02*
X130681428Y-112347380D01*
X130490952Y-112347380D01*
X130395714Y-112299761D01*
X130348095Y-112204523D01*
X130348095Y-112156904D01*
X130395714Y-112061666D01*
X130490952Y-112014047D01*
X130633809Y-112014047D01*
X130729047Y-111966428D01*
X130776666Y-111871190D01*
X130776666Y-111823571D01*
X130729047Y-111728333D01*
X130633809Y-111680714D01*
X130490952Y-111680714D01*
X130395714Y-111728333D01*
X130062380Y-111680714D02*
X129681428Y-111680714D01*
X129919523Y-111347380D02*
X129919523Y-112204523D01*
X129871904Y-112299761D01*
X129776666Y-112347380D01*
X129681428Y-112347380D01*
X129348095Y-112347380D02*
X129348095Y-111680714D01*
X129348095Y-111347380D02*
X129395714Y-111395000D01*
X129348095Y-111442619D01*
X129300476Y-111395000D01*
X129348095Y-111347380D01*
X129348095Y-111442619D01*
X128443333Y-112299761D02*
X128538571Y-112347380D01*
X128729047Y-112347380D01*
X128824285Y-112299761D01*
X128871904Y-112252142D01*
X128919523Y-112156904D01*
X128919523Y-111871190D01*
X128871904Y-111775952D01*
X128824285Y-111728333D01*
X128729047Y-111680714D01*
X128538571Y-111680714D01*
X128443333Y-111728333D01*
X127252857Y-111823571D02*
X126919523Y-111823571D01*
X126776666Y-112347380D02*
X127252857Y-112347380D01*
X127252857Y-111347380D01*
X126776666Y-111347380D01*
X126205238Y-112347380D02*
X126300476Y-112299761D01*
X126348095Y-112204523D01*
X126348095Y-111347380D01*
X125443333Y-112299761D02*
X125538571Y-112347380D01*
X125729047Y-112347380D01*
X125824285Y-112299761D01*
X125871904Y-112204523D01*
X125871904Y-111823571D01*
X125824285Y-111728333D01*
X125729047Y-111680714D01*
X125538571Y-111680714D01*
X125443333Y-111728333D01*
X125395714Y-111823571D01*
X125395714Y-111918809D01*
X125871904Y-112014047D01*
X124538571Y-112299761D02*
X124633809Y-112347380D01*
X124824285Y-112347380D01*
X124919523Y-112299761D01*
X124967142Y-112252142D01*
X125014761Y-112156904D01*
X125014761Y-111871190D01*
X124967142Y-111775952D01*
X124919523Y-111728333D01*
X124824285Y-111680714D01*
X124633809Y-111680714D01*
X124538571Y-111728333D01*
X124252857Y-111680714D02*
X123871904Y-111680714D01*
X124110000Y-111347380D02*
X124110000Y-112204523D01*
X124062380Y-112299761D01*
X123967142Y-112347380D01*
X123871904Y-112347380D01*
X123538571Y-112347380D02*
X123538571Y-111680714D01*
X123538571Y-111871190D02*
X123490952Y-111775952D01*
X123443333Y-111728333D01*
X123348095Y-111680714D01*
X123252857Y-111680714D01*
X122776666Y-112347380D02*
X122871904Y-112299761D01*
X122919523Y-112252142D01*
X122967142Y-112156904D01*
X122967142Y-111871190D01*
X122919523Y-111775952D01*
X122871904Y-111728333D01*
X122776666Y-111680714D01*
X122633809Y-111680714D01*
X122538571Y-111728333D01*
X122490952Y-111775952D01*
X122443333Y-111871190D01*
X122443333Y-112156904D01*
X122490952Y-112252142D01*
X122538571Y-112299761D01*
X122633809Y-112347380D01*
X122776666Y-112347380D01*
X122014761Y-111680714D02*
X122014761Y-112347380D01*
X122014761Y-111775952D02*
X121967142Y-111728333D01*
X121871904Y-111680714D01*
X121729047Y-111680714D01*
X121633809Y-111728333D01*
X121586190Y-111823571D01*
X121586190Y-112347380D01*
X121110000Y-112347380D02*
X121110000Y-111680714D01*
X121110000Y-111347380D02*
X121157619Y-111395000D01*
X121110000Y-111442619D01*
X121062380Y-111395000D01*
X121110000Y-111347380D01*
X121110000Y-111442619D01*
X120205238Y-112299761D02*
X120300476Y-112347380D01*
X120490952Y-112347380D01*
X120586190Y-112299761D01*
X120633809Y-112252142D01*
X120681428Y-112156904D01*
X120681428Y-111871190D01*
X120633809Y-111775952D01*
X120586190Y-111728333D01*
X120490952Y-111680714D01*
X120300476Y-111680714D01*
X120205238Y-111728333D01*
X119824285Y-112299761D02*
X119729047Y-112347380D01*
X119538571Y-112347380D01*
X119443333Y-112299761D01*
X119395714Y-112204523D01*
X119395714Y-112156904D01*
X119443333Y-112061666D01*
X119538571Y-112014047D01*
X119681428Y-112014047D01*
X119776666Y-111966428D01*
X119824285Y-111871190D01*
X119824285Y-111823571D01*
X119776666Y-111728333D01*
X119681428Y-111680714D01*
X119538571Y-111680714D01*
X119443333Y-111728333D01*
X118205238Y-111823571D02*
X117871904Y-111823571D01*
X117729047Y-112347380D02*
X118205238Y-112347380D01*
X118205238Y-111347380D01*
X117729047Y-111347380D01*
X117300476Y-111680714D02*
X117300476Y-112347380D01*
X117300476Y-111775952D02*
X117252857Y-111728333D01*
X117157619Y-111680714D01*
X117014761Y-111680714D01*
X116919523Y-111728333D01*
X116871904Y-111823571D01*
X116871904Y-112347380D01*
X115967142Y-112299761D02*
X116062380Y-112347380D01*
X116252857Y-112347380D01*
X116348095Y-112299761D01*
X116395714Y-112252142D01*
X116443333Y-112156904D01*
X116443333Y-111871190D01*
X116395714Y-111775952D01*
X116348095Y-111728333D01*
X116252857Y-111680714D01*
X116062380Y-111680714D01*
X115967142Y-111728333D01*
X115395714Y-112347380D02*
X115490952Y-112299761D01*
X115538571Y-112204523D01*
X115538571Y-111347380D01*
X114871904Y-112347380D02*
X114967142Y-112299761D01*
X115014761Y-112252142D01*
X115062380Y-112156904D01*
X115062380Y-111871190D01*
X115014761Y-111775952D01*
X114967142Y-111728333D01*
X114871904Y-111680714D01*
X114729047Y-111680714D01*
X114633809Y-111728333D01*
X114586190Y-111775952D01*
X114538571Y-111871190D01*
X114538571Y-112156904D01*
X114586190Y-112252142D01*
X114633809Y-112299761D01*
X114729047Y-112347380D01*
X114871904Y-112347380D01*
X114157619Y-112299761D02*
X114062380Y-112347380D01*
X113871904Y-112347380D01*
X113776666Y-112299761D01*
X113729047Y-112204523D01*
X113729047Y-112156904D01*
X113776666Y-112061666D01*
X113871904Y-112014047D01*
X114014761Y-112014047D01*
X114110000Y-111966428D01*
X114157619Y-111871190D01*
X114157619Y-111823571D01*
X114110000Y-111728333D01*
X114014761Y-111680714D01*
X113871904Y-111680714D01*
X113776666Y-111728333D01*
X112871904Y-111680714D02*
X112871904Y-112347380D01*
X113300476Y-111680714D02*
X113300476Y-112204523D01*
X113252857Y-112299761D01*
X113157619Y-112347380D01*
X113014761Y-112347380D01*
X112919523Y-112299761D01*
X112871904Y-112252142D01*
X112395714Y-112347380D02*
X112395714Y-111680714D01*
X112395714Y-111871190D02*
X112348095Y-111775952D01*
X112300476Y-111728333D01*
X112205238Y-111680714D01*
X112110000Y-111680714D01*
X111395714Y-112299761D02*
X111490952Y-112347380D01*
X111681428Y-112347380D01*
X111776666Y-112299761D01*
X111824285Y-112204523D01*
X111824285Y-111823571D01*
X111776666Y-111728333D01*
X111681428Y-111680714D01*
X111490952Y-111680714D01*
X111395714Y-111728333D01*
X111348095Y-111823571D01*
X111348095Y-111918809D01*
X111824285Y-112014047D01*
X145919523Y-112957380D02*
X146395714Y-112957380D01*
X146443333Y-113433571D01*
X146395714Y-113385952D01*
X146300476Y-113338333D01*
X146062380Y-113338333D01*
X145967142Y-113385952D01*
X145919523Y-113433571D01*
X145871904Y-113528809D01*
X145871904Y-113766904D01*
X145919523Y-113862142D01*
X145967142Y-113909761D01*
X146062380Y-113957380D01*
X146300476Y-113957380D01*
X146395714Y-113909761D01*
X146443333Y-113862142D01*
X145443333Y-113862142D02*
X145395714Y-113909761D01*
X145443333Y-113957380D01*
X145490952Y-113909761D01*
X145443333Y-113862142D01*
X145443333Y-113957380D01*
X144490952Y-112957380D02*
X144967142Y-112957380D01*
X145014761Y-113433571D01*
X144967142Y-113385952D01*
X144871904Y-113338333D01*
X144633809Y-113338333D01*
X144538571Y-113385952D01*
X144490952Y-113433571D01*
X144443333Y-113528809D01*
X144443333Y-113766904D01*
X144490952Y-113862142D01*
X144538571Y-113909761D01*
X144633809Y-113957380D01*
X144871904Y-113957380D01*
X144967142Y-113909761D01*
X145014761Y-113862142D01*
X143824285Y-112957380D02*
X143729047Y-112957380D01*
X143633809Y-113005000D01*
X143586190Y-113052619D01*
X143538571Y-113147857D01*
X143490952Y-113338333D01*
X143490952Y-113576428D01*
X143538571Y-113766904D01*
X143586190Y-113862142D01*
X143633809Y-113909761D01*
X143729047Y-113957380D01*
X143824285Y-113957380D01*
X143919523Y-113909761D01*
X143967142Y-113862142D01*
X144014761Y-113766904D01*
X144062380Y-113576428D01*
X144062380Y-113338333D01*
X144014761Y-113147857D01*
X143967142Y-113052619D01*
X143919523Y-113005000D01*
X143824285Y-112957380D01*
X142395714Y-113957380D02*
X141871904Y-113290714D01*
X142395714Y-113290714D02*
X141871904Y-113957380D01*
X140776666Y-113052619D02*
X140729047Y-113005000D01*
X140633809Y-112957380D01*
X140395714Y-112957380D01*
X140300476Y-113005000D01*
X140252857Y-113052619D01*
X140205238Y-113147857D01*
X140205238Y-113243095D01*
X140252857Y-113385952D01*
X140824285Y-113957380D01*
X140205238Y-113957380D01*
X139776666Y-113862142D02*
X139729047Y-113909761D01*
X139776666Y-113957380D01*
X139824285Y-113909761D01*
X139776666Y-113862142D01*
X139776666Y-113957380D01*
X139110000Y-112957380D02*
X139014761Y-112957380D01*
X138919523Y-113005000D01*
X138871904Y-113052619D01*
X138824285Y-113147857D01*
X138776666Y-113338333D01*
X138776666Y-113576428D01*
X138824285Y-113766904D01*
X138871904Y-113862142D01*
X138919523Y-113909761D01*
X139014761Y-113957380D01*
X139110000Y-113957380D01*
X139205238Y-113909761D01*
X139252857Y-113862142D01*
X139300476Y-113766904D01*
X139348095Y-113576428D01*
X139348095Y-113338333D01*
X139300476Y-113147857D01*
X139252857Y-113052619D01*
X139205238Y-113005000D01*
X139110000Y-112957380D01*
X138157619Y-112957380D02*
X138062380Y-112957380D01*
X137967142Y-113005000D01*
X137919523Y-113052619D01*
X137871904Y-113147857D01*
X137824285Y-113338333D01*
X137824285Y-113576428D01*
X137871904Y-113766904D01*
X137919523Y-113862142D01*
X137967142Y-113909761D01*
X138062380Y-113957380D01*
X138157619Y-113957380D01*
X138252857Y-113909761D01*
X138300476Y-113862142D01*
X138348095Y-113766904D01*
X138395714Y-113576428D01*
X138395714Y-113338333D01*
X138348095Y-113147857D01*
X138300476Y-113052619D01*
X138252857Y-113005000D01*
X138157619Y-112957380D01*
X136729047Y-113957380D02*
X136205238Y-113290714D01*
X136729047Y-113290714D02*
X136205238Y-113957380D01*
X134871904Y-112957380D02*
X134776666Y-112957380D01*
X134681428Y-113005000D01*
X134633809Y-113052619D01*
X134586190Y-113147857D01*
X134538571Y-113338333D01*
X134538571Y-113576428D01*
X134586190Y-113766904D01*
X134633809Y-113862142D01*
X134681428Y-113909761D01*
X134776666Y-113957380D01*
X134871904Y-113957380D01*
X134967142Y-113909761D01*
X135014761Y-113862142D01*
X135062380Y-113766904D01*
X135110000Y-113576428D01*
X135110000Y-113338333D01*
X135062380Y-113147857D01*
X135014761Y-113052619D01*
X134967142Y-113005000D01*
X134871904Y-112957380D01*
X134109999Y-113862142D02*
X134062380Y-113909761D01*
X134109999Y-113957380D01*
X134157619Y-113909761D01*
X134109999Y-113862142D01*
X134109999Y-113957380D01*
X133490952Y-113385952D02*
X133586190Y-113338333D01*
X133633809Y-113290714D01*
X133681428Y-113195476D01*
X133681428Y-113147857D01*
X133633809Y-113052619D01*
X133586190Y-113005000D01*
X133490952Y-112957380D01*
X133300476Y-112957380D01*
X133205238Y-113005000D01*
X133157619Y-113052619D01*
X133109999Y-113147857D01*
X133109999Y-113195476D01*
X133157619Y-113290714D01*
X133205238Y-113338333D01*
X133300476Y-113385952D01*
X133490952Y-113385952D01*
X133586190Y-113433571D01*
X133633809Y-113481190D01*
X133681428Y-113576428D01*
X133681428Y-113766904D01*
X133633809Y-113862142D01*
X133586190Y-113909761D01*
X133490952Y-113957380D01*
X133300476Y-113957380D01*
X133205238Y-113909761D01*
X133157619Y-113862142D01*
X133109999Y-113766904D01*
X133109999Y-113576428D01*
X133157619Y-113481190D01*
X133205238Y-113433571D01*
X133300476Y-113385952D01*
X132490952Y-112957380D02*
X132395714Y-112957380D01*
X132300476Y-113005000D01*
X132252857Y-113052619D01*
X132205238Y-113147857D01*
X132157619Y-113338333D01*
X132157619Y-113576428D01*
X132205238Y-113766904D01*
X132252857Y-113862142D01*
X132300476Y-113909761D01*
X132395714Y-113957380D01*
X132490952Y-113957380D01*
X132586190Y-113909761D01*
X132633809Y-113862142D01*
X132681428Y-113766904D01*
X132729047Y-113576428D01*
X132729047Y-113338333D01*
X132681428Y-113147857D01*
X132633809Y-113052619D01*
X132586190Y-113005000D01*
X132490952Y-112957380D01*
X130967142Y-113957380D02*
X130967142Y-113290714D01*
X130967142Y-112957380D02*
X131014761Y-113005000D01*
X130967142Y-113052619D01*
X130919523Y-113005000D01*
X130967142Y-112957380D01*
X130967142Y-113052619D01*
X130490952Y-113290714D02*
X130490952Y-113957380D01*
X130490952Y-113385952D02*
X130443333Y-113338333D01*
X130348095Y-113290714D01*
X130205238Y-113290714D01*
X130109999Y-113338333D01*
X130062380Y-113433571D01*
X130062380Y-113957380D01*
X128109999Y-112909761D02*
X128967142Y-114195476D01*
X126490952Y-113957380D02*
X127062380Y-113957380D01*
X126776666Y-113957380D02*
X126776666Y-112957380D01*
X126871904Y-113100238D01*
X126967142Y-113195476D01*
X127062380Y-113243095D01*
X125633809Y-113290714D02*
X125633809Y-113957380D01*
X125871904Y-112909761D02*
X126109999Y-113624047D01*
X125490952Y-113624047D01*
X124919523Y-112957380D02*
X124824285Y-112957380D01*
X124729047Y-113005000D01*
X124681428Y-113052619D01*
X124633809Y-113147857D01*
X124586190Y-113338333D01*
X124586190Y-113576428D01*
X124633809Y-113766904D01*
X124681428Y-113862142D01*
X124729047Y-113909761D01*
X124824285Y-113957380D01*
X124919523Y-113957380D01*
X125014761Y-113909761D01*
X125062380Y-113862142D01*
X125109999Y-113766904D01*
X125157619Y-113576428D01*
X125157619Y-113338333D01*
X125109999Y-113147857D01*
X125062380Y-113052619D01*
X125014761Y-113005000D01*
X124919523Y-112957380D01*
X123490952Y-113957380D02*
X122967142Y-113290714D01*
X123490952Y-113290714D02*
X122967142Y-113957380D01*
X121348095Y-112957380D02*
X121824285Y-112957380D01*
X121871904Y-113433571D01*
X121824285Y-113385952D01*
X121729047Y-113338333D01*
X121490952Y-113338333D01*
X121395714Y-113385952D01*
X121348095Y-113433571D01*
X121300476Y-113528809D01*
X121300476Y-113766904D01*
X121348095Y-113862142D01*
X121395714Y-113909761D01*
X121490952Y-113957380D01*
X121729047Y-113957380D01*
X121824285Y-113909761D01*
X121871904Y-113862142D01*
X120348095Y-113957380D02*
X120919523Y-113957380D01*
X120633809Y-113957380D02*
X120633809Y-112957380D01*
X120729047Y-113100238D01*
X120824285Y-113195476D01*
X120919523Y-113243095D01*
X119252857Y-113957380D02*
X118729047Y-113290714D01*
X119252857Y-113290714D02*
X118729047Y-113957380D01*
X117633809Y-113052619D02*
X117586190Y-113005000D01*
X117490952Y-112957380D01*
X117252857Y-112957380D01*
X117157619Y-113005000D01*
X117110000Y-113052619D01*
X117062380Y-113147857D01*
X117062380Y-113243095D01*
X117110000Y-113385952D01*
X117681428Y-113957380D01*
X117062380Y-113957380D01*
X116443333Y-112957380D02*
X116348095Y-112957380D01*
X116252857Y-113005000D01*
X116205238Y-113052619D01*
X116157619Y-113147857D01*
X116110000Y-113338333D01*
X116110000Y-113576428D01*
X116157619Y-113766904D01*
X116205238Y-113862142D01*
X116252857Y-113909761D01*
X116348095Y-113957380D01*
X116443333Y-113957380D01*
X116538571Y-113909761D01*
X116586190Y-113862142D01*
X116633809Y-113766904D01*
X116681428Y-113576428D01*
X116681428Y-113338333D01*
X116633809Y-113147857D01*
X116586190Y-113052619D01*
X116538571Y-113005000D01*
X116443333Y-112957380D01*
X114919523Y-113957380D02*
X114919523Y-113290714D01*
X114919523Y-113385952D02*
X114871904Y-113338333D01*
X114776666Y-113290714D01*
X114633809Y-113290714D01*
X114538571Y-113338333D01*
X114490952Y-113433571D01*
X114490952Y-113957380D01*
X114490952Y-113433571D02*
X114443333Y-113338333D01*
X114348095Y-113290714D01*
X114205238Y-113290714D01*
X114110000Y-113338333D01*
X114062380Y-113433571D01*
X114062380Y-113957380D01*
X113586190Y-113957380D02*
X113586190Y-113290714D01*
X113586190Y-113385952D02*
X113538571Y-113338333D01*
X113443333Y-113290714D01*
X113300476Y-113290714D01*
X113205238Y-113338333D01*
X113157619Y-113433571D01*
X113157619Y-113957380D01*
X113157619Y-113433571D02*
X113110000Y-113338333D01*
X113014761Y-113290714D01*
X112871904Y-113290714D01*
X112776666Y-113338333D01*
X112729047Y-113433571D01*
X112729047Y-113957380D01*
X110776666Y-112909761D02*
X111633809Y-114195476D01*
X109490952Y-112957380D02*
X109395714Y-112957380D01*
X109300476Y-113005000D01*
X109252857Y-113052619D01*
X109205238Y-113147857D01*
X109157619Y-113338333D01*
X109157619Y-113576428D01*
X109205238Y-113766904D01*
X109252857Y-113862142D01*
X109300476Y-113909761D01*
X109395714Y-113957380D01*
X109490952Y-113957380D01*
X109586190Y-113909761D01*
X109633809Y-113862142D01*
X109681428Y-113766904D01*
X109729047Y-113576428D01*
X109729047Y-113338333D01*
X109681428Y-113147857D01*
X109633809Y-113052619D01*
X109586190Y-113005000D01*
X109490952Y-112957380D01*
X108729047Y-113862142D02*
X108681428Y-113909761D01*
X108729047Y-113957380D01*
X108776666Y-113909761D01*
X108729047Y-113862142D01*
X108729047Y-113957380D01*
X107729047Y-113957380D02*
X108300476Y-113957380D01*
X108014761Y-113957380D02*
X108014761Y-112957380D01*
X108110000Y-113100238D01*
X108205238Y-113195476D01*
X108300476Y-113243095D01*
X107395714Y-112957380D02*
X106776666Y-112957380D01*
X107110000Y-113338333D01*
X106967142Y-113338333D01*
X106871904Y-113385952D01*
X106824285Y-113433571D01*
X106776666Y-113528809D01*
X106776666Y-113766904D01*
X106824285Y-113862142D01*
X106871904Y-113909761D01*
X106967142Y-113957380D01*
X107252857Y-113957380D01*
X107348095Y-113909761D01*
X107395714Y-113862142D01*
X105443333Y-113957380D02*
X105538571Y-113909761D01*
X105586190Y-113814523D01*
X105586190Y-112957380D01*
X105062380Y-113957380D02*
X105062380Y-112957380D01*
X105062380Y-113338333D02*
X104967142Y-113290714D01*
X104776666Y-113290714D01*
X104681428Y-113338333D01*
X104633809Y-113385952D01*
X104586190Y-113481190D01*
X104586190Y-113766904D01*
X104633809Y-113862142D01*
X104681428Y-113909761D01*
X104776666Y-113957380D01*
X104967142Y-113957380D01*
X105062380Y-113909761D01*
X104205238Y-113909761D02*
X104110000Y-113957380D01*
X103919523Y-113957380D01*
X103824285Y-113909761D01*
X103776666Y-113814523D01*
X103776666Y-113766904D01*
X103824285Y-113671666D01*
X103919523Y-113624047D01*
X104062380Y-113624047D01*
X104157619Y-113576428D01*
X104205238Y-113481190D01*
X104205238Y-113433571D01*
X104157619Y-113338333D01*
X104062380Y-113290714D01*
X103919523Y-113290714D01*
X103824285Y-113338333D01*
D11*
X149354285Y-104846857D02*
X149354285Y-103646857D01*
X148897142Y-103646857D01*
X148782857Y-103704000D01*
X148725714Y-103761142D01*
X148668571Y-103875428D01*
X148668571Y-104046857D01*
X148725714Y-104161142D01*
X148782857Y-104218285D01*
X148897142Y-104275428D01*
X149354285Y-104275428D01*
X147982857Y-104846857D02*
X148097142Y-104789714D01*
X148154285Y-104675428D01*
X148154285Y-103646857D01*
X147011428Y-104846857D02*
X147011428Y-104218285D01*
X147068571Y-104104000D01*
X147182857Y-104046857D01*
X147411428Y-104046857D01*
X147525714Y-104104000D01*
X147011428Y-104789714D02*
X147125714Y-104846857D01*
X147411428Y-104846857D01*
X147525714Y-104789714D01*
X147582857Y-104675428D01*
X147582857Y-104561142D01*
X147525714Y-104446857D01*
X147411428Y-104389714D01*
X147125714Y-104389714D01*
X147011428Y-104332571D01*
X145925714Y-104789714D02*
X146040000Y-104846857D01*
X146268571Y-104846857D01*
X146382857Y-104789714D01*
X146440000Y-104732571D01*
X146497142Y-104618285D01*
X146497142Y-104275428D01*
X146440000Y-104161142D01*
X146382857Y-104104000D01*
X146268571Y-104046857D01*
X146040000Y-104046857D01*
X145925714Y-104104000D01*
X144954285Y-104789714D02*
X145068571Y-104846857D01*
X145297142Y-104846857D01*
X145411428Y-104789714D01*
X145468571Y-104675428D01*
X145468571Y-104218285D01*
X145411428Y-104104000D01*
X145297142Y-104046857D01*
X145068571Y-104046857D01*
X144954285Y-104104000D01*
X144897142Y-104218285D01*
X144897142Y-104332571D01*
X145468571Y-104446857D01*
X143640000Y-103646857D02*
X142954285Y-103646857D01*
X143297142Y-104846857D02*
X143297142Y-103646857D01*
X141925714Y-104846857D02*
X142611428Y-104846857D01*
X142268571Y-104846857D02*
X142268571Y-103646857D01*
X142382857Y-103818285D01*
X142497142Y-103932571D01*
X142611428Y-103989714D01*
X141182857Y-103646857D02*
X141068571Y-103646857D01*
X140954285Y-103704000D01*
X140897142Y-103761142D01*
X140840000Y-103875428D01*
X140782857Y-104104000D01*
X140782857Y-104389714D01*
X140840000Y-104618285D01*
X140897142Y-104732571D01*
X140954285Y-104789714D01*
X141068571Y-104846857D01*
X141182857Y-104846857D01*
X141297142Y-104789714D01*
X141354285Y-104732571D01*
X141411428Y-104618285D01*
X141468571Y-104389714D01*
X141468571Y-104104000D01*
X141411428Y-103875428D01*
X141354285Y-103761142D01*
X141297142Y-103704000D01*
X141182857Y-103646857D01*
X139640000Y-104846857D02*
X140325714Y-104846857D01*
X139982857Y-104846857D02*
X139982857Y-103646857D01*
X140097142Y-103818285D01*
X140211428Y-103932571D01*
X140325714Y-103989714D01*
X138040000Y-104846857D02*
X138154285Y-104789714D01*
X138211428Y-104732571D01*
X138268571Y-104618285D01*
X138268571Y-104275428D01*
X138211428Y-104161142D01*
X138154285Y-104104000D01*
X138040000Y-104046857D01*
X137868571Y-104046857D01*
X137754285Y-104104000D01*
X137697142Y-104161142D01*
X137640000Y-104275428D01*
X137640000Y-104618285D01*
X137697142Y-104732571D01*
X137754285Y-104789714D01*
X137868571Y-104846857D01*
X138040000Y-104846857D01*
X137125714Y-104046857D02*
X137125714Y-104846857D01*
X137125714Y-104161142D02*
X137068571Y-104104000D01*
X136954285Y-104046857D01*
X136782857Y-104046857D01*
X136668571Y-104104000D01*
X136611428Y-104218285D01*
X136611428Y-104846857D01*
X135297142Y-104046857D02*
X134840000Y-104046857D01*
X135125714Y-103646857D02*
X135125714Y-104675428D01*
X135068571Y-104789714D01*
X134954285Y-104846857D01*
X134840000Y-104846857D01*
X134440000Y-104846857D02*
X134440000Y-103646857D01*
X133925714Y-104846857D02*
X133925714Y-104218285D01*
X133982857Y-104104000D01*
X134097142Y-104046857D01*
X134268571Y-104046857D01*
X134382857Y-104104000D01*
X134440000Y-104161142D01*
X133354285Y-104846857D02*
X133354285Y-104046857D01*
X133354285Y-103646857D02*
X133411428Y-103704000D01*
X133354285Y-103761142D01*
X133297142Y-103704000D01*
X133354285Y-103646857D01*
X133354285Y-103761142D01*
X132840000Y-104789714D02*
X132725714Y-104846857D01*
X132497142Y-104846857D01*
X132382857Y-104789714D01*
X132325714Y-104675428D01*
X132325714Y-104618285D01*
X132382857Y-104504000D01*
X132497142Y-104446857D01*
X132668571Y-104446857D01*
X132782857Y-104389714D01*
X132840000Y-104275428D01*
X132840000Y-104218285D01*
X132782857Y-104104000D01*
X132668571Y-104046857D01*
X132497142Y-104046857D01*
X132382857Y-104104000D01*
X130954285Y-104789714D02*
X130840000Y-104846857D01*
X130611428Y-104846857D01*
X130497142Y-104789714D01*
X130440000Y-104675428D01*
X130440000Y-104618285D01*
X130497142Y-104504000D01*
X130611428Y-104446857D01*
X130782857Y-104446857D01*
X130897142Y-104389714D01*
X130954285Y-104275428D01*
X130954285Y-104218285D01*
X130897142Y-104104000D01*
X130782857Y-104046857D01*
X130611428Y-104046857D01*
X130497142Y-104104000D01*
X129925714Y-104846857D02*
X129925714Y-104046857D01*
X129925714Y-103646857D02*
X129982857Y-103704000D01*
X129925714Y-103761142D01*
X129868571Y-103704000D01*
X129925714Y-103646857D01*
X129925714Y-103761142D01*
X128840000Y-104846857D02*
X128840000Y-103646857D01*
X128840000Y-104789714D02*
X128954285Y-104846857D01*
X129182857Y-104846857D01*
X129297142Y-104789714D01*
X129354285Y-104732571D01*
X129411428Y-104618285D01*
X129411428Y-104275428D01*
X129354285Y-104161142D01*
X129297142Y-104104000D01*
X129182857Y-104046857D01*
X128954285Y-104046857D01*
X128840000Y-104104000D01*
X127811428Y-104789714D02*
X127925714Y-104846857D01*
X128154285Y-104846857D01*
X128268571Y-104789714D01*
X128325714Y-104675428D01*
X128325714Y-104218285D01*
X128268571Y-104104000D01*
X128154285Y-104046857D01*
X127925714Y-104046857D01*
X127811428Y-104104000D01*
X127754285Y-104218285D01*
X127754285Y-104332571D01*
X128325714Y-104446857D01*
X127240000Y-104732571D02*
X127182857Y-104789714D01*
X127240000Y-104846857D01*
X127297142Y-104789714D01*
X127240000Y-104732571D01*
X127240000Y-104846857D01*
X149982857Y-106721714D02*
X149811428Y-106778857D01*
X149525714Y-106778857D01*
X149411428Y-106721714D01*
X149354285Y-106664571D01*
X149297142Y-106550285D01*
X149297142Y-106436000D01*
X149354285Y-106321714D01*
X149411428Y-106264571D01*
X149525714Y-106207428D01*
X149754285Y-106150285D01*
X149868571Y-106093142D01*
X149925714Y-106036000D01*
X149982857Y-105921714D01*
X149982857Y-105807428D01*
X149925714Y-105693142D01*
X149868571Y-105636000D01*
X149754285Y-105578857D01*
X149468571Y-105578857D01*
X149297142Y-105636000D01*
X148611428Y-106778857D02*
X148725714Y-106721714D01*
X148782857Y-106664571D01*
X148840000Y-106550285D01*
X148840000Y-106207428D01*
X148782857Y-106093142D01*
X148725714Y-106036000D01*
X148611428Y-105978857D01*
X148440000Y-105978857D01*
X148325714Y-106036000D01*
X148268571Y-106093142D01*
X148211428Y-106207428D01*
X148211428Y-106550285D01*
X148268571Y-106664571D01*
X148325714Y-106721714D01*
X148440000Y-106778857D01*
X148611428Y-106778857D01*
X147525714Y-106778857D02*
X147640000Y-106721714D01*
X147697142Y-106607428D01*
X147697142Y-105578857D01*
X146554285Y-106778857D02*
X146554285Y-105578857D01*
X146554285Y-106721714D02*
X146668571Y-106778857D01*
X146897142Y-106778857D01*
X147011428Y-106721714D01*
X147068571Y-106664571D01*
X147125714Y-106550285D01*
X147125714Y-106207428D01*
X147068571Y-106093142D01*
X147011428Y-106036000D01*
X146897142Y-105978857D01*
X146668571Y-105978857D01*
X146554285Y-106036000D01*
X145525714Y-106721714D02*
X145640000Y-106778857D01*
X145868571Y-106778857D01*
X145982857Y-106721714D01*
X146040000Y-106607428D01*
X146040000Y-106150285D01*
X145982857Y-106036000D01*
X145868571Y-105978857D01*
X145640000Y-105978857D01*
X145525714Y-106036000D01*
X145468571Y-106150285D01*
X145468571Y-106264571D01*
X146040000Y-106378857D01*
X144954285Y-106778857D02*
X144954285Y-105978857D01*
X144954285Y-106207428D02*
X144897142Y-106093142D01*
X144840000Y-106036000D01*
X144725714Y-105978857D01*
X144611428Y-105978857D01*
X143468571Y-105578857D02*
X142782857Y-105578857D01*
X143125714Y-106778857D02*
X143125714Y-105578857D01*
X141754285Y-106778857D02*
X142440000Y-106778857D01*
X142097142Y-106778857D02*
X142097142Y-105578857D01*
X142211428Y-105750285D01*
X142325714Y-105864571D01*
X142440000Y-105921714D01*
X141011428Y-105578857D02*
X140897142Y-105578857D01*
X140782857Y-105636000D01*
X140725714Y-105693142D01*
X140668571Y-105807428D01*
X140611428Y-106036000D01*
X140611428Y-106321714D01*
X140668571Y-106550285D01*
X140725714Y-106664571D01*
X140782857Y-106721714D01*
X140897142Y-106778857D01*
X141011428Y-106778857D01*
X141125714Y-106721714D01*
X141182857Y-106664571D01*
X141240000Y-106550285D01*
X141297142Y-106321714D01*
X141297142Y-106036000D01*
X141240000Y-105807428D01*
X141182857Y-105693142D01*
X141125714Y-105636000D01*
X141011428Y-105578857D01*
X139468571Y-106778857D02*
X140154285Y-106778857D01*
X139811428Y-106778857D02*
X139811428Y-105578857D01*
X139925714Y-105750285D01*
X140040000Y-105864571D01*
X140154285Y-105921714D01*
X137868571Y-106778857D02*
X137982857Y-106721714D01*
X138040000Y-106664571D01*
X138097142Y-106550285D01*
X138097142Y-106207428D01*
X138040000Y-106093142D01*
X137982857Y-106036000D01*
X137868571Y-105978857D01*
X137697142Y-105978857D01*
X137582857Y-106036000D01*
X137525714Y-106093142D01*
X137468571Y-106207428D01*
X137468571Y-106550285D01*
X137525714Y-106664571D01*
X137582857Y-106721714D01*
X137697142Y-106778857D01*
X137868571Y-106778857D01*
X136954285Y-105978857D02*
X136954285Y-106778857D01*
X136954285Y-106093142D02*
X136897142Y-106036000D01*
X136782857Y-105978857D01*
X136611428Y-105978857D01*
X136497142Y-106036000D01*
X136440000Y-106150285D01*
X136440000Y-106778857D01*
X134782857Y-106778857D02*
X134897142Y-106721714D01*
X134954285Y-106664571D01*
X135011428Y-106550285D01*
X135011428Y-106207428D01*
X134954285Y-106093142D01*
X134897142Y-106036000D01*
X134782857Y-105978857D01*
X134611428Y-105978857D01*
X134497142Y-106036000D01*
X134440000Y-106093142D01*
X134382857Y-106207428D01*
X134382857Y-106550285D01*
X134440000Y-106664571D01*
X134497142Y-106721714D01*
X134611428Y-106778857D01*
X134782857Y-106778857D01*
X134040000Y-105978857D02*
X133582857Y-105978857D01*
X133868571Y-105578857D02*
X133868571Y-106607428D01*
X133811428Y-106721714D01*
X133697142Y-106778857D01*
X133582857Y-106778857D01*
X133182857Y-106778857D02*
X133182857Y-105578857D01*
X132668571Y-106778857D02*
X132668571Y-106150285D01*
X132725714Y-106036000D01*
X132840000Y-105978857D01*
X133011428Y-105978857D01*
X133125714Y-106036000D01*
X133182857Y-106093142D01*
X131640000Y-106721714D02*
X131754285Y-106778857D01*
X131982857Y-106778857D01*
X132097142Y-106721714D01*
X132154285Y-106607428D01*
X132154285Y-106150285D01*
X132097142Y-106036000D01*
X131982857Y-105978857D01*
X131754285Y-105978857D01*
X131640000Y-106036000D01*
X131582857Y-106150285D01*
X131582857Y-106264571D01*
X132154285Y-106378857D01*
X131068571Y-106778857D02*
X131068571Y-105978857D01*
X131068571Y-106207428D02*
X131011428Y-106093142D01*
X130954285Y-106036000D01*
X130840000Y-105978857D01*
X130725714Y-105978857D01*
X129468571Y-106721714D02*
X129354285Y-106778857D01*
X129125714Y-106778857D01*
X129011428Y-106721714D01*
X128954285Y-106607428D01*
X128954285Y-106550285D01*
X129011428Y-106436000D01*
X129125714Y-106378857D01*
X129297142Y-106378857D01*
X129411428Y-106321714D01*
X129468571Y-106207428D01*
X129468571Y-106150285D01*
X129411428Y-106036000D01*
X129297142Y-105978857D01*
X129125714Y-105978857D01*
X129011428Y-106036000D01*
X128440000Y-106778857D02*
X128440000Y-105978857D01*
X128440000Y-105578857D02*
X128497142Y-105636000D01*
X128440000Y-105693142D01*
X128382857Y-105636000D01*
X128440000Y-105578857D01*
X128440000Y-105693142D01*
X127354285Y-106778857D02*
X127354285Y-105578857D01*
X127354285Y-106721714D02*
X127468571Y-106778857D01*
X127697142Y-106778857D01*
X127811428Y-106721714D01*
X127868571Y-106664571D01*
X127925714Y-106550285D01*
X127925714Y-106207428D01*
X127868571Y-106093142D01*
X127811428Y-106036000D01*
X127697142Y-105978857D01*
X127468571Y-105978857D01*
X127354285Y-106036000D01*
X126325714Y-106721714D02*
X126440000Y-106778857D01*
X126668571Y-106778857D01*
X126782857Y-106721714D01*
X126840000Y-106607428D01*
X126840000Y-106150285D01*
X126782857Y-106036000D01*
X126668571Y-105978857D01*
X126440000Y-105978857D01*
X126325714Y-106036000D01*
X126268571Y-106150285D01*
X126268571Y-106264571D01*
X126840000Y-106378857D01*
X125754285Y-106664571D02*
X125697142Y-106721714D01*
X125754285Y-106778857D01*
X125811428Y-106721714D01*
X125754285Y-106664571D01*
X125754285Y-106778857D01*
X84261428Y-90031428D02*
X83547142Y-90031428D01*
X83547142Y-91531428D01*
X84761428Y-90817142D02*
X85261428Y-90817142D01*
X85475714Y-90031428D02*
X84761428Y-90031428D01*
X84761428Y-91531428D01*
X85475714Y-91531428D01*
X86618571Y-90817142D02*
X86118571Y-90817142D01*
X86118571Y-90031428D02*
X86118571Y-91531428D01*
X86832857Y-91531428D01*
X87190000Y-91531428D02*
X88047142Y-91531428D01*
X87618571Y-90031428D02*
X87618571Y-91531428D01*
X87300000Y-102248571D02*
X87800000Y-101534285D01*
X88157142Y-102248571D02*
X88157142Y-100748571D01*
X87585714Y-100748571D01*
X87442857Y-100820000D01*
X87371428Y-100891428D01*
X87300000Y-101034285D01*
X87300000Y-101248571D01*
X87371428Y-101391428D01*
X87442857Y-101462857D01*
X87585714Y-101534285D01*
X88157142Y-101534285D01*
X86657142Y-102248571D02*
X86657142Y-100748571D01*
X85157142Y-100820000D02*
X85300000Y-100748571D01*
X85514285Y-100748571D01*
X85728571Y-100820000D01*
X85871428Y-100962857D01*
X85942857Y-101105714D01*
X86014285Y-101391428D01*
X86014285Y-101605714D01*
X85942857Y-101891428D01*
X85871428Y-102034285D01*
X85728571Y-102177142D01*
X85514285Y-102248571D01*
X85371428Y-102248571D01*
X85157142Y-102177142D01*
X85085714Y-102105714D01*
X85085714Y-101605714D01*
X85371428Y-101605714D01*
X84442857Y-102248571D02*
X84442857Y-100748571D01*
X84442857Y-101462857D02*
X83585714Y-101462857D01*
X83585714Y-102248571D02*
X83585714Y-100748571D01*
X83085714Y-100748571D02*
X82228571Y-100748571D01*
X82657142Y-102248571D02*
X82657142Y-100748571D01*
D10*
X174827023Y-77619761D02*
X174684166Y-77667380D01*
X174446071Y-77667380D01*
X174350833Y-77619761D01*
X174303214Y-77572142D01*
X174255595Y-77476904D01*
X174255595Y-77381666D01*
X174303214Y-77286428D01*
X174350833Y-77238809D01*
X174446071Y-77191190D01*
X174636547Y-77143571D01*
X174731785Y-77095952D01*
X174779404Y-77048333D01*
X174827023Y-76953095D01*
X174827023Y-76857857D01*
X174779404Y-76762619D01*
X174731785Y-76715000D01*
X174636547Y-76667380D01*
X174398452Y-76667380D01*
X174255595Y-76715000D01*
X173827023Y-77667380D02*
X173827023Y-77000714D01*
X173827023Y-76667380D02*
X173874642Y-76715000D01*
X173827023Y-76762619D01*
X173779404Y-76715000D01*
X173827023Y-76667380D01*
X173827023Y-76762619D01*
X172922261Y-77000714D02*
X172922261Y-77810238D01*
X172969880Y-77905476D01*
X173017500Y-77953095D01*
X173112738Y-78000714D01*
X173255595Y-78000714D01*
X173350833Y-77953095D01*
X172922261Y-77619761D02*
X173017500Y-77667380D01*
X173207976Y-77667380D01*
X173303214Y-77619761D01*
X173350833Y-77572142D01*
X173398452Y-77476904D01*
X173398452Y-77191190D01*
X173350833Y-77095952D01*
X173303214Y-77048333D01*
X173207976Y-77000714D01*
X173017500Y-77000714D01*
X172922261Y-77048333D01*
X172446071Y-77000714D02*
X172446071Y-77667380D01*
X172446071Y-77095952D02*
X172398452Y-77048333D01*
X172303214Y-77000714D01*
X172160357Y-77000714D01*
X172065119Y-77048333D01*
X172017500Y-77143571D01*
X172017500Y-77667380D01*
X171112738Y-77667380D02*
X171112738Y-77143571D01*
X171160357Y-77048333D01*
X171255595Y-77000714D01*
X171446071Y-77000714D01*
X171541309Y-77048333D01*
X171112738Y-77619761D02*
X171207976Y-77667380D01*
X171446071Y-77667380D01*
X171541309Y-77619761D01*
X171588928Y-77524523D01*
X171588928Y-77429285D01*
X171541309Y-77334047D01*
X171446071Y-77286428D01*
X171207976Y-77286428D01*
X171112738Y-77238809D01*
X170493690Y-77667380D02*
X170588928Y-77619761D01*
X170636547Y-77524523D01*
X170636547Y-76667380D01*
X170160357Y-77619761D02*
X170017500Y-77667380D01*
X169779404Y-77667380D01*
X169684166Y-77619761D01*
X169636547Y-77572142D01*
X169588928Y-77476904D01*
X169588928Y-77381666D01*
X169636547Y-77286428D01*
X169684166Y-77238809D01*
X169779404Y-77191190D01*
X169969880Y-77143571D01*
X170065119Y-77095952D01*
X170112738Y-77048333D01*
X170160357Y-76953095D01*
X170160357Y-76857857D01*
X170112738Y-76762619D01*
X170065119Y-76715000D01*
X169969880Y-76667380D01*
X169731785Y-76667380D01*
X169588928Y-76715000D01*
X169160357Y-77000714D02*
X169160357Y-77667380D01*
X169160357Y-77095952D02*
X169112738Y-77048333D01*
X169017500Y-77000714D01*
X168874642Y-77000714D01*
X168779404Y-77048333D01*
X168731785Y-77143571D01*
X168731785Y-77667380D01*
X167827023Y-77667380D02*
X167827023Y-77143571D01*
X167874642Y-77048333D01*
X167969880Y-77000714D01*
X168160357Y-77000714D01*
X168255595Y-77048333D01*
X167827023Y-77619761D02*
X167922261Y-77667380D01*
X168160357Y-77667380D01*
X168255595Y-77619761D01*
X168303214Y-77524523D01*
X168303214Y-77429285D01*
X168255595Y-77334047D01*
X168160357Y-77286428D01*
X167922261Y-77286428D01*
X167827023Y-77238809D01*
X166922261Y-77000714D02*
X166922261Y-77810238D01*
X166969880Y-77905476D01*
X167017500Y-77953095D01*
X167112738Y-78000714D01*
X167255595Y-78000714D01*
X167350833Y-77953095D01*
X166922261Y-77619761D02*
X167017500Y-77667380D01*
X167207976Y-77667380D01*
X167303214Y-77619761D01*
X167350833Y-77572142D01*
X167398452Y-77476904D01*
X167398452Y-77191190D01*
X167350833Y-77095952D01*
X167303214Y-77048333D01*
X167207976Y-77000714D01*
X167017500Y-77000714D01*
X166922261Y-77048333D01*
X166017500Y-77000714D02*
X166017500Y-77810238D01*
X166065119Y-77905476D01*
X166112738Y-77953095D01*
X166207976Y-78000714D01*
X166350833Y-78000714D01*
X166446071Y-77953095D01*
X166017500Y-77619761D02*
X166112738Y-77667380D01*
X166303214Y-77667380D01*
X166398452Y-77619761D01*
X166446071Y-77572142D01*
X166493690Y-77476904D01*
X166493690Y-77191190D01*
X166446071Y-77095952D01*
X166398452Y-77048333D01*
X166303214Y-77000714D01*
X166112738Y-77000714D01*
X166017500Y-77048333D01*
X165160357Y-77619761D02*
X165255595Y-77667380D01*
X165446071Y-77667380D01*
X165541309Y-77619761D01*
X165588928Y-77524523D01*
X165588928Y-77143571D01*
X165541309Y-77048333D01*
X165446071Y-77000714D01*
X165255595Y-77000714D01*
X165160357Y-77048333D01*
X165112738Y-77143571D01*
X165112738Y-77238809D01*
X165588928Y-77334047D01*
X164684166Y-77667380D02*
X164684166Y-77000714D01*
X164684166Y-77191190D02*
X164636547Y-77095952D01*
X164588928Y-77048333D01*
X164493690Y-77000714D01*
X164398452Y-77000714D01*
X164065119Y-77572142D02*
X164017500Y-77619761D01*
X164065119Y-77667380D01*
X164112738Y-77619761D01*
X164065119Y-77572142D01*
X164065119Y-77667380D01*
X164065119Y-77048333D02*
X164017500Y-77095952D01*
X164065119Y-77143571D01*
X164112738Y-77095952D01*
X164065119Y-77048333D01*
X164065119Y-77143571D01*
X162684166Y-77095952D02*
X162779404Y-77048333D01*
X162827023Y-77000714D01*
X162874642Y-76905476D01*
X162874642Y-76857857D01*
X162827023Y-76762619D01*
X162779404Y-76715000D01*
X162684166Y-76667380D01*
X162493690Y-76667380D01*
X162398452Y-76715000D01*
X162350833Y-76762619D01*
X162303214Y-76857857D01*
X162303214Y-76905476D01*
X162350833Y-77000714D01*
X162398452Y-77048333D01*
X162493690Y-77095952D01*
X162684166Y-77095952D01*
X162779404Y-77143571D01*
X162827023Y-77191190D01*
X162874642Y-77286428D01*
X162874642Y-77476904D01*
X162827023Y-77572142D01*
X162779404Y-77619761D01*
X162684166Y-77667380D01*
X162493690Y-77667380D01*
X162398452Y-77619761D01*
X162350833Y-77572142D01*
X162303214Y-77476904D01*
X162303214Y-77286428D01*
X162350833Y-77191190D01*
X162398452Y-77143571D01*
X162493690Y-77095952D01*
X161684166Y-76667380D02*
X161588928Y-76667380D01*
X161493690Y-76715000D01*
X161446071Y-76762619D01*
X161398452Y-76857857D01*
X161350833Y-77048333D01*
X161350833Y-77286428D01*
X161398452Y-77476904D01*
X161446071Y-77572142D01*
X161493690Y-77619761D01*
X161588928Y-77667380D01*
X161684166Y-77667380D01*
X161779404Y-77619761D01*
X161827023Y-77572142D01*
X161874642Y-77476904D01*
X161922261Y-77286428D01*
X161922261Y-77048333D01*
X161874642Y-76857857D01*
X161827023Y-76762619D01*
X161779404Y-76715000D01*
X161684166Y-76667380D01*
X160922261Y-77667380D02*
X160922261Y-77000714D01*
X160922261Y-77095952D02*
X160874642Y-77048333D01*
X160779404Y-77000714D01*
X160636547Y-77000714D01*
X160541309Y-77048333D01*
X160493690Y-77143571D01*
X160493690Y-77667380D01*
X160493690Y-77143571D02*
X160446071Y-77048333D01*
X160350833Y-77000714D01*
X160207976Y-77000714D01*
X160112738Y-77048333D01*
X160065119Y-77143571D01*
X160065119Y-77667380D01*
X158255595Y-77667380D02*
X158588928Y-77191190D01*
X158827023Y-77667380D02*
X158827023Y-76667380D01*
X158446071Y-76667380D01*
X158350833Y-76715000D01*
X158303214Y-76762619D01*
X158255595Y-76857857D01*
X158255595Y-77000714D01*
X158303214Y-77095952D01*
X158350833Y-77143571D01*
X158446071Y-77191190D01*
X158827023Y-77191190D01*
X157398452Y-77667380D02*
X157398452Y-77143571D01*
X157446071Y-77048333D01*
X157541309Y-77000714D01*
X157731785Y-77000714D01*
X157827023Y-77048333D01*
X157398452Y-77619761D02*
X157493690Y-77667380D01*
X157731785Y-77667380D01*
X157827023Y-77619761D01*
X157874642Y-77524523D01*
X157874642Y-77429285D01*
X157827023Y-77334047D01*
X157731785Y-77286428D01*
X157493690Y-77286428D01*
X157398452Y-77238809D01*
X156493690Y-77667380D02*
X156493690Y-76667380D01*
X156493690Y-77619761D02*
X156588928Y-77667380D01*
X156779404Y-77667380D01*
X156874642Y-77619761D01*
X156922261Y-77572142D01*
X156969880Y-77476904D01*
X156969880Y-77191190D01*
X156922261Y-77095952D01*
X156874642Y-77048333D01*
X156779404Y-77000714D01*
X156588928Y-77000714D01*
X156493690Y-77048333D01*
X156017500Y-77667380D02*
X156017500Y-77000714D01*
X156017500Y-76667380D02*
X156065119Y-76715000D01*
X156017500Y-76762619D01*
X155969880Y-76715000D01*
X156017500Y-76667380D01*
X156017500Y-76762619D01*
X155398452Y-77667380D02*
X155493690Y-77619761D01*
X155541309Y-77572142D01*
X155588928Y-77476904D01*
X155588928Y-77191190D01*
X155541309Y-77095952D01*
X155493690Y-77048333D01*
X155398452Y-77000714D01*
X155255595Y-77000714D01*
X155160357Y-77048333D01*
X155112738Y-77095952D01*
X155065119Y-77191190D01*
X155065119Y-77476904D01*
X155112738Y-77572142D01*
X155160357Y-77619761D01*
X155255595Y-77667380D01*
X155398452Y-77667380D01*
X154636547Y-77286428D02*
X153874642Y-77286428D01*
X153207976Y-76667380D02*
X153017500Y-76667380D01*
X152922261Y-76715000D01*
X152827023Y-76810238D01*
X152779404Y-77000714D01*
X152779404Y-77334047D01*
X152827023Y-77524523D01*
X152922261Y-77619761D01*
X153017500Y-77667380D01*
X153207976Y-77667380D01*
X153303214Y-77619761D01*
X153398452Y-77524523D01*
X153446071Y-77334047D01*
X153446071Y-77000714D01*
X153398452Y-76810238D01*
X153303214Y-76715000D01*
X153207976Y-76667380D01*
X151017500Y-77667380D02*
X151350833Y-77191190D01*
X151588928Y-77667380D02*
X151588928Y-76667380D01*
X151207976Y-76667380D01*
X151112738Y-76715000D01*
X151065119Y-76762619D01*
X151017500Y-76857857D01*
X151017500Y-77000714D01*
X151065119Y-77095952D01*
X151112738Y-77143571D01*
X151207976Y-77191190D01*
X151588928Y-77191190D01*
X150207976Y-77619761D02*
X150303214Y-77667380D01*
X150493690Y-77667380D01*
X150588928Y-77619761D01*
X150636547Y-77524523D01*
X150636547Y-77143571D01*
X150588928Y-77048333D01*
X150493690Y-77000714D01*
X150303214Y-77000714D01*
X150207976Y-77048333D01*
X150160357Y-77143571D01*
X150160357Y-77238809D01*
X150636547Y-77334047D01*
X149303214Y-77619761D02*
X149398452Y-77667380D01*
X149588928Y-77667380D01*
X149684166Y-77619761D01*
X149731785Y-77572142D01*
X149779404Y-77476904D01*
X149779404Y-77191190D01*
X149731785Y-77095952D01*
X149684166Y-77048333D01*
X149588928Y-77000714D01*
X149398452Y-77000714D01*
X149303214Y-77048333D01*
X148493690Y-77619761D02*
X148588928Y-77667380D01*
X148779404Y-77667380D01*
X148874642Y-77619761D01*
X148922261Y-77524523D01*
X148922261Y-77143571D01*
X148874642Y-77048333D01*
X148779404Y-77000714D01*
X148588928Y-77000714D01*
X148493690Y-77048333D01*
X148446071Y-77143571D01*
X148446071Y-77238809D01*
X148922261Y-77334047D01*
X148017500Y-77667380D02*
X148017500Y-77000714D01*
X148017500Y-76667380D02*
X148065119Y-76715000D01*
X148017500Y-76762619D01*
X147969880Y-76715000D01*
X148017500Y-76667380D01*
X148017500Y-76762619D01*
X147636547Y-77000714D02*
X147398452Y-77667380D01*
X147160357Y-77000714D01*
X146398452Y-77619761D02*
X146493690Y-77667380D01*
X146684166Y-77667380D01*
X146779404Y-77619761D01*
X146827023Y-77524523D01*
X146827023Y-77143571D01*
X146779404Y-77048333D01*
X146684166Y-77000714D01*
X146493690Y-77000714D01*
X146398452Y-77048333D01*
X146350833Y-77143571D01*
X146350833Y-77238809D01*
X146827023Y-77334047D01*
X145922261Y-77667380D02*
X145922261Y-77000714D01*
X145922261Y-77191190D02*
X145874642Y-77095952D01*
X145827023Y-77048333D01*
X145731785Y-77000714D01*
X145636547Y-77000714D01*
X174922261Y-78277380D02*
X174588928Y-79277380D01*
X174255595Y-78277380D01*
X173541309Y-79229761D02*
X173636547Y-79277380D01*
X173827023Y-79277380D01*
X173922261Y-79229761D01*
X173969880Y-79134523D01*
X173969880Y-78753571D01*
X173922261Y-78658333D01*
X173827023Y-78610714D01*
X173636547Y-78610714D01*
X173541309Y-78658333D01*
X173493690Y-78753571D01*
X173493690Y-78848809D01*
X173969880Y-78944047D01*
X173065119Y-79277380D02*
X173065119Y-78610714D01*
X173065119Y-78801190D02*
X173017500Y-78705952D01*
X172969880Y-78658333D01*
X172874642Y-78610714D01*
X172779404Y-78610714D01*
X172446071Y-79182142D02*
X172398452Y-79229761D01*
X172446071Y-79277380D01*
X172493690Y-79229761D01*
X172446071Y-79182142D01*
X172446071Y-79277380D01*
X171303214Y-78277380D02*
X170684166Y-78277380D01*
X171017500Y-78658333D01*
X170874642Y-78658333D01*
X170779404Y-78705952D01*
X170731785Y-78753571D01*
X170684166Y-78848809D01*
X170684166Y-79086904D01*
X170731785Y-79182142D01*
X170779404Y-79229761D01*
X170874642Y-79277380D01*
X171160357Y-79277380D01*
X171255595Y-79229761D01*
X171303214Y-79182142D01*
X170065119Y-78277380D02*
X169969880Y-78277380D01*
X169874642Y-78325000D01*
X169827023Y-78372619D01*
X169779404Y-78467857D01*
X169731785Y-78658333D01*
X169731785Y-78896428D01*
X169779404Y-79086904D01*
X169827023Y-79182142D01*
X169874642Y-79229761D01*
X169969880Y-79277380D01*
X170065119Y-79277380D01*
X170160357Y-79229761D01*
X170207976Y-79182142D01*
X170255595Y-79086904D01*
X170303214Y-78896428D01*
X170303214Y-78658333D01*
X170255595Y-78467857D01*
X170207976Y-78372619D01*
X170160357Y-78325000D01*
X170065119Y-78277380D01*
X169303214Y-78896428D02*
X168541309Y-78896428D01*
X168065119Y-79277380D02*
X168065119Y-78277380D01*
X167731785Y-78991666D01*
X167398452Y-78277380D01*
X167398452Y-79277380D01*
X166493690Y-79277380D02*
X166493690Y-78753571D01*
X166541309Y-78658333D01*
X166636547Y-78610714D01*
X166827023Y-78610714D01*
X166922261Y-78658333D01*
X166493690Y-79229761D02*
X166588928Y-79277380D01*
X166827023Y-79277380D01*
X166922261Y-79229761D01*
X166969880Y-79134523D01*
X166969880Y-79039285D01*
X166922261Y-78944047D01*
X166827023Y-78896428D01*
X166588928Y-78896428D01*
X166493690Y-78848809D01*
X166017500Y-79277380D02*
X166017500Y-78610714D01*
X166017500Y-78801190D02*
X165969880Y-78705952D01*
X165922261Y-78658333D01*
X165827023Y-78610714D01*
X165731785Y-78610714D01*
X165398452Y-78896428D02*
X164636547Y-78896428D01*
X164207976Y-78372619D02*
X164160357Y-78325000D01*
X164065119Y-78277380D01*
X163827023Y-78277380D01*
X163731785Y-78325000D01*
X163684166Y-78372619D01*
X163636547Y-78467857D01*
X163636547Y-78563095D01*
X163684166Y-78705952D01*
X164255595Y-79277380D01*
X163636547Y-79277380D01*
X163017500Y-78277380D02*
X162922261Y-78277380D01*
X162827023Y-78325000D01*
X162779404Y-78372619D01*
X162731785Y-78467857D01*
X162684166Y-78658333D01*
X162684166Y-78896428D01*
X162731785Y-79086904D01*
X162779404Y-79182142D01*
X162827023Y-79229761D01*
X162922261Y-79277380D01*
X163017500Y-79277380D01*
X163112738Y-79229761D01*
X163160357Y-79182142D01*
X163207976Y-79086904D01*
X163255595Y-78896428D01*
X163255595Y-78658333D01*
X163207976Y-78467857D01*
X163160357Y-78372619D01*
X163112738Y-78325000D01*
X163017500Y-78277380D01*
X162303214Y-78372619D02*
X162255595Y-78325000D01*
X162160357Y-78277380D01*
X161922261Y-78277380D01*
X161827023Y-78325000D01*
X161779404Y-78372619D01*
X161731785Y-78467857D01*
X161731785Y-78563095D01*
X161779404Y-78705952D01*
X162350833Y-79277380D01*
X161731785Y-79277380D01*
X160874642Y-78610714D02*
X160874642Y-79277380D01*
X161112738Y-78229761D02*
X161350833Y-78944047D01*
X160731785Y-78944047D01*
D12*
X110842857Y-85824761D02*
X110700000Y-85872380D01*
X110461904Y-85872380D01*
X110366666Y-85824761D01*
X110319047Y-85777142D01*
X110271428Y-85681904D01*
X110271428Y-85586666D01*
X110319047Y-85491428D01*
X110366666Y-85443809D01*
X110461904Y-85396190D01*
X110652380Y-85348571D01*
X110747619Y-85300952D01*
X110795238Y-85253333D01*
X110842857Y-85158095D01*
X110842857Y-85062857D01*
X110795238Y-84967619D01*
X110747619Y-84920000D01*
X110652380Y-84872380D01*
X110414285Y-84872380D01*
X110271428Y-84920000D01*
X109461904Y-85824761D02*
X109557142Y-85872380D01*
X109747619Y-85872380D01*
X109842857Y-85824761D01*
X109890476Y-85729523D01*
X109890476Y-85348571D01*
X109842857Y-85253333D01*
X109747619Y-85205714D01*
X109557142Y-85205714D01*
X109461904Y-85253333D01*
X109414285Y-85348571D01*
X109414285Y-85443809D01*
X109890476Y-85539047D01*
X108985714Y-85205714D02*
X108985714Y-85872380D01*
X108985714Y-85300952D02*
X108938095Y-85253333D01*
X108842857Y-85205714D01*
X108700000Y-85205714D01*
X108604761Y-85253333D01*
X108557142Y-85348571D01*
X108557142Y-85872380D01*
X108128571Y-85824761D02*
X108033333Y-85872380D01*
X107842857Y-85872380D01*
X107747619Y-85824761D01*
X107700000Y-85729523D01*
X107700000Y-85681904D01*
X107747619Y-85586666D01*
X107842857Y-85539047D01*
X107985714Y-85539047D01*
X108080952Y-85491428D01*
X108128571Y-85396190D01*
X108128571Y-85348571D01*
X108080952Y-85253333D01*
X107985714Y-85205714D01*
X107842857Y-85205714D01*
X107747619Y-85253333D01*
X106890476Y-85824761D02*
X106985714Y-85872380D01*
X107176190Y-85872380D01*
X107271428Y-85824761D01*
X107319047Y-85729523D01*
X107319047Y-85348571D01*
X107271428Y-85253333D01*
X107176190Y-85205714D01*
X106985714Y-85205714D01*
X106890476Y-85253333D01*
X106842857Y-85348571D01*
X106842857Y-85443809D01*
X107319047Y-85539047D01*
X105700000Y-85586666D02*
X105223809Y-85586666D01*
X105795238Y-85872380D02*
X105461904Y-84872380D01*
X105128571Y-85872380D01*
X104366666Y-85872380D02*
X104366666Y-84872380D01*
X104366666Y-85824761D02*
X104461904Y-85872380D01*
X104652380Y-85872380D01*
X104747619Y-85824761D01*
X104795238Y-85777142D01*
X104842857Y-85681904D01*
X104842857Y-85396190D01*
X104795238Y-85300952D01*
X104747619Y-85253333D01*
X104652380Y-85205714D01*
X104461904Y-85205714D01*
X104366666Y-85253333D01*
X103890476Y-85205714D02*
X103890476Y-86062857D01*
X103938095Y-86158095D01*
X104033333Y-86205714D01*
X104080952Y-86205714D01*
X103890476Y-84872380D02*
X103938095Y-84920000D01*
X103890476Y-84967619D01*
X103842857Y-84920000D01*
X103890476Y-84872380D01*
X103890476Y-84967619D01*
X102985714Y-85205714D02*
X102985714Y-85872380D01*
X103414285Y-85205714D02*
X103414285Y-85729523D01*
X103366666Y-85824761D01*
X103271428Y-85872380D01*
X103128571Y-85872380D01*
X103033333Y-85824761D01*
X102985714Y-85777142D01*
X102557142Y-85824761D02*
X102461904Y-85872380D01*
X102271428Y-85872380D01*
X102176190Y-85824761D01*
X102128571Y-85729523D01*
X102128571Y-85681904D01*
X102176190Y-85586666D01*
X102271428Y-85539047D01*
X102414285Y-85539047D01*
X102509523Y-85491428D01*
X102557142Y-85396190D01*
X102557142Y-85348571D01*
X102509523Y-85253333D01*
X102414285Y-85205714D01*
X102271428Y-85205714D01*
X102176190Y-85253333D01*
X101842857Y-85205714D02*
X101461904Y-85205714D01*
X101700000Y-84872380D02*
X101700000Y-85729523D01*
X101652380Y-85824761D01*
X101557142Y-85872380D01*
X101461904Y-85872380D01*
%TO.C,SW203*%
X112805714Y-92744761D02*
X112662857Y-92792380D01*
X112424761Y-92792380D01*
X112329523Y-92744761D01*
X112281904Y-92697142D01*
X112234285Y-92601904D01*
X112234285Y-92506666D01*
X112281904Y-92411428D01*
X112329523Y-92363809D01*
X112424761Y-92316190D01*
X112615238Y-92268571D01*
X112710476Y-92220952D01*
X112758095Y-92173333D01*
X112805714Y-92078095D01*
X112805714Y-91982857D01*
X112758095Y-91887619D01*
X112710476Y-91840000D01*
X112615238Y-91792380D01*
X112377142Y-91792380D01*
X112234285Y-91840000D01*
X111900952Y-91792380D02*
X111662857Y-92792380D01*
X111472380Y-92078095D01*
X111281904Y-92792380D01*
X111043809Y-91792380D01*
X110710476Y-91887619D02*
X110662857Y-91840000D01*
X110567619Y-91792380D01*
X110329523Y-91792380D01*
X110234285Y-91840000D01*
X110186666Y-91887619D01*
X110139047Y-91982857D01*
X110139047Y-92078095D01*
X110186666Y-92220952D01*
X110758095Y-92792380D01*
X110139047Y-92792380D01*
X109520000Y-91792380D02*
X109424761Y-91792380D01*
X109329523Y-91840000D01*
X109281904Y-91887619D01*
X109234285Y-91982857D01*
X109186666Y-92173333D01*
X109186666Y-92411428D01*
X109234285Y-92601904D01*
X109281904Y-92697142D01*
X109329523Y-92744761D01*
X109424761Y-92792380D01*
X109520000Y-92792380D01*
X109615238Y-92744761D01*
X109662857Y-92697142D01*
X109710476Y-92601904D01*
X109758095Y-92411428D01*
X109758095Y-92173333D01*
X109710476Y-91982857D01*
X109662857Y-91887619D01*
X109615238Y-91840000D01*
X109520000Y-91792380D01*
X108853333Y-91792380D02*
X108234285Y-91792380D01*
X108567619Y-92173333D01*
X108424761Y-92173333D01*
X108329523Y-92220952D01*
X108281904Y-92268571D01*
X108234285Y-92363809D01*
X108234285Y-92601904D01*
X108281904Y-92697142D01*
X108329523Y-92744761D01*
X108424761Y-92792380D01*
X108710476Y-92792380D01*
X108805714Y-92744761D01*
X108853333Y-92697142D01*
%TO.C,RV102*%
X117106666Y-91496666D02*
X116773333Y-91263333D01*
X117106666Y-91096666D02*
X116406666Y-91096666D01*
X116406666Y-91363333D01*
X116440000Y-91430000D01*
X116473333Y-91463333D01*
X116540000Y-91496666D01*
X116640000Y-91496666D01*
X116706666Y-91463333D01*
X116740000Y-91430000D01*
X116773333Y-91363333D01*
X116773333Y-91096666D01*
X116406666Y-91696666D02*
X117106666Y-91930000D01*
X116406666Y-92163333D01*
X117106666Y-92763333D02*
X117106666Y-92363333D01*
X117106666Y-92563333D02*
X116406666Y-92563333D01*
X116506666Y-92496666D01*
X116573333Y-92430000D01*
X116606666Y-92363333D01*
X116406666Y-93196666D02*
X116406666Y-93263333D01*
X116440000Y-93330000D01*
X116473333Y-93363333D01*
X116540000Y-93396666D01*
X116673333Y-93430000D01*
X116840000Y-93430000D01*
X116973333Y-93396666D01*
X117040000Y-93363333D01*
X117073333Y-93330000D01*
X117106666Y-93263333D01*
X117106666Y-93196666D01*
X117073333Y-93130000D01*
X117040000Y-93096666D01*
X116973333Y-93063333D01*
X116840000Y-93030000D01*
X116673333Y-93030000D01*
X116540000Y-93063333D01*
X116473333Y-93096666D01*
X116440000Y-93130000D01*
X116406666Y-93196666D01*
X116473333Y-93696666D02*
X116440000Y-93730000D01*
X116406666Y-93796666D01*
X116406666Y-93963333D01*
X116440000Y-94030000D01*
X116473333Y-94063333D01*
X116540000Y-94096666D01*
X116606666Y-94096666D01*
X116706666Y-94063333D01*
X117106666Y-93663333D01*
X117106666Y-94096666D01*
%TO.C,P201*%
X176966666Y-77256666D02*
X176266666Y-77256666D01*
X176266666Y-77523333D01*
X176300000Y-77590000D01*
X176333333Y-77623333D01*
X176400000Y-77656666D01*
X176500000Y-77656666D01*
X176566666Y-77623333D01*
X176600000Y-77590000D01*
X176633333Y-77523333D01*
X176633333Y-77256666D01*
X176333333Y-77923333D02*
X176300000Y-77956666D01*
X176266666Y-78023333D01*
X176266666Y-78190000D01*
X176300000Y-78256666D01*
X176333333Y-78290000D01*
X176400000Y-78323333D01*
X176466666Y-78323333D01*
X176566666Y-78290000D01*
X176966666Y-77890000D01*
X176966666Y-78323333D01*
X176266666Y-78756666D02*
X176266666Y-78823333D01*
X176300000Y-78890000D01*
X176333333Y-78923333D01*
X176400000Y-78956666D01*
X176533333Y-78990000D01*
X176700000Y-78990000D01*
X176833333Y-78956666D01*
X176900000Y-78923333D01*
X176933333Y-78890000D01*
X176966666Y-78823333D01*
X176966666Y-78756666D01*
X176933333Y-78690000D01*
X176900000Y-78656666D01*
X176833333Y-78623333D01*
X176700000Y-78590000D01*
X176533333Y-78590000D01*
X176400000Y-78623333D01*
X176333333Y-78656666D01*
X176300000Y-78690000D01*
X176266666Y-78756666D01*
X176966666Y-79656666D02*
X176966666Y-79256666D01*
X176966666Y-79456666D02*
X176266666Y-79456666D01*
X176366666Y-79390000D01*
X176433333Y-79323333D01*
X176466666Y-79256666D01*
%TO.C,Tie*%
X121872380Y-96712380D02*
X121300952Y-96712380D01*
X121586666Y-97712380D02*
X121586666Y-96712380D01*
X120967619Y-97712380D02*
X120967619Y-97045714D01*
X120967619Y-96712380D02*
X121015238Y-96760000D01*
X120967619Y-96807619D01*
X120920000Y-96760000D01*
X120967619Y-96712380D01*
X120967619Y-96807619D01*
X120110476Y-97664761D02*
X120205714Y-97712380D01*
X120396190Y-97712380D01*
X120491428Y-97664761D01*
X120539047Y-97569523D01*
X120539047Y-97188571D01*
X120491428Y-97093333D01*
X120396190Y-97045714D01*
X120205714Y-97045714D01*
X120110476Y-97093333D01*
X120062857Y-97188571D01*
X120062857Y-97283809D01*
X120539047Y-97379047D01*
%TO.C,C103*%
X104507142Y-106398452D02*
X104554761Y-106350833D01*
X104602380Y-106207976D01*
X104602380Y-106112738D01*
X104554761Y-105969880D01*
X104459523Y-105874642D01*
X104364285Y-105827023D01*
X104173809Y-105779404D01*
X104030952Y-105779404D01*
X103840476Y-105827023D01*
X103745238Y-105874642D01*
X103650000Y-105969880D01*
X103602380Y-106112738D01*
X103602380Y-106207976D01*
X103650000Y-106350833D01*
X103697619Y-106398452D01*
X104602380Y-107350833D02*
X104602380Y-106779404D01*
X104602380Y-107065119D02*
X103602380Y-107065119D01*
X103745238Y-106969880D01*
X103840476Y-106874642D01*
X103888095Y-106779404D01*
X103602380Y-107969880D02*
X103602380Y-108065119D01*
X103650000Y-108160357D01*
X103697619Y-108207976D01*
X103792857Y-108255595D01*
X103983333Y-108303214D01*
X104221428Y-108303214D01*
X104411904Y-108255595D01*
X104507142Y-108207976D01*
X104554761Y-108160357D01*
X104602380Y-108065119D01*
X104602380Y-107969880D01*
X104554761Y-107874642D01*
X104507142Y-107827023D01*
X104411904Y-107779404D01*
X104221428Y-107731785D01*
X103983333Y-107731785D01*
X103792857Y-107779404D01*
X103697619Y-107827023D01*
X103650000Y-107874642D01*
X103602380Y-107969880D01*
X103602380Y-108636547D02*
X103602380Y-109255595D01*
X103983333Y-108922261D01*
X103983333Y-109065119D01*
X104030952Y-109160357D01*
X104078571Y-109207976D01*
X104173809Y-109255595D01*
X104411904Y-109255595D01*
X104507142Y-109207976D01*
X104554761Y-109160357D01*
X104602380Y-109065119D01*
X104602380Y-108779404D01*
X104554761Y-108684166D01*
X104507142Y-108636547D01*
%TO.C,JP103*%
X86636666Y-80920000D02*
X87136666Y-80920000D01*
X87236666Y-80886666D01*
X87303333Y-80820000D01*
X87336666Y-80720000D01*
X87336666Y-80653333D01*
X87336666Y-81253333D02*
X86636666Y-81253333D01*
X86636666Y-81520000D01*
X86670000Y-81586666D01*
X86703333Y-81620000D01*
X86770000Y-81653333D01*
X86870000Y-81653333D01*
X86936666Y-81620000D01*
X86970000Y-81586666D01*
X87003333Y-81520000D01*
X87003333Y-81253333D01*
X87336666Y-82320000D02*
X87336666Y-81920000D01*
X87336666Y-82120000D02*
X86636666Y-82120000D01*
X86736666Y-82053333D01*
X86803333Y-81986666D01*
X86836666Y-81920000D01*
X86636666Y-82753333D02*
X86636666Y-82820000D01*
X86670000Y-82886666D01*
X86703333Y-82920000D01*
X86770000Y-82953333D01*
X86903333Y-82986666D01*
X87070000Y-82986666D01*
X87203333Y-82953333D01*
X87270000Y-82920000D01*
X87303333Y-82886666D01*
X87336666Y-82820000D01*
X87336666Y-82753333D01*
X87303333Y-82686666D01*
X87270000Y-82653333D01*
X87203333Y-82620000D01*
X87070000Y-82586666D01*
X86903333Y-82586666D01*
X86770000Y-82620000D01*
X86703333Y-82653333D01*
X86670000Y-82686666D01*
X86636666Y-82753333D01*
X86636666Y-83220000D02*
X86636666Y-83653333D01*
X86903333Y-83420000D01*
X86903333Y-83520000D01*
X86936666Y-83586666D01*
X86970000Y-83620000D01*
X87036666Y-83653333D01*
X87203333Y-83653333D01*
X87270000Y-83620000D01*
X87303333Y-83586666D01*
X87336666Y-83520000D01*
X87336666Y-83320000D01*
X87303333Y-83253333D01*
X87270000Y-83220000D01*
%TO.C,J108*%
X82815000Y-98052666D02*
X82815000Y-98552666D01*
X82848333Y-98652666D01*
X82915000Y-98719333D01*
X83015000Y-98752666D01*
X83081666Y-98752666D01*
X82115000Y-98752666D02*
X82515000Y-98752666D01*
X82315000Y-98752666D02*
X82315000Y-98052666D01*
X82381666Y-98152666D01*
X82448333Y-98219333D01*
X82515000Y-98252666D01*
X81681666Y-98052666D02*
X81615000Y-98052666D01*
X81548333Y-98086000D01*
X81515000Y-98119333D01*
X81481666Y-98186000D01*
X81448333Y-98319333D01*
X81448333Y-98486000D01*
X81481666Y-98619333D01*
X81515000Y-98686000D01*
X81548333Y-98719333D01*
X81615000Y-98752666D01*
X81681666Y-98752666D01*
X81748333Y-98719333D01*
X81781666Y-98686000D01*
X81815000Y-98619333D01*
X81848333Y-98486000D01*
X81848333Y-98319333D01*
X81815000Y-98186000D01*
X81781666Y-98119333D01*
X81748333Y-98086000D01*
X81681666Y-98052666D01*
X81048333Y-98352666D02*
X81115000Y-98319333D01*
X81148333Y-98286000D01*
X81181666Y-98219333D01*
X81181666Y-98186000D01*
X81148333Y-98119333D01*
X81115000Y-98086000D01*
X81048333Y-98052666D01*
X80915000Y-98052666D01*
X80848333Y-98086000D01*
X80815000Y-98119333D01*
X80781666Y-98186000D01*
X80781666Y-98219333D01*
X80815000Y-98286000D01*
X80848333Y-98319333D01*
X80915000Y-98352666D01*
X81048333Y-98352666D01*
X81115000Y-98386000D01*
X81148333Y-98419333D01*
X81181666Y-98486000D01*
X81181666Y-98619333D01*
X81148333Y-98686000D01*
X81115000Y-98719333D01*
X81048333Y-98752666D01*
X80915000Y-98752666D01*
X80848333Y-98719333D01*
X80815000Y-98686000D01*
X80781666Y-98619333D01*
X80781666Y-98486000D01*
X80815000Y-98419333D01*
X80848333Y-98386000D01*
X80915000Y-98352666D01*
%TO.C,JP201*%
X133895714Y-82672380D02*
X133895714Y-83386666D01*
X133943333Y-83529523D01*
X134038571Y-83624761D01*
X134181428Y-83672380D01*
X134276666Y-83672380D01*
X133419523Y-83672380D02*
X133419523Y-82672380D01*
X133038571Y-82672380D01*
X132943333Y-82720000D01*
X132895714Y-82767619D01*
X132848095Y-82862857D01*
X132848095Y-83005714D01*
X132895714Y-83100952D01*
X132943333Y-83148571D01*
X133038571Y-83196190D01*
X133419523Y-83196190D01*
X132467142Y-82767619D02*
X132419523Y-82720000D01*
X132324285Y-82672380D01*
X132086190Y-82672380D01*
X131990952Y-82720000D01*
X131943333Y-82767619D01*
X131895714Y-82862857D01*
X131895714Y-82958095D01*
X131943333Y-83100952D01*
X132514761Y-83672380D01*
X131895714Y-83672380D01*
X131276666Y-82672380D02*
X131181428Y-82672380D01*
X131086190Y-82720000D01*
X131038571Y-82767619D01*
X130990952Y-82862857D01*
X130943333Y-83053333D01*
X130943333Y-83291428D01*
X130990952Y-83481904D01*
X131038571Y-83577142D01*
X131086190Y-83624761D01*
X131181428Y-83672380D01*
X131276666Y-83672380D01*
X131371904Y-83624761D01*
X131419523Y-83577142D01*
X131467142Y-83481904D01*
X131514761Y-83291428D01*
X131514761Y-83053333D01*
X131467142Y-82862857D01*
X131419523Y-82767619D01*
X131371904Y-82720000D01*
X131276666Y-82672380D01*
X129990952Y-83672380D02*
X130562380Y-83672380D01*
X130276666Y-83672380D02*
X130276666Y-82672380D01*
X130371904Y-82815238D01*
X130467142Y-82910476D01*
X130562380Y-82958095D01*
%TO.C,JP106*%
X91680000Y-98916666D02*
X91680000Y-99416666D01*
X91713333Y-99516666D01*
X91780000Y-99583333D01*
X91880000Y-99616666D01*
X91946666Y-99616666D01*
X91346666Y-99616666D02*
X91346666Y-98916666D01*
X91080000Y-98916666D01*
X91013333Y-98950000D01*
X90980000Y-98983333D01*
X90946666Y-99050000D01*
X90946666Y-99150000D01*
X90980000Y-99216666D01*
X91013333Y-99250000D01*
X91080000Y-99283333D01*
X91346666Y-99283333D01*
X90280000Y-99616666D02*
X90680000Y-99616666D01*
X90480000Y-99616666D02*
X90480000Y-98916666D01*
X90546666Y-99016666D01*
X90613333Y-99083333D01*
X90680000Y-99116666D01*
X89846666Y-98916666D02*
X89780000Y-98916666D01*
X89713333Y-98950000D01*
X89680000Y-98983333D01*
X89646666Y-99050000D01*
X89613333Y-99183333D01*
X89613333Y-99350000D01*
X89646666Y-99483333D01*
X89680000Y-99550000D01*
X89713333Y-99583333D01*
X89780000Y-99616666D01*
X89846666Y-99616666D01*
X89913333Y-99583333D01*
X89946666Y-99550000D01*
X89980000Y-99483333D01*
X90013333Y-99350000D01*
X90013333Y-99183333D01*
X89980000Y-99050000D01*
X89946666Y-98983333D01*
X89913333Y-98950000D01*
X89846666Y-98916666D01*
X89013333Y-98916666D02*
X89146666Y-98916666D01*
X89213333Y-98950000D01*
X89246666Y-98983333D01*
X89313333Y-99083333D01*
X89346666Y-99216666D01*
X89346666Y-99483333D01*
X89313333Y-99550000D01*
X89280000Y-99583333D01*
X89213333Y-99616666D01*
X89080000Y-99616666D01*
X89013333Y-99583333D01*
X88980000Y-99550000D01*
X88946666Y-99483333D01*
X88946666Y-99316666D01*
X88980000Y-99250000D01*
X89013333Y-99216666D01*
X89080000Y-99183333D01*
X89213333Y-99183333D01*
X89280000Y-99216666D01*
X89313333Y-99250000D01*
X89346666Y-99316666D01*
%TO.C,D203*%
X192813333Y-76656666D02*
X192813333Y-75956666D01*
X192646666Y-75956666D01*
X192546666Y-75990000D01*
X192480000Y-76056666D01*
X192446666Y-76123333D01*
X192413333Y-76256666D01*
X192413333Y-76356666D01*
X192446666Y-76490000D01*
X192480000Y-76556666D01*
X192546666Y-76623333D01*
X192646666Y-76656666D01*
X192813333Y-76656666D01*
X192146666Y-76023333D02*
X192113333Y-75990000D01*
X192046666Y-75956666D01*
X191880000Y-75956666D01*
X191813333Y-75990000D01*
X191780000Y-76023333D01*
X191746666Y-76090000D01*
X191746666Y-76156666D01*
X191780000Y-76256666D01*
X192180000Y-76656666D01*
X191746666Y-76656666D01*
X191313333Y-75956666D02*
X191246666Y-75956666D01*
X191180000Y-75990000D01*
X191146666Y-76023333D01*
X191113333Y-76090000D01*
X191080000Y-76223333D01*
X191080000Y-76390000D01*
X191113333Y-76523333D01*
X191146666Y-76590000D01*
X191180000Y-76623333D01*
X191246666Y-76656666D01*
X191313333Y-76656666D01*
X191380000Y-76623333D01*
X191413333Y-76590000D01*
X191446666Y-76523333D01*
X191480000Y-76390000D01*
X191480000Y-76223333D01*
X191446666Y-76090000D01*
X191413333Y-76023333D01*
X191380000Y-75990000D01*
X191313333Y-75956666D01*
X190846666Y-75956666D02*
X190413333Y-75956666D01*
X190646666Y-76223333D01*
X190546666Y-76223333D01*
X190480000Y-76256666D01*
X190446666Y-76290000D01*
X190413333Y-76356666D01*
X190413333Y-76523333D01*
X190446666Y-76590000D01*
X190480000Y-76623333D01*
X190546666Y-76656666D01*
X190746666Y-76656666D01*
X190813333Y-76623333D01*
X190846666Y-76590000D01*
%TO.C,J204*%
X189390000Y-116036666D02*
X189390000Y-116536666D01*
X189423333Y-116636666D01*
X189490000Y-116703333D01*
X189590000Y-116736666D01*
X189656666Y-116736666D01*
X189090000Y-116103333D02*
X189056666Y-116070000D01*
X188990000Y-116036666D01*
X188823333Y-116036666D01*
X188756666Y-116070000D01*
X188723333Y-116103333D01*
X188690000Y-116170000D01*
X188690000Y-116236666D01*
X188723333Y-116336666D01*
X189123333Y-116736666D01*
X188690000Y-116736666D01*
X188256666Y-116036666D02*
X188190000Y-116036666D01*
X188123333Y-116070000D01*
X188090000Y-116103333D01*
X188056666Y-116170000D01*
X188023333Y-116303333D01*
X188023333Y-116470000D01*
X188056666Y-116603333D01*
X188090000Y-116670000D01*
X188123333Y-116703333D01*
X188190000Y-116736666D01*
X188256666Y-116736666D01*
X188323333Y-116703333D01*
X188356666Y-116670000D01*
X188390000Y-116603333D01*
X188423333Y-116470000D01*
X188423333Y-116303333D01*
X188390000Y-116170000D01*
X188356666Y-116103333D01*
X188323333Y-116070000D01*
X188256666Y-116036666D01*
X187423333Y-116270000D02*
X187423333Y-116736666D01*
X187590000Y-116003333D02*
X187756666Y-116503333D01*
X187323333Y-116503333D01*
%TO.C,U205*%
X183958571Y-94854761D02*
X183958571Y-96473809D01*
X183863333Y-96664285D01*
X183768095Y-96759523D01*
X183577619Y-96854761D01*
X183196666Y-96854761D01*
X183006190Y-96759523D01*
X182910952Y-96664285D01*
X182815714Y-96473809D01*
X182815714Y-94854761D01*
X181958571Y-95045238D02*
X181863333Y-94950000D01*
X181672857Y-94854761D01*
X181196666Y-94854761D01*
X181006190Y-94950000D01*
X180910952Y-95045238D01*
X180815714Y-95235714D01*
X180815714Y-95426190D01*
X180910952Y-95711904D01*
X182053809Y-96854761D01*
X180815714Y-96854761D01*
X179577619Y-94854761D02*
X179387142Y-94854761D01*
X179196666Y-94950000D01*
X179101428Y-95045238D01*
X179006190Y-95235714D01*
X178910952Y-95616666D01*
X178910952Y-96092857D01*
X179006190Y-96473809D01*
X179101428Y-96664285D01*
X179196666Y-96759523D01*
X179387142Y-96854761D01*
X179577619Y-96854761D01*
X179768095Y-96759523D01*
X179863333Y-96664285D01*
X179958571Y-96473809D01*
X180053809Y-96092857D01*
X180053809Y-95616666D01*
X179958571Y-95235714D01*
X179863333Y-95045238D01*
X179768095Y-94950000D01*
X179577619Y-94854761D01*
X177101428Y-94854761D02*
X178053809Y-94854761D01*
X178149047Y-95807142D01*
X178053809Y-95711904D01*
X177863333Y-95616666D01*
X177387142Y-95616666D01*
X177196666Y-95711904D01*
X177101428Y-95807142D01*
X177006190Y-95997619D01*
X177006190Y-96473809D01*
X177101428Y-96664285D01*
X177196666Y-96759523D01*
X177387142Y-96854761D01*
X177863333Y-96854761D01*
X178053809Y-96759523D01*
X178149047Y-96664285D01*
%TO.C,JP107*%
X86726666Y-109080000D02*
X87226666Y-109080000D01*
X87326666Y-109046666D01*
X87393333Y-108980000D01*
X87426666Y-108880000D01*
X87426666Y-108813333D01*
X87426666Y-109413333D02*
X86726666Y-109413333D01*
X86726666Y-109680000D01*
X86760000Y-109746666D01*
X86793333Y-109780000D01*
X86860000Y-109813333D01*
X86960000Y-109813333D01*
X87026666Y-109780000D01*
X87060000Y-109746666D01*
X87093333Y-109680000D01*
X87093333Y-109413333D01*
X87426666Y-110480000D02*
X87426666Y-110080000D01*
X87426666Y-110280000D02*
X86726666Y-110280000D01*
X86826666Y-110213333D01*
X86893333Y-110146666D01*
X86926666Y-110080000D01*
X86726666Y-110913333D02*
X86726666Y-110980000D01*
X86760000Y-111046666D01*
X86793333Y-111080000D01*
X86860000Y-111113333D01*
X86993333Y-111146666D01*
X87160000Y-111146666D01*
X87293333Y-111113333D01*
X87360000Y-111080000D01*
X87393333Y-111046666D01*
X87426666Y-110980000D01*
X87426666Y-110913333D01*
X87393333Y-110846666D01*
X87360000Y-110813333D01*
X87293333Y-110780000D01*
X87160000Y-110746666D01*
X86993333Y-110746666D01*
X86860000Y-110780000D01*
X86793333Y-110813333D01*
X86760000Y-110846666D01*
X86726666Y-110913333D01*
X86726666Y-111380000D02*
X86726666Y-111846666D01*
X87426666Y-111546666D01*
%TO.C,J203*%
X189020000Y-75646666D02*
X189020000Y-76146666D01*
X189053333Y-76246666D01*
X189120000Y-76313333D01*
X189220000Y-76346666D01*
X189286666Y-76346666D01*
X188720000Y-75713333D02*
X188686666Y-75680000D01*
X188620000Y-75646666D01*
X188453333Y-75646666D01*
X188386666Y-75680000D01*
X188353333Y-75713333D01*
X188320000Y-75780000D01*
X188320000Y-75846666D01*
X188353333Y-75946666D01*
X188753333Y-76346666D01*
X188320000Y-76346666D01*
X187886666Y-75646666D02*
X187820000Y-75646666D01*
X187753333Y-75680000D01*
X187720000Y-75713333D01*
X187686666Y-75780000D01*
X187653333Y-75913333D01*
X187653333Y-76080000D01*
X187686666Y-76213333D01*
X187720000Y-76280000D01*
X187753333Y-76313333D01*
X187820000Y-76346666D01*
X187886666Y-76346666D01*
X187953333Y-76313333D01*
X187986666Y-76280000D01*
X188020000Y-76213333D01*
X188053333Y-76080000D01*
X188053333Y-75913333D01*
X188020000Y-75780000D01*
X187986666Y-75713333D01*
X187953333Y-75680000D01*
X187886666Y-75646666D01*
X187420000Y-75646666D02*
X186986666Y-75646666D01*
X187220000Y-75913333D01*
X187120000Y-75913333D01*
X187053333Y-75946666D01*
X187020000Y-75980000D01*
X186986666Y-76046666D01*
X186986666Y-76213333D01*
X187020000Y-76280000D01*
X187053333Y-76313333D01*
X187120000Y-76346666D01*
X187320000Y-76346666D01*
X187386666Y-76313333D01*
X187420000Y-76280000D01*
%TO.C,JP104*%
X91260000Y-92846666D02*
X91260000Y-93346666D01*
X91293333Y-93446666D01*
X91360000Y-93513333D01*
X91460000Y-93546666D01*
X91526666Y-93546666D01*
X90926666Y-93546666D02*
X90926666Y-92846666D01*
X90660000Y-92846666D01*
X90593333Y-92880000D01*
X90560000Y-92913333D01*
X90526666Y-92980000D01*
X90526666Y-93080000D01*
X90560000Y-93146666D01*
X90593333Y-93180000D01*
X90660000Y-93213333D01*
X90926666Y-93213333D01*
X89860000Y-93546666D02*
X90260000Y-93546666D01*
X90060000Y-93546666D02*
X90060000Y-92846666D01*
X90126666Y-92946666D01*
X90193333Y-93013333D01*
X90260000Y-93046666D01*
X89426666Y-92846666D02*
X89360000Y-92846666D01*
X89293333Y-92880000D01*
X89260000Y-92913333D01*
X89226666Y-92980000D01*
X89193333Y-93113333D01*
X89193333Y-93280000D01*
X89226666Y-93413333D01*
X89260000Y-93480000D01*
X89293333Y-93513333D01*
X89360000Y-93546666D01*
X89426666Y-93546666D01*
X89493333Y-93513333D01*
X89526666Y-93480000D01*
X89560000Y-93413333D01*
X89593333Y-93280000D01*
X89593333Y-93113333D01*
X89560000Y-92980000D01*
X89526666Y-92913333D01*
X89493333Y-92880000D01*
X89426666Y-92846666D01*
X88593333Y-93080000D02*
X88593333Y-93546666D01*
X88760000Y-92813333D02*
X88926666Y-93313333D01*
X88493333Y-93313333D01*
%TO.C,D204*%
X192950833Y-113176666D02*
X192950833Y-112476666D01*
X192784166Y-112476666D01*
X192684166Y-112510000D01*
X192617500Y-112576666D01*
X192584166Y-112643333D01*
X192550833Y-112776666D01*
X192550833Y-112876666D01*
X192584166Y-113010000D01*
X192617500Y-113076666D01*
X192684166Y-113143333D01*
X192784166Y-113176666D01*
X192950833Y-113176666D01*
X192284166Y-112543333D02*
X192250833Y-112510000D01*
X192184166Y-112476666D01*
X192017500Y-112476666D01*
X191950833Y-112510000D01*
X191917500Y-112543333D01*
X191884166Y-112610000D01*
X191884166Y-112676666D01*
X191917500Y-112776666D01*
X192317500Y-113176666D01*
X191884166Y-113176666D01*
X191450833Y-112476666D02*
X191384166Y-112476666D01*
X191317500Y-112510000D01*
X191284166Y-112543333D01*
X191250833Y-112610000D01*
X191217500Y-112743333D01*
X191217500Y-112910000D01*
X191250833Y-113043333D01*
X191284166Y-113110000D01*
X191317500Y-113143333D01*
X191384166Y-113176666D01*
X191450833Y-113176666D01*
X191517500Y-113143333D01*
X191550833Y-113110000D01*
X191584166Y-113043333D01*
X191617500Y-112910000D01*
X191617500Y-112743333D01*
X191584166Y-112610000D01*
X191550833Y-112543333D01*
X191517500Y-112510000D01*
X191450833Y-112476666D01*
X190617500Y-112710000D02*
X190617500Y-113176666D01*
X190784166Y-112443333D02*
X190950833Y-112943333D01*
X190517500Y-112943333D01*
%TO.C,J104*%
X85875714Y-108542380D02*
X85875714Y-109256666D01*
X85923333Y-109399523D01*
X86018571Y-109494761D01*
X86161428Y-109542380D01*
X86256666Y-109542380D01*
X84875714Y-109542380D02*
X85447142Y-109542380D01*
X85161428Y-109542380D02*
X85161428Y-108542380D01*
X85256666Y-108685238D01*
X85351904Y-108780476D01*
X85447142Y-108828095D01*
X84256666Y-108542380D02*
X84161428Y-108542380D01*
X84066190Y-108590000D01*
X84018571Y-108637619D01*
X83970952Y-108732857D01*
X83923333Y-108923333D01*
X83923333Y-109161428D01*
X83970952Y-109351904D01*
X84018571Y-109447142D01*
X84066190Y-109494761D01*
X84161428Y-109542380D01*
X84256666Y-109542380D01*
X84351904Y-109494761D01*
X84399523Y-109447142D01*
X84447142Y-109351904D01*
X84494761Y-109161428D01*
X84494761Y-108923333D01*
X84447142Y-108732857D01*
X84399523Y-108637619D01*
X84351904Y-108590000D01*
X84256666Y-108542380D01*
X83066190Y-108875714D02*
X83066190Y-109542380D01*
X83304285Y-108494761D02*
X83542380Y-109209047D01*
X82923333Y-109209047D01*
%TO.C,J301*%
X196972380Y-95054285D02*
X197686666Y-95054285D01*
X197829523Y-95006666D01*
X197924761Y-94911428D01*
X197972380Y-94768571D01*
X197972380Y-94673333D01*
X196972380Y-95435238D02*
X196972380Y-96054285D01*
X197353333Y-95720952D01*
X197353333Y-95863809D01*
X197400952Y-95959047D01*
X197448571Y-96006666D01*
X197543809Y-96054285D01*
X197781904Y-96054285D01*
X197877142Y-96006666D01*
X197924761Y-95959047D01*
X197972380Y-95863809D01*
X197972380Y-95578095D01*
X197924761Y-95482857D01*
X197877142Y-95435238D01*
X196972380Y-96673333D02*
X196972380Y-96768571D01*
X197020000Y-96863809D01*
X197067619Y-96911428D01*
X197162857Y-96959047D01*
X197353333Y-97006666D01*
X197591428Y-97006666D01*
X197781904Y-96959047D01*
X197877142Y-96911428D01*
X197924761Y-96863809D01*
X197972380Y-96768571D01*
X197972380Y-96673333D01*
X197924761Y-96578095D01*
X197877142Y-96530476D01*
X197781904Y-96482857D01*
X197591428Y-96435238D01*
X197353333Y-96435238D01*
X197162857Y-96482857D01*
X197067619Y-96530476D01*
X197020000Y-96578095D01*
X196972380Y-96673333D01*
X197972380Y-97959047D02*
X197972380Y-97387619D01*
X197972380Y-97673333D02*
X196972380Y-97673333D01*
X197115238Y-97578095D01*
X197210476Y-97482857D01*
X197258095Y-97387619D01*
%TO.C,TP201*%
X155454285Y-83242380D02*
X154882857Y-83242380D01*
X155168571Y-84242380D02*
X155168571Y-83242380D01*
X154549523Y-84242380D02*
X154549523Y-83242380D01*
X154168571Y-83242380D01*
X154073333Y-83290000D01*
X154025714Y-83337619D01*
X153978095Y-83432857D01*
X153978095Y-83575714D01*
X154025714Y-83670952D01*
X154073333Y-83718571D01*
X154168571Y-83766190D01*
X154549523Y-83766190D01*
X153597142Y-83337619D02*
X153549523Y-83290000D01*
X153454285Y-83242380D01*
X153216190Y-83242380D01*
X153120952Y-83290000D01*
X153073333Y-83337619D01*
X153025714Y-83432857D01*
X153025714Y-83528095D01*
X153073333Y-83670952D01*
X153644761Y-84242380D01*
X153025714Y-84242380D01*
X152406666Y-83242380D02*
X152311428Y-83242380D01*
X152216190Y-83290000D01*
X152168571Y-83337619D01*
X152120952Y-83432857D01*
X152073333Y-83623333D01*
X152073333Y-83861428D01*
X152120952Y-84051904D01*
X152168571Y-84147142D01*
X152216190Y-84194761D01*
X152311428Y-84242380D01*
X152406666Y-84242380D01*
X152501904Y-84194761D01*
X152549523Y-84147142D01*
X152597142Y-84051904D01*
X152644761Y-83861428D01*
X152644761Y-83623333D01*
X152597142Y-83432857D01*
X152549523Y-83337619D01*
X152501904Y-83290000D01*
X152406666Y-83242380D01*
X151120952Y-84242380D02*
X151692380Y-84242380D01*
X151406666Y-84242380D02*
X151406666Y-83242380D01*
X151501904Y-83385238D01*
X151597142Y-83480476D01*
X151692380Y-83528095D01*
%TO.C,T101*%
X122676519Y-108354640D02*
X122105091Y-108354640D01*
X122390805Y-109354640D02*
X122390805Y-108354640D01*
X121247948Y-109354640D02*
X121819376Y-109354640D01*
X121533662Y-109354640D02*
X121533662Y-108354640D01*
X121628900Y-108497498D01*
X121724138Y-108592736D01*
X121819376Y-108640355D01*
X120628900Y-108354640D02*
X120533662Y-108354640D01*
X120438424Y-108402260D01*
X120390805Y-108449879D01*
X120343186Y-108545117D01*
X120295567Y-108735593D01*
X120295567Y-108973688D01*
X120343186Y-109164164D01*
X120390805Y-109259402D01*
X120438424Y-109307021D01*
X120533662Y-109354640D01*
X120628900Y-109354640D01*
X120724138Y-109307021D01*
X120771757Y-109259402D01*
X120819376Y-109164164D01*
X120866995Y-108973688D01*
X120866995Y-108735593D01*
X120819376Y-108545117D01*
X120771757Y-108449879D01*
X120724138Y-108402260D01*
X120628900Y-108354640D01*
X119343186Y-109354640D02*
X119914614Y-109354640D01*
X119628900Y-109354640D02*
X119628900Y-108354640D01*
X119724138Y-108497498D01*
X119819376Y-108592736D01*
X119914614Y-108640355D01*
X118117142Y-108062857D02*
X118145714Y-108148571D01*
X118174285Y-108177142D01*
X118231428Y-108205714D01*
X118317142Y-108205714D01*
X118374285Y-108177142D01*
X118402857Y-108148571D01*
X118431428Y-108091428D01*
X118431428Y-107862857D01*
X117831428Y-107862857D01*
X117831428Y-108062857D01*
X117860000Y-108120000D01*
X117888571Y-108148571D01*
X117945714Y-108177142D01*
X118002857Y-108177142D01*
X118060000Y-108148571D01*
X118088571Y-108120000D01*
X118117142Y-108062857D01*
X118117142Y-107862857D01*
X122324285Y-100082857D02*
X122352857Y-100054285D01*
X122381428Y-99968571D01*
X122381428Y-99911428D01*
X122352857Y-99825714D01*
X122295714Y-99768571D01*
X122238571Y-99740000D01*
X122124285Y-99711428D01*
X122038571Y-99711428D01*
X121924285Y-99740000D01*
X121867142Y-99768571D01*
X121810000Y-99825714D01*
X121781428Y-99911428D01*
X121781428Y-99968571D01*
X121810000Y-100054285D01*
X121838571Y-100082857D01*
X121781428Y-100368571D02*
X121895714Y-100311428D01*
X116674285Y-106405714D02*
X116702857Y-106377142D01*
X116731428Y-106291428D01*
X116731428Y-106234285D01*
X116702857Y-106148571D01*
X116645714Y-106091428D01*
X116588571Y-106062857D01*
X116474285Y-106034285D01*
X116388571Y-106034285D01*
X116274285Y-106062857D01*
X116217142Y-106091428D01*
X116160000Y-106148571D01*
X116131428Y-106234285D01*
X116131428Y-106291428D01*
X116160000Y-106377142D01*
X116188571Y-106405714D01*
X123667142Y-100970000D02*
X123695714Y-101055714D01*
X123724285Y-101084285D01*
X123781428Y-101112857D01*
X123867142Y-101112857D01*
X123924285Y-101084285D01*
X123952857Y-101055714D01*
X123981428Y-100998571D01*
X123981428Y-100770000D01*
X123381428Y-100770000D01*
X123381428Y-100970000D01*
X123410000Y-101027142D01*
X123438571Y-101055714D01*
X123495714Y-101084285D01*
X123552857Y-101084285D01*
X123610000Y-101055714D01*
X123638571Y-101027142D01*
X123667142Y-100970000D01*
X123667142Y-100770000D01*
X123381428Y-101398571D02*
X123495714Y-101341428D01*
X120271428Y-103860000D02*
X119671428Y-103860000D01*
X119671428Y-104088571D01*
X119700000Y-104145714D01*
X119728571Y-104174285D01*
X119785714Y-104202857D01*
X119871428Y-104202857D01*
X119928571Y-104174285D01*
X119957142Y-104145714D01*
X119985714Y-104088571D01*
X119985714Y-103860000D01*
X119671428Y-104488571D02*
X119785714Y-104431428D01*
X121121428Y-106942857D02*
X120521428Y-106942857D01*
X120521428Y-107171428D01*
X120550000Y-107228571D01*
X120578571Y-107257142D01*
X120635714Y-107285714D01*
X120721428Y-107285714D01*
X120778571Y-107257142D01*
X120807142Y-107228571D01*
X120835714Y-107171428D01*
X120835714Y-106942857D01*
%TO.C,J102*%
X85755714Y-83042380D02*
X85755714Y-83756666D01*
X85803333Y-83899523D01*
X85898571Y-83994761D01*
X86041428Y-84042380D01*
X86136666Y-84042380D01*
X84755714Y-84042380D02*
X85327142Y-84042380D01*
X85041428Y-84042380D02*
X85041428Y-83042380D01*
X85136666Y-83185238D01*
X85231904Y-83280476D01*
X85327142Y-83328095D01*
X84136666Y-83042380D02*
X84041428Y-83042380D01*
X83946190Y-83090000D01*
X83898571Y-83137619D01*
X83850952Y-83232857D01*
X83803333Y-83423333D01*
X83803333Y-83661428D01*
X83850952Y-83851904D01*
X83898571Y-83947142D01*
X83946190Y-83994761D01*
X84041428Y-84042380D01*
X84136666Y-84042380D01*
X84231904Y-83994761D01*
X84279523Y-83947142D01*
X84327142Y-83851904D01*
X84374761Y-83661428D01*
X84374761Y-83423333D01*
X84327142Y-83232857D01*
X84279523Y-83137619D01*
X84231904Y-83090000D01*
X84136666Y-83042380D01*
X83422380Y-83137619D02*
X83374761Y-83090000D01*
X83279523Y-83042380D01*
X83041428Y-83042380D01*
X82946190Y-83090000D01*
X82898571Y-83137619D01*
X82850952Y-83232857D01*
X82850952Y-83328095D01*
X82898571Y-83470952D01*
X83470000Y-84042380D01*
X82850952Y-84042380D01*
%TO.C,RV101*%
X107217619Y-84492380D02*
X107550952Y-84016190D01*
X107789047Y-84492380D02*
X107789047Y-83492380D01*
X107408095Y-83492380D01*
X107312857Y-83540000D01*
X107265238Y-83587619D01*
X107217619Y-83682857D01*
X107217619Y-83825714D01*
X107265238Y-83920952D01*
X107312857Y-83968571D01*
X107408095Y-84016190D01*
X107789047Y-84016190D01*
X106931904Y-83492380D02*
X106598571Y-84492380D01*
X106265238Y-83492380D01*
X105408095Y-84492380D02*
X105979523Y-84492380D01*
X105693809Y-84492380D02*
X105693809Y-83492380D01*
X105789047Y-83635238D01*
X105884285Y-83730476D01*
X105979523Y-83778095D01*
X104789047Y-83492380D02*
X104693809Y-83492380D01*
X104598571Y-83540000D01*
X104550952Y-83587619D01*
X104503333Y-83682857D01*
X104455714Y-83873333D01*
X104455714Y-84111428D01*
X104503333Y-84301904D01*
X104550952Y-84397142D01*
X104598571Y-84444761D01*
X104693809Y-84492380D01*
X104789047Y-84492380D01*
X104884285Y-84444761D01*
X104931904Y-84397142D01*
X104979523Y-84301904D01*
X105027142Y-84111428D01*
X105027142Y-83873333D01*
X104979523Y-83682857D01*
X104931904Y-83587619D01*
X104884285Y-83540000D01*
X104789047Y-83492380D01*
X103503333Y-84492380D02*
X104074761Y-84492380D01*
X103789047Y-84492380D02*
X103789047Y-83492380D01*
X103884285Y-83635238D01*
X103979523Y-83730476D01*
X104074761Y-83778095D01*
%TO.C,BT201*%
X119193571Y-84636904D02*
X119241190Y-84779761D01*
X119288809Y-84827380D01*
X119384047Y-84875000D01*
X119526904Y-84875000D01*
X119622142Y-84827380D01*
X119669761Y-84779761D01*
X119717380Y-84684523D01*
X119717380Y-84303571D01*
X118717380Y-84303571D01*
X118717380Y-84636904D01*
X118765000Y-84732142D01*
X118812619Y-84779761D01*
X118907857Y-84827380D01*
X119003095Y-84827380D01*
X119098333Y-84779761D01*
X119145952Y-84732142D01*
X119193571Y-84636904D01*
X119193571Y-84303571D01*
X118717380Y-85160714D02*
X118717380Y-85732142D01*
X119717380Y-85446428D02*
X118717380Y-85446428D01*
X118812619Y-86017857D02*
X118765000Y-86065476D01*
X118717380Y-86160714D01*
X118717380Y-86398809D01*
X118765000Y-86494047D01*
X118812619Y-86541666D01*
X118907857Y-86589285D01*
X119003095Y-86589285D01*
X119145952Y-86541666D01*
X119717380Y-85970238D01*
X119717380Y-86589285D01*
X118717380Y-87208333D02*
X118717380Y-87303571D01*
X118765000Y-87398809D01*
X118812619Y-87446428D01*
X118907857Y-87494047D01*
X119098333Y-87541666D01*
X119336428Y-87541666D01*
X119526904Y-87494047D01*
X119622142Y-87446428D01*
X119669761Y-87398809D01*
X119717380Y-87303571D01*
X119717380Y-87208333D01*
X119669761Y-87113095D01*
X119622142Y-87065476D01*
X119526904Y-87017857D01*
X119336428Y-86970238D01*
X119098333Y-86970238D01*
X118907857Y-87017857D01*
X118812619Y-87065476D01*
X118765000Y-87113095D01*
X118717380Y-87208333D01*
X119717380Y-88494047D02*
X119717380Y-87922619D01*
X119717380Y-88208333D02*
X118717380Y-88208333D01*
X118860238Y-88113095D01*
X118955476Y-88017857D01*
X119003095Y-87922619D01*
D13*
%TO.C,SW203*%
X100890000Y-90286000D02*
X100890000Y-92686000D01*
X104990000Y-90286000D02*
X100890000Y-90286000D01*
X113090000Y-90286000D02*
X113090000Y-102086000D01*
X108990000Y-102086000D02*
X113090000Y-102086000D01*
X100910000Y-100006000D02*
X100890000Y-102086000D01*
X107490000Y-96186000D02*
X106490000Y-96186000D01*
X100890000Y-102086000D02*
X104990000Y-102086000D01*
X108990000Y-90286000D02*
X113090000Y-90286000D01*
X114790000Y-92086000D02*
X114190000Y-92086000D01*
X114190000Y-92086000D02*
X114490000Y-92386000D01*
X114490000Y-92386000D02*
X114790000Y-92086000D01*
X100890000Y-94886000D02*
X100890000Y-97486000D01*
X106990000Y-95686000D02*
X106990000Y-96686000D01*
X109990000Y-96186000D02*
G75*
G03*
X109990000Y-96186000I-3000000J0D01*
G01*
%TO.C,P201*%
X179875000Y-81155000D02*
X179875000Y-78545000D01*
X179875000Y-78545000D02*
X177265000Y-78545000D01*
X177295000Y-78545000D02*
X177295000Y-75965000D01*
X177285000Y-81155000D02*
X177285000Y-79825000D01*
X185025000Y-81155000D02*
X179875000Y-81155000D01*
X185025000Y-75965000D02*
X185025000Y-81155000D01*
X177295000Y-75965000D02*
X185025000Y-75965000D01*
X178630000Y-81145000D02*
X177300000Y-81145000D01*
D10*
X181295227Y-81615000D02*
G75*
G03*
X181295227Y-81615000I-220227J0D01*
G01*
%TO.C,JP202*%
G36*
X131760000Y-79780000D02*
G01*
X130890000Y-79780000D01*
X130890000Y-78870000D01*
X131760000Y-78870000D01*
X131760000Y-79780000D01*
G37*
D13*
%TO.C,C103*%
X95830000Y-103490000D02*
X95830000Y-105890000D01*
X99830000Y-105890000D02*
X99830000Y-103490000D01*
X99830000Y-103490000D02*
X95830000Y-103490000D01*
X95860000Y-105900000D02*
G75*
G03*
X99860000Y-105900000I2000000J-5494955D01*
G01*
%TO.C,JP103*%
X87820000Y-81470000D02*
X87820000Y-82870000D01*
X88520000Y-83570000D02*
X89120000Y-83570000D01*
X89120000Y-80770000D02*
X88520000Y-80770000D01*
X89820000Y-82870000D02*
X89820000Y-81470000D01*
X89820000Y-81470000D02*
G75*
G03*
X89120000Y-80770000I-699999J1D01*
G01*
X89120000Y-83570000D02*
G75*
G03*
X89820000Y-82870000I0J700000D01*
G01*
X87820000Y-82870000D02*
G75*
G03*
X88520000Y-83570000I700000J0D01*
G01*
X88520000Y-80770000D02*
G75*
G03*
X87820000Y-81470000I-1J-699999D01*
G01*
%TO.C,J108*%
X80315000Y-94586000D02*
X80315000Y-97786000D01*
X83515000Y-94586000D02*
X80315000Y-94586000D01*
X83515000Y-97786000D02*
X80315000Y-97786000D01*
X83515000Y-94586000D02*
X83515000Y-97786000D01*
%TO.C,JP201*%
X137270000Y-81930000D02*
X135870000Y-81930000D01*
X137970000Y-83230000D02*
X137970000Y-82630000D01*
X135870000Y-83930000D02*
X137270000Y-83930000D01*
X135170000Y-82630000D02*
X135170000Y-83230000D01*
X137270000Y-83930000D02*
G75*
G03*
X137970000Y-83230000I1J699999D01*
G01*
X135170000Y-83230000D02*
G75*
G03*
X135870000Y-83930000I700000J0D01*
G01*
X135870000Y-81930000D02*
G75*
G03*
X135170000Y-82630000I0J-700000D01*
G01*
X137970000Y-82630000D02*
G75*
G03*
X137270000Y-81930000I-699999J1D01*
G01*
%TO.C,JP106*%
X91690000Y-101240000D02*
X91690000Y-100640000D01*
X89590000Y-101940000D02*
X90990000Y-101940000D01*
X88890000Y-100640000D02*
X88890000Y-101240000D01*
X90990000Y-99940000D02*
X89590000Y-99940000D01*
X90990000Y-101940000D02*
G75*
G03*
X91690000Y-101240000I1J699999D01*
G01*
X89590000Y-99940000D02*
G75*
G03*
X88890000Y-100640000I0J-700000D01*
G01*
X88890000Y-101240000D02*
G75*
G03*
X89590000Y-101940000I700000J0D01*
G01*
X91690000Y-100640000D02*
G75*
G03*
X90990000Y-99940000I-699999J1D01*
G01*
D10*
%TO.C,D203*%
X193020000Y-79950000D02*
X190060000Y-79950000D01*
D13*
X190630000Y-77030000D02*
X193315000Y-77030000D01*
X193315000Y-78950000D02*
X190630000Y-78950000D01*
D10*
X192180000Y-79260000D02*
X192180000Y-80780000D01*
D13*
X193315000Y-77030000D02*
X193315000Y-78950000D01*
G36*
X192152802Y-79965493D02*
G01*
X191020000Y-80830000D01*
X191010000Y-79250000D01*
X192152802Y-79965493D01*
G37*
D10*
X192152802Y-79965493D02*
X191020000Y-80830000D01*
X191010000Y-79250000D01*
X192152802Y-79965493D01*
D13*
%TO.C,J204*%
X188130000Y-115775000D02*
X189460000Y-115775000D01*
X188130000Y-113115000D02*
X189460000Y-113115000D01*
X186735000Y-115775000D02*
X187495000Y-115775000D01*
X189460000Y-114752530D02*
X189460000Y-115775000D01*
X186735000Y-114445000D02*
X186735000Y-115775000D01*
X188130000Y-113115000D02*
X188130000Y-113685000D01*
X188130000Y-115205000D02*
X188130000Y-115775000D01*
X189460000Y-113115000D02*
X189460000Y-114137470D01*
%TO.C,U205*%
X195180000Y-101270000D02*
X165400000Y-101270000D01*
X172800000Y-85880000D02*
X187800000Y-85880000D01*
X193300000Y-111280000D02*
X198350000Y-111280000D01*
X165400000Y-101270000D02*
X165400000Y-90880000D01*
X198350000Y-111280000D02*
X198350000Y-85880000D01*
X165400000Y-90880000D02*
X195180000Y-90880000D01*
X162110000Y-111280000D02*
X166800000Y-111280000D01*
X195180000Y-90880000D02*
X195180000Y-101270000D01*
X193300000Y-85880000D02*
X198350000Y-85880000D01*
X162110000Y-85880000D02*
X162110000Y-111280000D01*
X167550000Y-84630000D02*
X167550000Y-85880000D01*
X167550000Y-84630000D02*
X169800000Y-84630000D01*
X166800000Y-85880000D02*
X162110000Y-85880000D01*
%TO.C,JP107*%
X88570000Y-111550000D02*
X89170000Y-111550000D01*
X87870000Y-109450000D02*
X87870000Y-110850000D01*
X89870000Y-110850000D02*
X89870000Y-109450000D01*
X89170000Y-108750000D02*
X88570000Y-108750000D01*
X89170000Y-111550000D02*
G75*
G03*
X89870000Y-110850000I1J699999D01*
G01*
X88570000Y-108750000D02*
G75*
G03*
X87870000Y-109450000I0J-700000D01*
G01*
X87870000Y-110850000D02*
G75*
G03*
X88570000Y-111550000I699999J-1D01*
G01*
X89870000Y-109450000D02*
G75*
G03*
X89170000Y-108750000I-700000J0D01*
G01*
%TO.C,J203*%
X188050000Y-76645000D02*
X188050000Y-77215000D01*
X188050000Y-78735000D02*
X188050000Y-79305000D01*
X189380000Y-78282530D02*
X189380000Y-79305000D01*
X186655000Y-77975000D02*
X186655000Y-79305000D01*
X188050000Y-76645000D02*
X189380000Y-76645000D01*
X189380000Y-76645000D02*
X189380000Y-77667470D01*
X188050000Y-79305000D02*
X189380000Y-79305000D01*
X186655000Y-79305000D02*
X187415000Y-79305000D01*
%TO.C,JP104*%
X91240000Y-91680000D02*
X91240000Y-91080000D01*
X90540000Y-90380000D02*
X89140000Y-90380000D01*
X88440000Y-91080000D02*
X88440000Y-91680000D01*
X89140000Y-92380000D02*
X90540000Y-92380000D01*
X89140000Y-90380000D02*
G75*
G03*
X88440000Y-91080000I0J-700000D01*
G01*
X88440000Y-91680000D02*
G75*
G03*
X89140000Y-92380000I700000J0D01*
G01*
X90540000Y-92380000D02*
G75*
G03*
X91240000Y-91680000I1J699999D01*
G01*
X91240000Y-91080000D02*
G75*
G03*
X90540000Y-90380000I-699999J1D01*
G01*
%TO.C,D204*%
X193335000Y-115387500D02*
X190650000Y-115387500D01*
D10*
X192200000Y-115697500D02*
X192200000Y-117217500D01*
D13*
X190650000Y-113467500D02*
X193335000Y-113467500D01*
D10*
X193040000Y-116387500D02*
X190080000Y-116387500D01*
D13*
X193335000Y-113467500D02*
X193335000Y-115387500D01*
G36*
X192172802Y-116402993D02*
G01*
X191040000Y-117267500D01*
X191030000Y-115687500D01*
X192172802Y-116402993D01*
G37*
D10*
X192172802Y-116402993D02*
X191040000Y-117267500D01*
X191030000Y-115687500D01*
X192172802Y-116402993D01*
D13*
%TO.C,J104*%
X82420000Y-105345000D02*
X79820000Y-105345000D01*
X81150000Y-102745000D02*
X79820000Y-102745000D01*
X82420000Y-102745000D02*
X82420000Y-105345000D01*
X79820000Y-107945000D02*
X90100000Y-107945000D01*
X82420000Y-102745000D02*
X90100000Y-102745000D01*
X90100000Y-102745000D02*
X90100000Y-107945000D01*
X79820000Y-102745000D02*
X79820000Y-104075000D01*
X79820000Y-105345000D02*
X79820000Y-107945000D01*
D14*
%TO.C,J301*%
X204470000Y-93186000D02*
X199000000Y-93186000D01*
X210500000Y-93186000D02*
X207070000Y-93186000D01*
X210500000Y-99186000D02*
X209670000Y-99186000D01*
X202920000Y-99186000D02*
X207230000Y-99186000D01*
X199000000Y-99186000D02*
X200480000Y-99186000D01*
X199000000Y-93186000D02*
X199000000Y-99186000D01*
D15*
X205950000Y-90436000D02*
G75*
G03*
X205950000Y-90436000I-100000J0D01*
G01*
D13*
%TO.C,TP201*%
X154295000Y-82850000D02*
X154295000Y-82280000D01*
X155690000Y-81520000D02*
X155690000Y-80190000D01*
X150425000Y-82850000D02*
X150425000Y-81827530D01*
X154295000Y-80760000D02*
X154295000Y-80190000D01*
X154295000Y-80190000D02*
X150425000Y-80190000D01*
X155690000Y-80190000D02*
X154930000Y-80190000D01*
X154295000Y-82850000D02*
X150425000Y-82850000D01*
X150425000Y-81212470D02*
X150425000Y-80190000D01*
D10*
%TO.C,T101*%
X122939999Y-101225004D02*
G75*
G03*
X121820000Y-98680000I-2383106J470194D01*
G01*
X121762149Y-105555337D02*
G75*
G03*
X121880000Y-96130000I-1135999J4727609D01*
G01*
X120000000Y-98610001D02*
G75*
G03*
X119398030Y-102897149I528820J-2260089D01*
G01*
X120000000Y-96090000D02*
G75*
G03*
X117580252Y-104641063I512693J-4762977D01*
G01*
D13*
%TO.C,J102*%
X79820000Y-84365000D02*
X79820000Y-85695000D01*
X79820000Y-86965000D02*
X79820000Y-89565000D01*
X82420000Y-86965000D02*
X79820000Y-86965000D01*
X82420000Y-84365000D02*
X90100000Y-84365000D01*
X90100000Y-84365000D02*
X90100000Y-89565000D01*
X79820000Y-89565000D02*
X90100000Y-89565000D01*
X81150000Y-84365000D02*
X79820000Y-84365000D01*
X82420000Y-84365000D02*
X82420000Y-86965000D01*
%TO.C,RV101*%
X102160000Y-75750000D02*
X102160000Y-82810000D01*
X108760000Y-75750000D02*
X108760000Y-82810000D01*
X102160000Y-75750000D02*
X108760000Y-75750000D01*
X102160000Y-82810000D02*
X108760000Y-82810000D01*
%TO.C,BT201*%
X124625000Y-84535000D02*
X143755000Y-84535000D01*
X124625000Y-88215000D02*
X143755000Y-88215000D01*
X124625000Y-80415000D02*
X130185000Y-80415000D01*
X124625000Y-92335000D02*
X143755000Y-92335000D01*
X132255000Y-80415000D02*
X143755000Y-80415000D01*
%TD*%
M02*
