%FSLAX45Y45*%
G04 Gerber Fmt 4.5, Leading zero omitted, Abs format (unit mm)*
G04 Created by KiCad (PCBNEW (6.0.4-0)) date 2024-06-04 18:08:47*
%MOMM*%
%LPD*%
G01*
G04 APERTURE LIST*
%TA.AperFunction,Profile*%
%ADD10C,0.100000*%
%TD*%
%ADD11C,0.200000*%
%ADD12C,0.040000*%
%ADD13C,0.050000*%
%ADD14C,0.060000*%
%ADD15C,0.065000*%
%ADD16C,0.070000*%
%ADD17C,0.100000*%
%ADD18C,0.160000*%
%ADD19C,0.175000*%
%ADD20C,0.210000*%
%ADD21C,0.270000*%
%ADD22C,0.317500*%
G04 APERTURE END LIST*
D10*
X7726500Y-7635000D02*
X7961000Y-7401200D01*
X20826750Y-11836000D02*
X21061500Y-11602100D01*
X7959900Y-11836000D02*
X20826750Y-11836000D01*
X7959900Y-11836000D02*
X7726500Y-11601750D01*
X7726500Y-7635000D02*
X7726500Y-11601750D01*
X21061500Y-7635125D02*
X20828300Y-7401200D01*
X21061500Y-7635125D02*
X21061500Y-11602100D01*
X7961000Y-7401200D02*
X20828300Y-7401200D01*
D11*
D12*
X9038000Y-8645000D02*
X9078000Y-8685000D01*
X9078000Y-8645000D02*
X9038000Y-8685000D01*
X9038000Y-8821000D02*
X9078000Y-8861000D01*
X9078000Y-8821000D02*
X9038000Y-8861000D01*
X9050000Y-8436000D02*
X9090000Y-8476000D01*
X9090000Y-8436000D02*
X9050000Y-8476000D01*
X9229000Y-10802000D02*
X9269000Y-10842000D01*
X9269000Y-10802000D02*
X9229000Y-10842000D01*
X9414000Y-10730000D02*
X9454000Y-10770000D01*
X9454000Y-10730000D02*
X9414000Y-10770000D01*
X9421770Y-10370770D02*
X9461770Y-10410770D01*
X9461770Y-10370770D02*
X9421770Y-10410770D01*
X9919999Y-9603000D02*
X9959999Y-9643000D01*
X9959999Y-9603000D02*
X9919999Y-9643000D01*
X9922000Y-10815000D02*
X9962000Y-10855000D01*
X9962000Y-10815000D02*
X9922000Y-10855000D01*
X9991000Y-10405000D02*
X10031000Y-10445000D01*
X10031000Y-10405000D02*
X9991000Y-10445000D01*
X10108000Y-10442000D02*
X10148000Y-10482000D01*
X10148000Y-10442000D02*
X10108000Y-10482000D01*
X10144000Y-9603000D02*
X10184000Y-9643000D01*
X10184000Y-9603000D02*
X10144000Y-9643000D01*
X10379000Y-9524000D02*
X10419000Y-9564000D01*
X10419000Y-9524000D02*
X10379000Y-9564000D01*
X10415000Y-11336000D02*
X10455000Y-11376000D01*
X10455000Y-11336000D02*
X10415000Y-11376000D01*
X10570000Y-11277000D02*
X10610000Y-11317000D01*
X10610000Y-11277000D02*
X10570000Y-11317000D01*
X10623000Y-10654000D02*
X10663000Y-10694000D01*
X10663000Y-10654000D02*
X10623000Y-10694000D01*
X10631000Y-9522000D02*
X10671000Y-9562000D01*
X10671000Y-9522000D02*
X10631000Y-9562000D01*
X10638000Y-11151000D02*
X10678000Y-11191000D01*
X10678000Y-11151000D02*
X10638000Y-11191000D01*
X10722000Y-10591450D02*
X10762000Y-10631450D01*
X10762000Y-10591450D02*
X10722000Y-10631450D01*
X10751000Y-11151000D02*
X10791000Y-11191000D01*
X10791000Y-11151000D02*
X10751000Y-11191000D01*
X10863000Y-9469000D02*
X10903000Y-9509000D01*
X10903000Y-9469000D02*
X10863000Y-9509000D01*
X10988000Y-10969000D02*
X11028000Y-11009000D01*
X11028000Y-10969000D02*
X10988000Y-11009000D01*
X11051000Y-9881000D02*
X11091000Y-9921000D01*
X11091000Y-9881000D02*
X11051000Y-9921000D01*
X11057422Y-11602165D02*
X11097422Y-11642165D01*
X11097422Y-11602165D02*
X11057422Y-11642165D01*
X11117000Y-9356000D02*
X11157000Y-9396000D01*
X11157000Y-9356000D02*
X11117000Y-9396000D01*
X11306759Y-10607210D02*
X11346759Y-10647210D01*
X11346759Y-10607210D02*
X11306759Y-10647210D01*
X11383000Y-7478598D02*
X11423000Y-7518598D01*
X11423000Y-7478598D02*
X11383000Y-7518598D01*
X11405000Y-11144000D02*
X11445000Y-11184000D01*
X11445000Y-11144000D02*
X11405000Y-11184000D01*
X11495000Y-11204000D02*
X11535000Y-11244000D01*
X11535000Y-11204000D02*
X11495000Y-11244000D01*
X11558000Y-7478598D02*
X11598000Y-7518598D01*
X11598000Y-7478598D02*
X11558000Y-7518598D01*
X11733000Y-7478598D02*
X11773000Y-7518598D01*
X11773000Y-7478598D02*
X11733000Y-7518598D01*
X12060000Y-11075000D02*
X12100000Y-11115000D01*
X12100000Y-11075000D02*
X12060000Y-11115000D01*
X12060000Y-11245000D02*
X12100000Y-11285000D01*
X12100000Y-11245000D02*
X12060000Y-11285000D01*
X12291173Y-10479135D02*
X12331173Y-10519135D01*
X12331173Y-10479135D02*
X12291173Y-10519135D01*
X12355000Y-11384000D02*
X12395000Y-11424000D01*
X12395000Y-11384000D02*
X12355000Y-11424000D01*
X12434000Y-7821000D02*
X12474000Y-7861000D01*
X12474000Y-7821000D02*
X12434000Y-7861000D01*
X12472735Y-9205734D02*
X12512735Y-9245734D01*
X12512735Y-9205734D02*
X12472735Y-9245734D01*
X12494026Y-8813901D02*
X12534026Y-8853901D01*
X12534026Y-8813901D02*
X12494026Y-8853901D01*
X12496000Y-8943000D02*
X12536000Y-8983000D01*
X12536000Y-8943000D02*
X12496000Y-8983000D01*
X12547000Y-8669000D02*
X12587000Y-8709000D01*
X12587000Y-8669000D02*
X12547000Y-8709000D01*
X12565000Y-10608000D02*
X12605000Y-10648000D01*
X12605000Y-10608000D02*
X12565000Y-10648000D01*
X12568000Y-10048000D02*
X12608000Y-10088000D01*
X12608000Y-10048000D02*
X12568000Y-10088000D01*
X12569000Y-11350000D02*
X12609000Y-11390000D01*
X12609000Y-11350000D02*
X12569000Y-11390000D01*
X12594000Y-8815000D02*
X12634000Y-8855000D01*
X12634000Y-8815000D02*
X12594000Y-8855000D01*
X12623000Y-9564000D02*
X12663000Y-9604000D01*
X12663000Y-9564000D02*
X12623000Y-9604000D01*
X12665000Y-7820000D02*
X12705000Y-7860000D01*
X12705000Y-7820000D02*
X12665000Y-7860000D01*
X12721000Y-10738000D02*
X12761000Y-10778000D01*
X12761000Y-10738000D02*
X12721000Y-10778000D01*
X12729000Y-9499000D02*
X12769000Y-9539000D01*
X12769000Y-9499000D02*
X12729000Y-9539000D01*
X12745000Y-8281000D02*
X12785000Y-8321000D01*
X12785000Y-8281000D02*
X12745000Y-8321000D01*
X12765000Y-11350000D02*
X12805000Y-11390000D01*
X12805000Y-11350000D02*
X12765000Y-11390000D01*
X12771892Y-9390356D02*
X12811892Y-9430356D01*
X12811892Y-9390356D02*
X12771892Y-9430356D01*
X12785000Y-8813901D02*
X12825000Y-8853901D01*
X12825000Y-8813901D02*
X12785000Y-8853901D01*
X12786000Y-8435000D02*
X12826000Y-8475000D01*
X12826000Y-8435000D02*
X12786000Y-8475000D01*
X12842000Y-10366000D02*
X12882000Y-10406000D01*
X12882000Y-10366000D02*
X12842000Y-10406000D01*
X12844000Y-9182000D02*
X12884000Y-9222000D01*
X12884000Y-9182000D02*
X12844000Y-9222000D01*
X12858795Y-9340980D02*
X12898795Y-9380980D01*
X12898795Y-9340980D02*
X12858795Y-9380980D01*
X12877000Y-10132000D02*
X12917000Y-10172000D01*
X12917000Y-10132000D02*
X12877000Y-10172000D01*
X12896734Y-11204265D02*
X12936734Y-11244265D01*
X12936734Y-11204265D02*
X12896734Y-11244265D01*
X12915000Y-7818200D02*
X12955000Y-7858200D01*
X12955000Y-7818200D02*
X12915000Y-7858200D01*
X12917000Y-9800499D02*
X12957000Y-9840499D01*
X12957000Y-9800499D02*
X12917000Y-9840499D01*
X12944000Y-10553450D02*
X12984000Y-10593450D01*
X12984000Y-10553450D02*
X12944000Y-10593450D01*
X12974000Y-11352000D02*
X13014000Y-11392000D01*
X13014000Y-11352000D02*
X12974000Y-11392000D01*
X13011550Y-8409000D02*
X13051550Y-8449000D01*
X13051550Y-8409000D02*
X13011550Y-8449000D01*
X13032000Y-11118000D02*
X13072000Y-11158000D01*
X13072000Y-11118000D02*
X13032000Y-11158000D01*
X13038750Y-9001750D02*
X13078750Y-9041750D01*
X13078750Y-9001750D02*
X13038750Y-9041750D01*
X13040550Y-11002000D02*
X13080550Y-11042000D01*
X13080550Y-11002000D02*
X13040550Y-11042000D01*
X13097000Y-9883000D02*
X13137000Y-9923000D01*
X13137000Y-9883000D02*
X13097000Y-9923000D01*
X13116000Y-10027000D02*
X13156000Y-10067000D01*
X13156000Y-10027000D02*
X13116000Y-10067000D01*
X13129730Y-10190270D02*
X13169730Y-10230270D01*
X13169730Y-10190270D02*
X13129730Y-10230270D01*
X13171000Y-10726000D02*
X13211000Y-10766000D01*
X13211000Y-10726000D02*
X13171000Y-10766000D01*
X13186000Y-8383000D02*
X13226000Y-8423000D01*
X13226000Y-8383000D02*
X13186000Y-8423000D01*
X13294000Y-8356000D02*
X13334000Y-8396000D01*
X13334000Y-8356000D02*
X13294000Y-8396000D01*
X13341230Y-9161770D02*
X13381230Y-9201770D01*
X13381230Y-9161770D02*
X13341230Y-9201770D01*
X13372000Y-7818200D02*
X13412000Y-7858200D01*
X13412000Y-7818200D02*
X13372000Y-7858200D01*
X13378712Y-11394450D02*
X13418712Y-11434450D01*
X13418712Y-11394450D02*
X13378712Y-11434450D01*
X13382000Y-10889000D02*
X13422000Y-10929000D01*
X13422000Y-10889000D02*
X13382000Y-10929000D01*
X13385000Y-10304000D02*
X13425000Y-10344000D01*
X13425000Y-10304000D02*
X13385000Y-10344000D01*
X13387000Y-10161000D02*
X13427000Y-10201000D01*
X13427000Y-10161000D02*
X13387000Y-10201000D01*
X13402000Y-8813901D02*
X13442000Y-8853901D01*
X13442000Y-8813901D02*
X13402000Y-8853901D01*
X13466998Y-8330614D02*
X13506998Y-8370614D01*
X13506998Y-8330614D02*
X13466998Y-8370614D01*
X13472000Y-11317000D02*
X13512000Y-11357000D01*
X13512000Y-11317000D02*
X13472000Y-11357000D01*
X13480000Y-9194000D02*
X13520000Y-9234000D01*
X13520000Y-9194000D02*
X13480000Y-9234000D01*
X13481000Y-8136000D02*
X13521000Y-8176000D01*
X13521000Y-8136000D02*
X13481000Y-8176000D01*
X13499000Y-8815450D02*
X13539000Y-8855450D01*
X13539000Y-8815450D02*
X13499000Y-8855450D01*
X13529000Y-7523550D02*
X13569000Y-7563550D01*
X13569000Y-7523550D02*
X13529000Y-7563550D01*
X13534000Y-10895000D02*
X13574000Y-10935000D01*
X13574000Y-10895000D02*
X13534000Y-10935000D01*
X13665000Y-9206000D02*
X13705000Y-9246000D01*
X13705000Y-9206000D02*
X13665000Y-9246000D01*
X13669000Y-7813000D02*
X13709000Y-7853000D01*
X13709000Y-7813000D02*
X13669000Y-7853000D01*
X13675000Y-8523000D02*
X13715000Y-8563000D01*
X13715000Y-8523000D02*
X13675000Y-8563000D01*
X13703000Y-9413430D02*
X13743000Y-9453430D01*
X13743000Y-9413430D02*
X13703000Y-9453430D01*
X13704000Y-9524550D02*
X13744000Y-9564550D01*
X13744000Y-9524550D02*
X13704000Y-9564550D01*
X13708000Y-9800499D02*
X13748000Y-9840499D01*
X13748000Y-9800499D02*
X13708000Y-9840499D01*
X13747450Y-9008000D02*
X13787450Y-9048000D01*
X13787450Y-9008000D02*
X13747450Y-9048000D01*
X13760000Y-10637000D02*
X13800000Y-10677000D01*
X13800000Y-10637000D02*
X13760000Y-10677000D01*
X13807000Y-11390000D02*
X13847000Y-11430000D01*
X13847000Y-11390000D02*
X13807000Y-11430000D01*
X13844000Y-9208550D02*
X13884000Y-9248550D01*
X13884000Y-9208550D02*
X13844000Y-9248550D01*
X13855000Y-9413430D02*
X13895000Y-9453430D01*
X13895000Y-9413430D02*
X13855000Y-9453430D01*
X13866000Y-9810000D02*
X13906000Y-9850000D01*
X13906000Y-9810000D02*
X13866000Y-9850000D01*
X13888770Y-8302770D02*
X13928770Y-8342770D01*
X13928770Y-8302770D02*
X13888770Y-8342770D01*
X13931000Y-10656000D02*
X13971000Y-10696000D01*
X13971000Y-10656000D02*
X13931000Y-10696000D01*
X13942000Y-8965000D02*
X13982000Y-9005000D01*
X13982000Y-8965000D02*
X13942000Y-9005000D01*
X13997000Y-8185000D02*
X14037000Y-8225000D01*
X14037000Y-8185000D02*
X13997000Y-8225000D01*
X14000000Y-7815000D02*
X14040000Y-7855000D01*
X14040000Y-7815000D02*
X14000000Y-7855000D01*
X14046000Y-9203000D02*
X14086000Y-9243000D01*
X14086000Y-9203000D02*
X14046000Y-9243000D01*
X14069000Y-11312000D02*
X14109000Y-11352000D01*
X14109000Y-11312000D02*
X14069000Y-11352000D01*
X14108000Y-10508000D02*
X14148000Y-10548000D01*
X14148000Y-10508000D02*
X14108000Y-10548000D01*
X14109081Y-10298072D02*
X14149081Y-10338072D01*
X14149081Y-10298072D02*
X14109081Y-10338072D01*
X14204000Y-11042000D02*
X14244000Y-11082000D01*
X14244000Y-11042000D02*
X14204000Y-11082000D01*
X14206000Y-10803000D02*
X14246000Y-10843000D01*
X14246000Y-10803000D02*
X14206000Y-10843000D01*
X14253000Y-9127000D02*
X14293000Y-9167000D01*
X14293000Y-9127000D02*
X14253000Y-9167000D01*
X14270000Y-10403000D02*
X14310000Y-10443000D01*
X14310000Y-10403000D02*
X14270000Y-10443000D01*
X14278000Y-10158000D02*
X14318000Y-10198000D01*
X14318000Y-10158000D02*
X14278000Y-10198000D01*
X14290000Y-8819000D02*
X14330000Y-8859000D01*
X14330000Y-8819000D02*
X14290000Y-8859000D01*
X14292765Y-9671550D02*
X14332765Y-9711550D01*
X14332765Y-9671550D02*
X14292765Y-9711550D01*
X14383000Y-9494000D02*
X14423000Y-9534000D01*
X14423000Y-9494000D02*
X14383000Y-9534000D01*
X14424000Y-8720354D02*
X14464000Y-8760354D01*
X14464000Y-8720354D02*
X14424000Y-8760354D01*
X14498084Y-9715549D02*
X14538084Y-9755549D01*
X14538084Y-9715549D02*
X14498084Y-9755549D01*
X14515000Y-9942050D02*
X14555000Y-9982050D01*
X14555000Y-9942050D02*
X14515000Y-9982050D01*
X14516000Y-10639000D02*
X14556000Y-10679000D01*
X14556000Y-10639000D02*
X14516000Y-10679000D01*
X14615002Y-9920860D02*
X14655002Y-9960860D01*
X14655002Y-9920860D02*
X14615002Y-9960860D01*
X14616000Y-8720354D02*
X14656000Y-8760354D01*
X14656000Y-8720354D02*
X14616000Y-8760354D01*
X14658000Y-10662000D02*
X14698000Y-10702000D01*
X14698000Y-10662000D02*
X14658000Y-10702000D01*
X14782000Y-10547000D02*
X14822000Y-10587000D01*
X14822000Y-10547000D02*
X14782000Y-10587000D01*
X14783000Y-8811000D02*
X14823000Y-8851000D01*
X14823000Y-8811000D02*
X14783000Y-8851000D01*
X14784039Y-10702039D02*
X14824039Y-10742039D01*
X14824039Y-10702039D02*
X14784039Y-10742039D01*
X14794000Y-9959000D02*
X14834000Y-9999000D01*
X14834000Y-9959000D02*
X14794000Y-9999000D01*
X14795000Y-8405000D02*
X14835000Y-8445000D01*
X14835000Y-8405000D02*
X14795000Y-8445000D01*
X14848033Y-8959646D02*
X14888033Y-8999646D01*
X14888033Y-8959646D02*
X14848033Y-8999646D01*
X14857000Y-8720354D02*
X14897000Y-8760354D01*
X14897000Y-8720354D02*
X14857000Y-8760354D01*
X14877000Y-9077598D02*
X14917000Y-9117598D01*
X14917000Y-9077598D02*
X14877000Y-9117598D01*
X14896550Y-9974266D02*
X14936550Y-10014266D01*
X14936550Y-9974266D02*
X14896550Y-10014266D01*
X14896550Y-10143960D02*
X14936550Y-10183960D01*
X14936550Y-10143960D02*
X14896550Y-10183960D01*
X14919000Y-9739000D02*
X14959000Y-9779000D01*
X14959000Y-9739000D02*
X14919000Y-9779000D01*
X14927000Y-7949000D02*
X14967000Y-7989000D01*
X14967000Y-7949000D02*
X14927000Y-7989000D01*
X14928500Y-10915000D02*
X14968500Y-10955000D01*
X14968500Y-10915000D02*
X14928500Y-10955000D01*
X14933253Y-9471609D02*
X14973253Y-9511609D01*
X14973253Y-9471609D02*
X14933253Y-9511609D01*
X14935000Y-10756000D02*
X14975000Y-10796000D01*
X14975000Y-10756000D02*
X14935000Y-10796000D01*
X14937000Y-8131000D02*
X14977000Y-8171000D01*
X14977000Y-8131000D02*
X14937000Y-8171000D01*
X14953000Y-8306000D02*
X14993000Y-8346000D01*
X14993000Y-8306000D02*
X14953000Y-8346000D01*
X15039267Y-9888302D02*
X15079267Y-9928302D01*
X15079267Y-9888302D02*
X15039267Y-9928302D01*
X15058000Y-10155000D02*
X15098000Y-10195000D01*
X15098000Y-10155000D02*
X15058000Y-10195000D01*
X15067000Y-9602000D02*
X15107000Y-9642000D01*
X15107000Y-9602000D02*
X15067000Y-9642000D01*
X15082000Y-10321000D02*
X15122000Y-10361000D01*
X15122000Y-10321000D02*
X15082000Y-10361000D01*
X15117000Y-9379000D02*
X15157000Y-9419000D01*
X15157000Y-9379000D02*
X15117000Y-9419000D01*
X15128000Y-8952450D02*
X15168000Y-8992450D01*
X15168000Y-8952450D02*
X15128000Y-8992450D01*
X15181000Y-9698000D02*
X15221000Y-9738000D01*
X15221000Y-9698000D02*
X15181000Y-9738000D01*
X15246000Y-9493000D02*
X15286000Y-9533000D01*
X15286000Y-9493000D02*
X15246000Y-9533000D01*
X15262000Y-8952450D02*
X15302000Y-8992450D01*
X15302000Y-8952450D02*
X15262000Y-8992450D01*
X15291770Y-9790230D02*
X15331770Y-9830230D01*
X15331770Y-9790230D02*
X15291770Y-9830230D01*
X15348000Y-8720354D02*
X15388000Y-8760354D01*
X15388000Y-8720354D02*
X15348000Y-8760354D01*
X15394000Y-9000000D02*
X15434000Y-9040000D01*
X15434000Y-9000000D02*
X15394000Y-9040000D01*
X15412480Y-11298520D02*
X15452480Y-11338520D01*
X15452480Y-11298520D02*
X15412480Y-11338520D01*
X15415270Y-9913730D02*
X15455270Y-9953730D01*
X15455270Y-9913730D02*
X15415270Y-9953730D01*
X15427000Y-9160000D02*
X15467000Y-9200000D01*
X15467000Y-9160000D02*
X15427000Y-9200000D01*
X15427000Y-9659000D02*
X15467000Y-9699000D01*
X15467000Y-9659000D02*
X15427000Y-9699000D01*
X15482000Y-11142000D02*
X15522000Y-11182000D01*
X15522000Y-11142000D02*
X15482000Y-11182000D01*
X15509000Y-7950000D02*
X15549000Y-7990000D01*
X15549000Y-7950000D02*
X15509000Y-7990000D01*
X15523000Y-9936000D02*
X15563000Y-9976000D01*
X15563000Y-9936000D02*
X15523000Y-9976000D01*
X15616069Y-9072069D02*
X15656069Y-9112069D01*
X15656069Y-9072069D02*
X15616069Y-9112069D01*
X15667000Y-8042000D02*
X15707000Y-8082000D01*
X15707000Y-8042000D02*
X15667000Y-8082000D01*
X15726069Y-8419069D02*
X15766069Y-8459069D01*
X15766069Y-8419069D02*
X15726069Y-8459069D01*
X15753000Y-9170000D02*
X15793000Y-9210000D01*
X15793000Y-9170000D02*
X15753000Y-9210000D01*
X15775000Y-8895000D02*
X15815000Y-8935000D01*
X15815000Y-8895000D02*
X15775000Y-8935000D01*
X15782059Y-8731295D02*
X15822059Y-8771295D01*
X15822059Y-8731295D02*
X15782059Y-8771295D01*
X15805000Y-10318000D02*
X15845000Y-10358000D01*
X15845000Y-10318000D02*
X15805000Y-10358000D01*
X15817000Y-7804000D02*
X15857000Y-7844000D01*
X15857000Y-7804000D02*
X15817000Y-7844000D01*
X15839000Y-8186000D02*
X15879000Y-8226000D01*
X15879000Y-8186000D02*
X15839000Y-8226000D01*
X15843000Y-9086000D02*
X15883000Y-9126000D01*
X15883000Y-9086000D02*
X15843000Y-9126000D01*
X15878000Y-8357000D02*
X15918000Y-8397000D01*
X15918000Y-8357000D02*
X15878000Y-8397000D01*
X15935000Y-7927000D02*
X15975000Y-7967000D01*
X15975000Y-7927000D02*
X15935000Y-7967000D01*
X15999000Y-9902000D02*
X16039000Y-9942000D01*
X16039000Y-9902000D02*
X15999000Y-9942000D01*
X16010423Y-7803306D02*
X16050423Y-7843306D01*
X16050423Y-7803306D02*
X16010423Y-7843306D01*
X16021000Y-8004000D02*
X16061000Y-8044000D01*
X16061000Y-8004000D02*
X16021000Y-8044000D01*
X16058189Y-8417099D02*
X16098189Y-8457099D01*
X16098189Y-8417099D02*
X16058189Y-8457099D01*
X16092252Y-7881715D02*
X16132252Y-7921715D01*
X16132252Y-7881715D02*
X16092252Y-7921715D01*
X16127000Y-7788000D02*
X16167000Y-7828000D01*
X16167000Y-7788000D02*
X16127000Y-7828000D01*
X16146000Y-8275000D02*
X16186000Y-8315000D01*
X16186000Y-8275000D02*
X16146000Y-8315000D01*
X16278000Y-9939502D02*
X16318000Y-9979502D01*
X16318000Y-9939502D02*
X16278000Y-9979502D01*
X16282000Y-8355000D02*
X16322000Y-8395000D01*
X16322000Y-8355000D02*
X16282000Y-8395000D01*
X16291000Y-8804000D02*
X16331000Y-8844000D01*
X16331000Y-8804000D02*
X16291000Y-8844000D01*
X16338436Y-8891976D02*
X16378436Y-8931976D01*
X16378436Y-8891976D02*
X16338436Y-8931976D01*
X16430000Y-9939502D02*
X16470000Y-9979502D01*
X16470000Y-9939502D02*
X16430000Y-9979502D01*
X16439000Y-8680000D02*
X16479000Y-8720000D01*
X16479000Y-8680000D02*
X16439000Y-8720000D01*
X16481000Y-8544000D02*
X16521000Y-8584000D01*
X16521000Y-8544000D02*
X16481000Y-8584000D01*
X16495431Y-9753569D02*
X16535431Y-9793569D01*
X16535431Y-9753569D02*
X16495431Y-9793569D01*
X16601000Y-9554000D02*
X16641000Y-9594000D01*
X16641000Y-9554000D02*
X16601000Y-9594000D01*
X16642000Y-8095000D02*
X16682000Y-8135000D01*
X16682000Y-8095000D02*
X16642000Y-8135000D01*
X16647040Y-9447960D02*
X16687040Y-9487960D01*
X16687040Y-9447960D02*
X16647040Y-9487960D01*
X16678000Y-8369000D02*
X16718000Y-8409000D01*
X16718000Y-8369000D02*
X16678000Y-8409000D01*
X16693000Y-8479000D02*
X16733000Y-8519000D01*
X16733000Y-8479000D02*
X16693000Y-8519000D01*
X16696169Y-9671139D02*
X16736169Y-9711139D01*
X16736169Y-9671139D02*
X16696169Y-9711139D01*
X16762000Y-9008450D02*
X16802000Y-9048450D01*
X16802000Y-9008450D02*
X16762000Y-9048450D01*
X16770268Y-11007205D02*
X16810268Y-11047205D01*
X16810268Y-11007205D02*
X16770268Y-11047205D01*
X16841000Y-8393000D02*
X16881000Y-8433000D01*
X16881000Y-8393000D02*
X16841000Y-8433000D01*
X16864000Y-9672050D02*
X16904000Y-9712050D01*
X16904000Y-9672050D02*
X16864000Y-9712050D01*
X16923000Y-10661000D02*
X16963000Y-10701000D01*
X16963000Y-10661000D02*
X16923000Y-10701000D01*
X16943000Y-9114000D02*
X16983000Y-9154000D01*
X16983000Y-9114000D02*
X16943000Y-9154000D01*
X16956000Y-10215901D02*
X16996000Y-10255901D01*
X16996000Y-10215901D02*
X16956000Y-10255901D01*
X16988000Y-8428000D02*
X17028000Y-8468000D01*
X17028000Y-8428000D02*
X16988000Y-8468000D01*
X17004000Y-10369000D02*
X17044000Y-10409000D01*
X17044000Y-10369000D02*
X17004000Y-10409000D01*
X17060450Y-9080550D02*
X17100450Y-9120550D01*
X17100450Y-9080550D02*
X17060450Y-9120550D01*
X17060450Y-9196000D02*
X17100450Y-9236000D01*
X17100450Y-9196000D02*
X17060450Y-9236000D01*
X17070000Y-10814598D02*
X17110000Y-10854598D01*
X17110000Y-10814598D02*
X17070000Y-10854598D01*
X17089000Y-9933000D02*
X17129000Y-9973000D01*
X17129000Y-9933000D02*
X17089000Y-9973000D01*
X17158000Y-8863550D02*
X17198000Y-8903550D01*
X17198000Y-8863550D02*
X17158000Y-8903550D01*
X17214000Y-7813000D02*
X17254000Y-7853000D01*
X17254000Y-7813000D02*
X17214000Y-7853000D01*
X17300000Y-9779000D02*
X17340000Y-9819000D01*
X17340000Y-9779000D02*
X17300000Y-9819000D01*
X17312000Y-10814598D02*
X17352000Y-10854598D01*
X17352000Y-10814598D02*
X17312000Y-10854598D01*
X17383000Y-10153000D02*
X17423000Y-10193000D01*
X17423000Y-10153000D02*
X17383000Y-10193000D01*
X17410402Y-8849000D02*
X17450402Y-8889000D01*
X17450402Y-8849000D02*
X17410402Y-8889000D01*
X17424000Y-7819000D02*
X17464000Y-7859000D01*
X17464000Y-7819000D02*
X17424000Y-7859000D01*
X17425931Y-7983931D02*
X17465931Y-8023931D01*
X17465931Y-7983931D02*
X17425931Y-8023931D01*
X17526310Y-8846440D02*
X17566310Y-8886440D01*
X17566310Y-8846440D02*
X17526310Y-8886440D01*
X17542000Y-10814598D02*
X17582000Y-10854598D01*
X17582000Y-10814598D02*
X17542000Y-10854598D01*
X17584000Y-8459000D02*
X17624000Y-8499000D01*
X17624000Y-8459000D02*
X17584000Y-8499000D01*
X17597000Y-9813001D02*
X17637000Y-9853001D01*
X17637000Y-9813001D02*
X17597000Y-9853001D01*
X17609770Y-8701540D02*
X17649770Y-8741540D01*
X17649770Y-8701540D02*
X17609770Y-8741540D01*
X17662000Y-10182551D02*
X17702000Y-10222551D01*
X17702000Y-10182551D02*
X17662000Y-10222551D01*
X17691540Y-9258460D02*
X17731540Y-9298460D01*
X17731540Y-9258460D02*
X17691540Y-9298460D01*
X17709000Y-9136450D02*
X17749000Y-9176450D01*
X17749000Y-9136450D02*
X17709000Y-9176450D01*
X17757000Y-8950461D02*
X17797000Y-8990461D01*
X17797000Y-8950461D02*
X17757000Y-8990461D01*
X17791392Y-9484478D02*
X17831392Y-9524478D01*
X17831392Y-9484478D02*
X17791392Y-9524478D01*
X17813000Y-10815000D02*
X17853000Y-10855000D01*
X17853000Y-10815000D02*
X17813000Y-10855000D01*
X17849500Y-10664500D02*
X17889500Y-10704500D01*
X17889500Y-10664500D02*
X17849500Y-10704500D01*
X17852000Y-9405000D02*
X17892000Y-9445000D01*
X17892000Y-9405000D02*
X17852000Y-9445000D01*
X17916000Y-8366000D02*
X17956000Y-8406000D01*
X17956000Y-8366000D02*
X17916000Y-8406000D01*
X17926000Y-8517000D02*
X17966000Y-8557000D01*
X17966000Y-8517000D02*
X17926000Y-8557000D01*
X17964340Y-8630075D02*
X18004340Y-8670075D01*
X18004340Y-8630075D02*
X17964340Y-8670075D01*
X17998000Y-11000000D02*
X18038000Y-11040000D01*
X18038000Y-11000000D02*
X17998000Y-11040000D01*
X18024540Y-8950460D02*
X18064540Y-8990460D01*
X18064540Y-8950460D02*
X18024540Y-8990460D01*
X18057550Y-10818000D02*
X18097550Y-10858000D01*
X18097550Y-10818000D02*
X18057550Y-10858000D01*
X18065000Y-9502000D02*
X18105000Y-9542000D01*
X18105000Y-9502000D02*
X18065000Y-9542000D01*
X18068000Y-8350000D02*
X18108000Y-8390000D01*
X18108000Y-8350000D02*
X18068000Y-8390000D01*
X18124460Y-8952927D02*
X18164460Y-8992927D01*
X18164460Y-8952927D02*
X18124460Y-8992927D01*
X18218000Y-9247000D02*
X18258000Y-9287000D01*
X18258000Y-9247000D02*
X18218000Y-9287000D01*
X18220540Y-9414460D02*
X18260540Y-9454460D01*
X18260540Y-9414460D02*
X18220540Y-9454460D01*
X18223757Y-9007861D02*
X18263757Y-9047861D01*
X18263757Y-9007861D02*
X18223757Y-9047861D01*
X18233000Y-8347000D02*
X18273000Y-8387000D01*
X18273000Y-8347000D02*
X18233000Y-8387000D01*
X18235000Y-10259000D02*
X18275000Y-10299000D01*
X18275000Y-10259000D02*
X18235000Y-10299000D01*
X18289550Y-9825000D02*
X18329550Y-9865000D01*
X18329550Y-9825000D02*
X18289550Y-9865000D01*
X18301000Y-10814000D02*
X18341000Y-10854000D01*
X18341000Y-10814000D02*
X18301000Y-10854000D01*
X18362000Y-9961000D02*
X18402000Y-10001000D01*
X18402000Y-9961000D02*
X18362000Y-10001000D01*
X18374569Y-8411671D02*
X18414569Y-8451671D01*
X18414569Y-8411671D02*
X18374569Y-8451671D01*
X18452000Y-9723000D02*
X18492000Y-9763000D01*
X18492000Y-9723000D02*
X18452000Y-9763000D01*
X18458540Y-8357460D02*
X18498540Y-8397460D01*
X18498540Y-8357460D02*
X18458540Y-8397460D01*
X18472136Y-8874659D02*
X18512136Y-8914659D01*
X18512136Y-8874659D02*
X18472136Y-8914659D01*
X18476000Y-10641000D02*
X18516000Y-10681000D01*
X18516000Y-10641000D02*
X18476000Y-10681000D01*
X18511000Y-9919000D02*
X18551000Y-9959000D01*
X18551000Y-9919000D02*
X18511000Y-9959000D01*
X18516155Y-8964393D02*
X18556155Y-9004393D01*
X18556155Y-8964393D02*
X18516155Y-9004393D01*
X18526000Y-9130910D02*
X18566000Y-9170910D01*
X18566000Y-9130910D02*
X18526000Y-9170910D01*
X18534931Y-8431649D02*
X18574931Y-8471649D01*
X18574931Y-8431649D02*
X18534931Y-8471649D01*
X18595999Y-9236550D02*
X18635999Y-9276550D01*
X18635999Y-9236550D02*
X18595999Y-9276550D01*
X18698479Y-9432450D02*
X18738479Y-9472450D01*
X18738479Y-9432450D02*
X18698479Y-9472450D01*
X18701001Y-10002050D02*
X18741001Y-10042050D01*
X18741001Y-10002050D02*
X18701001Y-10042050D01*
X18701001Y-10634000D02*
X18741001Y-10674000D01*
X18741001Y-10634000D02*
X18701001Y-10674000D01*
X18733598Y-9077000D02*
X18773598Y-9117000D01*
X18773598Y-9077000D02*
X18733598Y-9117000D01*
X18869000Y-10411000D02*
X18909000Y-10451000D01*
X18909000Y-10411000D02*
X18869000Y-10451000D01*
X18888000Y-8933000D02*
X18928000Y-8973000D01*
X18928000Y-8933000D02*
X18888000Y-8973000D01*
X18899000Y-9766920D02*
X18939000Y-9806920D01*
X18939000Y-9766920D02*
X18899000Y-9806920D01*
X18899000Y-9970000D02*
X18939000Y-10010000D01*
X18939000Y-9970000D02*
X18899000Y-10010000D01*
X18904000Y-10263000D02*
X18944000Y-10303000D01*
X18944000Y-10263000D02*
X18904000Y-10303000D01*
X18918000Y-10641000D02*
X18958000Y-10681000D01*
X18958000Y-10641000D02*
X18918000Y-10681000D01*
X18955000Y-8689000D02*
X18995000Y-8729000D01*
X18995000Y-8689000D02*
X18955000Y-8729000D01*
X18990000Y-9401000D02*
X19030000Y-9441000D01*
X19030000Y-9401000D02*
X18990000Y-9441000D01*
X18997000Y-9153000D02*
X19037000Y-9193000D01*
X19037000Y-9153000D02*
X18997000Y-9193000D01*
X19040000Y-10126000D02*
X19080000Y-10166000D01*
X19080000Y-10126000D02*
X19040000Y-10166000D01*
X19167000Y-8701540D02*
X19207000Y-8741540D01*
X19207000Y-8701540D02*
X19167000Y-8741540D01*
X19191000Y-10653000D02*
X19231000Y-10693000D01*
X19231000Y-10653000D02*
X19191000Y-10693000D01*
X19194000Y-9976000D02*
X19234000Y-10016000D01*
X19234000Y-9976000D02*
X19194000Y-10016000D01*
X19200000Y-10409000D02*
X19240000Y-10449000D01*
X19240000Y-10409000D02*
X19200000Y-10449000D01*
X19367000Y-8611000D02*
X19407000Y-8651000D01*
X19407000Y-8611000D02*
X19367000Y-8651000D01*
X19388000Y-8846440D02*
X19428000Y-8886440D01*
X19428000Y-8846440D02*
X19388000Y-8886440D01*
X19421000Y-9044000D02*
X19461000Y-9084000D01*
X19461000Y-9044000D02*
X19421000Y-9084000D01*
X19440000Y-9233000D02*
X19480000Y-9273000D01*
X19480000Y-9233000D02*
X19440000Y-9273000D01*
X19463000Y-10271000D02*
X19503000Y-10311000D01*
X19503000Y-10271000D02*
X19463000Y-10311000D01*
X19469000Y-10645000D02*
X19509000Y-10685000D01*
X19509000Y-10645000D02*
X19469000Y-10685000D01*
X19535000Y-8906000D02*
X19575000Y-8946000D01*
X19575000Y-8906000D02*
X19535000Y-8946000D01*
X19549000Y-7693000D02*
X19589000Y-7733000D01*
X19589000Y-7693000D02*
X19549000Y-7733000D01*
X19556000Y-8491000D02*
X19596000Y-8531000D01*
X19596000Y-8491000D02*
X19556000Y-8531000D01*
X19567000Y-8068000D02*
X19607000Y-8108000D01*
X19607000Y-8068000D02*
X19567000Y-8108000D01*
X19591000Y-10137000D02*
X19631000Y-10177000D01*
X19631000Y-10137000D02*
X19591000Y-10177000D01*
X19593000Y-9736000D02*
X19633000Y-9776000D01*
X19633000Y-9736000D02*
X19593000Y-9776000D01*
X19593000Y-9933000D02*
X19633000Y-9973000D01*
X19633000Y-9933000D02*
X19593000Y-9973000D01*
X19633050Y-9133000D02*
X19673050Y-9173000D01*
X19673050Y-9133000D02*
X19633050Y-9173000D01*
X19633050Y-9287000D02*
X19673050Y-9327000D01*
X19673050Y-9287000D02*
X19633050Y-9327000D01*
X19718000Y-10073000D02*
X19758000Y-10113000D01*
X19758000Y-10073000D02*
X19718000Y-10113000D01*
X19718000Y-10200000D02*
X19758000Y-10240000D01*
X19758000Y-10200000D02*
X19718000Y-10240000D01*
X19840000Y-7712000D02*
X19880000Y-7752000D01*
X19880000Y-7712000D02*
X19840000Y-7752000D01*
X19885000Y-9687000D02*
X19925000Y-9727000D01*
X19925000Y-9687000D02*
X19885000Y-9727000D01*
X19886000Y-9865000D02*
X19926000Y-9905000D01*
X19926000Y-9865000D02*
X19886000Y-9905000D01*
X19896000Y-9112000D02*
X19936000Y-9152000D01*
X19936000Y-9112000D02*
X19896000Y-9152000D01*
X19904000Y-10913000D02*
X19944000Y-10953000D01*
X19944000Y-10913000D02*
X19904000Y-10953000D01*
X19909000Y-10659000D02*
X19949000Y-10699000D01*
X19949000Y-10659000D02*
X19909000Y-10699000D01*
X19910000Y-10537000D02*
X19950000Y-10577000D01*
X19950000Y-10537000D02*
X19910000Y-10577000D01*
X19915000Y-11095000D02*
X19955000Y-11135000D01*
X19955000Y-11095000D02*
X19915000Y-11135000D01*
X20029000Y-8433000D02*
X20069000Y-8473000D01*
X20069000Y-8433000D02*
X20029000Y-8473000D01*
X20031000Y-8627000D02*
X20071000Y-8667000D01*
X20071000Y-8627000D02*
X20031000Y-8667000D01*
X20038000Y-10205000D02*
X20078000Y-10245000D01*
X20078000Y-10205000D02*
X20038000Y-10245000D01*
X20042000Y-8916000D02*
X20082000Y-8956000D01*
X20082000Y-8916000D02*
X20042000Y-8956000D01*
X20169000Y-9035000D02*
X20209000Y-9075000D01*
X20209000Y-9035000D02*
X20169000Y-9075000D01*
X20180000Y-8137000D02*
X20220000Y-8177000D01*
X20220000Y-8137000D02*
X20180000Y-8177000D01*
X20297000Y-8147000D02*
X20337000Y-8187000D01*
X20337000Y-8147000D02*
X20297000Y-8187000D01*
X20330000Y-9503000D02*
X20370000Y-9543000D01*
X20370000Y-9503000D02*
X20330000Y-9543000D01*
X20356000Y-8456000D02*
X20396000Y-8496000D01*
X20396000Y-8456000D02*
X20356000Y-8496000D01*
X20423000Y-8224000D02*
X20463000Y-8264000D01*
X20463000Y-8224000D02*
X20423000Y-8264000D01*
X20440000Y-8351000D02*
X20480000Y-8391000D01*
X20480000Y-8351000D02*
X20440000Y-8391000D01*
X20571000Y-11030000D02*
X20611000Y-11070000D01*
X20611000Y-11030000D02*
X20571000Y-11070000D01*
X20587000Y-8666000D02*
X20627000Y-8706000D01*
X20627000Y-8666000D02*
X20587000Y-8706000D01*
X20609000Y-9457000D02*
X20649000Y-9497000D01*
X20649000Y-9457000D02*
X20609000Y-9497000D01*
X20727450Y-9735000D02*
X20767450Y-9775000D01*
X20767450Y-9735000D02*
X20727450Y-9775000D01*
X20742000Y-10541000D02*
X20782000Y-10581000D01*
X20782000Y-10541000D02*
X20742000Y-10581000D01*
X20742000Y-10705000D02*
X20782000Y-10745000D01*
X20782000Y-10705000D02*
X20742000Y-10745000D01*
X20816000Y-9433000D02*
X20856000Y-9473000D01*
X20856000Y-9433000D02*
X20816000Y-9473000D01*
X20827339Y-8907652D02*
X20867339Y-8947652D01*
X20867339Y-8907652D02*
X20827339Y-8947652D01*
X20945000Y-9134000D02*
X20985000Y-9174000D01*
X20985000Y-9134000D02*
X20945000Y-9174000D01*
X20952000Y-9529000D02*
X20992000Y-9569000D01*
X20992000Y-9529000D02*
X20952000Y-9569000D01*
X20954000Y-9326000D02*
X20994000Y-9366000D01*
X20994000Y-9326000D02*
X20954000Y-9366000D01*
X20956000Y-9701000D02*
X20996000Y-9741000D01*
X20996000Y-9701000D02*
X20956000Y-9741000D01*
X12071000Y-9859000D02*
G75*
G03*
X12071000Y-9859000I-20000J0D01*
G01*
D13*
X7824000Y-8405000D02*
X7824000Y-8455000D01*
X7799000Y-8430000D02*
X7849000Y-8430000D01*
X7828000Y-7786000D02*
X7828000Y-7836000D01*
X7803000Y-7811000D02*
X7853000Y-7811000D01*
X7828000Y-8102000D02*
X7828000Y-8152000D01*
X7803000Y-8127000D02*
X7853000Y-8127000D01*
X7829000Y-10180000D02*
X7829000Y-10230000D01*
X7804000Y-10205000D02*
X7854000Y-10205000D01*
X7833000Y-10437000D02*
X7833000Y-10487000D01*
X7808000Y-10462000D02*
X7858000Y-10462000D01*
X7833000Y-10706000D02*
X7833000Y-10756000D01*
X7808000Y-10731000D02*
X7858000Y-10731000D01*
X7834550Y-8686000D02*
X7834550Y-8736000D01*
X7809550Y-8711000D02*
X7859550Y-8711000D01*
X7834550Y-8988000D02*
X7834550Y-9038000D01*
X7809550Y-9013000D02*
X7859550Y-9013000D01*
X7834550Y-9290000D02*
X7834550Y-9340000D01*
X7809550Y-9315000D02*
X7859550Y-9315000D01*
X7834550Y-9565000D02*
X7834550Y-9615000D01*
X7809550Y-9590000D02*
X7859550Y-9590000D01*
X7834550Y-9864000D02*
X7834550Y-9914000D01*
X7809550Y-9889000D02*
X7859550Y-9889000D01*
X7837000Y-11007000D02*
X7837000Y-11057000D01*
X7812000Y-11032000D02*
X7862000Y-11032000D01*
X7837000Y-11322000D02*
X7837000Y-11372000D01*
X7812000Y-11347000D02*
X7862000Y-11347000D01*
X7915000Y-11615000D02*
X7915000Y-11665000D01*
X7890000Y-11640000D02*
X7940000Y-11640000D01*
X7945000Y-7569000D02*
X7945000Y-7619000D01*
X7920000Y-7594000D02*
X7970000Y-7594000D01*
X8109000Y-9319000D02*
X8109000Y-9369000D01*
X8084000Y-9344000D02*
X8134000Y-9344000D01*
X8111000Y-9090000D02*
X8111000Y-9140000D01*
X8086000Y-9115000D02*
X8136000Y-9115000D01*
X8111000Y-9865000D02*
X8111000Y-9915000D01*
X8086000Y-9890000D02*
X8136000Y-9890000D01*
X8172000Y-11722000D02*
X8172000Y-11772000D01*
X8147000Y-11747000D02*
X8197000Y-11747000D01*
X8200000Y-7474000D02*
X8200000Y-7524000D01*
X8175000Y-7499000D02*
X8225000Y-7499000D01*
X8267000Y-9240000D02*
X8267000Y-9290000D01*
X8242000Y-9265000D02*
X8292000Y-9265000D01*
X8323000Y-8992000D02*
X8323000Y-9042000D01*
X8298000Y-9017000D02*
X8348000Y-9017000D01*
X8385000Y-10152000D02*
X8385000Y-10202000D01*
X8360000Y-10177000D02*
X8410000Y-10177000D01*
X8403001Y-9915000D02*
X8403001Y-9965000D01*
X8378001Y-9940000D02*
X8428001Y-9940000D01*
X8474000Y-11718000D02*
X8474000Y-11768000D01*
X8449000Y-11743000D02*
X8499000Y-11743000D01*
X8486000Y-7478000D02*
X8486000Y-7528000D01*
X8461000Y-7503000D02*
X8511000Y-7503000D01*
X8767000Y-11714000D02*
X8767000Y-11764000D01*
X8742000Y-11739000D02*
X8792000Y-11739000D01*
X8810000Y-7474000D02*
X8810000Y-7524000D01*
X8785000Y-7499000D02*
X8835000Y-7499000D01*
X9062000Y-10391000D02*
X9062000Y-10441000D01*
X9037000Y-10416000D02*
X9087000Y-10416000D01*
X9065000Y-11714000D02*
X9065000Y-11764000D01*
X9040000Y-11739000D02*
X9090000Y-11739000D01*
X9105000Y-7474000D02*
X9105000Y-7524000D01*
X9080000Y-7499000D02*
X9130000Y-7499000D01*
X9168050Y-10165185D02*
X9168050Y-10215185D01*
X9143050Y-10190185D02*
X9193050Y-10190185D01*
X9248000Y-10379950D02*
X9248000Y-10429950D01*
X9223000Y-10404950D02*
X9273000Y-10404950D01*
X9334000Y-11714000D02*
X9334000Y-11764000D01*
X9309000Y-11739000D02*
X9359000Y-11739000D01*
X9434000Y-7478000D02*
X9434000Y-7528000D01*
X9409000Y-7503000D02*
X9459000Y-7503000D01*
X9491794Y-8861794D02*
X9491794Y-8911794D01*
X9466794Y-8886794D02*
X9516794Y-8886794D01*
X9507000Y-8429000D02*
X9507000Y-8479000D01*
X9482000Y-8454000D02*
X9532000Y-8454000D01*
X9509000Y-8234000D02*
X9509000Y-8284000D01*
X9484000Y-8259000D02*
X9534000Y-8259000D01*
X9611000Y-11717000D02*
X9611000Y-11767000D01*
X9586000Y-11742000D02*
X9636000Y-11742000D01*
X9640000Y-8099000D02*
X9640000Y-8149000D01*
X9615000Y-8124000D02*
X9665000Y-8124000D01*
X9763000Y-7480000D02*
X9763000Y-7530000D01*
X9738000Y-7505000D02*
X9788000Y-7505000D01*
X9804000Y-8214000D02*
X9804000Y-8264000D01*
X9779000Y-8239000D02*
X9829000Y-8239000D01*
X9898000Y-11721000D02*
X9898000Y-11771000D01*
X9873000Y-11746000D02*
X9923000Y-11746000D01*
X10103000Y-7482000D02*
X10103000Y-7532000D01*
X10078000Y-7507000D02*
X10128000Y-7507000D01*
X10124000Y-8522000D02*
X10124000Y-8572000D01*
X10099000Y-8547000D02*
X10149000Y-8547000D01*
X10218000Y-11717000D02*
X10218000Y-11767000D01*
X10193000Y-11742000D02*
X10243000Y-11742000D01*
X10221253Y-8427253D02*
X10221253Y-8477253D01*
X10196253Y-8452253D02*
X10246253Y-8452253D01*
X10334550Y-8296000D02*
X10334550Y-8346000D01*
X10309550Y-8321000D02*
X10359550Y-8321000D01*
X10414000Y-7485000D02*
X10414000Y-7535000D01*
X10389000Y-7510000D02*
X10439000Y-7510000D01*
X10515000Y-11712000D02*
X10515000Y-11762000D01*
X10490000Y-11737000D02*
X10540000Y-11737000D01*
X10743000Y-7485000D02*
X10743000Y-7535000D01*
X10718000Y-7510000D02*
X10768000Y-7510000D01*
X10835000Y-11712000D02*
X10835000Y-11762000D01*
X10810000Y-11737000D02*
X10860000Y-11737000D01*
X11069000Y-7483000D02*
X11069000Y-7533000D01*
X11044000Y-7508000D02*
X11094000Y-7508000D01*
X11104000Y-11709000D02*
X11104000Y-11759000D01*
X11079000Y-11734000D02*
X11129000Y-11734000D01*
X11187000Y-8752000D02*
X11187000Y-8802000D01*
X11162000Y-8777000D02*
X11212000Y-8777000D01*
X11189000Y-8164000D02*
X11189000Y-8214000D01*
X11164000Y-8189000D02*
X11214000Y-8189000D01*
X11190000Y-7716000D02*
X11190000Y-7766000D01*
X11165000Y-7741000D02*
X11215000Y-7741000D01*
X11190000Y-7931000D02*
X11190000Y-7981000D01*
X11165000Y-7956000D02*
X11215000Y-7956000D01*
X11190000Y-8453000D02*
X11190000Y-8503000D01*
X11165000Y-8478000D02*
X11215000Y-8478000D01*
X11764000Y-8241000D02*
X11764000Y-8291000D01*
X11739000Y-8266000D02*
X11789000Y-8266000D01*
X11768000Y-7979000D02*
X11768000Y-8029000D01*
X11743000Y-8004000D02*
X11793000Y-8004000D01*
X11777000Y-8489000D02*
X11777000Y-8539000D01*
X11752000Y-8514000D02*
X11802000Y-8514000D01*
X11780000Y-8734000D02*
X11780000Y-8784000D01*
X11755000Y-8759000D02*
X11805000Y-8759000D01*
X12638000Y-7974000D02*
X12638000Y-8024000D01*
X12613000Y-7999000D02*
X12663000Y-7999000D01*
X12958000Y-11659000D02*
X12958000Y-11709000D01*
X12933000Y-11684000D02*
X12983000Y-11684000D01*
X12963000Y-7969000D02*
X12963000Y-8019000D01*
X12938000Y-7994000D02*
X12988000Y-7994000D01*
X13071000Y-7456000D02*
X13071000Y-7506000D01*
X13046000Y-7481000D02*
X13096000Y-7481000D01*
X13093032Y-8810450D02*
X13093032Y-8860450D01*
X13068032Y-8835450D02*
X13118032Y-8835450D01*
X13178000Y-8808901D02*
X13178000Y-8858901D01*
X13153000Y-8833901D02*
X13203000Y-8833901D01*
X13283975Y-9820527D02*
X13283975Y-9870527D01*
X13258975Y-9845527D02*
X13308975Y-9845527D01*
X13285000Y-7977000D02*
X13285000Y-8027000D01*
X13260000Y-8002000D02*
X13310000Y-8002000D01*
X13323000Y-11647000D02*
X13323000Y-11697000D01*
X13298000Y-11672000D02*
X13348000Y-11672000D01*
X13388000Y-7450000D02*
X13388000Y-7500000D01*
X13363000Y-7475000D02*
X13413000Y-7475000D01*
X13557000Y-7960550D02*
X13557000Y-8010550D01*
X13532000Y-7985550D02*
X13582000Y-7985550D01*
X13676000Y-11655000D02*
X13676000Y-11705000D01*
X13651000Y-11680000D02*
X13701000Y-11680000D01*
X13726000Y-7452000D02*
X13726000Y-7502000D01*
X13701000Y-7477000D02*
X13751000Y-7477000D01*
X13881000Y-7956000D02*
X13881000Y-8006000D01*
X13856000Y-7981000D02*
X13906000Y-7981000D01*
X14046000Y-7459000D02*
X14046000Y-7509000D01*
X14021000Y-7484000D02*
X14071000Y-7484000D01*
X14056000Y-11651000D02*
X14056000Y-11701000D01*
X14031000Y-11676000D02*
X14081000Y-11676000D01*
X14225163Y-7960163D02*
X14225163Y-8010163D01*
X14200163Y-7985163D02*
X14250163Y-7985163D01*
X14236362Y-8196311D02*
X14236362Y-8246311D01*
X14211362Y-8221311D02*
X14261362Y-8221311D01*
X14371000Y-7463000D02*
X14371000Y-7513000D01*
X14346000Y-7488000D02*
X14396000Y-7488000D01*
X14398000Y-11663000D02*
X14398000Y-11713000D01*
X14373000Y-11688000D02*
X14423000Y-11688000D01*
X14750000Y-7459000D02*
X14750000Y-7509000D01*
X14725000Y-7484000D02*
X14775000Y-7484000D01*
X14762000Y-11659000D02*
X14762000Y-11709000D01*
X14737000Y-11684000D02*
X14787000Y-11684000D01*
X14770000Y-7963000D02*
X14770000Y-8013000D01*
X14745000Y-7988000D02*
X14795000Y-7988000D01*
X15094000Y-7463000D02*
X15094000Y-7513000D01*
X15069000Y-7488000D02*
X15119000Y-7488000D01*
X15094000Y-11665000D02*
X15094000Y-11715000D01*
X15069000Y-11690000D02*
X15119000Y-11690000D01*
X15368000Y-11665000D02*
X15368000Y-11715000D01*
X15343000Y-11690000D02*
X15393000Y-11690000D01*
X15384000Y-7463000D02*
X15384000Y-7513000D01*
X15359000Y-7488000D02*
X15409000Y-7488000D01*
X15723059Y-7461050D02*
X15723059Y-7511050D01*
X15698059Y-7486050D02*
X15748059Y-7486050D01*
X16006000Y-7461050D02*
X16006000Y-7511050D01*
X15981000Y-7486050D02*
X16031000Y-7486050D01*
X16278000Y-7461050D02*
X16278000Y-7511050D01*
X16253000Y-7486050D02*
X16303000Y-7486050D01*
X16364000Y-11397000D02*
X16364000Y-11447000D01*
X16339000Y-11422000D02*
X16389000Y-11422000D01*
X16516000Y-11660000D02*
X16516000Y-11710000D01*
X16491000Y-11685000D02*
X16541000Y-11685000D01*
X16544000Y-7465000D02*
X16544000Y-7515000D01*
X16519000Y-7490000D02*
X16569000Y-7490000D01*
X16824000Y-7460000D02*
X16824000Y-7510000D01*
X16799000Y-7485000D02*
X16849000Y-7485000D01*
X16892000Y-11674000D02*
X16892000Y-11724000D01*
X16867000Y-11699000D02*
X16917000Y-11699000D01*
X17070000Y-7471000D02*
X17070000Y-7521000D01*
X17045000Y-7496000D02*
X17095000Y-7496000D01*
X17276000Y-11674000D02*
X17276000Y-11724000D01*
X17251000Y-11699000D02*
X17301000Y-11699000D01*
X17334000Y-7467000D02*
X17334000Y-7517000D01*
X17309000Y-7492000D02*
X17359000Y-7492000D01*
X17480000Y-9659000D02*
X17480000Y-9709000D01*
X17455000Y-9684000D02*
X17505000Y-9684000D01*
X17646000Y-7467000D02*
X17646000Y-7517000D01*
X17621000Y-7492000D02*
X17671000Y-7492000D01*
X17657000Y-11678000D02*
X17657000Y-11728000D01*
X17632000Y-11703000D02*
X17682000Y-11703000D01*
X17899000Y-7467000D02*
X17899000Y-7517000D01*
X17874000Y-7492000D02*
X17924000Y-7492000D01*
X17987000Y-11674000D02*
X17987000Y-11724000D01*
X17962000Y-11699000D02*
X18012000Y-11699000D01*
X18135000Y-7469000D02*
X18135000Y-7519000D01*
X18110000Y-7494000D02*
X18160000Y-7494000D01*
X18371000Y-11675000D02*
X18371000Y-11725000D01*
X18346000Y-11700000D02*
X18396000Y-11700000D01*
X18384000Y-7473000D02*
X18384000Y-7523000D01*
X18359000Y-7498000D02*
X18409000Y-7498000D01*
X18625000Y-7473000D02*
X18625000Y-7523000D01*
X18600000Y-7498000D02*
X18650000Y-7498000D01*
X18711000Y-11679000D02*
X18711000Y-11729000D01*
X18686000Y-11704000D02*
X18736000Y-11704000D01*
X18870000Y-7470000D02*
X18870000Y-7520000D01*
X18845000Y-7495000D02*
X18895000Y-7495000D01*
X19073000Y-7473000D02*
X19073000Y-7523000D01*
X19048000Y-7498000D02*
X19098000Y-7498000D01*
X19088000Y-11675000D02*
X19088000Y-11725000D01*
X19063000Y-11700000D02*
X19113000Y-11700000D01*
X19329000Y-7479000D02*
X19329000Y-7529000D01*
X19304000Y-7504000D02*
X19354000Y-7504000D01*
X19412000Y-11679000D02*
X19412000Y-11729000D01*
X19387000Y-11704000D02*
X19437000Y-11704000D01*
X19544000Y-7482000D02*
X19544000Y-7532000D01*
X19519000Y-7507000D02*
X19569000Y-7507000D01*
X19743000Y-11682000D02*
X19743000Y-11732000D01*
X19718000Y-11707000D02*
X19768000Y-11707000D01*
X19800000Y-7477000D02*
X19800000Y-7527000D01*
X19775000Y-7502000D02*
X19825000Y-7502000D01*
X20066000Y-11685000D02*
X20066000Y-11735000D01*
X20041000Y-11710000D02*
X20091000Y-11710000D01*
X20100000Y-7476000D02*
X20100000Y-7526000D01*
X20075000Y-7501000D02*
X20125000Y-7501000D01*
X20391000Y-7476000D02*
X20391000Y-7526000D01*
X20366000Y-7501000D02*
X20416000Y-7501000D01*
X20395000Y-11685000D02*
X20395000Y-11735000D01*
X20370000Y-11710000D02*
X20420000Y-11710000D01*
X20675000Y-7476000D02*
X20675000Y-7526000D01*
X20650000Y-7501000D02*
X20700000Y-7501000D01*
X20682000Y-11685000D02*
X20682000Y-11735000D01*
X20657000Y-11710000D02*
X20707000Y-11710000D01*
X20863000Y-11582000D02*
X20863000Y-11632000D01*
X20838000Y-11607000D02*
X20888000Y-11607000D01*
X20877000Y-7585000D02*
X20877000Y-7635000D01*
X20852000Y-7610000D02*
X20902000Y-7610000D01*
X20962000Y-7867000D02*
X20962000Y-7917000D01*
X20937000Y-7892000D02*
X20987000Y-7892000D01*
X20963000Y-10868000D02*
X20963000Y-10918000D01*
X20938000Y-10893000D02*
X20988000Y-10893000D01*
X20964000Y-8368000D02*
X20964000Y-8418000D01*
X20939000Y-8393000D02*
X20989000Y-8393000D01*
X20965000Y-8107000D02*
X20965000Y-8157000D01*
X20940000Y-8132000D02*
X20990000Y-8132000D01*
X20966000Y-11139000D02*
X20966000Y-11189000D01*
X20941000Y-11164000D02*
X20991000Y-11164000D01*
X20966000Y-11416000D02*
X20966000Y-11466000D01*
X20941000Y-11441000D02*
X20991000Y-11441000D01*
D14*
X12711713Y-7548713D02*
X12711713Y-7506287D01*
X12669287Y-7506287D01*
X12669287Y-7548713D01*
X12711713Y-7548713D01*
X12722713Y-11591463D02*
X12722713Y-11549037D01*
X12680287Y-11549037D01*
X12680287Y-11591463D01*
X12722713Y-11591463D01*
X12722713Y-11718463D02*
X12722713Y-11676037D01*
X12680287Y-11676037D01*
X12680287Y-11718463D01*
X12722713Y-11718463D01*
X12838713Y-7548713D02*
X12838713Y-7506287D01*
X12796287Y-7506287D01*
X12796287Y-7548713D01*
X12838713Y-7548713D01*
D15*
X8882000Y-8184500D02*
X8914500Y-8152000D01*
X8882000Y-8119500D01*
X8849500Y-8152000D01*
X8882000Y-8184500D01*
X8882000Y-8314500D02*
X8914500Y-8282000D01*
X8882000Y-8249500D01*
X8849500Y-8282000D01*
X8882000Y-8314500D01*
X8887000Y-10982500D02*
X8919500Y-10950000D01*
X8887000Y-10917500D01*
X8854500Y-10950000D01*
X8887000Y-10982500D01*
X8887000Y-11112500D02*
X8919500Y-11080000D01*
X8887000Y-11047500D01*
X8854500Y-11080000D01*
X8887000Y-11112500D01*
X8919000Y-9170500D02*
X8951500Y-9138000D01*
X8919000Y-9105500D01*
X8886500Y-9138000D01*
X8919000Y-9170500D01*
X8964000Y-10126500D02*
X8996500Y-10094000D01*
X8964000Y-10061500D01*
X8931500Y-10094000D01*
X8964000Y-10126500D01*
X9049000Y-9170500D02*
X9081500Y-9138000D01*
X9049000Y-9105500D01*
X9016500Y-9138000D01*
X9049000Y-9170500D01*
X9094000Y-10126500D02*
X9126500Y-10094000D01*
X9094000Y-10061500D01*
X9061500Y-10094000D01*
X9094000Y-10126500D01*
X9526000Y-8736500D02*
X9558500Y-8704000D01*
X9526000Y-8671500D01*
X9493500Y-8704000D01*
X9526000Y-8736500D01*
X9656000Y-8736500D02*
X9688500Y-8704000D01*
X9656000Y-8671500D01*
X9623500Y-8704000D01*
X9656000Y-8736500D01*
X11803000Y-9168000D02*
X11835500Y-9135500D01*
X11803000Y-9103000D01*
X11770500Y-9135500D01*
X11803000Y-9168000D01*
X11803000Y-9295000D02*
X11835500Y-9262500D01*
X11803000Y-9230000D01*
X11770500Y-9262500D01*
X11803000Y-9295000D01*
X11803000Y-9422000D02*
X11835500Y-9389500D01*
X11803000Y-9357000D01*
X11770500Y-9389500D01*
X11803000Y-9422000D01*
X13134000Y-7865500D02*
X13166500Y-7833000D01*
X13134000Y-7800500D01*
X13101500Y-7833000D01*
X13134000Y-7865500D01*
X13134000Y-8065500D02*
X13166500Y-8033000D01*
X13134000Y-8000500D01*
X13101500Y-8033000D01*
X13134000Y-8065500D01*
X16053000Y-9455000D02*
X16085500Y-9422500D01*
X16053000Y-9390000D01*
X16020500Y-9422500D01*
X16053000Y-9455000D01*
X16053000Y-9582000D02*
X16085500Y-9549500D01*
X16053000Y-9517000D01*
X16020500Y-9549500D01*
X16053000Y-9582000D01*
X16053000Y-9709000D02*
X16085500Y-9676500D01*
X16053000Y-9644000D01*
X16020500Y-9676500D01*
X16053000Y-9709000D01*
X16058000Y-11375000D02*
X16090500Y-11342500D01*
X16058000Y-11310000D01*
X16025500Y-11342500D01*
X16058000Y-11375000D01*
X16058000Y-11502000D02*
X16090500Y-11469500D01*
X16058000Y-11437000D01*
X16025500Y-11469500D01*
X16058000Y-11502000D01*
X16058000Y-11629000D02*
X16090500Y-11596500D01*
X16058000Y-11564000D01*
X16025500Y-11596500D01*
X16058000Y-11629000D01*
X17679000Y-10095500D02*
X17711500Y-10063000D01*
X17679000Y-10030500D01*
X17646500Y-10063000D01*
X17679000Y-10095500D01*
X17806000Y-10095500D02*
X17838500Y-10063000D01*
X17806000Y-10030500D01*
X17773500Y-10063000D01*
X17806000Y-10095500D01*
X17933000Y-10095500D02*
X17965500Y-10063000D01*
X17933000Y-10030500D01*
X17900500Y-10063000D01*
X17933000Y-10095500D01*
X18060000Y-10095500D02*
X18092500Y-10063000D01*
X18060000Y-10030500D01*
X18027500Y-10063000D01*
X18060000Y-10095500D01*
X19063000Y-8320500D02*
X19095500Y-8288000D01*
X19063000Y-8255500D01*
X19030500Y-8288000D01*
X19063000Y-8320500D01*
X19190000Y-8320500D02*
X19222500Y-8288000D01*
X19190000Y-8255500D01*
X19157500Y-8288000D01*
X19190000Y-8320500D01*
X19317000Y-8320500D02*
X19349500Y-8288000D01*
X19317000Y-8255500D01*
X19284500Y-8288000D01*
X19317000Y-8320500D01*
X19444000Y-8320500D02*
X19476500Y-8288000D01*
X19444000Y-8255500D01*
X19411500Y-8288000D01*
X19444000Y-8320500D01*
D16*
X10257000Y-7893000D02*
X10327000Y-7963000D01*
X10327000Y-7893000D02*
X10257000Y-7963000D01*
X10327000Y-7928000D02*
G75*
G03*
X10327000Y-7928000I-35000J0D01*
G01*
X10511000Y-8147000D02*
X10581000Y-8217000D01*
X10581000Y-8147000D02*
X10511000Y-8217000D01*
X10581000Y-8182000D02*
G75*
G03*
X10581000Y-8182000I-35000J0D01*
G01*
X10765000Y-7893000D02*
X10835000Y-7963000D01*
X10835000Y-7893000D02*
X10765000Y-7963000D01*
X10835000Y-7928000D02*
G75*
G03*
X10835000Y-7928000I-35000J0D01*
G01*
X11739000Y-10545000D02*
X11809000Y-10615000D01*
X11809000Y-10545000D02*
X11739000Y-10615000D01*
X11809000Y-10580000D02*
G75*
G03*
X11809000Y-10580000I-35000J0D01*
G01*
X11871000Y-10685000D02*
X11941000Y-10755000D01*
X11941000Y-10685000D02*
X11871000Y-10755000D01*
X11941000Y-10720000D02*
G75*
G03*
X11941000Y-10720000I-35000J0D01*
G01*
X12022000Y-10248000D02*
X12092000Y-10318000D01*
X12092000Y-10248000D02*
X12022000Y-10318000D01*
X12092000Y-10283000D02*
G75*
G03*
X12092000Y-10283000I-35000J0D01*
G01*
X12022000Y-10571000D02*
X12092000Y-10641000D01*
X12092000Y-10571000D02*
X12022000Y-10641000D01*
X12092000Y-10606000D02*
G75*
G03*
X12092000Y-10606000I-35000J0D01*
G01*
X12051000Y-10060000D02*
X12121000Y-10130000D01*
X12121000Y-10060000D02*
X12051000Y-10130000D01*
X12121000Y-10095000D02*
G75*
G03*
X12121000Y-10095000I-35000J0D01*
G01*
X12203000Y-10186000D02*
X12273000Y-10256000D01*
X12273000Y-10186000D02*
X12203000Y-10256000D01*
X12273000Y-10221000D02*
G75*
G03*
X12273000Y-10221000I-35000J0D01*
G01*
X15077000Y-8117000D02*
X15147000Y-8187000D01*
X15147000Y-8117000D02*
X15077000Y-8187000D01*
X15147000Y-8152000D02*
G75*
G03*
X15147000Y-8152000I-35000J0D01*
G01*
X15204000Y-8117000D02*
X15274000Y-8187000D01*
X15274000Y-8117000D02*
X15204000Y-8187000D01*
X15274000Y-8152000D02*
G75*
G03*
X15274000Y-8152000I-35000J0D01*
G01*
X15331000Y-8117000D02*
X15401000Y-8187000D01*
X15401000Y-8117000D02*
X15331000Y-8187000D01*
X15401000Y-8152000D02*
G75*
G03*
X15401000Y-8152000I-35000J0D01*
G01*
X15458000Y-8117000D02*
X15528000Y-8187000D01*
X15528000Y-8117000D02*
X15458000Y-8187000D01*
X15528000Y-8152000D02*
G75*
G03*
X15528000Y-8152000I-35000J0D01*
G01*
X18706500Y-7762500D02*
X18776500Y-7832500D01*
X18776500Y-7762500D02*
X18706500Y-7832500D01*
X18776500Y-7797500D02*
G75*
G03*
X18776500Y-7797500I-35000J0D01*
G01*
X18714500Y-11409500D02*
X18784500Y-11479500D01*
X18784500Y-11409500D02*
X18714500Y-11479500D01*
X18784500Y-11444500D02*
G75*
G03*
X18784500Y-11444500I-35000J0D01*
G01*
X18833500Y-7762500D02*
X18903500Y-7832500D01*
X18903500Y-7762500D02*
X18833500Y-7832500D01*
X18903500Y-7797500D02*
G75*
G03*
X18903500Y-7797500I-35000J0D01*
G01*
X18841500Y-11409500D02*
X18911500Y-11479500D01*
X18911500Y-11409500D02*
X18841500Y-11479500D01*
X18911500Y-11444500D02*
G75*
G03*
X18911500Y-11444500I-35000J0D01*
G01*
D17*
X8065000Y-8519500D02*
X8165000Y-8619500D01*
X8165000Y-8519500D02*
X8065000Y-8619500D01*
X8115000Y-8519500D02*
X8115000Y-8619500D01*
X8065000Y-8569500D02*
X8165000Y-8569500D01*
X8065000Y-8773500D02*
X8165000Y-8873500D01*
X8165000Y-8773500D02*
X8065000Y-8873500D01*
X8115000Y-8773500D02*
X8115000Y-8873500D01*
X8065000Y-8823500D02*
X8165000Y-8823500D01*
X8065000Y-10357500D02*
X8165000Y-10457500D01*
X8165000Y-10357500D02*
X8065000Y-10457500D01*
X8115000Y-10357500D02*
X8115000Y-10457500D01*
X8065000Y-10407500D02*
X8165000Y-10407500D01*
X8065000Y-10611500D02*
X8165000Y-10711500D01*
X8165000Y-10611500D02*
X8065000Y-10711500D01*
X8115000Y-10611500D02*
X8115000Y-10711500D01*
X8065000Y-10661500D02*
X8165000Y-10661500D01*
X8319000Y-8519500D02*
X8419000Y-8619500D01*
X8419000Y-8519500D02*
X8319000Y-8619500D01*
X8369000Y-8519500D02*
X8369000Y-8619500D01*
X8319000Y-8569500D02*
X8419000Y-8569500D01*
X8319000Y-8773500D02*
X8419000Y-8873500D01*
X8419000Y-8773500D02*
X8319000Y-8873500D01*
X8369000Y-8773500D02*
X8369000Y-8873500D01*
X8319000Y-8823500D02*
X8419000Y-8823500D01*
X8319000Y-10357500D02*
X8419000Y-10457500D01*
X8419000Y-10357500D02*
X8319000Y-10457500D01*
X8369000Y-10357500D02*
X8369000Y-10457500D01*
X8319000Y-10407500D02*
X8419000Y-10407500D01*
X8319000Y-10611500D02*
X8419000Y-10711500D01*
X8419000Y-10611500D02*
X8319000Y-10711500D01*
X8369000Y-10611500D02*
X8369000Y-10711500D01*
X8319000Y-10661500D02*
X8419000Y-10661500D01*
X8573000Y-8519500D02*
X8673000Y-8619500D01*
X8673000Y-8519500D02*
X8573000Y-8619500D01*
X8623000Y-8519500D02*
X8623000Y-8619500D01*
X8573000Y-8569500D02*
X8673000Y-8569500D01*
X8573000Y-8773500D02*
X8673000Y-8873500D01*
X8673000Y-8773500D02*
X8573000Y-8873500D01*
X8623000Y-8773500D02*
X8623000Y-8873500D01*
X8573000Y-8823500D02*
X8673000Y-8823500D01*
X8573000Y-10357500D02*
X8673000Y-10457500D01*
X8673000Y-10357500D02*
X8573000Y-10457500D01*
X8623000Y-10357500D02*
X8623000Y-10457500D01*
X8573000Y-10407500D02*
X8673000Y-10407500D01*
X8573000Y-10611500D02*
X8673000Y-10711500D01*
X8673000Y-10611500D02*
X8573000Y-10711500D01*
X8623000Y-10611500D02*
X8623000Y-10711500D01*
X8573000Y-10661500D02*
X8673000Y-10661500D01*
X8827000Y-8519500D02*
X8927000Y-8619500D01*
X8927000Y-8519500D02*
X8827000Y-8619500D01*
X8877000Y-8519500D02*
X8877000Y-8619500D01*
X8827000Y-8569500D02*
X8927000Y-8569500D01*
X8827000Y-8773500D02*
X8927000Y-8873500D01*
X8927000Y-8773500D02*
X8827000Y-8873500D01*
X8877000Y-8773500D02*
X8877000Y-8873500D01*
X8827000Y-8823500D02*
X8927000Y-8823500D01*
X8827000Y-10357500D02*
X8927000Y-10457500D01*
X8927000Y-10357500D02*
X8827000Y-10457500D01*
X8877000Y-10357500D02*
X8877000Y-10457500D01*
X8827000Y-10407500D02*
X8927000Y-10407500D01*
X8827000Y-10611500D02*
X8927000Y-10711500D01*
X8927000Y-10611500D02*
X8827000Y-10711500D01*
X8877000Y-10611500D02*
X8877000Y-10711500D01*
X8827000Y-10661500D02*
X8927000Y-10661500D01*
X9950000Y-9318600D02*
X10050000Y-9418600D01*
X10050000Y-9318600D02*
X9950000Y-9418600D01*
X10000000Y-9318600D02*
X10000000Y-9418600D01*
X9950000Y-9368600D02*
X10050000Y-9368600D01*
X9950000Y-9818600D02*
X10050000Y-9918600D01*
X10050000Y-9818600D02*
X9950000Y-9918600D01*
X10000000Y-9818600D02*
X10000000Y-9918600D01*
X9950000Y-9868600D02*
X10050000Y-9868600D01*
X11400000Y-9318600D02*
X11500000Y-9418600D01*
X11500000Y-9318600D02*
X11400000Y-9418600D01*
X11450000Y-9318600D02*
X11450000Y-9418600D01*
X11400000Y-9368600D02*
X11500000Y-9368600D01*
X11400000Y-9568600D02*
X11500000Y-9668600D01*
X11500000Y-9568600D02*
X11400000Y-9668600D01*
X11450000Y-9568600D02*
X11450000Y-9668600D01*
X11400000Y-9618600D02*
X11500000Y-9618600D01*
X11400000Y-9818600D02*
X11500000Y-9918600D01*
X11500000Y-9818600D02*
X11400000Y-9918600D01*
X11450000Y-9818600D02*
X11450000Y-9918600D01*
X11400000Y-9868600D02*
X11500000Y-9868600D01*
X16830000Y-8538000D02*
X16930000Y-8638000D01*
X16930000Y-8538000D02*
X16830000Y-8638000D01*
X16880000Y-8538000D02*
X16880000Y-8638000D01*
X16830000Y-8588000D02*
X16930000Y-8588000D01*
X16830000Y-11078000D02*
X16930000Y-11178000D01*
X16930000Y-11078000D02*
X16830000Y-11178000D01*
X16880000Y-11078000D02*
X16880000Y-11178000D01*
X16830000Y-11128000D02*
X16930000Y-11128000D01*
X17084000Y-8538000D02*
X17184000Y-8638000D01*
X17184000Y-8538000D02*
X17084000Y-8638000D01*
X17134000Y-8538000D02*
X17134000Y-8638000D01*
X17084000Y-8588000D02*
X17184000Y-8588000D01*
X17084000Y-11078000D02*
X17184000Y-11178000D01*
X17184000Y-11078000D02*
X17084000Y-11178000D01*
X17134000Y-11078000D02*
X17134000Y-11178000D01*
X17084000Y-11128000D02*
X17184000Y-11128000D01*
X17338000Y-11078000D02*
X17438000Y-11178000D01*
X17438000Y-11078000D02*
X17338000Y-11178000D01*
X17388000Y-11078000D02*
X17388000Y-11178000D01*
X17338000Y-11128000D02*
X17438000Y-11128000D01*
X17592000Y-11078000D02*
X17692000Y-11178000D01*
X17692000Y-11078000D02*
X17592000Y-11178000D01*
X17642000Y-11078000D02*
X17642000Y-11178000D01*
X17592000Y-11128000D02*
X17692000Y-11128000D01*
X17805000Y-7668000D02*
X17905000Y-7768000D01*
X17905000Y-7668000D02*
X17805000Y-7768000D01*
X17855000Y-7668000D02*
X17855000Y-7768000D01*
X17805000Y-7718000D02*
X17905000Y-7718000D01*
X17805000Y-7942000D02*
X17905000Y-8042000D01*
X17905000Y-7942000D02*
X17805000Y-8042000D01*
X17855000Y-7942000D02*
X17855000Y-8042000D01*
X17805000Y-7992000D02*
X17905000Y-7992000D01*
X17846000Y-11078000D02*
X17946000Y-11178000D01*
X17946000Y-11078000D02*
X17846000Y-11178000D01*
X17896000Y-11078000D02*
X17896000Y-11178000D01*
X17846000Y-11128000D02*
X17946000Y-11128000D01*
X18069000Y-7678000D02*
X18169000Y-7778000D01*
X18169000Y-7678000D02*
X18069000Y-7778000D01*
X18119000Y-7678000D02*
X18119000Y-7778000D01*
X18069000Y-7728000D02*
X18169000Y-7728000D01*
X18069000Y-7932000D02*
X18169000Y-8032000D01*
X18169000Y-7932000D02*
X18069000Y-8032000D01*
X18119000Y-7932000D02*
X18119000Y-8032000D01*
X18069000Y-7982000D02*
X18169000Y-7982000D01*
X18100000Y-11078000D02*
X18200000Y-11178000D01*
X18200000Y-11078000D02*
X18100000Y-11178000D01*
X18150000Y-11078000D02*
X18150000Y-11178000D01*
X18100000Y-11128000D02*
X18200000Y-11128000D01*
X18333000Y-7668000D02*
X18433000Y-7768000D01*
X18433000Y-7668000D02*
X18333000Y-7768000D01*
X18383000Y-7668000D02*
X18383000Y-7768000D01*
X18333000Y-7718000D02*
X18433000Y-7718000D01*
X18333000Y-7942000D02*
X18433000Y-8042000D01*
X18433000Y-7942000D02*
X18333000Y-8042000D01*
X18383000Y-7942000D02*
X18383000Y-8042000D01*
X18333000Y-7992000D02*
X18433000Y-7992000D01*
X18354000Y-11078000D02*
X18454000Y-11178000D01*
X18454000Y-11078000D02*
X18354000Y-11178000D01*
X18404000Y-11078000D02*
X18404000Y-11178000D01*
X18354000Y-11128000D02*
X18454000Y-11128000D01*
X18608000Y-11078000D02*
X18708000Y-11178000D01*
X18708000Y-11078000D02*
X18608000Y-11178000D01*
X18658000Y-11078000D02*
X18658000Y-11178000D01*
X18608000Y-11128000D02*
X18708000Y-11128000D01*
X18862000Y-8538000D02*
X18962000Y-8638000D01*
X18962000Y-8538000D02*
X18862000Y-8638000D01*
X18912000Y-8538000D02*
X18912000Y-8638000D01*
X18862000Y-8588000D02*
X18962000Y-8588000D01*
X18862000Y-11078000D02*
X18962000Y-11178000D01*
X18962000Y-11078000D02*
X18862000Y-11178000D01*
X18912000Y-11078000D02*
X18912000Y-11178000D01*
X18862000Y-11128000D02*
X18962000Y-11128000D01*
X19116000Y-8538000D02*
X19216000Y-8638000D01*
X19216000Y-8538000D02*
X19116000Y-8638000D01*
X19166000Y-8538000D02*
X19166000Y-8638000D01*
X19116000Y-8588000D02*
X19216000Y-8588000D01*
X19116000Y-11078000D02*
X19216000Y-11178000D01*
X19216000Y-11078000D02*
X19116000Y-11178000D01*
X19166000Y-11078000D02*
X19166000Y-11178000D01*
X19116000Y-11128000D02*
X19216000Y-11128000D01*
D18*
X8111500Y-9538600D02*
X8271500Y-9698600D01*
X8271500Y-9538600D02*
X8111500Y-9698600D01*
X8248069Y-9675169D02*
X8248069Y-9562031D01*
X8134931Y-9562031D01*
X8134931Y-9675169D01*
X8248069Y-9675169D01*
X9536000Y-9133000D02*
X9696000Y-9293000D01*
X9696000Y-9133000D02*
X9536000Y-9293000D01*
X9672569Y-9269569D02*
X9672569Y-9156431D01*
X9559431Y-9156431D01*
X9559431Y-9269569D01*
X9672569Y-9269569D01*
X9537000Y-9539000D02*
X9697000Y-9699000D01*
X9697000Y-9539000D02*
X9537000Y-9699000D01*
X9673569Y-9675569D02*
X9673569Y-9562431D01*
X9560431Y-9562431D01*
X9560431Y-9675569D01*
X9673569Y-9675569D01*
X9539000Y-9937000D02*
X9699000Y-10097000D01*
X9699000Y-9937000D02*
X9539000Y-10097000D01*
X9675569Y-10073569D02*
X9675569Y-9960431D01*
X9562431Y-9960431D01*
X9562431Y-10073569D01*
X9675569Y-10073569D01*
X14012000Y-9509000D02*
X14172000Y-9669000D01*
X14172000Y-9509000D02*
X14012000Y-9669000D01*
X14148569Y-9645569D02*
X14148569Y-9532431D01*
X14035431Y-9532431D01*
X14035431Y-9645569D01*
X14148569Y-9645569D01*
X15448000Y-10280000D02*
X15608000Y-10440000D01*
X15608000Y-10280000D02*
X15448000Y-10440000D01*
X15584569Y-10416569D02*
X15584569Y-10303431D01*
X15471431Y-10303431D01*
X15471431Y-10416569D01*
X15584569Y-10416569D01*
X16453000Y-10664000D02*
X16613000Y-10824000D01*
X16613000Y-10664000D02*
X16453000Y-10824000D01*
X16589569Y-10800569D02*
X16589569Y-10687431D01*
X16476431Y-10687431D01*
X16476431Y-10800569D01*
X16589569Y-10800569D01*
D19*
X12154000Y-8160000D02*
X12329000Y-8335000D01*
X12329000Y-8160000D02*
X12154000Y-8335000D01*
X12241500Y-8335000D02*
X12329000Y-8247500D01*
X12241500Y-8160000D01*
X12154000Y-8247500D01*
X12241500Y-8335000D01*
X12154000Y-8940000D02*
X12329000Y-9115000D01*
X12329000Y-8940000D02*
X12154000Y-9115000D01*
X12241500Y-9115000D02*
X12329000Y-9027500D01*
X12241500Y-8940000D01*
X12154000Y-9027500D01*
X12241500Y-9115000D01*
D20*
X9396000Y-11052000D02*
X9396000Y-11262000D01*
X9291000Y-11157000D02*
X9501000Y-11157000D01*
X9501000Y-11157000D02*
G75*
G03*
X9501000Y-11157000I-105000J0D01*
G01*
X9786000Y-10472000D02*
X9786000Y-10682000D01*
X9681000Y-10577000D02*
X9891000Y-10577000D01*
X9891000Y-10577000D02*
G75*
G03*
X9891000Y-10577000I-105000J0D01*
G01*
D11*
X9786000Y-10672000D02*
X9786000Y-10672000D01*
X9786000Y-10482000D02*
X9786000Y-10482000D01*
X9786000Y-10672000D02*
G75*
G03*
X9786000Y-10482000I0J95000D01*
G01*
X9786000Y-10482000D02*
G75*
G03*
X9786000Y-10672000I0J-95000D01*
G01*
D20*
X10176000Y-11052000D02*
X10176000Y-11262000D01*
X10071000Y-11157000D02*
X10281000Y-11157000D01*
X10281000Y-11157000D02*
G75*
G03*
X10281000Y-11157000I-105000J0D01*
G01*
D21*
X10795460Y-9134060D02*
X10795460Y-8943140D01*
X10604540Y-8943140D01*
X10604540Y-9134060D01*
X10795460Y-9134060D01*
X10835000Y-9038600D02*
G75*
G03*
X10835000Y-9038600I-135000J0D01*
G01*
X10795460Y-10294060D02*
X10795460Y-10103140D01*
X10604540Y-10103140D01*
X10604540Y-10294060D01*
X10795460Y-10294060D01*
X10835000Y-10198600D02*
G75*
G03*
X10835000Y-10198600I-135000J0D01*
G01*
D22*
X8196400Y-8029850D02*
X8355150Y-7871100D01*
X8196400Y-7712350D01*
X8037650Y-7871100D01*
X8196400Y-8029850D01*
X8355150Y-7871100D02*
G75*
G03*
X8355150Y-7871100I-158750J0D01*
G01*
X8196400Y-11525250D02*
X8355150Y-11366500D01*
X8196400Y-11207750D01*
X8037650Y-11366500D01*
X8196400Y-11525250D01*
X8355150Y-11366500D02*
G75*
G03*
X8355150Y-11366500I-158750J0D01*
G01*
X20591780Y-8029850D02*
X20750530Y-7871100D01*
X20591780Y-7712350D01*
X20433030Y-7871100D01*
X20591780Y-8029850D01*
X20750530Y-7871100D02*
G75*
G03*
X20750530Y-7871100I-158750J0D01*
G01*
X20591780Y-11525250D02*
X20750530Y-11366500D01*
X20591780Y-11207750D01*
X20433030Y-11366500D01*
X20591780Y-11525250D01*
X20750530Y-11366500D02*
G75*
G03*
X20750530Y-11366500I-158750J0D01*
G01*
D11*
X7979119Y-12151476D02*
X7979119Y-11951476D01*
X8026738Y-11951476D01*
X8055309Y-11961000D01*
X8074357Y-11980048D01*
X8083881Y-11999095D01*
X8093405Y-12037190D01*
X8093405Y-12065762D01*
X8083881Y-12103857D01*
X8074357Y-12122905D01*
X8055309Y-12141952D01*
X8026738Y-12151476D01*
X7979119Y-12151476D01*
X8179119Y-12151476D02*
X8179119Y-12018143D01*
X8179119Y-12056238D02*
X8188643Y-12037190D01*
X8198167Y-12027667D01*
X8217214Y-12018143D01*
X8236262Y-12018143D01*
X8302928Y-12151476D02*
X8302928Y-12018143D01*
X8302928Y-11951476D02*
X8293405Y-11961000D01*
X8302928Y-11970524D01*
X8312452Y-11961000D01*
X8302928Y-11951476D01*
X8302928Y-11970524D01*
X8426738Y-12151476D02*
X8407690Y-12141952D01*
X8398167Y-12122905D01*
X8398167Y-11951476D01*
X8531500Y-12151476D02*
X8512452Y-12141952D01*
X8502929Y-12122905D01*
X8502929Y-11951476D01*
X8760071Y-12151476D02*
X8760071Y-11951476D01*
X8826738Y-12094333D01*
X8893405Y-11951476D01*
X8893405Y-12151476D01*
X9074357Y-12151476D02*
X9074357Y-12046714D01*
X9064833Y-12027667D01*
X9045786Y-12018143D01*
X9007690Y-12018143D01*
X8988643Y-12027667D01*
X9074357Y-12141952D02*
X9055310Y-12151476D01*
X9007690Y-12151476D01*
X8988643Y-12141952D01*
X8979119Y-12122905D01*
X8979119Y-12103857D01*
X8988643Y-12084809D01*
X9007690Y-12075286D01*
X9055310Y-12075286D01*
X9074357Y-12065762D01*
X9169595Y-12018143D02*
X9169595Y-12218143D01*
X9169595Y-12027667D02*
X9188643Y-12018143D01*
X9226738Y-12018143D01*
X9245786Y-12027667D01*
X9255310Y-12037190D01*
X9264833Y-12056238D01*
X9264833Y-12113381D01*
X9255310Y-12132428D01*
X9245786Y-12141952D01*
X9226738Y-12151476D01*
X9188643Y-12151476D01*
X9169595Y-12141952D01*
X9350548Y-12132428D02*
X9360071Y-12141952D01*
X9350548Y-12151476D01*
X9341024Y-12141952D01*
X9350548Y-12132428D01*
X9350548Y-12151476D01*
X9350548Y-12027667D02*
X9360071Y-12037190D01*
X9350548Y-12046714D01*
X9341024Y-12037190D01*
X9350548Y-12027667D01*
X9350548Y-12046714D01*
D12*
X7681500Y-12461000D02*
X7721500Y-12501000D01*
X7721500Y-12461000D02*
X7681500Y-12501000D01*
D11*
X8017214Y-12371476D02*
X8036262Y-12371476D01*
X8055309Y-12381000D01*
X8064833Y-12390524D01*
X8074357Y-12409571D01*
X8083881Y-12447667D01*
X8083881Y-12495286D01*
X8074357Y-12533381D01*
X8064833Y-12552428D01*
X8055309Y-12561952D01*
X8036262Y-12571476D01*
X8017214Y-12571476D01*
X7998167Y-12561952D01*
X7988643Y-12552428D01*
X7979119Y-12533381D01*
X7969595Y-12495286D01*
X7969595Y-12447667D01*
X7979119Y-12409571D01*
X7988643Y-12390524D01*
X7998167Y-12381000D01*
X8017214Y-12371476D01*
X8169595Y-12552428D02*
X8179119Y-12561952D01*
X8169595Y-12571476D01*
X8160071Y-12561952D01*
X8169595Y-12552428D01*
X8169595Y-12571476D01*
X8350548Y-12438143D02*
X8350548Y-12571476D01*
X8302928Y-12361952D02*
X8255309Y-12504809D01*
X8379119Y-12504809D01*
X8493405Y-12371476D02*
X8512452Y-12371476D01*
X8531500Y-12381000D01*
X8541024Y-12390524D01*
X8550548Y-12409571D01*
X8560071Y-12447667D01*
X8560071Y-12495286D01*
X8550548Y-12533381D01*
X8541024Y-12552428D01*
X8531500Y-12561952D01*
X8512452Y-12571476D01*
X8493405Y-12571476D01*
X8474357Y-12561952D01*
X8464833Y-12552428D01*
X8455310Y-12533381D01*
X8445786Y-12495286D01*
X8445786Y-12447667D01*
X8455310Y-12409571D01*
X8464833Y-12390524D01*
X8474357Y-12381000D01*
X8493405Y-12371476D01*
X8683881Y-12371476D02*
X8702929Y-12371476D01*
X8721976Y-12381000D01*
X8731500Y-12390524D01*
X8741024Y-12409571D01*
X8750548Y-12447667D01*
X8750548Y-12495286D01*
X8741024Y-12533381D01*
X8731500Y-12552428D01*
X8721976Y-12561952D01*
X8702929Y-12571476D01*
X8683881Y-12571476D01*
X8664833Y-12561952D01*
X8655310Y-12552428D01*
X8645786Y-12533381D01*
X8636262Y-12495286D01*
X8636262Y-12447667D01*
X8645786Y-12409571D01*
X8655310Y-12390524D01*
X8664833Y-12381000D01*
X8683881Y-12371476D01*
X8836262Y-12571476D02*
X8836262Y-12438143D01*
X8836262Y-12457190D02*
X8845786Y-12447667D01*
X8864833Y-12438143D01*
X8893405Y-12438143D01*
X8912452Y-12447667D01*
X8921976Y-12466714D01*
X8921976Y-12571476D01*
X8921976Y-12466714D02*
X8931500Y-12447667D01*
X8950548Y-12438143D01*
X8979119Y-12438143D01*
X8998167Y-12447667D01*
X9007690Y-12466714D01*
X9007690Y-12571476D01*
X9102929Y-12571476D02*
X9102929Y-12438143D01*
X9102929Y-12457190D02*
X9112452Y-12447667D01*
X9131500Y-12438143D01*
X9160071Y-12438143D01*
X9179119Y-12447667D01*
X9188643Y-12466714D01*
X9188643Y-12571476D01*
X9188643Y-12466714D02*
X9198167Y-12447667D01*
X9217214Y-12438143D01*
X9245786Y-12438143D01*
X9264833Y-12447667D01*
X9274357Y-12466714D01*
X9274357Y-12571476D01*
X9664833Y-12361952D02*
X9493405Y-12619095D01*
X9921976Y-12371476D02*
X9941024Y-12371476D01*
X9960071Y-12381000D01*
X9969595Y-12390524D01*
X9979119Y-12409571D01*
X9988643Y-12447667D01*
X9988643Y-12495286D01*
X9979119Y-12533381D01*
X9969595Y-12552428D01*
X9960071Y-12561952D01*
X9941024Y-12571476D01*
X9921976Y-12571476D01*
X9902929Y-12561952D01*
X9893405Y-12552428D01*
X9883881Y-12533381D01*
X9874357Y-12495286D01*
X9874357Y-12447667D01*
X9883881Y-12409571D01*
X9893405Y-12390524D01*
X9902929Y-12381000D01*
X9921976Y-12371476D01*
X10074357Y-12552428D02*
X10083881Y-12561952D01*
X10074357Y-12571476D01*
X10064833Y-12561952D01*
X10074357Y-12552428D01*
X10074357Y-12571476D01*
X10207690Y-12371476D02*
X10226738Y-12371476D01*
X10245786Y-12381000D01*
X10255310Y-12390524D01*
X10264833Y-12409571D01*
X10274357Y-12447667D01*
X10274357Y-12495286D01*
X10264833Y-12533381D01*
X10255310Y-12552428D01*
X10245786Y-12561952D01*
X10226738Y-12571476D01*
X10207690Y-12571476D01*
X10188643Y-12561952D01*
X10179119Y-12552428D01*
X10169595Y-12533381D01*
X10160071Y-12495286D01*
X10160071Y-12447667D01*
X10169595Y-12409571D01*
X10179119Y-12390524D01*
X10188643Y-12381000D01*
X10207690Y-12371476D01*
X10464833Y-12571476D02*
X10350548Y-12571476D01*
X10407690Y-12571476D02*
X10407690Y-12371476D01*
X10388643Y-12400048D01*
X10369595Y-12419095D01*
X10350548Y-12428619D01*
X10645786Y-12371476D02*
X10550548Y-12371476D01*
X10541024Y-12466714D01*
X10550548Y-12457190D01*
X10569595Y-12447667D01*
X10617214Y-12447667D01*
X10636262Y-12457190D01*
X10645786Y-12466714D01*
X10655310Y-12485762D01*
X10655310Y-12533381D01*
X10645786Y-12552428D01*
X10636262Y-12561952D01*
X10617214Y-12571476D01*
X10569595Y-12571476D01*
X10550548Y-12561952D01*
X10541024Y-12552428D01*
X10721976Y-12371476D02*
X10855310Y-12371476D01*
X10769595Y-12571476D01*
X10921976Y-12371476D02*
X10921976Y-12409571D01*
X10998167Y-12371476D02*
X10998167Y-12409571D01*
X11293405Y-12647667D02*
X11283881Y-12638143D01*
X11264833Y-12609571D01*
X11255309Y-12590524D01*
X11245786Y-12561952D01*
X11236262Y-12514333D01*
X11236262Y-12476238D01*
X11245786Y-12428619D01*
X11255309Y-12400048D01*
X11264833Y-12381000D01*
X11283881Y-12352428D01*
X11293405Y-12342905D01*
X11350548Y-12371476D02*
X11474357Y-12371476D01*
X11407690Y-12447667D01*
X11436262Y-12447667D01*
X11455309Y-12457190D01*
X11464833Y-12466714D01*
X11474357Y-12485762D01*
X11474357Y-12533381D01*
X11464833Y-12552428D01*
X11455309Y-12561952D01*
X11436262Y-12571476D01*
X11379119Y-12571476D01*
X11360071Y-12561952D01*
X11350548Y-12552428D01*
X11664833Y-12571476D02*
X11550548Y-12571476D01*
X11607690Y-12571476D02*
X11607690Y-12371476D01*
X11588643Y-12400048D01*
X11569595Y-12419095D01*
X11550548Y-12428619D01*
X11731500Y-12371476D02*
X11864833Y-12371476D01*
X11779119Y-12571476D01*
X12093405Y-12571476D02*
X12093405Y-12371476D01*
X12179119Y-12571476D02*
X12179119Y-12466714D01*
X12169595Y-12447667D01*
X12150548Y-12438143D01*
X12121976Y-12438143D01*
X12102928Y-12447667D01*
X12093405Y-12457190D01*
X12302928Y-12571476D02*
X12283881Y-12561952D01*
X12274357Y-12552428D01*
X12264833Y-12533381D01*
X12264833Y-12476238D01*
X12274357Y-12457190D01*
X12283881Y-12447667D01*
X12302928Y-12438143D01*
X12331500Y-12438143D01*
X12350548Y-12447667D01*
X12360071Y-12457190D01*
X12369595Y-12476238D01*
X12369595Y-12533381D01*
X12360071Y-12552428D01*
X12350548Y-12561952D01*
X12331500Y-12571476D01*
X12302928Y-12571476D01*
X12483881Y-12571476D02*
X12464833Y-12561952D01*
X12455309Y-12542905D01*
X12455309Y-12371476D01*
X12636262Y-12561952D02*
X12617214Y-12571476D01*
X12579119Y-12571476D01*
X12560071Y-12561952D01*
X12550548Y-12542905D01*
X12550548Y-12466714D01*
X12560071Y-12447667D01*
X12579119Y-12438143D01*
X12617214Y-12438143D01*
X12636262Y-12447667D01*
X12645786Y-12466714D01*
X12645786Y-12485762D01*
X12550548Y-12504809D01*
X12721976Y-12561952D02*
X12741024Y-12571476D01*
X12779119Y-12571476D01*
X12798167Y-12561952D01*
X12807690Y-12542905D01*
X12807690Y-12533381D01*
X12798167Y-12514333D01*
X12779119Y-12504809D01*
X12750548Y-12504809D01*
X12731500Y-12495286D01*
X12721976Y-12476238D01*
X12721976Y-12466714D01*
X12731500Y-12447667D01*
X12750548Y-12438143D01*
X12779119Y-12438143D01*
X12798167Y-12447667D01*
X12874357Y-12647667D02*
X12883881Y-12638143D01*
X12902928Y-12609571D01*
X12912452Y-12590524D01*
X12921976Y-12561952D01*
X12931500Y-12514333D01*
X12931500Y-12476238D01*
X12921976Y-12428619D01*
X12912452Y-12400048D01*
X12902928Y-12381000D01*
X12883881Y-12352428D01*
X12874357Y-12342905D01*
D12*
X7721500Y-12745000D02*
G75*
G03*
X7721500Y-12745000I-20000J0D01*
G01*
D11*
X8017214Y-12635476D02*
X8036262Y-12635476D01*
X8055309Y-12645000D01*
X8064833Y-12654524D01*
X8074357Y-12673571D01*
X8083881Y-12711667D01*
X8083881Y-12759286D01*
X8074357Y-12797381D01*
X8064833Y-12816428D01*
X8055309Y-12825952D01*
X8036262Y-12835476D01*
X8017214Y-12835476D01*
X7998167Y-12825952D01*
X7988643Y-12816428D01*
X7979119Y-12797381D01*
X7969595Y-12759286D01*
X7969595Y-12711667D01*
X7979119Y-12673571D01*
X7988643Y-12654524D01*
X7998167Y-12645000D01*
X8017214Y-12635476D01*
X8169595Y-12816428D02*
X8179119Y-12825952D01*
X8169595Y-12835476D01*
X8160071Y-12825952D01*
X8169595Y-12816428D01*
X8169595Y-12835476D01*
X8350548Y-12702143D02*
X8350548Y-12835476D01*
X8302928Y-12625952D02*
X8255309Y-12768809D01*
X8379119Y-12768809D01*
X8493405Y-12635476D02*
X8512452Y-12635476D01*
X8531500Y-12645000D01*
X8541024Y-12654524D01*
X8550548Y-12673571D01*
X8560071Y-12711667D01*
X8560071Y-12759286D01*
X8550548Y-12797381D01*
X8541024Y-12816428D01*
X8531500Y-12825952D01*
X8512452Y-12835476D01*
X8493405Y-12835476D01*
X8474357Y-12825952D01*
X8464833Y-12816428D01*
X8455310Y-12797381D01*
X8445786Y-12759286D01*
X8445786Y-12711667D01*
X8455310Y-12673571D01*
X8464833Y-12654524D01*
X8474357Y-12645000D01*
X8493405Y-12635476D01*
X8683881Y-12635476D02*
X8702929Y-12635476D01*
X8721976Y-12645000D01*
X8731500Y-12654524D01*
X8741024Y-12673571D01*
X8750548Y-12711667D01*
X8750548Y-12759286D01*
X8741024Y-12797381D01*
X8731500Y-12816428D01*
X8721976Y-12825952D01*
X8702929Y-12835476D01*
X8683881Y-12835476D01*
X8664833Y-12825952D01*
X8655310Y-12816428D01*
X8645786Y-12797381D01*
X8636262Y-12759286D01*
X8636262Y-12711667D01*
X8645786Y-12673571D01*
X8655310Y-12654524D01*
X8664833Y-12645000D01*
X8683881Y-12635476D01*
X8836262Y-12835476D02*
X8836262Y-12702143D01*
X8836262Y-12721190D02*
X8845786Y-12711667D01*
X8864833Y-12702143D01*
X8893405Y-12702143D01*
X8912452Y-12711667D01*
X8921976Y-12730714D01*
X8921976Y-12835476D01*
X8921976Y-12730714D02*
X8931500Y-12711667D01*
X8950548Y-12702143D01*
X8979119Y-12702143D01*
X8998167Y-12711667D01*
X9007690Y-12730714D01*
X9007690Y-12835476D01*
X9102929Y-12835476D02*
X9102929Y-12702143D01*
X9102929Y-12721190D02*
X9112452Y-12711667D01*
X9131500Y-12702143D01*
X9160071Y-12702143D01*
X9179119Y-12711667D01*
X9188643Y-12730714D01*
X9188643Y-12835476D01*
X9188643Y-12730714D02*
X9198167Y-12711667D01*
X9217214Y-12702143D01*
X9245786Y-12702143D01*
X9264833Y-12711667D01*
X9274357Y-12730714D01*
X9274357Y-12835476D01*
X9664833Y-12625952D02*
X9493405Y-12883095D01*
X9921976Y-12635476D02*
X9941024Y-12635476D01*
X9960071Y-12645000D01*
X9969595Y-12654524D01*
X9979119Y-12673571D01*
X9988643Y-12711667D01*
X9988643Y-12759286D01*
X9979119Y-12797381D01*
X9969595Y-12816428D01*
X9960071Y-12825952D01*
X9941024Y-12835476D01*
X9921976Y-12835476D01*
X9902929Y-12825952D01*
X9893405Y-12816428D01*
X9883881Y-12797381D01*
X9874357Y-12759286D01*
X9874357Y-12711667D01*
X9883881Y-12673571D01*
X9893405Y-12654524D01*
X9902929Y-12645000D01*
X9921976Y-12635476D01*
X10074357Y-12816428D02*
X10083881Y-12825952D01*
X10074357Y-12835476D01*
X10064833Y-12825952D01*
X10074357Y-12816428D01*
X10074357Y-12835476D01*
X10207690Y-12635476D02*
X10226738Y-12635476D01*
X10245786Y-12645000D01*
X10255310Y-12654524D01*
X10264833Y-12673571D01*
X10274357Y-12711667D01*
X10274357Y-12759286D01*
X10264833Y-12797381D01*
X10255310Y-12816428D01*
X10245786Y-12825952D01*
X10226738Y-12835476D01*
X10207690Y-12835476D01*
X10188643Y-12825952D01*
X10179119Y-12816428D01*
X10169595Y-12797381D01*
X10160071Y-12759286D01*
X10160071Y-12711667D01*
X10169595Y-12673571D01*
X10179119Y-12654524D01*
X10188643Y-12645000D01*
X10207690Y-12635476D01*
X10464833Y-12835476D02*
X10350548Y-12835476D01*
X10407690Y-12835476D02*
X10407690Y-12635476D01*
X10388643Y-12664048D01*
X10369595Y-12683095D01*
X10350548Y-12692619D01*
X10645786Y-12635476D02*
X10550548Y-12635476D01*
X10541024Y-12730714D01*
X10550548Y-12721190D01*
X10569595Y-12711667D01*
X10617214Y-12711667D01*
X10636262Y-12721190D01*
X10645786Y-12730714D01*
X10655310Y-12749762D01*
X10655310Y-12797381D01*
X10645786Y-12816428D01*
X10636262Y-12825952D01*
X10617214Y-12835476D01*
X10569595Y-12835476D01*
X10550548Y-12825952D01*
X10541024Y-12816428D01*
X10721976Y-12635476D02*
X10855310Y-12635476D01*
X10769595Y-12835476D01*
X10921976Y-12635476D02*
X10921976Y-12673571D01*
X10998167Y-12635476D02*
X10998167Y-12673571D01*
X11293405Y-12911667D02*
X11283881Y-12902143D01*
X11264833Y-12873571D01*
X11255309Y-12854524D01*
X11245786Y-12825952D01*
X11236262Y-12778333D01*
X11236262Y-12740238D01*
X11245786Y-12692619D01*
X11255309Y-12664048D01*
X11264833Y-12645000D01*
X11283881Y-12616428D01*
X11293405Y-12606905D01*
X11474357Y-12835476D02*
X11360071Y-12835476D01*
X11417214Y-12835476D02*
X11417214Y-12635476D01*
X11398167Y-12664048D01*
X11379119Y-12683095D01*
X11360071Y-12692619D01*
X11712452Y-12835476D02*
X11712452Y-12635476D01*
X11798167Y-12835476D02*
X11798167Y-12730714D01*
X11788643Y-12711667D01*
X11769595Y-12702143D01*
X11741024Y-12702143D01*
X11721976Y-12711667D01*
X11712452Y-12721190D01*
X11921976Y-12835476D02*
X11902928Y-12825952D01*
X11893405Y-12816428D01*
X11883881Y-12797381D01*
X11883881Y-12740238D01*
X11893405Y-12721190D01*
X11902928Y-12711667D01*
X11921976Y-12702143D01*
X11950548Y-12702143D01*
X11969595Y-12711667D01*
X11979119Y-12721190D01*
X11988643Y-12740238D01*
X11988643Y-12797381D01*
X11979119Y-12816428D01*
X11969595Y-12825952D01*
X11950548Y-12835476D01*
X11921976Y-12835476D01*
X12102928Y-12835476D02*
X12083881Y-12825952D01*
X12074357Y-12806905D01*
X12074357Y-12635476D01*
X12255309Y-12825952D02*
X12236262Y-12835476D01*
X12198167Y-12835476D01*
X12179119Y-12825952D01*
X12169595Y-12806905D01*
X12169595Y-12730714D01*
X12179119Y-12711667D01*
X12198167Y-12702143D01*
X12236262Y-12702143D01*
X12255309Y-12711667D01*
X12264833Y-12730714D01*
X12264833Y-12749762D01*
X12169595Y-12768809D01*
X12331500Y-12911667D02*
X12341024Y-12902143D01*
X12360071Y-12873571D01*
X12369595Y-12854524D01*
X12379119Y-12825952D01*
X12388643Y-12778333D01*
X12388643Y-12740238D01*
X12379119Y-12692619D01*
X12369595Y-12664048D01*
X12360071Y-12645000D01*
X12341024Y-12616428D01*
X12331500Y-12606905D01*
D13*
X7696500Y-12984000D02*
X7696500Y-13034000D01*
X7671500Y-13009000D02*
X7721500Y-13009000D01*
D11*
X8017214Y-12899476D02*
X8036262Y-12899476D01*
X8055309Y-12909000D01*
X8064833Y-12918524D01*
X8074357Y-12937571D01*
X8083881Y-12975667D01*
X8083881Y-13023286D01*
X8074357Y-13061381D01*
X8064833Y-13080428D01*
X8055309Y-13089952D01*
X8036262Y-13099476D01*
X8017214Y-13099476D01*
X7998167Y-13089952D01*
X7988643Y-13080428D01*
X7979119Y-13061381D01*
X7969595Y-13023286D01*
X7969595Y-12975667D01*
X7979119Y-12937571D01*
X7988643Y-12918524D01*
X7998167Y-12909000D01*
X8017214Y-12899476D01*
X8169595Y-13080428D02*
X8179119Y-13089952D01*
X8169595Y-13099476D01*
X8160071Y-13089952D01*
X8169595Y-13080428D01*
X8169595Y-13099476D01*
X8360071Y-12899476D02*
X8264833Y-12899476D01*
X8255309Y-12994714D01*
X8264833Y-12985190D01*
X8283881Y-12975667D01*
X8331500Y-12975667D01*
X8350548Y-12985190D01*
X8360071Y-12994714D01*
X8369595Y-13013762D01*
X8369595Y-13061381D01*
X8360071Y-13080428D01*
X8350548Y-13089952D01*
X8331500Y-13099476D01*
X8283881Y-13099476D01*
X8264833Y-13089952D01*
X8255309Y-13080428D01*
X8493405Y-12899476D02*
X8512452Y-12899476D01*
X8531500Y-12909000D01*
X8541024Y-12918524D01*
X8550548Y-12937571D01*
X8560071Y-12975667D01*
X8560071Y-13023286D01*
X8550548Y-13061381D01*
X8541024Y-13080428D01*
X8531500Y-13089952D01*
X8512452Y-13099476D01*
X8493405Y-13099476D01*
X8474357Y-13089952D01*
X8464833Y-13080428D01*
X8455310Y-13061381D01*
X8445786Y-13023286D01*
X8445786Y-12975667D01*
X8455310Y-12937571D01*
X8464833Y-12918524D01*
X8474357Y-12909000D01*
X8493405Y-12899476D01*
X8683881Y-12899476D02*
X8702929Y-12899476D01*
X8721976Y-12909000D01*
X8731500Y-12918524D01*
X8741024Y-12937571D01*
X8750548Y-12975667D01*
X8750548Y-13023286D01*
X8741024Y-13061381D01*
X8731500Y-13080428D01*
X8721976Y-13089952D01*
X8702929Y-13099476D01*
X8683881Y-13099476D01*
X8664833Y-13089952D01*
X8655310Y-13080428D01*
X8645786Y-13061381D01*
X8636262Y-13023286D01*
X8636262Y-12975667D01*
X8645786Y-12937571D01*
X8655310Y-12918524D01*
X8664833Y-12909000D01*
X8683881Y-12899476D01*
X8836262Y-13099476D02*
X8836262Y-12966143D01*
X8836262Y-12985190D02*
X8845786Y-12975667D01*
X8864833Y-12966143D01*
X8893405Y-12966143D01*
X8912452Y-12975667D01*
X8921976Y-12994714D01*
X8921976Y-13099476D01*
X8921976Y-12994714D02*
X8931500Y-12975667D01*
X8950548Y-12966143D01*
X8979119Y-12966143D01*
X8998167Y-12975667D01*
X9007690Y-12994714D01*
X9007690Y-13099476D01*
X9102929Y-13099476D02*
X9102929Y-12966143D01*
X9102929Y-12985190D02*
X9112452Y-12975667D01*
X9131500Y-12966143D01*
X9160071Y-12966143D01*
X9179119Y-12975667D01*
X9188643Y-12994714D01*
X9188643Y-13099476D01*
X9188643Y-12994714D02*
X9198167Y-12975667D01*
X9217214Y-12966143D01*
X9245786Y-12966143D01*
X9264833Y-12975667D01*
X9274357Y-12994714D01*
X9274357Y-13099476D01*
X9664833Y-12889952D02*
X9493405Y-13147095D01*
X9921976Y-12899476D02*
X9941024Y-12899476D01*
X9960071Y-12909000D01*
X9969595Y-12918524D01*
X9979119Y-12937571D01*
X9988643Y-12975667D01*
X9988643Y-13023286D01*
X9979119Y-13061381D01*
X9969595Y-13080428D01*
X9960071Y-13089952D01*
X9941024Y-13099476D01*
X9921976Y-13099476D01*
X9902929Y-13089952D01*
X9893405Y-13080428D01*
X9883881Y-13061381D01*
X9874357Y-13023286D01*
X9874357Y-12975667D01*
X9883881Y-12937571D01*
X9893405Y-12918524D01*
X9902929Y-12909000D01*
X9921976Y-12899476D01*
X10074357Y-13080428D02*
X10083881Y-13089952D01*
X10074357Y-13099476D01*
X10064833Y-13089952D01*
X10074357Y-13080428D01*
X10074357Y-13099476D01*
X10207690Y-12899476D02*
X10226738Y-12899476D01*
X10245786Y-12909000D01*
X10255310Y-12918524D01*
X10264833Y-12937571D01*
X10274357Y-12975667D01*
X10274357Y-13023286D01*
X10264833Y-13061381D01*
X10255310Y-13080428D01*
X10245786Y-13089952D01*
X10226738Y-13099476D01*
X10207690Y-13099476D01*
X10188643Y-13089952D01*
X10179119Y-13080428D01*
X10169595Y-13061381D01*
X10160071Y-13023286D01*
X10160071Y-12975667D01*
X10169595Y-12937571D01*
X10179119Y-12918524D01*
X10188643Y-12909000D01*
X10207690Y-12899476D01*
X10464833Y-13099476D02*
X10350548Y-13099476D01*
X10407690Y-13099476D02*
X10407690Y-12899476D01*
X10388643Y-12928048D01*
X10369595Y-12947095D01*
X10350548Y-12956619D01*
X10560071Y-13099476D02*
X10598167Y-13099476D01*
X10617214Y-13089952D01*
X10626738Y-13080428D01*
X10645786Y-13051857D01*
X10655310Y-13013762D01*
X10655310Y-12937571D01*
X10645786Y-12918524D01*
X10636262Y-12909000D01*
X10617214Y-12899476D01*
X10579119Y-12899476D01*
X10560071Y-12909000D01*
X10550548Y-12918524D01*
X10541024Y-12937571D01*
X10541024Y-12985190D01*
X10550548Y-13004238D01*
X10560071Y-13013762D01*
X10579119Y-13023286D01*
X10617214Y-13023286D01*
X10636262Y-13013762D01*
X10645786Y-13004238D01*
X10655310Y-12985190D01*
X10721976Y-12899476D02*
X10855310Y-12899476D01*
X10769595Y-13099476D01*
X10921976Y-12899476D02*
X10921976Y-12937571D01*
X10998167Y-12899476D02*
X10998167Y-12937571D01*
X11293405Y-13175667D02*
X11283881Y-13166143D01*
X11264833Y-13137571D01*
X11255309Y-13118524D01*
X11245786Y-13089952D01*
X11236262Y-13042333D01*
X11236262Y-13004238D01*
X11245786Y-12956619D01*
X11255309Y-12928048D01*
X11264833Y-12909000D01*
X11283881Y-12880428D01*
X11293405Y-12870905D01*
X11474357Y-13099476D02*
X11360071Y-13099476D01*
X11417214Y-13099476D02*
X11417214Y-12899476D01*
X11398167Y-12928048D01*
X11379119Y-12947095D01*
X11360071Y-12956619D01*
X11541024Y-12899476D02*
X11664833Y-12899476D01*
X11598167Y-12975667D01*
X11626738Y-12975667D01*
X11645786Y-12985190D01*
X11655309Y-12994714D01*
X11664833Y-13013762D01*
X11664833Y-13061381D01*
X11655309Y-13080428D01*
X11645786Y-13089952D01*
X11626738Y-13099476D01*
X11569595Y-13099476D01*
X11550548Y-13089952D01*
X11541024Y-13080428D01*
X11731500Y-12899476D02*
X11855309Y-12899476D01*
X11788643Y-12975667D01*
X11817214Y-12975667D01*
X11836262Y-12985190D01*
X11845786Y-12994714D01*
X11855309Y-13013762D01*
X11855309Y-13061381D01*
X11845786Y-13080428D01*
X11836262Y-13089952D01*
X11817214Y-13099476D01*
X11760071Y-13099476D01*
X11741024Y-13089952D01*
X11731500Y-13080428D01*
X12093405Y-13099476D02*
X12093405Y-12899476D01*
X12179119Y-13099476D02*
X12179119Y-12994714D01*
X12169595Y-12975667D01*
X12150548Y-12966143D01*
X12121976Y-12966143D01*
X12102928Y-12975667D01*
X12093405Y-12985190D01*
X12302928Y-13099476D02*
X12283881Y-13089952D01*
X12274357Y-13080428D01*
X12264833Y-13061381D01*
X12264833Y-13004238D01*
X12274357Y-12985190D01*
X12283881Y-12975667D01*
X12302928Y-12966143D01*
X12331500Y-12966143D01*
X12350548Y-12975667D01*
X12360071Y-12985190D01*
X12369595Y-13004238D01*
X12369595Y-13061381D01*
X12360071Y-13080428D01*
X12350548Y-13089952D01*
X12331500Y-13099476D01*
X12302928Y-13099476D01*
X12483881Y-13099476D02*
X12464833Y-13089952D01*
X12455309Y-13070905D01*
X12455309Y-12899476D01*
X12636262Y-13089952D02*
X12617214Y-13099476D01*
X12579119Y-13099476D01*
X12560071Y-13089952D01*
X12550548Y-13070905D01*
X12550548Y-12994714D01*
X12560071Y-12975667D01*
X12579119Y-12966143D01*
X12617214Y-12966143D01*
X12636262Y-12975667D01*
X12645786Y-12994714D01*
X12645786Y-13013762D01*
X12550548Y-13032809D01*
X12721976Y-13089952D02*
X12741024Y-13099476D01*
X12779119Y-13099476D01*
X12798167Y-13089952D01*
X12807690Y-13070905D01*
X12807690Y-13061381D01*
X12798167Y-13042333D01*
X12779119Y-13032809D01*
X12750548Y-13032809D01*
X12731500Y-13023286D01*
X12721976Y-13004238D01*
X12721976Y-12994714D01*
X12731500Y-12975667D01*
X12750548Y-12966143D01*
X12779119Y-12966143D01*
X12798167Y-12975667D01*
X12874357Y-13175667D02*
X12883881Y-13166143D01*
X12902928Y-13137571D01*
X12912452Y-13118524D01*
X12921976Y-13089952D01*
X12931500Y-13042333D01*
X12931500Y-13004238D01*
X12921976Y-12956619D01*
X12912452Y-12928048D01*
X12902928Y-12909000D01*
X12883881Y-12880428D01*
X12874357Y-12870905D01*
D14*
X7712713Y-13294213D02*
X7712713Y-13251787D01*
X7670287Y-13251787D01*
X7670287Y-13294213D01*
X7712713Y-13294213D01*
D11*
X8017214Y-13163476D02*
X8036262Y-13163476D01*
X8055309Y-13173000D01*
X8064833Y-13182524D01*
X8074357Y-13201571D01*
X8083881Y-13239667D01*
X8083881Y-13287286D01*
X8074357Y-13325381D01*
X8064833Y-13344428D01*
X8055309Y-13353952D01*
X8036262Y-13363476D01*
X8017214Y-13363476D01*
X7998167Y-13353952D01*
X7988643Y-13344428D01*
X7979119Y-13325381D01*
X7969595Y-13287286D01*
X7969595Y-13239667D01*
X7979119Y-13201571D01*
X7988643Y-13182524D01*
X7998167Y-13173000D01*
X8017214Y-13163476D01*
X8169595Y-13344428D02*
X8179119Y-13353952D01*
X8169595Y-13363476D01*
X8160071Y-13353952D01*
X8169595Y-13344428D01*
X8169595Y-13363476D01*
X8350548Y-13163476D02*
X8312452Y-13163476D01*
X8293405Y-13173000D01*
X8283881Y-13182524D01*
X8264833Y-13211095D01*
X8255309Y-13249190D01*
X8255309Y-13325381D01*
X8264833Y-13344428D01*
X8274357Y-13353952D01*
X8293405Y-13363476D01*
X8331500Y-13363476D01*
X8350548Y-13353952D01*
X8360071Y-13344428D01*
X8369595Y-13325381D01*
X8369595Y-13277762D01*
X8360071Y-13258714D01*
X8350548Y-13249190D01*
X8331500Y-13239667D01*
X8293405Y-13239667D01*
X8274357Y-13249190D01*
X8264833Y-13258714D01*
X8255309Y-13277762D01*
X8493405Y-13163476D02*
X8512452Y-13163476D01*
X8531500Y-13173000D01*
X8541024Y-13182524D01*
X8550548Y-13201571D01*
X8560071Y-13239667D01*
X8560071Y-13287286D01*
X8550548Y-13325381D01*
X8541024Y-13344428D01*
X8531500Y-13353952D01*
X8512452Y-13363476D01*
X8493405Y-13363476D01*
X8474357Y-13353952D01*
X8464833Y-13344428D01*
X8455310Y-13325381D01*
X8445786Y-13287286D01*
X8445786Y-13239667D01*
X8455310Y-13201571D01*
X8464833Y-13182524D01*
X8474357Y-13173000D01*
X8493405Y-13163476D01*
X8683881Y-13163476D02*
X8702929Y-13163476D01*
X8721976Y-13173000D01*
X8731500Y-13182524D01*
X8741024Y-13201571D01*
X8750548Y-13239667D01*
X8750548Y-13287286D01*
X8741024Y-13325381D01*
X8731500Y-13344428D01*
X8721976Y-13353952D01*
X8702929Y-13363476D01*
X8683881Y-13363476D01*
X8664833Y-13353952D01*
X8655310Y-13344428D01*
X8645786Y-13325381D01*
X8636262Y-13287286D01*
X8636262Y-13239667D01*
X8645786Y-13201571D01*
X8655310Y-13182524D01*
X8664833Y-13173000D01*
X8683881Y-13163476D01*
X8836262Y-13363476D02*
X8836262Y-13230143D01*
X8836262Y-13249190D02*
X8845786Y-13239667D01*
X8864833Y-13230143D01*
X8893405Y-13230143D01*
X8912452Y-13239667D01*
X8921976Y-13258714D01*
X8921976Y-13363476D01*
X8921976Y-13258714D02*
X8931500Y-13239667D01*
X8950548Y-13230143D01*
X8979119Y-13230143D01*
X8998167Y-13239667D01*
X9007690Y-13258714D01*
X9007690Y-13363476D01*
X9102929Y-13363476D02*
X9102929Y-13230143D01*
X9102929Y-13249190D02*
X9112452Y-13239667D01*
X9131500Y-13230143D01*
X9160071Y-13230143D01*
X9179119Y-13239667D01*
X9188643Y-13258714D01*
X9188643Y-13363476D01*
X9188643Y-13258714D02*
X9198167Y-13239667D01*
X9217214Y-13230143D01*
X9245786Y-13230143D01*
X9264833Y-13239667D01*
X9274357Y-13258714D01*
X9274357Y-13363476D01*
X9664833Y-13153952D02*
X9493405Y-13411095D01*
X9921976Y-13163476D02*
X9941024Y-13163476D01*
X9960071Y-13173000D01*
X9969595Y-13182524D01*
X9979119Y-13201571D01*
X9988643Y-13239667D01*
X9988643Y-13287286D01*
X9979119Y-13325381D01*
X9969595Y-13344428D01*
X9960071Y-13353952D01*
X9941024Y-13363476D01*
X9921976Y-13363476D01*
X9902929Y-13353952D01*
X9893405Y-13344428D01*
X9883881Y-13325381D01*
X9874357Y-13287286D01*
X9874357Y-13239667D01*
X9883881Y-13201571D01*
X9893405Y-13182524D01*
X9902929Y-13173000D01*
X9921976Y-13163476D01*
X10074357Y-13344428D02*
X10083881Y-13353952D01*
X10074357Y-13363476D01*
X10064833Y-13353952D01*
X10074357Y-13344428D01*
X10074357Y-13363476D01*
X10207690Y-13163476D02*
X10226738Y-13163476D01*
X10245786Y-13173000D01*
X10255310Y-13182524D01*
X10264833Y-13201571D01*
X10274357Y-13239667D01*
X10274357Y-13287286D01*
X10264833Y-13325381D01*
X10255310Y-13344428D01*
X10245786Y-13353952D01*
X10226738Y-13363476D01*
X10207690Y-13363476D01*
X10188643Y-13353952D01*
X10179119Y-13344428D01*
X10169595Y-13325381D01*
X10160071Y-13287286D01*
X10160071Y-13239667D01*
X10169595Y-13201571D01*
X10179119Y-13182524D01*
X10188643Y-13173000D01*
X10207690Y-13163476D01*
X10350548Y-13182524D02*
X10360071Y-13173000D01*
X10379119Y-13163476D01*
X10426738Y-13163476D01*
X10445786Y-13173000D01*
X10455310Y-13182524D01*
X10464833Y-13201571D01*
X10464833Y-13220619D01*
X10455310Y-13249190D01*
X10341024Y-13363476D01*
X10464833Y-13363476D01*
X10531500Y-13163476D02*
X10655310Y-13163476D01*
X10588643Y-13239667D01*
X10617214Y-13239667D01*
X10636262Y-13249190D01*
X10645786Y-13258714D01*
X10655310Y-13277762D01*
X10655310Y-13325381D01*
X10645786Y-13344428D01*
X10636262Y-13353952D01*
X10617214Y-13363476D01*
X10560071Y-13363476D01*
X10541024Y-13353952D01*
X10531500Y-13344428D01*
X10826738Y-13163476D02*
X10788643Y-13163476D01*
X10769595Y-13173000D01*
X10760071Y-13182524D01*
X10741024Y-13211095D01*
X10731500Y-13249190D01*
X10731500Y-13325381D01*
X10741024Y-13344428D01*
X10750548Y-13353952D01*
X10769595Y-13363476D01*
X10807690Y-13363476D01*
X10826738Y-13353952D01*
X10836262Y-13344428D01*
X10845786Y-13325381D01*
X10845786Y-13277762D01*
X10836262Y-13258714D01*
X10826738Y-13249190D01*
X10807690Y-13239667D01*
X10769595Y-13239667D01*
X10750548Y-13249190D01*
X10741024Y-13258714D01*
X10731500Y-13277762D01*
X10921976Y-13163476D02*
X10921976Y-13201571D01*
X10998167Y-13163476D02*
X10998167Y-13201571D01*
X11293405Y-13439667D02*
X11283881Y-13430143D01*
X11264833Y-13401571D01*
X11255309Y-13382524D01*
X11245786Y-13353952D01*
X11236262Y-13306333D01*
X11236262Y-13268238D01*
X11245786Y-13220619D01*
X11255309Y-13192048D01*
X11264833Y-13173000D01*
X11283881Y-13144428D01*
X11293405Y-13134905D01*
X11455309Y-13230143D02*
X11455309Y-13363476D01*
X11407690Y-13153952D02*
X11360071Y-13296809D01*
X11483881Y-13296809D01*
X11712452Y-13363476D02*
X11712452Y-13163476D01*
X11798167Y-13363476D02*
X11798167Y-13258714D01*
X11788643Y-13239667D01*
X11769595Y-13230143D01*
X11741024Y-13230143D01*
X11721976Y-13239667D01*
X11712452Y-13249190D01*
X11921976Y-13363476D02*
X11902928Y-13353952D01*
X11893405Y-13344428D01*
X11883881Y-13325381D01*
X11883881Y-13268238D01*
X11893405Y-13249190D01*
X11902928Y-13239667D01*
X11921976Y-13230143D01*
X11950548Y-13230143D01*
X11969595Y-13239667D01*
X11979119Y-13249190D01*
X11988643Y-13268238D01*
X11988643Y-13325381D01*
X11979119Y-13344428D01*
X11969595Y-13353952D01*
X11950548Y-13363476D01*
X11921976Y-13363476D01*
X12102928Y-13363476D02*
X12083881Y-13353952D01*
X12074357Y-13334905D01*
X12074357Y-13163476D01*
X12255309Y-13353952D02*
X12236262Y-13363476D01*
X12198167Y-13363476D01*
X12179119Y-13353952D01*
X12169595Y-13334905D01*
X12169595Y-13258714D01*
X12179119Y-13239667D01*
X12198167Y-13230143D01*
X12236262Y-13230143D01*
X12255309Y-13239667D01*
X12264833Y-13258714D01*
X12264833Y-13277762D01*
X12169595Y-13296809D01*
X12341024Y-13353952D02*
X12360071Y-13363476D01*
X12398167Y-13363476D01*
X12417214Y-13353952D01*
X12426738Y-13334905D01*
X12426738Y-13325381D01*
X12417214Y-13306333D01*
X12398167Y-13296809D01*
X12369595Y-13296809D01*
X12350548Y-13287286D01*
X12341024Y-13268238D01*
X12341024Y-13258714D01*
X12350548Y-13239667D01*
X12369595Y-13230143D01*
X12398167Y-13230143D01*
X12417214Y-13239667D01*
X12493405Y-13439667D02*
X12502928Y-13430143D01*
X12521976Y-13401571D01*
X12531500Y-13382524D01*
X12541024Y-13353952D01*
X12550548Y-13306333D01*
X12550548Y-13268238D01*
X12541024Y-13220619D01*
X12531500Y-13192048D01*
X12521976Y-13173000D01*
X12502928Y-13144428D01*
X12493405Y-13134905D01*
D15*
X7689000Y-13569500D02*
X7721500Y-13537000D01*
X7689000Y-13504500D01*
X7656500Y-13537000D01*
X7689000Y-13569500D01*
D11*
X8017214Y-13427476D02*
X8036262Y-13427476D01*
X8055309Y-13437000D01*
X8064833Y-13446524D01*
X8074357Y-13465571D01*
X8083881Y-13503667D01*
X8083881Y-13551286D01*
X8074357Y-13589381D01*
X8064833Y-13608428D01*
X8055309Y-13617952D01*
X8036262Y-13627476D01*
X8017214Y-13627476D01*
X7998167Y-13617952D01*
X7988643Y-13608428D01*
X7979119Y-13589381D01*
X7969595Y-13551286D01*
X7969595Y-13503667D01*
X7979119Y-13465571D01*
X7988643Y-13446524D01*
X7998167Y-13437000D01*
X8017214Y-13427476D01*
X8169595Y-13608428D02*
X8179119Y-13617952D01*
X8169595Y-13627476D01*
X8160071Y-13617952D01*
X8169595Y-13608428D01*
X8169595Y-13627476D01*
X8350548Y-13427476D02*
X8312452Y-13427476D01*
X8293405Y-13437000D01*
X8283881Y-13446524D01*
X8264833Y-13475095D01*
X8255309Y-13513190D01*
X8255309Y-13589381D01*
X8264833Y-13608428D01*
X8274357Y-13617952D01*
X8293405Y-13627476D01*
X8331500Y-13627476D01*
X8350548Y-13617952D01*
X8360071Y-13608428D01*
X8369595Y-13589381D01*
X8369595Y-13541762D01*
X8360071Y-13522714D01*
X8350548Y-13513190D01*
X8331500Y-13503667D01*
X8293405Y-13503667D01*
X8274357Y-13513190D01*
X8264833Y-13522714D01*
X8255309Y-13541762D01*
X8550548Y-13427476D02*
X8455310Y-13427476D01*
X8445786Y-13522714D01*
X8455310Y-13513190D01*
X8474357Y-13503667D01*
X8521976Y-13503667D01*
X8541024Y-13513190D01*
X8550548Y-13522714D01*
X8560071Y-13541762D01*
X8560071Y-13589381D01*
X8550548Y-13608428D01*
X8541024Y-13617952D01*
X8521976Y-13627476D01*
X8474357Y-13627476D01*
X8455310Y-13617952D01*
X8445786Y-13608428D01*
X8683881Y-13427476D02*
X8702929Y-13427476D01*
X8721976Y-13437000D01*
X8731500Y-13446524D01*
X8741024Y-13465571D01*
X8750548Y-13503667D01*
X8750548Y-13551286D01*
X8741024Y-13589381D01*
X8731500Y-13608428D01*
X8721976Y-13617952D01*
X8702929Y-13627476D01*
X8683881Y-13627476D01*
X8664833Y-13617952D01*
X8655310Y-13608428D01*
X8645786Y-13589381D01*
X8636262Y-13551286D01*
X8636262Y-13503667D01*
X8645786Y-13465571D01*
X8655310Y-13446524D01*
X8664833Y-13437000D01*
X8683881Y-13427476D01*
X8836262Y-13627476D02*
X8836262Y-13494143D01*
X8836262Y-13513190D02*
X8845786Y-13503667D01*
X8864833Y-13494143D01*
X8893405Y-13494143D01*
X8912452Y-13503667D01*
X8921976Y-13522714D01*
X8921976Y-13627476D01*
X8921976Y-13522714D02*
X8931500Y-13503667D01*
X8950548Y-13494143D01*
X8979119Y-13494143D01*
X8998167Y-13503667D01*
X9007690Y-13522714D01*
X9007690Y-13627476D01*
X9102929Y-13627476D02*
X9102929Y-13494143D01*
X9102929Y-13513190D02*
X9112452Y-13503667D01*
X9131500Y-13494143D01*
X9160071Y-13494143D01*
X9179119Y-13503667D01*
X9188643Y-13522714D01*
X9188643Y-13627476D01*
X9188643Y-13522714D02*
X9198167Y-13503667D01*
X9217214Y-13494143D01*
X9245786Y-13494143D01*
X9264833Y-13503667D01*
X9274357Y-13522714D01*
X9274357Y-13627476D01*
X9664833Y-13417952D02*
X9493405Y-13675095D01*
X9921976Y-13427476D02*
X9941024Y-13427476D01*
X9960071Y-13437000D01*
X9969595Y-13446524D01*
X9979119Y-13465571D01*
X9988643Y-13503667D01*
X9988643Y-13551286D01*
X9979119Y-13589381D01*
X9969595Y-13608428D01*
X9960071Y-13617952D01*
X9941024Y-13627476D01*
X9921976Y-13627476D01*
X9902929Y-13617952D01*
X9893405Y-13608428D01*
X9883881Y-13589381D01*
X9874357Y-13551286D01*
X9874357Y-13503667D01*
X9883881Y-13465571D01*
X9893405Y-13446524D01*
X9902929Y-13437000D01*
X9921976Y-13427476D01*
X10074357Y-13608428D02*
X10083881Y-13617952D01*
X10074357Y-13627476D01*
X10064833Y-13617952D01*
X10074357Y-13608428D01*
X10074357Y-13627476D01*
X10207690Y-13427476D02*
X10226738Y-13427476D01*
X10245786Y-13437000D01*
X10255310Y-13446524D01*
X10264833Y-13465571D01*
X10274357Y-13503667D01*
X10274357Y-13551286D01*
X10264833Y-13589381D01*
X10255310Y-13608428D01*
X10245786Y-13617952D01*
X10226738Y-13627476D01*
X10207690Y-13627476D01*
X10188643Y-13617952D01*
X10179119Y-13608428D01*
X10169595Y-13589381D01*
X10160071Y-13551286D01*
X10160071Y-13503667D01*
X10169595Y-13465571D01*
X10179119Y-13446524D01*
X10188643Y-13437000D01*
X10207690Y-13427476D01*
X10350548Y-13446524D02*
X10360071Y-13437000D01*
X10379119Y-13427476D01*
X10426738Y-13427476D01*
X10445786Y-13437000D01*
X10455310Y-13446524D01*
X10464833Y-13465571D01*
X10464833Y-13484619D01*
X10455310Y-13513190D01*
X10341024Y-13627476D01*
X10464833Y-13627476D01*
X10645786Y-13427476D02*
X10550548Y-13427476D01*
X10541024Y-13522714D01*
X10550548Y-13513190D01*
X10569595Y-13503667D01*
X10617214Y-13503667D01*
X10636262Y-13513190D01*
X10645786Y-13522714D01*
X10655310Y-13541762D01*
X10655310Y-13589381D01*
X10645786Y-13608428D01*
X10636262Y-13617952D01*
X10617214Y-13627476D01*
X10569595Y-13627476D01*
X10550548Y-13617952D01*
X10541024Y-13608428D01*
X10826738Y-13427476D02*
X10788643Y-13427476D01*
X10769595Y-13437000D01*
X10760071Y-13446524D01*
X10741024Y-13475095D01*
X10731500Y-13513190D01*
X10731500Y-13589381D01*
X10741024Y-13608428D01*
X10750548Y-13617952D01*
X10769595Y-13627476D01*
X10807690Y-13627476D01*
X10826738Y-13617952D01*
X10836262Y-13608428D01*
X10845786Y-13589381D01*
X10845786Y-13541762D01*
X10836262Y-13522714D01*
X10826738Y-13513190D01*
X10807690Y-13503667D01*
X10769595Y-13503667D01*
X10750548Y-13513190D01*
X10741024Y-13522714D01*
X10731500Y-13541762D01*
X10921976Y-13427476D02*
X10921976Y-13465571D01*
X10998167Y-13427476D02*
X10998167Y-13465571D01*
X11293405Y-13703667D02*
X11283881Y-13694143D01*
X11264833Y-13665571D01*
X11255309Y-13646524D01*
X11245786Y-13617952D01*
X11236262Y-13570333D01*
X11236262Y-13532238D01*
X11245786Y-13484619D01*
X11255309Y-13456048D01*
X11264833Y-13437000D01*
X11283881Y-13408428D01*
X11293405Y-13398905D01*
X11360071Y-13446524D02*
X11369595Y-13437000D01*
X11388643Y-13427476D01*
X11436262Y-13427476D01*
X11455309Y-13437000D01*
X11464833Y-13446524D01*
X11474357Y-13465571D01*
X11474357Y-13484619D01*
X11464833Y-13513190D01*
X11350548Y-13627476D01*
X11474357Y-13627476D01*
X11569595Y-13627476D02*
X11607690Y-13627476D01*
X11626738Y-13617952D01*
X11636262Y-13608428D01*
X11655309Y-13579857D01*
X11664833Y-13541762D01*
X11664833Y-13465571D01*
X11655309Y-13446524D01*
X11645786Y-13437000D01*
X11626738Y-13427476D01*
X11588643Y-13427476D01*
X11569595Y-13437000D01*
X11560071Y-13446524D01*
X11550548Y-13465571D01*
X11550548Y-13513190D01*
X11560071Y-13532238D01*
X11569595Y-13541762D01*
X11588643Y-13551286D01*
X11626738Y-13551286D01*
X11645786Y-13541762D01*
X11655309Y-13532238D01*
X11664833Y-13513190D01*
X11902928Y-13627476D02*
X11902928Y-13427476D01*
X11988643Y-13627476D02*
X11988643Y-13522714D01*
X11979119Y-13503667D01*
X11960071Y-13494143D01*
X11931500Y-13494143D01*
X11912452Y-13503667D01*
X11902928Y-13513190D01*
X12112452Y-13627476D02*
X12093405Y-13617952D01*
X12083881Y-13608428D01*
X12074357Y-13589381D01*
X12074357Y-13532238D01*
X12083881Y-13513190D01*
X12093405Y-13503667D01*
X12112452Y-13494143D01*
X12141024Y-13494143D01*
X12160071Y-13503667D01*
X12169595Y-13513190D01*
X12179119Y-13532238D01*
X12179119Y-13589381D01*
X12169595Y-13608428D01*
X12160071Y-13617952D01*
X12141024Y-13627476D01*
X12112452Y-13627476D01*
X12293405Y-13627476D02*
X12274357Y-13617952D01*
X12264833Y-13598905D01*
X12264833Y-13427476D01*
X12445786Y-13617952D02*
X12426738Y-13627476D01*
X12388643Y-13627476D01*
X12369595Y-13617952D01*
X12360071Y-13598905D01*
X12360071Y-13522714D01*
X12369595Y-13503667D01*
X12388643Y-13494143D01*
X12426738Y-13494143D01*
X12445786Y-13503667D01*
X12455309Y-13522714D01*
X12455309Y-13541762D01*
X12360071Y-13560809D01*
X12531500Y-13617952D02*
X12550548Y-13627476D01*
X12588643Y-13627476D01*
X12607690Y-13617952D01*
X12617214Y-13598905D01*
X12617214Y-13589381D01*
X12607690Y-13570333D01*
X12588643Y-13560809D01*
X12560071Y-13560809D01*
X12541024Y-13551286D01*
X12531500Y-13532238D01*
X12531500Y-13522714D01*
X12541024Y-13503667D01*
X12560071Y-13494143D01*
X12588643Y-13494143D01*
X12607690Y-13503667D01*
X12683881Y-13703667D02*
X12693405Y-13694143D01*
X12712452Y-13665571D01*
X12721976Y-13646524D01*
X12731500Y-13617952D01*
X12741024Y-13570333D01*
X12741024Y-13532238D01*
X12731500Y-13484619D01*
X12721976Y-13456048D01*
X12712452Y-13437000D01*
X12693405Y-13408428D01*
X12683881Y-13398905D01*
D16*
X7651500Y-13766000D02*
X7721500Y-13836000D01*
X7721500Y-13766000D02*
X7651500Y-13836000D01*
X7721500Y-13801000D02*
G75*
G03*
X7721500Y-13801000I-35000J0D01*
G01*
D11*
X8017214Y-13691476D02*
X8036262Y-13691476D01*
X8055309Y-13701000D01*
X8064833Y-13710524D01*
X8074357Y-13729571D01*
X8083881Y-13767667D01*
X8083881Y-13815286D01*
X8074357Y-13853381D01*
X8064833Y-13872428D01*
X8055309Y-13881952D01*
X8036262Y-13891476D01*
X8017214Y-13891476D01*
X7998167Y-13881952D01*
X7988643Y-13872428D01*
X7979119Y-13853381D01*
X7969595Y-13815286D01*
X7969595Y-13767667D01*
X7979119Y-13729571D01*
X7988643Y-13710524D01*
X7998167Y-13701000D01*
X8017214Y-13691476D01*
X8169595Y-13872428D02*
X8179119Y-13881952D01*
X8169595Y-13891476D01*
X8160071Y-13881952D01*
X8169595Y-13872428D01*
X8169595Y-13891476D01*
X8245786Y-13691476D02*
X8379119Y-13691476D01*
X8293405Y-13891476D01*
X8493405Y-13691476D02*
X8512452Y-13691476D01*
X8531500Y-13701000D01*
X8541024Y-13710524D01*
X8550548Y-13729571D01*
X8560071Y-13767667D01*
X8560071Y-13815286D01*
X8550548Y-13853381D01*
X8541024Y-13872428D01*
X8531500Y-13881952D01*
X8512452Y-13891476D01*
X8493405Y-13891476D01*
X8474357Y-13881952D01*
X8464833Y-13872428D01*
X8455310Y-13853381D01*
X8445786Y-13815286D01*
X8445786Y-13767667D01*
X8455310Y-13729571D01*
X8464833Y-13710524D01*
X8474357Y-13701000D01*
X8493405Y-13691476D01*
X8683881Y-13691476D02*
X8702929Y-13691476D01*
X8721976Y-13701000D01*
X8731500Y-13710524D01*
X8741024Y-13729571D01*
X8750548Y-13767667D01*
X8750548Y-13815286D01*
X8741024Y-13853381D01*
X8731500Y-13872428D01*
X8721976Y-13881952D01*
X8702929Y-13891476D01*
X8683881Y-13891476D01*
X8664833Y-13881952D01*
X8655310Y-13872428D01*
X8645786Y-13853381D01*
X8636262Y-13815286D01*
X8636262Y-13767667D01*
X8645786Y-13729571D01*
X8655310Y-13710524D01*
X8664833Y-13701000D01*
X8683881Y-13691476D01*
X8836262Y-13891476D02*
X8836262Y-13758143D01*
X8836262Y-13777190D02*
X8845786Y-13767667D01*
X8864833Y-13758143D01*
X8893405Y-13758143D01*
X8912452Y-13767667D01*
X8921976Y-13786714D01*
X8921976Y-13891476D01*
X8921976Y-13786714D02*
X8931500Y-13767667D01*
X8950548Y-13758143D01*
X8979119Y-13758143D01*
X8998167Y-13767667D01*
X9007690Y-13786714D01*
X9007690Y-13891476D01*
X9102929Y-13891476D02*
X9102929Y-13758143D01*
X9102929Y-13777190D02*
X9112452Y-13767667D01*
X9131500Y-13758143D01*
X9160071Y-13758143D01*
X9179119Y-13767667D01*
X9188643Y-13786714D01*
X9188643Y-13891476D01*
X9188643Y-13786714D02*
X9198167Y-13767667D01*
X9217214Y-13758143D01*
X9245786Y-13758143D01*
X9264833Y-13767667D01*
X9274357Y-13786714D01*
X9274357Y-13891476D01*
X9664833Y-13681952D02*
X9493405Y-13939095D01*
X9921976Y-13691476D02*
X9941024Y-13691476D01*
X9960071Y-13701000D01*
X9969595Y-13710524D01*
X9979119Y-13729571D01*
X9988643Y-13767667D01*
X9988643Y-13815286D01*
X9979119Y-13853381D01*
X9969595Y-13872428D01*
X9960071Y-13881952D01*
X9941024Y-13891476D01*
X9921976Y-13891476D01*
X9902929Y-13881952D01*
X9893405Y-13872428D01*
X9883881Y-13853381D01*
X9874357Y-13815286D01*
X9874357Y-13767667D01*
X9883881Y-13729571D01*
X9893405Y-13710524D01*
X9902929Y-13701000D01*
X9921976Y-13691476D01*
X10074357Y-13872428D02*
X10083881Y-13881952D01*
X10074357Y-13891476D01*
X10064833Y-13881952D01*
X10074357Y-13872428D01*
X10074357Y-13891476D01*
X10207690Y-13691476D02*
X10226738Y-13691476D01*
X10245786Y-13701000D01*
X10255310Y-13710524D01*
X10264833Y-13729571D01*
X10274357Y-13767667D01*
X10274357Y-13815286D01*
X10264833Y-13853381D01*
X10255310Y-13872428D01*
X10245786Y-13881952D01*
X10226738Y-13891476D01*
X10207690Y-13891476D01*
X10188643Y-13881952D01*
X10179119Y-13872428D01*
X10169595Y-13853381D01*
X10160071Y-13815286D01*
X10160071Y-13767667D01*
X10169595Y-13729571D01*
X10179119Y-13710524D01*
X10188643Y-13701000D01*
X10207690Y-13691476D01*
X10350548Y-13710524D02*
X10360071Y-13701000D01*
X10379119Y-13691476D01*
X10426738Y-13691476D01*
X10445786Y-13701000D01*
X10455310Y-13710524D01*
X10464833Y-13729571D01*
X10464833Y-13748619D01*
X10455310Y-13777190D01*
X10341024Y-13891476D01*
X10464833Y-13891476D01*
X10531500Y-13691476D02*
X10664833Y-13691476D01*
X10579119Y-13891476D01*
X10826738Y-13691476D02*
X10788643Y-13691476D01*
X10769595Y-13701000D01*
X10760071Y-13710524D01*
X10741024Y-13739095D01*
X10731500Y-13777190D01*
X10731500Y-13853381D01*
X10741024Y-13872428D01*
X10750548Y-13881952D01*
X10769595Y-13891476D01*
X10807690Y-13891476D01*
X10826738Y-13881952D01*
X10836262Y-13872428D01*
X10845786Y-13853381D01*
X10845786Y-13805762D01*
X10836262Y-13786714D01*
X10826738Y-13777190D01*
X10807690Y-13767667D01*
X10769595Y-13767667D01*
X10750548Y-13777190D01*
X10741024Y-13786714D01*
X10731500Y-13805762D01*
X10921976Y-13691476D02*
X10921976Y-13729571D01*
X10998167Y-13691476D02*
X10998167Y-13729571D01*
X11293405Y-13967667D02*
X11283881Y-13958143D01*
X11264833Y-13929571D01*
X11255309Y-13910524D01*
X11245786Y-13881952D01*
X11236262Y-13834333D01*
X11236262Y-13796238D01*
X11245786Y-13748619D01*
X11255309Y-13720048D01*
X11264833Y-13701000D01*
X11283881Y-13672428D01*
X11293405Y-13662905D01*
X11474357Y-13891476D02*
X11360071Y-13891476D01*
X11417214Y-13891476D02*
X11417214Y-13691476D01*
X11398167Y-13720048D01*
X11379119Y-13739095D01*
X11360071Y-13748619D01*
X11541024Y-13691476D02*
X11674357Y-13691476D01*
X11588643Y-13891476D01*
X11902928Y-13891476D02*
X11902928Y-13691476D01*
X11988643Y-13891476D02*
X11988643Y-13786714D01*
X11979119Y-13767667D01*
X11960071Y-13758143D01*
X11931500Y-13758143D01*
X11912452Y-13767667D01*
X11902928Y-13777190D01*
X12112452Y-13891476D02*
X12093405Y-13881952D01*
X12083881Y-13872428D01*
X12074357Y-13853381D01*
X12074357Y-13796238D01*
X12083881Y-13777190D01*
X12093405Y-13767667D01*
X12112452Y-13758143D01*
X12141024Y-13758143D01*
X12160071Y-13767667D01*
X12169595Y-13777190D01*
X12179119Y-13796238D01*
X12179119Y-13853381D01*
X12169595Y-13872428D01*
X12160071Y-13881952D01*
X12141024Y-13891476D01*
X12112452Y-13891476D01*
X12293405Y-13891476D02*
X12274357Y-13881952D01*
X12264833Y-13862905D01*
X12264833Y-13691476D01*
X12445786Y-13881952D02*
X12426738Y-13891476D01*
X12388643Y-13891476D01*
X12369595Y-13881952D01*
X12360071Y-13862905D01*
X12360071Y-13786714D01*
X12369595Y-13767667D01*
X12388643Y-13758143D01*
X12426738Y-13758143D01*
X12445786Y-13767667D01*
X12455309Y-13786714D01*
X12455309Y-13805762D01*
X12360071Y-13824809D01*
X12531500Y-13881952D02*
X12550548Y-13891476D01*
X12588643Y-13891476D01*
X12607690Y-13881952D01*
X12617214Y-13862905D01*
X12617214Y-13853381D01*
X12607690Y-13834333D01*
X12588643Y-13824809D01*
X12560071Y-13824809D01*
X12541024Y-13815286D01*
X12531500Y-13796238D01*
X12531500Y-13786714D01*
X12541024Y-13767667D01*
X12560071Y-13758143D01*
X12588643Y-13758143D01*
X12607690Y-13767667D01*
X12683881Y-13967667D02*
X12693405Y-13958143D01*
X12712452Y-13929571D01*
X12721976Y-13910524D01*
X12731500Y-13881952D01*
X12741024Y-13834333D01*
X12741024Y-13796238D01*
X12731500Y-13748619D01*
X12721976Y-13720048D01*
X12712452Y-13701000D01*
X12693405Y-13672428D01*
X12683881Y-13662905D01*
D17*
X7621500Y-14015000D02*
X7721500Y-14115000D01*
X7721500Y-14015000D02*
X7621500Y-14115000D01*
X7671500Y-14015000D02*
X7671500Y-14115000D01*
X7621500Y-14065000D02*
X7721500Y-14065000D01*
D11*
X8083881Y-14155476D02*
X7969595Y-14155476D01*
X8026738Y-14155476D02*
X8026738Y-13955476D01*
X8007690Y-13984048D01*
X7988643Y-14003095D01*
X7969595Y-14012619D01*
X8169595Y-14136428D02*
X8179119Y-14145952D01*
X8169595Y-14155476D01*
X8160071Y-14145952D01*
X8169595Y-14136428D01*
X8169595Y-14155476D01*
X8302928Y-13955476D02*
X8321976Y-13955476D01*
X8341024Y-13965000D01*
X8350548Y-13974524D01*
X8360071Y-13993571D01*
X8369595Y-14031667D01*
X8369595Y-14079286D01*
X8360071Y-14117381D01*
X8350548Y-14136428D01*
X8341024Y-14145952D01*
X8321976Y-14155476D01*
X8302928Y-14155476D01*
X8283881Y-14145952D01*
X8274357Y-14136428D01*
X8264833Y-14117381D01*
X8255309Y-14079286D01*
X8255309Y-14031667D01*
X8264833Y-13993571D01*
X8274357Y-13974524D01*
X8283881Y-13965000D01*
X8302928Y-13955476D01*
X8493405Y-13955476D02*
X8512452Y-13955476D01*
X8531500Y-13965000D01*
X8541024Y-13974524D01*
X8550548Y-13993571D01*
X8560071Y-14031667D01*
X8560071Y-14079286D01*
X8550548Y-14117381D01*
X8541024Y-14136428D01*
X8531500Y-14145952D01*
X8512452Y-14155476D01*
X8493405Y-14155476D01*
X8474357Y-14145952D01*
X8464833Y-14136428D01*
X8455310Y-14117381D01*
X8445786Y-14079286D01*
X8445786Y-14031667D01*
X8455310Y-13993571D01*
X8464833Y-13974524D01*
X8474357Y-13965000D01*
X8493405Y-13955476D01*
X8683881Y-13955476D02*
X8702929Y-13955476D01*
X8721976Y-13965000D01*
X8731500Y-13974524D01*
X8741024Y-13993571D01*
X8750548Y-14031667D01*
X8750548Y-14079286D01*
X8741024Y-14117381D01*
X8731500Y-14136428D01*
X8721976Y-14145952D01*
X8702929Y-14155476D01*
X8683881Y-14155476D01*
X8664833Y-14145952D01*
X8655310Y-14136428D01*
X8645786Y-14117381D01*
X8636262Y-14079286D01*
X8636262Y-14031667D01*
X8645786Y-13993571D01*
X8655310Y-13974524D01*
X8664833Y-13965000D01*
X8683881Y-13955476D01*
X8836262Y-14155476D02*
X8836262Y-14022143D01*
X8836262Y-14041190D02*
X8845786Y-14031667D01*
X8864833Y-14022143D01*
X8893405Y-14022143D01*
X8912452Y-14031667D01*
X8921976Y-14050714D01*
X8921976Y-14155476D01*
X8921976Y-14050714D02*
X8931500Y-14031667D01*
X8950548Y-14022143D01*
X8979119Y-14022143D01*
X8998167Y-14031667D01*
X9007690Y-14050714D01*
X9007690Y-14155476D01*
X9102929Y-14155476D02*
X9102929Y-14022143D01*
X9102929Y-14041190D02*
X9112452Y-14031667D01*
X9131500Y-14022143D01*
X9160071Y-14022143D01*
X9179119Y-14031667D01*
X9188643Y-14050714D01*
X9188643Y-14155476D01*
X9188643Y-14050714D02*
X9198167Y-14031667D01*
X9217214Y-14022143D01*
X9245786Y-14022143D01*
X9264833Y-14031667D01*
X9274357Y-14050714D01*
X9274357Y-14155476D01*
X9664833Y-13945952D02*
X9493405Y-14203095D01*
X9921976Y-13955476D02*
X9941024Y-13955476D01*
X9960071Y-13965000D01*
X9969595Y-13974524D01*
X9979119Y-13993571D01*
X9988643Y-14031667D01*
X9988643Y-14079286D01*
X9979119Y-14117381D01*
X9969595Y-14136428D01*
X9960071Y-14145952D01*
X9941024Y-14155476D01*
X9921976Y-14155476D01*
X9902929Y-14145952D01*
X9893405Y-14136428D01*
X9883881Y-14117381D01*
X9874357Y-14079286D01*
X9874357Y-14031667D01*
X9883881Y-13993571D01*
X9893405Y-13974524D01*
X9902929Y-13965000D01*
X9921976Y-13955476D01*
X10074357Y-14136428D02*
X10083881Y-14145952D01*
X10074357Y-14155476D01*
X10064833Y-14145952D01*
X10074357Y-14136428D01*
X10074357Y-14155476D01*
X10207690Y-13955476D02*
X10226738Y-13955476D01*
X10245786Y-13965000D01*
X10255310Y-13974524D01*
X10264833Y-13993571D01*
X10274357Y-14031667D01*
X10274357Y-14079286D01*
X10264833Y-14117381D01*
X10255310Y-14136428D01*
X10245786Y-14145952D01*
X10226738Y-14155476D01*
X10207690Y-14155476D01*
X10188643Y-14145952D01*
X10179119Y-14136428D01*
X10169595Y-14117381D01*
X10160071Y-14079286D01*
X10160071Y-14031667D01*
X10169595Y-13993571D01*
X10179119Y-13974524D01*
X10188643Y-13965000D01*
X10207690Y-13955476D01*
X10341024Y-13955476D02*
X10464833Y-13955476D01*
X10398167Y-14031667D01*
X10426738Y-14031667D01*
X10445786Y-14041190D01*
X10455310Y-14050714D01*
X10464833Y-14069762D01*
X10464833Y-14117381D01*
X10455310Y-14136428D01*
X10445786Y-14145952D01*
X10426738Y-14155476D01*
X10369595Y-14155476D01*
X10350548Y-14145952D01*
X10341024Y-14136428D01*
X10560071Y-14155476D02*
X10598167Y-14155476D01*
X10617214Y-14145952D01*
X10626738Y-14136428D01*
X10645786Y-14107857D01*
X10655310Y-14069762D01*
X10655310Y-13993571D01*
X10645786Y-13974524D01*
X10636262Y-13965000D01*
X10617214Y-13955476D01*
X10579119Y-13955476D01*
X10560071Y-13965000D01*
X10550548Y-13974524D01*
X10541024Y-13993571D01*
X10541024Y-14041190D01*
X10550548Y-14060238D01*
X10560071Y-14069762D01*
X10579119Y-14079286D01*
X10617214Y-14079286D01*
X10636262Y-14069762D01*
X10645786Y-14060238D01*
X10655310Y-14041190D01*
X10826738Y-14022143D02*
X10826738Y-14155476D01*
X10779119Y-13945952D02*
X10731500Y-14088809D01*
X10855310Y-14088809D01*
X10921976Y-13955476D02*
X10921976Y-13993571D01*
X10998167Y-13955476D02*
X10998167Y-13993571D01*
X11293405Y-14231667D02*
X11283881Y-14222143D01*
X11264833Y-14193571D01*
X11255309Y-14174524D01*
X11245786Y-14145952D01*
X11236262Y-14098333D01*
X11236262Y-14060238D01*
X11245786Y-14012619D01*
X11255309Y-13984048D01*
X11264833Y-13965000D01*
X11283881Y-13936428D01*
X11293405Y-13926905D01*
X11455309Y-14022143D02*
X11455309Y-14155476D01*
X11407690Y-13945952D02*
X11360071Y-14088809D01*
X11483881Y-14088809D01*
X11664833Y-14155476D02*
X11550548Y-14155476D01*
X11607690Y-14155476D02*
X11607690Y-13955476D01*
X11588643Y-13984048D01*
X11569595Y-14003095D01*
X11550548Y-14012619D01*
X11902928Y-14155476D02*
X11902928Y-13955476D01*
X11988643Y-14155476D02*
X11988643Y-14050714D01*
X11979119Y-14031667D01*
X11960071Y-14022143D01*
X11931500Y-14022143D01*
X11912452Y-14031667D01*
X11902928Y-14041190D01*
X12112452Y-14155476D02*
X12093405Y-14145952D01*
X12083881Y-14136428D01*
X12074357Y-14117381D01*
X12074357Y-14060238D01*
X12083881Y-14041190D01*
X12093405Y-14031667D01*
X12112452Y-14022143D01*
X12141024Y-14022143D01*
X12160071Y-14031667D01*
X12169595Y-14041190D01*
X12179119Y-14060238D01*
X12179119Y-14117381D01*
X12169595Y-14136428D01*
X12160071Y-14145952D01*
X12141024Y-14155476D01*
X12112452Y-14155476D01*
X12293405Y-14155476D02*
X12274357Y-14145952D01*
X12264833Y-14126905D01*
X12264833Y-13955476D01*
X12445786Y-14145952D02*
X12426738Y-14155476D01*
X12388643Y-14155476D01*
X12369595Y-14145952D01*
X12360071Y-14126905D01*
X12360071Y-14050714D01*
X12369595Y-14031667D01*
X12388643Y-14022143D01*
X12426738Y-14022143D01*
X12445786Y-14031667D01*
X12455309Y-14050714D01*
X12455309Y-14069762D01*
X12360071Y-14088809D01*
X12531500Y-14145952D02*
X12550548Y-14155476D01*
X12588643Y-14155476D01*
X12607690Y-14145952D01*
X12617214Y-14126905D01*
X12617214Y-14117381D01*
X12607690Y-14098333D01*
X12588643Y-14088809D01*
X12560071Y-14088809D01*
X12541024Y-14079286D01*
X12531500Y-14060238D01*
X12531500Y-14050714D01*
X12541024Y-14031667D01*
X12560071Y-14022143D01*
X12588643Y-14022143D01*
X12607690Y-14031667D01*
X12683881Y-14231667D02*
X12693405Y-14222143D01*
X12712452Y-14193571D01*
X12721976Y-14174524D01*
X12731500Y-14145952D01*
X12741024Y-14098333D01*
X12741024Y-14060238D01*
X12731500Y-14012619D01*
X12721976Y-13984048D01*
X12712452Y-13965000D01*
X12693405Y-13936428D01*
X12683881Y-13926905D01*
D18*
X7561500Y-14249000D02*
X7721500Y-14409000D01*
X7721500Y-14249000D02*
X7561500Y-14409000D01*
X7698069Y-14385569D02*
X7698069Y-14272431D01*
X7584931Y-14272431D01*
X7584931Y-14385569D01*
X7698069Y-14385569D01*
D11*
X8083881Y-14419476D02*
X7969595Y-14419476D01*
X8026738Y-14419476D02*
X8026738Y-14219476D01*
X8007690Y-14248048D01*
X7988643Y-14267095D01*
X7969595Y-14276619D01*
X8169595Y-14400428D02*
X8179119Y-14409952D01*
X8169595Y-14419476D01*
X8160071Y-14409952D01*
X8169595Y-14400428D01*
X8169595Y-14419476D01*
X8350548Y-14219476D02*
X8312452Y-14219476D01*
X8293405Y-14229000D01*
X8283881Y-14238524D01*
X8264833Y-14267095D01*
X8255309Y-14305190D01*
X8255309Y-14381381D01*
X8264833Y-14400428D01*
X8274357Y-14409952D01*
X8293405Y-14419476D01*
X8331500Y-14419476D01*
X8350548Y-14409952D01*
X8360071Y-14400428D01*
X8369595Y-14381381D01*
X8369595Y-14333762D01*
X8360071Y-14314714D01*
X8350548Y-14305190D01*
X8331500Y-14295667D01*
X8293405Y-14295667D01*
X8274357Y-14305190D01*
X8264833Y-14314714D01*
X8255309Y-14333762D01*
X8493405Y-14219476D02*
X8512452Y-14219476D01*
X8531500Y-14229000D01*
X8541024Y-14238524D01*
X8550548Y-14257571D01*
X8560071Y-14295667D01*
X8560071Y-14343286D01*
X8550548Y-14381381D01*
X8541024Y-14400428D01*
X8531500Y-14409952D01*
X8512452Y-14419476D01*
X8493405Y-14419476D01*
X8474357Y-14409952D01*
X8464833Y-14400428D01*
X8455310Y-14381381D01*
X8445786Y-14343286D01*
X8445786Y-14295667D01*
X8455310Y-14257571D01*
X8464833Y-14238524D01*
X8474357Y-14229000D01*
X8493405Y-14219476D01*
X8683881Y-14219476D02*
X8702929Y-14219476D01*
X8721976Y-14229000D01*
X8731500Y-14238524D01*
X8741024Y-14257571D01*
X8750548Y-14295667D01*
X8750548Y-14343286D01*
X8741024Y-14381381D01*
X8731500Y-14400428D01*
X8721976Y-14409952D01*
X8702929Y-14419476D01*
X8683881Y-14419476D01*
X8664833Y-14409952D01*
X8655310Y-14400428D01*
X8645786Y-14381381D01*
X8636262Y-14343286D01*
X8636262Y-14295667D01*
X8645786Y-14257571D01*
X8655310Y-14238524D01*
X8664833Y-14229000D01*
X8683881Y-14219476D01*
X8836262Y-14419476D02*
X8836262Y-14286143D01*
X8836262Y-14305190D02*
X8845786Y-14295667D01*
X8864833Y-14286143D01*
X8893405Y-14286143D01*
X8912452Y-14295667D01*
X8921976Y-14314714D01*
X8921976Y-14419476D01*
X8921976Y-14314714D02*
X8931500Y-14295667D01*
X8950548Y-14286143D01*
X8979119Y-14286143D01*
X8998167Y-14295667D01*
X9007690Y-14314714D01*
X9007690Y-14419476D01*
X9102929Y-14419476D02*
X9102929Y-14286143D01*
X9102929Y-14305190D02*
X9112452Y-14295667D01*
X9131500Y-14286143D01*
X9160071Y-14286143D01*
X9179119Y-14295667D01*
X9188643Y-14314714D01*
X9188643Y-14419476D01*
X9188643Y-14314714D02*
X9198167Y-14295667D01*
X9217214Y-14286143D01*
X9245786Y-14286143D01*
X9264833Y-14295667D01*
X9274357Y-14314714D01*
X9274357Y-14419476D01*
X9664833Y-14209952D02*
X9493405Y-14467095D01*
X9921976Y-14219476D02*
X9941024Y-14219476D01*
X9960071Y-14229000D01*
X9969595Y-14238524D01*
X9979119Y-14257571D01*
X9988643Y-14295667D01*
X9988643Y-14343286D01*
X9979119Y-14381381D01*
X9969595Y-14400428D01*
X9960071Y-14409952D01*
X9941024Y-14419476D01*
X9921976Y-14419476D01*
X9902929Y-14409952D01*
X9893405Y-14400428D01*
X9883881Y-14381381D01*
X9874357Y-14343286D01*
X9874357Y-14295667D01*
X9883881Y-14257571D01*
X9893405Y-14238524D01*
X9902929Y-14229000D01*
X9921976Y-14219476D01*
X10074357Y-14400428D02*
X10083881Y-14409952D01*
X10074357Y-14419476D01*
X10064833Y-14409952D01*
X10074357Y-14400428D01*
X10074357Y-14419476D01*
X10207690Y-14219476D02*
X10226738Y-14219476D01*
X10245786Y-14229000D01*
X10255310Y-14238524D01*
X10264833Y-14257571D01*
X10274357Y-14295667D01*
X10274357Y-14343286D01*
X10264833Y-14381381D01*
X10255310Y-14400428D01*
X10245786Y-14409952D01*
X10226738Y-14419476D01*
X10207690Y-14419476D01*
X10188643Y-14409952D01*
X10179119Y-14400428D01*
X10169595Y-14381381D01*
X10160071Y-14343286D01*
X10160071Y-14295667D01*
X10169595Y-14257571D01*
X10179119Y-14238524D01*
X10188643Y-14229000D01*
X10207690Y-14219476D01*
X10445786Y-14219476D02*
X10407690Y-14219476D01*
X10388643Y-14229000D01*
X10379119Y-14238524D01*
X10360071Y-14267095D01*
X10350548Y-14305190D01*
X10350548Y-14381381D01*
X10360071Y-14400428D01*
X10369595Y-14409952D01*
X10388643Y-14419476D01*
X10426738Y-14419476D01*
X10445786Y-14409952D01*
X10455310Y-14400428D01*
X10464833Y-14381381D01*
X10464833Y-14333762D01*
X10455310Y-14314714D01*
X10445786Y-14305190D01*
X10426738Y-14295667D01*
X10388643Y-14295667D01*
X10369595Y-14305190D01*
X10360071Y-14314714D01*
X10350548Y-14333762D01*
X10531500Y-14219476D02*
X10655310Y-14219476D01*
X10588643Y-14295667D01*
X10617214Y-14295667D01*
X10636262Y-14305190D01*
X10645786Y-14314714D01*
X10655310Y-14333762D01*
X10655310Y-14381381D01*
X10645786Y-14400428D01*
X10636262Y-14409952D01*
X10617214Y-14419476D01*
X10560071Y-14419476D01*
X10541024Y-14409952D01*
X10531500Y-14400428D01*
X10779119Y-14219476D02*
X10798167Y-14219476D01*
X10817214Y-14229000D01*
X10826738Y-14238524D01*
X10836262Y-14257571D01*
X10845786Y-14295667D01*
X10845786Y-14343286D01*
X10836262Y-14381381D01*
X10826738Y-14400428D01*
X10817214Y-14409952D01*
X10798167Y-14419476D01*
X10779119Y-14419476D01*
X10760071Y-14409952D01*
X10750548Y-14400428D01*
X10741024Y-14381381D01*
X10731500Y-14343286D01*
X10731500Y-14295667D01*
X10741024Y-14257571D01*
X10750548Y-14238524D01*
X10760071Y-14229000D01*
X10779119Y-14219476D01*
X10921976Y-14219476D02*
X10921976Y-14257571D01*
X10998167Y-14219476D02*
X10998167Y-14257571D01*
X11293405Y-14495667D02*
X11283881Y-14486143D01*
X11264833Y-14457571D01*
X11255309Y-14438524D01*
X11245786Y-14409952D01*
X11236262Y-14362333D01*
X11236262Y-14324238D01*
X11245786Y-14276619D01*
X11255309Y-14248048D01*
X11264833Y-14229000D01*
X11283881Y-14200428D01*
X11293405Y-14190905D01*
X11350548Y-14219476D02*
X11483881Y-14219476D01*
X11398167Y-14419476D01*
X11712452Y-14419476D02*
X11712452Y-14219476D01*
X11798167Y-14419476D02*
X11798167Y-14314714D01*
X11788643Y-14295667D01*
X11769595Y-14286143D01*
X11741024Y-14286143D01*
X11721976Y-14295667D01*
X11712452Y-14305190D01*
X11921976Y-14419476D02*
X11902928Y-14409952D01*
X11893405Y-14400428D01*
X11883881Y-14381381D01*
X11883881Y-14324238D01*
X11893405Y-14305190D01*
X11902928Y-14295667D01*
X11921976Y-14286143D01*
X11950548Y-14286143D01*
X11969595Y-14295667D01*
X11979119Y-14305190D01*
X11988643Y-14324238D01*
X11988643Y-14381381D01*
X11979119Y-14400428D01*
X11969595Y-14409952D01*
X11950548Y-14419476D01*
X11921976Y-14419476D01*
X12102928Y-14419476D02*
X12083881Y-14409952D01*
X12074357Y-14390905D01*
X12074357Y-14219476D01*
X12255309Y-14409952D02*
X12236262Y-14419476D01*
X12198167Y-14419476D01*
X12179119Y-14409952D01*
X12169595Y-14390905D01*
X12169595Y-14314714D01*
X12179119Y-14295667D01*
X12198167Y-14286143D01*
X12236262Y-14286143D01*
X12255309Y-14295667D01*
X12264833Y-14314714D01*
X12264833Y-14333762D01*
X12169595Y-14352809D01*
X12341024Y-14409952D02*
X12360071Y-14419476D01*
X12398167Y-14419476D01*
X12417214Y-14409952D01*
X12426738Y-14390905D01*
X12426738Y-14381381D01*
X12417214Y-14362333D01*
X12398167Y-14352809D01*
X12369595Y-14352809D01*
X12350548Y-14343286D01*
X12341024Y-14324238D01*
X12341024Y-14314714D01*
X12350548Y-14295667D01*
X12369595Y-14286143D01*
X12398167Y-14286143D01*
X12417214Y-14295667D01*
X12493405Y-14495667D02*
X12502928Y-14486143D01*
X12521976Y-14457571D01*
X12531500Y-14438524D01*
X12541024Y-14409952D01*
X12550548Y-14362333D01*
X12550548Y-14324238D01*
X12541024Y-14276619D01*
X12531500Y-14248048D01*
X12521976Y-14229000D01*
X12502928Y-14200428D01*
X12493405Y-14190905D01*
D19*
X7546500Y-14521500D02*
X7721500Y-14696500D01*
X7721500Y-14521500D02*
X7546500Y-14696500D01*
X7634000Y-14696500D02*
X7721500Y-14609000D01*
X7634000Y-14521500D01*
X7546500Y-14609000D01*
X7634000Y-14696500D01*
D11*
X8083881Y-14699476D02*
X7969595Y-14699476D01*
X8026738Y-14699476D02*
X8026738Y-14499476D01*
X8007690Y-14528048D01*
X7988643Y-14547095D01*
X7969595Y-14556619D01*
X8169595Y-14680428D02*
X8179119Y-14689952D01*
X8169595Y-14699476D01*
X8160071Y-14689952D01*
X8169595Y-14680428D01*
X8169595Y-14699476D01*
X8245786Y-14499476D02*
X8379119Y-14499476D01*
X8293405Y-14699476D01*
X8550548Y-14499476D02*
X8455310Y-14499476D01*
X8445786Y-14594714D01*
X8455310Y-14585190D01*
X8474357Y-14575667D01*
X8521976Y-14575667D01*
X8541024Y-14585190D01*
X8550548Y-14594714D01*
X8560071Y-14613762D01*
X8560071Y-14661381D01*
X8550548Y-14680428D01*
X8541024Y-14689952D01*
X8521976Y-14699476D01*
X8474357Y-14699476D01*
X8455310Y-14689952D01*
X8445786Y-14680428D01*
X8683881Y-14499476D02*
X8702929Y-14499476D01*
X8721976Y-14509000D01*
X8731500Y-14518524D01*
X8741024Y-14537571D01*
X8750548Y-14575667D01*
X8750548Y-14623286D01*
X8741024Y-14661381D01*
X8731500Y-14680428D01*
X8721976Y-14689952D01*
X8702929Y-14699476D01*
X8683881Y-14699476D01*
X8664833Y-14689952D01*
X8655310Y-14680428D01*
X8645786Y-14661381D01*
X8636262Y-14623286D01*
X8636262Y-14575667D01*
X8645786Y-14537571D01*
X8655310Y-14518524D01*
X8664833Y-14509000D01*
X8683881Y-14499476D01*
X8836262Y-14699476D02*
X8836262Y-14566143D01*
X8836262Y-14585190D02*
X8845786Y-14575667D01*
X8864833Y-14566143D01*
X8893405Y-14566143D01*
X8912452Y-14575667D01*
X8921976Y-14594714D01*
X8921976Y-14699476D01*
X8921976Y-14594714D02*
X8931500Y-14575667D01*
X8950548Y-14566143D01*
X8979119Y-14566143D01*
X8998167Y-14575667D01*
X9007690Y-14594714D01*
X9007690Y-14699476D01*
X9102929Y-14699476D02*
X9102929Y-14566143D01*
X9102929Y-14585190D02*
X9112452Y-14575667D01*
X9131500Y-14566143D01*
X9160071Y-14566143D01*
X9179119Y-14575667D01*
X9188643Y-14594714D01*
X9188643Y-14699476D01*
X9188643Y-14594714D02*
X9198167Y-14575667D01*
X9217214Y-14566143D01*
X9245786Y-14566143D01*
X9264833Y-14575667D01*
X9274357Y-14594714D01*
X9274357Y-14699476D01*
X9664833Y-14489952D02*
X9493405Y-14747095D01*
X9921976Y-14499476D02*
X9941024Y-14499476D01*
X9960071Y-14509000D01*
X9969595Y-14518524D01*
X9979119Y-14537571D01*
X9988643Y-14575667D01*
X9988643Y-14623286D01*
X9979119Y-14661381D01*
X9969595Y-14680428D01*
X9960071Y-14689952D01*
X9941024Y-14699476D01*
X9921976Y-14699476D01*
X9902929Y-14689952D01*
X9893405Y-14680428D01*
X9883881Y-14661381D01*
X9874357Y-14623286D01*
X9874357Y-14575667D01*
X9883881Y-14537571D01*
X9893405Y-14518524D01*
X9902929Y-14509000D01*
X9921976Y-14499476D01*
X10074357Y-14680428D02*
X10083881Y-14689952D01*
X10074357Y-14699476D01*
X10064833Y-14689952D01*
X10074357Y-14680428D01*
X10074357Y-14699476D01*
X10207690Y-14499476D02*
X10226738Y-14499476D01*
X10245786Y-14509000D01*
X10255310Y-14518524D01*
X10264833Y-14537571D01*
X10274357Y-14575667D01*
X10274357Y-14623286D01*
X10264833Y-14661381D01*
X10255310Y-14680428D01*
X10245786Y-14689952D01*
X10226738Y-14699476D01*
X10207690Y-14699476D01*
X10188643Y-14689952D01*
X10179119Y-14680428D01*
X10169595Y-14661381D01*
X10160071Y-14623286D01*
X10160071Y-14575667D01*
X10169595Y-14537571D01*
X10179119Y-14518524D01*
X10188643Y-14509000D01*
X10207690Y-14499476D01*
X10445786Y-14499476D02*
X10407690Y-14499476D01*
X10388643Y-14509000D01*
X10379119Y-14518524D01*
X10360071Y-14547095D01*
X10350548Y-14585190D01*
X10350548Y-14661381D01*
X10360071Y-14680428D01*
X10369595Y-14689952D01*
X10388643Y-14699476D01*
X10426738Y-14699476D01*
X10445786Y-14689952D01*
X10455310Y-14680428D01*
X10464833Y-14661381D01*
X10464833Y-14613762D01*
X10455310Y-14594714D01*
X10445786Y-14585190D01*
X10426738Y-14575667D01*
X10388643Y-14575667D01*
X10369595Y-14585190D01*
X10360071Y-14594714D01*
X10350548Y-14613762D01*
X10579119Y-14585190D02*
X10560071Y-14575667D01*
X10550548Y-14566143D01*
X10541024Y-14547095D01*
X10541024Y-14537571D01*
X10550548Y-14518524D01*
X10560071Y-14509000D01*
X10579119Y-14499476D01*
X10617214Y-14499476D01*
X10636262Y-14509000D01*
X10645786Y-14518524D01*
X10655310Y-14537571D01*
X10655310Y-14547095D01*
X10645786Y-14566143D01*
X10636262Y-14575667D01*
X10617214Y-14585190D01*
X10579119Y-14585190D01*
X10560071Y-14594714D01*
X10550548Y-14604238D01*
X10541024Y-14623286D01*
X10541024Y-14661381D01*
X10550548Y-14680428D01*
X10560071Y-14689952D01*
X10579119Y-14699476D01*
X10617214Y-14699476D01*
X10636262Y-14689952D01*
X10645786Y-14680428D01*
X10655310Y-14661381D01*
X10655310Y-14623286D01*
X10645786Y-14604238D01*
X10636262Y-14594714D01*
X10617214Y-14585190D01*
X10750548Y-14699476D02*
X10788643Y-14699476D01*
X10807690Y-14689952D01*
X10817214Y-14680428D01*
X10836262Y-14651857D01*
X10845786Y-14613762D01*
X10845786Y-14537571D01*
X10836262Y-14518524D01*
X10826738Y-14509000D01*
X10807690Y-14499476D01*
X10769595Y-14499476D01*
X10750548Y-14509000D01*
X10741024Y-14518524D01*
X10731500Y-14537571D01*
X10731500Y-14585190D01*
X10741024Y-14604238D01*
X10750548Y-14613762D01*
X10769595Y-14623286D01*
X10807690Y-14623286D01*
X10826738Y-14613762D01*
X10836262Y-14604238D01*
X10845786Y-14585190D01*
X10921976Y-14499476D02*
X10921976Y-14537571D01*
X10998167Y-14499476D02*
X10998167Y-14537571D01*
X11293405Y-14775667D02*
X11283881Y-14766143D01*
X11264833Y-14737571D01*
X11255309Y-14718524D01*
X11245786Y-14689952D01*
X11236262Y-14642333D01*
X11236262Y-14604238D01*
X11245786Y-14556619D01*
X11255309Y-14528048D01*
X11264833Y-14509000D01*
X11283881Y-14480428D01*
X11293405Y-14470905D01*
X11360071Y-14518524D02*
X11369595Y-14509000D01*
X11388643Y-14499476D01*
X11436262Y-14499476D01*
X11455309Y-14509000D01*
X11464833Y-14518524D01*
X11474357Y-14537571D01*
X11474357Y-14556619D01*
X11464833Y-14585190D01*
X11350548Y-14699476D01*
X11474357Y-14699476D01*
X11712452Y-14699476D02*
X11712452Y-14499476D01*
X11798167Y-14699476D02*
X11798167Y-14594714D01*
X11788643Y-14575667D01*
X11769595Y-14566143D01*
X11741024Y-14566143D01*
X11721976Y-14575667D01*
X11712452Y-14585190D01*
X11921976Y-14699476D02*
X11902928Y-14689952D01*
X11893405Y-14680428D01*
X11883881Y-14661381D01*
X11883881Y-14604238D01*
X11893405Y-14585190D01*
X11902928Y-14575667D01*
X11921976Y-14566143D01*
X11950548Y-14566143D01*
X11969595Y-14575667D01*
X11979119Y-14585190D01*
X11988643Y-14604238D01*
X11988643Y-14661381D01*
X11979119Y-14680428D01*
X11969595Y-14689952D01*
X11950548Y-14699476D01*
X11921976Y-14699476D01*
X12102928Y-14699476D02*
X12083881Y-14689952D01*
X12074357Y-14670905D01*
X12074357Y-14499476D01*
X12255309Y-14689952D02*
X12236262Y-14699476D01*
X12198167Y-14699476D01*
X12179119Y-14689952D01*
X12169595Y-14670905D01*
X12169595Y-14594714D01*
X12179119Y-14575667D01*
X12198167Y-14566143D01*
X12236262Y-14566143D01*
X12255309Y-14575667D01*
X12264833Y-14594714D01*
X12264833Y-14613762D01*
X12169595Y-14632809D01*
X12341024Y-14689952D02*
X12360071Y-14699476D01*
X12398167Y-14699476D01*
X12417214Y-14689952D01*
X12426738Y-14670905D01*
X12426738Y-14661381D01*
X12417214Y-14642333D01*
X12398167Y-14632809D01*
X12369595Y-14632809D01*
X12350548Y-14623286D01*
X12341024Y-14604238D01*
X12341024Y-14594714D01*
X12350548Y-14575667D01*
X12369595Y-14566143D01*
X12398167Y-14566143D01*
X12417214Y-14575667D01*
X12493405Y-14775667D02*
X12502928Y-14766143D01*
X12521976Y-14737571D01*
X12531500Y-14718524D01*
X12541024Y-14689952D01*
X12550548Y-14642333D01*
X12550548Y-14604238D01*
X12541024Y-14556619D01*
X12531500Y-14528048D01*
X12521976Y-14509000D01*
X12502928Y-14480428D01*
X12493405Y-14470905D01*
X7621500Y-14804000D02*
X7621500Y-15004000D01*
X7521500Y-14904000D02*
X7721500Y-14904000D01*
X7721500Y-14904000D02*
G75*
G03*
X7721500Y-14904000I-100000J0D01*
G01*
X7969595Y-14813524D02*
X7979119Y-14804000D01*
X7998167Y-14794476D01*
X8045786Y-14794476D01*
X8064833Y-14804000D01*
X8074357Y-14813524D01*
X8083881Y-14832571D01*
X8083881Y-14851619D01*
X8074357Y-14880190D01*
X7960071Y-14994476D01*
X8083881Y-14994476D01*
X8169595Y-14975428D02*
X8179119Y-14984952D01*
X8169595Y-14994476D01*
X8160071Y-14984952D01*
X8169595Y-14975428D01*
X8169595Y-14994476D01*
X8369595Y-14994476D02*
X8255309Y-14994476D01*
X8312452Y-14994476D02*
X8312452Y-14794476D01*
X8293405Y-14823048D01*
X8274357Y-14842095D01*
X8255309Y-14851619D01*
X8493405Y-14794476D02*
X8512452Y-14794476D01*
X8531500Y-14804000D01*
X8541024Y-14813524D01*
X8550548Y-14832571D01*
X8560071Y-14870667D01*
X8560071Y-14918286D01*
X8550548Y-14956381D01*
X8541024Y-14975428D01*
X8531500Y-14984952D01*
X8512452Y-14994476D01*
X8493405Y-14994476D01*
X8474357Y-14984952D01*
X8464833Y-14975428D01*
X8455310Y-14956381D01*
X8445786Y-14918286D01*
X8445786Y-14870667D01*
X8455310Y-14832571D01*
X8464833Y-14813524D01*
X8474357Y-14804000D01*
X8493405Y-14794476D01*
X8683881Y-14794476D02*
X8702929Y-14794476D01*
X8721976Y-14804000D01*
X8731500Y-14813524D01*
X8741024Y-14832571D01*
X8750548Y-14870667D01*
X8750548Y-14918286D01*
X8741024Y-14956381D01*
X8731500Y-14975428D01*
X8721976Y-14984952D01*
X8702929Y-14994476D01*
X8683881Y-14994476D01*
X8664833Y-14984952D01*
X8655310Y-14975428D01*
X8645786Y-14956381D01*
X8636262Y-14918286D01*
X8636262Y-14870667D01*
X8645786Y-14832571D01*
X8655310Y-14813524D01*
X8664833Y-14804000D01*
X8683881Y-14794476D01*
X8836262Y-14994476D02*
X8836262Y-14861143D01*
X8836262Y-14880190D02*
X8845786Y-14870667D01*
X8864833Y-14861143D01*
X8893405Y-14861143D01*
X8912452Y-14870667D01*
X8921976Y-14889714D01*
X8921976Y-14994476D01*
X8921976Y-14889714D02*
X8931500Y-14870667D01*
X8950548Y-14861143D01*
X8979119Y-14861143D01*
X8998167Y-14870667D01*
X9007690Y-14889714D01*
X9007690Y-14994476D01*
X9102929Y-14994476D02*
X9102929Y-14861143D01*
X9102929Y-14880190D02*
X9112452Y-14870667D01*
X9131500Y-14861143D01*
X9160071Y-14861143D01*
X9179119Y-14870667D01*
X9188643Y-14889714D01*
X9188643Y-14994476D01*
X9188643Y-14889714D02*
X9198167Y-14870667D01*
X9217214Y-14861143D01*
X9245786Y-14861143D01*
X9264833Y-14870667D01*
X9274357Y-14889714D01*
X9274357Y-14994476D01*
X9664833Y-14784952D02*
X9493405Y-15042095D01*
X9921976Y-14794476D02*
X9941024Y-14794476D01*
X9960071Y-14804000D01*
X9969595Y-14813524D01*
X9979119Y-14832571D01*
X9988643Y-14870667D01*
X9988643Y-14918286D01*
X9979119Y-14956381D01*
X9969595Y-14975428D01*
X9960071Y-14984952D01*
X9941024Y-14994476D01*
X9921976Y-14994476D01*
X9902929Y-14984952D01*
X9893405Y-14975428D01*
X9883881Y-14956381D01*
X9874357Y-14918286D01*
X9874357Y-14870667D01*
X9883881Y-14832571D01*
X9893405Y-14813524D01*
X9902929Y-14804000D01*
X9921976Y-14794476D01*
X10074357Y-14975428D02*
X10083881Y-14984952D01*
X10074357Y-14994476D01*
X10064833Y-14984952D01*
X10074357Y-14975428D01*
X10074357Y-14994476D01*
X10207690Y-14794476D02*
X10226738Y-14794476D01*
X10245786Y-14804000D01*
X10255310Y-14813524D01*
X10264833Y-14832571D01*
X10274357Y-14870667D01*
X10274357Y-14918286D01*
X10264833Y-14956381D01*
X10255310Y-14975428D01*
X10245786Y-14984952D01*
X10226738Y-14994476D01*
X10207690Y-14994476D01*
X10188643Y-14984952D01*
X10179119Y-14975428D01*
X10169595Y-14956381D01*
X10160071Y-14918286D01*
X10160071Y-14870667D01*
X10169595Y-14832571D01*
X10179119Y-14813524D01*
X10188643Y-14804000D01*
X10207690Y-14794476D01*
X10388643Y-14880190D02*
X10369595Y-14870667D01*
X10360071Y-14861143D01*
X10350548Y-14842095D01*
X10350548Y-14832571D01*
X10360071Y-14813524D01*
X10369595Y-14804000D01*
X10388643Y-14794476D01*
X10426738Y-14794476D01*
X10445786Y-14804000D01*
X10455310Y-14813524D01*
X10464833Y-14832571D01*
X10464833Y-14842095D01*
X10455310Y-14861143D01*
X10445786Y-14870667D01*
X10426738Y-14880190D01*
X10388643Y-14880190D01*
X10369595Y-14889714D01*
X10360071Y-14899238D01*
X10350548Y-14918286D01*
X10350548Y-14956381D01*
X10360071Y-14975428D01*
X10369595Y-14984952D01*
X10388643Y-14994476D01*
X10426738Y-14994476D01*
X10445786Y-14984952D01*
X10455310Y-14975428D01*
X10464833Y-14956381D01*
X10464833Y-14918286D01*
X10455310Y-14899238D01*
X10445786Y-14889714D01*
X10426738Y-14880190D01*
X10541024Y-14813524D02*
X10550548Y-14804000D01*
X10569595Y-14794476D01*
X10617214Y-14794476D01*
X10636262Y-14804000D01*
X10645786Y-14813524D01*
X10655310Y-14832571D01*
X10655310Y-14851619D01*
X10645786Y-14880190D01*
X10531500Y-14994476D01*
X10655310Y-14994476D01*
X10721976Y-14794476D02*
X10855310Y-14794476D01*
X10769595Y-14994476D01*
X10921976Y-14794476D02*
X10921976Y-14832571D01*
X10998167Y-14794476D02*
X10998167Y-14832571D01*
X11293405Y-15070667D02*
X11283881Y-15061143D01*
X11264833Y-15032571D01*
X11255309Y-15013524D01*
X11245786Y-14984952D01*
X11236262Y-14937333D01*
X11236262Y-14899238D01*
X11245786Y-14851619D01*
X11255309Y-14823048D01*
X11264833Y-14804000D01*
X11283881Y-14775428D01*
X11293405Y-14765905D01*
X11360071Y-14813524D02*
X11369595Y-14804000D01*
X11388643Y-14794476D01*
X11436262Y-14794476D01*
X11455309Y-14804000D01*
X11464833Y-14813524D01*
X11474357Y-14832571D01*
X11474357Y-14851619D01*
X11464833Y-14880190D01*
X11350548Y-14994476D01*
X11474357Y-14994476D01*
X11712452Y-14994476D02*
X11712452Y-14794476D01*
X11798167Y-14994476D02*
X11798167Y-14889714D01*
X11788643Y-14870667D01*
X11769595Y-14861143D01*
X11741024Y-14861143D01*
X11721976Y-14870667D01*
X11712452Y-14880190D01*
X11921976Y-14994476D02*
X11902928Y-14984952D01*
X11893405Y-14975428D01*
X11883881Y-14956381D01*
X11883881Y-14899238D01*
X11893405Y-14880190D01*
X11902928Y-14870667D01*
X11921976Y-14861143D01*
X11950548Y-14861143D01*
X11969595Y-14870667D01*
X11979119Y-14880190D01*
X11988643Y-14899238D01*
X11988643Y-14956381D01*
X11979119Y-14975428D01*
X11969595Y-14984952D01*
X11950548Y-14994476D01*
X11921976Y-14994476D01*
X12102928Y-14994476D02*
X12083881Y-14984952D01*
X12074357Y-14965905D01*
X12074357Y-14794476D01*
X12255309Y-14984952D02*
X12236262Y-14994476D01*
X12198167Y-14994476D01*
X12179119Y-14984952D01*
X12169595Y-14965905D01*
X12169595Y-14889714D01*
X12179119Y-14870667D01*
X12198167Y-14861143D01*
X12236262Y-14861143D01*
X12255309Y-14870667D01*
X12264833Y-14889714D01*
X12264833Y-14908762D01*
X12169595Y-14927809D01*
X12341024Y-14984952D02*
X12360071Y-14994476D01*
X12398167Y-14994476D01*
X12417214Y-14984952D01*
X12426738Y-14965905D01*
X12426738Y-14956381D01*
X12417214Y-14937333D01*
X12398167Y-14927809D01*
X12369595Y-14927809D01*
X12350548Y-14918286D01*
X12341024Y-14899238D01*
X12341024Y-14889714D01*
X12350548Y-14870667D01*
X12369595Y-14861143D01*
X12398167Y-14861143D01*
X12417214Y-14870667D01*
X12664833Y-14918286D02*
X12817214Y-14918286D01*
X12741024Y-14994476D02*
X12741024Y-14842095D01*
X13169595Y-14994476D02*
X13055309Y-14994476D01*
X13112452Y-14994476D02*
X13112452Y-14794476D01*
X13093405Y-14823048D01*
X13074357Y-14842095D01*
X13055309Y-14851619D01*
X13398167Y-14984952D02*
X13417214Y-14994476D01*
X13455309Y-14994476D01*
X13474357Y-14984952D01*
X13483881Y-14965905D01*
X13483881Y-14956381D01*
X13474357Y-14937333D01*
X13455309Y-14927809D01*
X13426738Y-14927809D01*
X13407690Y-14918286D01*
X13398167Y-14899238D01*
X13398167Y-14889714D01*
X13407690Y-14870667D01*
X13426738Y-14861143D01*
X13455309Y-14861143D01*
X13474357Y-14870667D01*
X13598167Y-14994476D02*
X13579119Y-14984952D01*
X13569595Y-14965905D01*
X13569595Y-14794476D01*
X13702928Y-14994476D02*
X13683881Y-14984952D01*
X13674357Y-14975428D01*
X13664833Y-14956381D01*
X13664833Y-14899238D01*
X13674357Y-14880190D01*
X13683881Y-14870667D01*
X13702928Y-14861143D01*
X13731500Y-14861143D01*
X13750548Y-14870667D01*
X13760071Y-14880190D01*
X13769595Y-14899238D01*
X13769595Y-14956381D01*
X13760071Y-14975428D01*
X13750548Y-14984952D01*
X13731500Y-14994476D01*
X13702928Y-14994476D01*
X13826738Y-14861143D02*
X13902928Y-14861143D01*
X13855309Y-14794476D02*
X13855309Y-14965905D01*
X13864833Y-14984952D01*
X13883881Y-14994476D01*
X13902928Y-14994476D01*
X13950548Y-15070667D02*
X13960071Y-15061143D01*
X13979119Y-15032571D01*
X13988643Y-15013524D01*
X13998167Y-14984952D01*
X14007690Y-14937333D01*
X14007690Y-14899238D01*
X13998167Y-14851619D01*
X13988643Y-14823048D01*
X13979119Y-14804000D01*
X13960071Y-14775428D01*
X13950548Y-14765905D01*
X7692211Y-15294711D02*
X7692211Y-15153289D01*
X7550789Y-15153289D01*
X7550789Y-15294711D01*
X7692211Y-15294711D01*
X7721500Y-15224000D02*
G75*
G03*
X7721500Y-15224000I-100000J0D01*
G01*
X7969595Y-15133524D02*
X7979119Y-15124000D01*
X7998167Y-15114476D01*
X8045786Y-15114476D01*
X8064833Y-15124000D01*
X8074357Y-15133524D01*
X8083881Y-15152571D01*
X8083881Y-15171619D01*
X8074357Y-15200190D01*
X7960071Y-15314476D01*
X8083881Y-15314476D01*
X8169595Y-15295428D02*
X8179119Y-15304952D01*
X8169595Y-15314476D01*
X8160071Y-15304952D01*
X8169595Y-15295428D01*
X8169595Y-15314476D01*
X8245786Y-15114476D02*
X8379119Y-15114476D01*
X8293405Y-15314476D01*
X8493405Y-15114476D02*
X8512452Y-15114476D01*
X8531500Y-15124000D01*
X8541024Y-15133524D01*
X8550548Y-15152571D01*
X8560071Y-15190667D01*
X8560071Y-15238286D01*
X8550548Y-15276381D01*
X8541024Y-15295428D01*
X8531500Y-15304952D01*
X8512452Y-15314476D01*
X8493405Y-15314476D01*
X8474357Y-15304952D01*
X8464833Y-15295428D01*
X8455310Y-15276381D01*
X8445786Y-15238286D01*
X8445786Y-15190667D01*
X8455310Y-15152571D01*
X8464833Y-15133524D01*
X8474357Y-15124000D01*
X8493405Y-15114476D01*
X8683881Y-15114476D02*
X8702929Y-15114476D01*
X8721976Y-15124000D01*
X8731500Y-15133524D01*
X8741024Y-15152571D01*
X8750548Y-15190667D01*
X8750548Y-15238286D01*
X8741024Y-15276381D01*
X8731500Y-15295428D01*
X8721976Y-15304952D01*
X8702929Y-15314476D01*
X8683881Y-15314476D01*
X8664833Y-15304952D01*
X8655310Y-15295428D01*
X8645786Y-15276381D01*
X8636262Y-15238286D01*
X8636262Y-15190667D01*
X8645786Y-15152571D01*
X8655310Y-15133524D01*
X8664833Y-15124000D01*
X8683881Y-15114476D01*
X8836262Y-15314476D02*
X8836262Y-15181143D01*
X8836262Y-15200190D02*
X8845786Y-15190667D01*
X8864833Y-15181143D01*
X8893405Y-15181143D01*
X8912452Y-15190667D01*
X8921976Y-15209714D01*
X8921976Y-15314476D01*
X8921976Y-15209714D02*
X8931500Y-15190667D01*
X8950548Y-15181143D01*
X8979119Y-15181143D01*
X8998167Y-15190667D01*
X9007690Y-15209714D01*
X9007690Y-15314476D01*
X9102929Y-15314476D02*
X9102929Y-15181143D01*
X9102929Y-15200190D02*
X9112452Y-15190667D01*
X9131500Y-15181143D01*
X9160071Y-15181143D01*
X9179119Y-15190667D01*
X9188643Y-15209714D01*
X9188643Y-15314476D01*
X9188643Y-15209714D02*
X9198167Y-15190667D01*
X9217214Y-15181143D01*
X9245786Y-15181143D01*
X9264833Y-15190667D01*
X9274357Y-15209714D01*
X9274357Y-15314476D01*
X9664833Y-15104952D02*
X9493405Y-15362095D01*
X9921976Y-15114476D02*
X9941024Y-15114476D01*
X9960071Y-15124000D01*
X9969595Y-15133524D01*
X9979119Y-15152571D01*
X9988643Y-15190667D01*
X9988643Y-15238286D01*
X9979119Y-15276381D01*
X9969595Y-15295428D01*
X9960071Y-15304952D01*
X9941024Y-15314476D01*
X9921976Y-15314476D01*
X9902929Y-15304952D01*
X9893405Y-15295428D01*
X9883881Y-15276381D01*
X9874357Y-15238286D01*
X9874357Y-15190667D01*
X9883881Y-15152571D01*
X9893405Y-15133524D01*
X9902929Y-15124000D01*
X9921976Y-15114476D01*
X10074357Y-15295428D02*
X10083881Y-15304952D01*
X10074357Y-15314476D01*
X10064833Y-15304952D01*
X10074357Y-15295428D01*
X10074357Y-15314476D01*
X10274357Y-15314476D02*
X10160071Y-15314476D01*
X10217214Y-15314476D02*
X10217214Y-15114476D01*
X10198167Y-15143048D01*
X10179119Y-15162095D01*
X10160071Y-15171619D01*
X10398167Y-15114476D02*
X10417214Y-15114476D01*
X10436262Y-15124000D01*
X10445786Y-15133524D01*
X10455310Y-15152571D01*
X10464833Y-15190667D01*
X10464833Y-15238286D01*
X10455310Y-15276381D01*
X10445786Y-15295428D01*
X10436262Y-15304952D01*
X10417214Y-15314476D01*
X10398167Y-15314476D01*
X10379119Y-15304952D01*
X10369595Y-15295428D01*
X10360071Y-15276381D01*
X10350548Y-15238286D01*
X10350548Y-15190667D01*
X10360071Y-15152571D01*
X10369595Y-15133524D01*
X10379119Y-15124000D01*
X10398167Y-15114476D01*
X10636262Y-15114476D02*
X10598167Y-15114476D01*
X10579119Y-15124000D01*
X10569595Y-15133524D01*
X10550548Y-15162095D01*
X10541024Y-15200190D01*
X10541024Y-15276381D01*
X10550548Y-15295428D01*
X10560071Y-15304952D01*
X10579119Y-15314476D01*
X10617214Y-15314476D01*
X10636262Y-15304952D01*
X10645786Y-15295428D01*
X10655310Y-15276381D01*
X10655310Y-15228762D01*
X10645786Y-15209714D01*
X10636262Y-15200190D01*
X10617214Y-15190667D01*
X10579119Y-15190667D01*
X10560071Y-15200190D01*
X10550548Y-15209714D01*
X10541024Y-15228762D01*
X10721976Y-15114476D02*
X10845786Y-15114476D01*
X10779119Y-15190667D01*
X10807690Y-15190667D01*
X10826738Y-15200190D01*
X10836262Y-15209714D01*
X10845786Y-15228762D01*
X10845786Y-15276381D01*
X10836262Y-15295428D01*
X10826738Y-15304952D01*
X10807690Y-15314476D01*
X10750548Y-15314476D01*
X10731500Y-15304952D01*
X10721976Y-15295428D01*
X10921976Y-15114476D02*
X10921976Y-15152571D01*
X10998167Y-15114476D02*
X10998167Y-15152571D01*
X11293405Y-15390667D02*
X11283881Y-15381143D01*
X11264833Y-15352571D01*
X11255309Y-15333524D01*
X11245786Y-15304952D01*
X11236262Y-15257333D01*
X11236262Y-15219238D01*
X11245786Y-15171619D01*
X11255309Y-15143048D01*
X11264833Y-15124000D01*
X11283881Y-15095428D01*
X11293405Y-15085905D01*
X11360071Y-15133524D02*
X11369595Y-15124000D01*
X11388643Y-15114476D01*
X11436262Y-15114476D01*
X11455309Y-15124000D01*
X11464833Y-15133524D01*
X11474357Y-15152571D01*
X11474357Y-15171619D01*
X11464833Y-15200190D01*
X11350548Y-15314476D01*
X11474357Y-15314476D01*
X11712452Y-15314476D02*
X11712452Y-15114476D01*
X11798167Y-15314476D02*
X11798167Y-15209714D01*
X11788643Y-15190667D01*
X11769595Y-15181143D01*
X11741024Y-15181143D01*
X11721976Y-15190667D01*
X11712452Y-15200190D01*
X11921976Y-15314476D02*
X11902928Y-15304952D01*
X11893405Y-15295428D01*
X11883881Y-15276381D01*
X11883881Y-15219238D01*
X11893405Y-15200190D01*
X11902928Y-15190667D01*
X11921976Y-15181143D01*
X11950548Y-15181143D01*
X11969595Y-15190667D01*
X11979119Y-15200190D01*
X11988643Y-15219238D01*
X11988643Y-15276381D01*
X11979119Y-15295428D01*
X11969595Y-15304952D01*
X11950548Y-15314476D01*
X11921976Y-15314476D01*
X12102928Y-15314476D02*
X12083881Y-15304952D01*
X12074357Y-15285905D01*
X12074357Y-15114476D01*
X12255309Y-15304952D02*
X12236262Y-15314476D01*
X12198167Y-15314476D01*
X12179119Y-15304952D01*
X12169595Y-15285905D01*
X12169595Y-15209714D01*
X12179119Y-15190667D01*
X12198167Y-15181143D01*
X12236262Y-15181143D01*
X12255309Y-15190667D01*
X12264833Y-15209714D01*
X12264833Y-15228762D01*
X12169595Y-15247809D01*
X12341024Y-15304952D02*
X12360071Y-15314476D01*
X12398167Y-15314476D01*
X12417214Y-15304952D01*
X12426738Y-15285905D01*
X12426738Y-15276381D01*
X12417214Y-15257333D01*
X12398167Y-15247809D01*
X12369595Y-15247809D01*
X12350548Y-15238286D01*
X12341024Y-15219238D01*
X12341024Y-15209714D01*
X12350548Y-15190667D01*
X12369595Y-15181143D01*
X12398167Y-15181143D01*
X12417214Y-15190667D01*
X12493405Y-15390667D02*
X12502928Y-15381143D01*
X12521976Y-15352571D01*
X12531500Y-15333524D01*
X12541024Y-15304952D01*
X12550548Y-15257333D01*
X12550548Y-15219238D01*
X12541024Y-15171619D01*
X12531500Y-15143048D01*
X12521976Y-15124000D01*
X12502928Y-15095428D01*
X12493405Y-15085905D01*
X7621500Y-15644000D02*
X7721500Y-15544000D01*
X7621500Y-15444000D01*
X7521500Y-15544000D01*
X7621500Y-15644000D01*
X7721500Y-15544000D02*
G75*
G03*
X7721500Y-15544000I-100000J0D01*
G01*
X7960071Y-15434476D02*
X8083881Y-15434476D01*
X8017214Y-15510667D01*
X8045786Y-15510667D01*
X8064833Y-15520190D01*
X8074357Y-15529714D01*
X8083881Y-15548762D01*
X8083881Y-15596381D01*
X8074357Y-15615428D01*
X8064833Y-15624952D01*
X8045786Y-15634476D01*
X7988643Y-15634476D01*
X7969595Y-15624952D01*
X7960071Y-15615428D01*
X8169595Y-15615428D02*
X8179119Y-15624952D01*
X8169595Y-15634476D01*
X8160071Y-15624952D01*
X8169595Y-15615428D01*
X8169595Y-15634476D01*
X8369595Y-15634476D02*
X8255309Y-15634476D01*
X8312452Y-15634476D02*
X8312452Y-15434476D01*
X8293405Y-15463048D01*
X8274357Y-15482095D01*
X8255309Y-15491619D01*
X8436262Y-15434476D02*
X8569595Y-15434476D01*
X8483881Y-15634476D01*
X8741024Y-15434476D02*
X8645786Y-15434476D01*
X8636262Y-15529714D01*
X8645786Y-15520190D01*
X8664833Y-15510667D01*
X8712452Y-15510667D01*
X8731500Y-15520190D01*
X8741024Y-15529714D01*
X8750548Y-15548762D01*
X8750548Y-15596381D01*
X8741024Y-15615428D01*
X8731500Y-15624952D01*
X8712452Y-15634476D01*
X8664833Y-15634476D01*
X8645786Y-15624952D01*
X8636262Y-15615428D01*
X8836262Y-15634476D02*
X8836262Y-15501143D01*
X8836262Y-15520190D02*
X8845786Y-15510667D01*
X8864833Y-15501143D01*
X8893405Y-15501143D01*
X8912452Y-15510667D01*
X8921976Y-15529714D01*
X8921976Y-15634476D01*
X8921976Y-15529714D02*
X8931500Y-15510667D01*
X8950548Y-15501143D01*
X8979119Y-15501143D01*
X8998167Y-15510667D01*
X9007690Y-15529714D01*
X9007690Y-15634476D01*
X9102929Y-15634476D02*
X9102929Y-15501143D01*
X9102929Y-15520190D02*
X9112452Y-15510667D01*
X9131500Y-15501143D01*
X9160071Y-15501143D01*
X9179119Y-15510667D01*
X9188643Y-15529714D01*
X9188643Y-15634476D01*
X9188643Y-15529714D02*
X9198167Y-15510667D01*
X9217214Y-15501143D01*
X9245786Y-15501143D01*
X9264833Y-15510667D01*
X9274357Y-15529714D01*
X9274357Y-15634476D01*
X9664833Y-15424952D02*
X9493405Y-15682095D01*
X9921976Y-15434476D02*
X9941024Y-15434476D01*
X9960071Y-15444000D01*
X9969595Y-15453524D01*
X9979119Y-15472571D01*
X9988643Y-15510667D01*
X9988643Y-15558286D01*
X9979119Y-15596381D01*
X9969595Y-15615428D01*
X9960071Y-15624952D01*
X9941024Y-15634476D01*
X9921976Y-15634476D01*
X9902929Y-15624952D01*
X9893405Y-15615428D01*
X9883881Y-15596381D01*
X9874357Y-15558286D01*
X9874357Y-15510667D01*
X9883881Y-15472571D01*
X9893405Y-15453524D01*
X9902929Y-15444000D01*
X9921976Y-15434476D01*
X10074357Y-15615428D02*
X10083881Y-15624952D01*
X10074357Y-15634476D01*
X10064833Y-15624952D01*
X10074357Y-15615428D01*
X10074357Y-15634476D01*
X10274357Y-15634476D02*
X10160071Y-15634476D01*
X10217214Y-15634476D02*
X10217214Y-15434476D01*
X10198167Y-15463048D01*
X10179119Y-15482095D01*
X10160071Y-15491619D01*
X10350548Y-15453524D02*
X10360071Y-15444000D01*
X10379119Y-15434476D01*
X10426738Y-15434476D01*
X10445786Y-15444000D01*
X10455310Y-15453524D01*
X10464833Y-15472571D01*
X10464833Y-15491619D01*
X10455310Y-15520190D01*
X10341024Y-15634476D01*
X10464833Y-15634476D01*
X10645786Y-15434476D02*
X10550548Y-15434476D01*
X10541024Y-15529714D01*
X10550548Y-15520190D01*
X10569595Y-15510667D01*
X10617214Y-15510667D01*
X10636262Y-15520190D01*
X10645786Y-15529714D01*
X10655310Y-15548762D01*
X10655310Y-15596381D01*
X10645786Y-15615428D01*
X10636262Y-15624952D01*
X10617214Y-15634476D01*
X10569595Y-15634476D01*
X10550548Y-15624952D01*
X10541024Y-15615428D01*
X10779119Y-15434476D02*
X10798167Y-15434476D01*
X10817214Y-15444000D01*
X10826738Y-15453524D01*
X10836262Y-15472571D01*
X10845786Y-15510667D01*
X10845786Y-15558286D01*
X10836262Y-15596381D01*
X10826738Y-15615428D01*
X10817214Y-15624952D01*
X10798167Y-15634476D01*
X10779119Y-15634476D01*
X10760071Y-15624952D01*
X10750548Y-15615428D01*
X10741024Y-15596381D01*
X10731500Y-15558286D01*
X10731500Y-15510667D01*
X10741024Y-15472571D01*
X10750548Y-15453524D01*
X10760071Y-15444000D01*
X10779119Y-15434476D01*
X10921976Y-15434476D02*
X10921976Y-15472571D01*
X10998167Y-15434476D02*
X10998167Y-15472571D01*
X11293405Y-15710667D02*
X11283881Y-15701143D01*
X11264833Y-15672571D01*
X11255309Y-15653524D01*
X11245786Y-15624952D01*
X11236262Y-15577333D01*
X11236262Y-15539238D01*
X11245786Y-15491619D01*
X11255309Y-15463048D01*
X11264833Y-15444000D01*
X11283881Y-15415428D01*
X11293405Y-15405905D01*
X11455309Y-15501143D02*
X11455309Y-15634476D01*
X11407690Y-15424952D02*
X11360071Y-15567809D01*
X11483881Y-15567809D01*
X11712452Y-15634476D02*
X11712452Y-15434476D01*
X11798167Y-15634476D02*
X11798167Y-15529714D01*
X11788643Y-15510667D01*
X11769595Y-15501143D01*
X11741024Y-15501143D01*
X11721976Y-15510667D01*
X11712452Y-15520190D01*
X11921976Y-15634476D02*
X11902928Y-15624952D01*
X11893405Y-15615428D01*
X11883881Y-15596381D01*
X11883881Y-15539238D01*
X11893405Y-15520190D01*
X11902928Y-15510667D01*
X11921976Y-15501143D01*
X11950548Y-15501143D01*
X11969595Y-15510667D01*
X11979119Y-15520190D01*
X11988643Y-15539238D01*
X11988643Y-15596381D01*
X11979119Y-15615428D01*
X11969595Y-15624952D01*
X11950548Y-15634476D01*
X11921976Y-15634476D01*
X12102928Y-15634476D02*
X12083881Y-15624952D01*
X12074357Y-15605905D01*
X12074357Y-15434476D01*
X12255309Y-15624952D02*
X12236262Y-15634476D01*
X12198167Y-15634476D01*
X12179119Y-15624952D01*
X12169595Y-15605905D01*
X12169595Y-15529714D01*
X12179119Y-15510667D01*
X12198167Y-15501143D01*
X12236262Y-15501143D01*
X12255309Y-15510667D01*
X12264833Y-15529714D01*
X12264833Y-15548762D01*
X12169595Y-15567809D01*
X12341024Y-15624952D02*
X12360071Y-15634476D01*
X12398167Y-15634476D01*
X12417214Y-15624952D01*
X12426738Y-15605905D01*
X12426738Y-15596381D01*
X12417214Y-15577333D01*
X12398167Y-15567809D01*
X12369595Y-15567809D01*
X12350548Y-15558286D01*
X12341024Y-15539238D01*
X12341024Y-15529714D01*
X12350548Y-15510667D01*
X12369595Y-15501143D01*
X12398167Y-15501143D01*
X12417214Y-15510667D01*
X12493405Y-15710667D02*
X12502928Y-15701143D01*
X12521976Y-15672571D01*
X12531500Y-15653524D01*
X12541024Y-15624952D01*
X12550548Y-15577333D01*
X12550548Y-15539238D01*
X12541024Y-15491619D01*
X12531500Y-15463048D01*
X12521976Y-15444000D01*
X12502928Y-15415428D01*
X12493405Y-15405905D01*
M02*
