%TF.GenerationSoftware,KiCad,Pcbnew,(6.0.4-0)*%
%TF.CreationDate,2024-06-09T15:54:23-04:00*%
%TF.ProjectId,SignalSnagger,5369676e-616c-4536-9e61-676765722e6b,rev?*%
%TF.SameCoordinates,Original*%
%TF.FileFunction,Soldermask,Bot*%
%TF.FilePolarity,Negative*%
%FSLAX46Y46*%
G04 Gerber Fmt 4.6, Leading zero omitted, Abs format (unit mm)*
G04 Created by KiCad (PCBNEW (6.0.4-0)) date 2024-06-09 15:54:23*
%MOMM*%
%LPD*%
G01*
G04 APERTURE LIST*
G04 Aperture macros list*
%AMRoundRect*
0 Rectangle with rounded corners*
0 $1 Rounding radius*
0 $2 $3 $4 $5 $6 $7 $8 $9 X,Y pos of 4 corners*
0 Add a 4 corners polygon primitive as box body*
4,1,4,$2,$3,$4,$5,$6,$7,$8,$9,$2,$3,0*
0 Add four circle primitives for the rounded corners*
1,1,$1+$1,$2,$3*
1,1,$1+$1,$4,$5*
1,1,$1+$1,$6,$7*
1,1,$1+$1,$8,$9*
0 Add four rect primitives between the rounded corners*
20,1,$1+$1,$2,$3,$4,$5,0*
20,1,$1+$1,$4,$5,$6,$7,0*
20,1,$1+$1,$6,$7,$8,$9,0*
20,1,$1+$1,$8,$9,$2,$3,0*%
%AMFreePoly0*
4,1,22,0.500000,-0.750000,0.000000,-0.750000,0.000000,-0.745033,-0.079941,-0.743568,-0.215256,-0.701293,-0.333266,-0.622738,-0.424486,-0.514219,-0.481581,-0.384460,-0.499164,-0.250000,-0.500000,-0.250000,-0.500000,0.250000,-0.499164,0.250000,-0.499963,0.256109,-0.478152,0.396186,-0.417904,0.524511,-0.324060,0.630769,-0.204165,0.706417,-0.067858,0.745374,0.000000,0.744959,0.000000,0.750000,
0.500000,0.750000,0.500000,-0.750000,0.500000,-0.750000,$1*%
%AMFreePoly1*
4,1,20,0.000000,0.744959,0.073905,0.744508,0.209726,0.703889,0.328688,0.626782,0.421226,0.519385,0.479903,0.390333,0.500000,0.250000,0.500000,-0.250000,0.499851,-0.262216,0.476331,-0.402017,0.414519,-0.529596,0.319384,-0.634700,0.198574,-0.708877,0.061801,-0.746166,0.000000,-0.745033,0.000000,-0.750000,-0.500000,-0.750000,-0.500000,0.750000,0.000000,0.750000,0.000000,0.744959,
0.000000,0.744959,$1*%
G04 Aperture macros list end*
%ADD10C,1.004000*%
%ADD11C,5.000000*%
%ADD12C,2.800000*%
%ADD13R,1.000000X1.000000*%
%ADD14O,1.000000X1.000000*%
%ADD15RoundRect,0.100000X-1.400000X-1.400000X1.400000X-1.400000X1.400000X1.400000X-1.400000X1.400000X0*%
%ADD16R,2.800000X2.800000*%
%ADD17RoundRect,0.200000X0.500000X-0.500000X0.500000X0.500000X-0.500000X0.500000X-0.500000X-0.500000X0*%
%ADD18O,1.400000X1.400000*%
%ADD19C,1.000000*%
%ADD20R,1.270000X1.620000*%
%ADD21RoundRect,0.875000X0.875000X-0.875000X0.875000X0.875000X-0.875000X0.875000X-0.875000X-0.875000X0*%
%ADD22O,3.500000X3.500000*%
%ADD23FreePoly0,180.000000*%
%ADD24FreePoly1,180.000000*%
%ADD25R,2.000000X2.000000*%
%ADD26C,2.000000*%
%ADD27C,3.600000*%
%ADD28RoundRect,0.243750X0.243750X0.456250X-0.243750X0.456250X-0.243750X-0.456250X0.243750X-0.456250X0*%
%ADD29C,1.700000*%
%ADD30O,1.700000X1.700000*%
%ADD31RoundRect,0.425000X-0.425000X0.425000X-0.425000X-0.425000X0.425000X-0.425000X0.425000X0.425000X0*%
%ADD32C,1.500000*%
%ADD33R,1.500000X1.500000*%
%ADD34R,1.700000X1.700000*%
%ADD35RoundRect,0.102000X-0.900000X1.300000X-0.900000X-1.300000X0.900000X-1.300000X0.900000X1.300000X0*%
%ADD36RoundRect,0.102000X-0.900000X1.375000X-0.900000X-1.375000X0.900000X-1.375000X0.900000X1.375000X0*%
%ADD37C,0.500000*%
%ADD38C,1.600000*%
%ADD39C,1.300000*%
%ADD40C,4.400000*%
%ADD41RoundRect,0.250002X-1.699998X1.699998X-1.699998X-1.699998X1.699998X-1.699998X1.699998X1.699998X0*%
%ADD42C,3.900000*%
G04 APERTURE END LIST*
D10*
%TO.C,J301*%
X208502000Y-96186000D02*
G75*
G03*
X208502000Y-96186000I-502000J0D01*
G01*
X202502000Y-96186000D02*
G75*
G03*
X202502000Y-96186000I-502000J0D01*
G01*
%TD*%
D11*
%TO.C,REF\u002A\u002A*%
X81964000Y-113665000D03*
%TD*%
D12*
%TO.C,J105*%
X96170000Y-96190000D03*
%TD*%
D13*
%TO.C,RV102*%
X109372500Y-104300000D03*
D14*
X110642500Y-104300000D03*
X111912500Y-104300000D03*
%TD*%
D13*
%TO.C,TP301*%
X160530000Y-94225000D03*
D14*
X160530000Y-95495000D03*
X160530000Y-96765000D03*
%TD*%
D12*
%TO.C,J302*%
X140920000Y-95890000D03*
%TD*%
D11*
%TO.C,REF\u002A\u002A*%
X205917800Y-113665000D03*
%TD*%
%TO.C,REF\u002A\u002A*%
X81964000Y-78711000D03*
%TD*%
D15*
%TO.C,J107*%
X96160000Y-92130000D03*
%TD*%
D16*
%TO.C,J106*%
X96190000Y-100170000D03*
%TD*%
%TO.C,J304*%
X165330000Y-107440000D03*
%TD*%
D13*
%TO.C,J219*%
X127015000Y-116972500D03*
D14*
X127015000Y-115702500D03*
%TD*%
D12*
%TO.C,J903*%
X155280000Y-103600000D03*
%TD*%
D17*
%TO.C,J218*%
X126905000Y-75275000D03*
D18*
X128175000Y-75275000D03*
%TD*%
D19*
%TO.C,JP105*%
X96560000Y-87040000D03*
X95260000Y-87040000D03*
%TD*%
D13*
%TO.C,TP901*%
X160580000Y-113425000D03*
D14*
X160580000Y-114695000D03*
X160580000Y-115965000D03*
%TD*%
D19*
%TO.C,JP202*%
X131340000Y-78330000D03*
X131340000Y-80330000D03*
%TD*%
D11*
%TO.C,REF\u002A\u002A*%
X205917800Y-78711000D03*
%TD*%
D20*
%TO.C,T101*%
X119230000Y-98590000D03*
X121770000Y-98590000D03*
X124310000Y-98590000D03*
X124310000Y-104440000D03*
X121770000Y-104440000D03*
X119230000Y-104440000D03*
%TD*%
D21*
%TO.C,C103*%
X101760000Y-111570000D03*
X93960000Y-111570000D03*
D22*
X97860000Y-105770000D03*
%TD*%
D19*
%TO.C,JP103*%
X88820000Y-81520000D03*
X88820000Y-82820000D03*
%TD*%
D12*
%TO.C,J108*%
X81915000Y-96186000D03*
%TD*%
D23*
%TO.C,JP201*%
X137220000Y-82930000D03*
D24*
X135920000Y-82930000D03*
%TD*%
D19*
%TO.C,JP106*%
X90940000Y-100940000D03*
X89640000Y-100940000D03*
%TD*%
D25*
%TO.C,SW203*%
X114500000Y-93686000D03*
D26*
X114500000Y-98686000D03*
X114500000Y-96186000D03*
D27*
X107000000Y-101986000D03*
X107000000Y-90386000D03*
D26*
X100000000Y-93686000D03*
X100000000Y-98686000D03*
%TD*%
D28*
%TO.C,D203*%
X192567500Y-77990000D03*
X190692500Y-77990000D03*
%TD*%
D13*
%TO.C,J208*%
X176790000Y-100630000D03*
D14*
X178060000Y-100630000D03*
X179330000Y-100630000D03*
X180600000Y-100630000D03*
%TD*%
D13*
%TO.C,J204*%
X187495000Y-114445000D03*
D14*
X188765000Y-114445000D03*
%TD*%
D29*
%TO.C,P201*%
X178550000Y-77180000D03*
D30*
X178550000Y-79920000D03*
X181190000Y-77280000D03*
X181190000Y-79820000D03*
X183830000Y-77180000D03*
D31*
X183830000Y-79920000D03*
%TD*%
D32*
%TO.C,U205*%
X168800000Y-85880000D03*
X171340000Y-85880000D03*
X189120000Y-85880000D03*
X191660000Y-85880000D03*
X191660000Y-111280000D03*
D33*
X189120000Y-111280000D03*
D32*
X186580000Y-111280000D03*
D33*
X184040000Y-111280000D03*
D32*
X181500000Y-111280000D03*
X178960000Y-111280000D03*
X176420000Y-111280000D03*
D33*
X173880000Y-111280000D03*
X171340000Y-111280000D03*
D32*
X168800000Y-111280000D03*
%TD*%
D19*
%TO.C,JP107*%
X88870000Y-110800000D03*
X88870000Y-109500000D03*
%TD*%
D13*
%TO.C,J203*%
X187415000Y-77975000D03*
D14*
X188685000Y-77975000D03*
%TD*%
D13*
%TO.C,J209*%
X194440000Y-82880000D03*
D14*
X193170000Y-82880000D03*
X191900000Y-82880000D03*
X190630000Y-82880000D03*
%TD*%
D19*
%TO.C,JP104*%
X90490000Y-91380000D03*
X89190000Y-91380000D03*
%TD*%
D28*
%TO.C,D204*%
X192587500Y-114427500D03*
X190712500Y-114427500D03*
%TD*%
D29*
%TO.C,J104*%
X81150000Y-104075000D03*
D30*
X81150000Y-106615000D03*
D34*
X83690000Y-104075000D03*
D30*
X83690000Y-106615000D03*
X86230000Y-104075000D03*
X86230000Y-106615000D03*
X88770000Y-104075000D03*
X88770000Y-106615000D03*
%TD*%
D32*
%TO.C,J301*%
X202000000Y-96186000D03*
X208000000Y-96186000D03*
D35*
X205700000Y-92736000D03*
D36*
X201700000Y-99636000D03*
X208500000Y-99636000D03*
%TD*%
D13*
%TO.C,TP201*%
X154930000Y-81520000D03*
D14*
X153660000Y-81520000D03*
X152390000Y-81520000D03*
X151120000Y-81520000D03*
%TD*%
D37*
%TO.C,T901*%
X120510000Y-98590000D03*
D38*
X122380000Y-102210000D03*
X119060000Y-107200000D03*
X120860000Y-100950000D03*
X117740000Y-105800000D03*
X120570000Y-106110000D03*
X120520000Y-102830000D03*
%TD*%
D29*
%TO.C,J102*%
X81150000Y-85695000D03*
D30*
X81150000Y-88235000D03*
X83690000Y-85695000D03*
D34*
X83690000Y-88235000D03*
D30*
X86230000Y-85695000D03*
X86230000Y-88235000D03*
X88770000Y-85695000D03*
X88770000Y-88235000D03*
%TD*%
D39*
%TO.C,RV101*%
X108000000Y-79280000D03*
X105460000Y-81820000D03*
X102920000Y-79280000D03*
%TD*%
D40*
%TO.C,BT201*%
X145815000Y-90275000D03*
X145815000Y-82475000D03*
D41*
X122415000Y-82475000D03*
D42*
X122415000Y-90275000D03*
%TD*%
M02*
